<svg width="369" height="357" viewBox="0 0 369 357" fill="none" xmlns="http://www.w3.org/2000/svg">
<path d="M39.2526 222.751C39.1738 222.225 38.9922 221.72 38.7181 221.264C38.4441 220.808 38.0829 220.411 37.6553 220.094C37.2277 219.778 36.742 219.549 36.2259 219.421C35.7098 219.292 35.1734 219.267 34.6474 219.345C34.1215 219.424 33.6161 219.606 33.1603 219.88C32.7045 220.154 32.3072 220.515 31.9909 220.943C31.6747 221.37 31.4458 221.856 31.3173 222.372C31.1888 222.888 31.1632 223.425 31.2419 223.951L48.9995 332.288H57.097L39.2526 222.751Z" fill="#EBEBEB"/>
<path d="M32.923 224.086L106.092 143.703L106.629 144.587L110.172 150.459L38.929 229.516C38.5749 229.919 38.1442 230.247 37.662 230.482C37.1797 230.718 36.6556 230.854 36.1199 230.885C35.5843 230.916 35.0479 230.84 34.5419 230.662C34.0359 230.483 33.5704 230.206 33.1724 229.846C32.7744 229.487 32.4519 229.051 32.2236 228.566C31.9954 228.08 31.8659 227.554 31.8427 227.018C31.8195 226.482 31.903 225.947 32.0885 225.444C32.274 224.94 32.5576 224.479 32.923 224.086Z" fill="#EBEBEB"/>
<path d="M38.2982 226.148C38.3535 226.148 38.4245 225.982 38.3929 225.642C38.3397 225.155 38.0991 224.708 37.7221 224.395C37.4335 224.153 37.087 223.989 36.7164 223.92C36.3458 223.851 35.9636 223.879 35.607 224.001C35.1546 224.15 34.761 224.439 34.482 224.825C34.2029 225.211 34.0527 225.675 34.0527 226.151C34.0527 226.628 34.2029 227.092 34.482 227.478C34.761 227.864 35.1546 228.153 35.607 228.302C35.9641 228.425 36.347 228.452 36.7179 228.382C37.0889 228.311 37.435 228.145 37.7221 227.9C38.1 227.591 38.341 227.146 38.3929 226.661C38.3929 226.321 38.3929 226.148 38.2982 226.148C38.2035 226.148 38.1719 226.937 37.3669 227.442C37.1471 227.585 36.8963 227.673 36.6354 227.699C36.3745 227.725 36.1112 227.688 35.8674 227.592C35.5896 227.467 35.3537 227.265 35.1882 227.009C35.0227 226.754 34.9347 226.456 34.9347 226.151C34.9347 225.847 35.0227 225.549 35.1882 225.293C35.3537 225.038 35.5896 224.836 35.8674 224.711C36.1112 224.615 36.3745 224.578 36.6354 224.604C36.8963 224.63 37.1471 224.718 37.3669 224.861C38.1719 225.414 38.1719 226.195 38.2982 226.148Z" fill="#E9E9E9"/>
<path d="M37.1844 219.407C37.0976 219.336 36.261 220.109 34.9825 221.427C34.2079 222.192 33.4754 222.998 32.7884 223.842C32.3234 224.389 31.9802 225.029 31.7815 225.719C31.5829 226.409 31.5333 227.133 31.6362 227.844C31.8222 228.554 32.1971 229.2 32.721 229.714C33.2448 230.228 33.8982 230.591 34.6116 230.764C35.1745 230.916 35.7624 230.954 36.3401 230.874C36.9178 230.794 37.4734 230.598 37.9737 230.298C39.6152 229.264 40.1914 228.215 40.1361 228.175C40.0809 228.136 39.268 228.964 37.7053 229.754C36.8114 230.208 35.776 230.299 34.8168 230.006C34.2514 229.849 33.7363 229.549 33.3214 229.134C32.9065 228.719 32.606 228.204 32.4491 227.638C32.3753 227.04 32.4225 226.432 32.5879 225.852C32.7533 225.272 33.0335 224.73 33.4119 224.261C34.0907 223.306 34.8562 222.501 35.4245 221.782C36.5846 220.401 37.2634 219.486 37.1844 219.407Z" fill="#E9E9E9"/>
<path d="M89.2181 341.845H22.5996C22.5996 341.845 31.1075 331.246 53.2847 331.246C73.9387 331.246 86.2427 337.315 89.2181 341.845Z" fill="#E9E9E9"/>
<path d="M105.673 130.959L102.287 125.884L106.47 122.672L110.061 127.786L105.673 130.959Z" fill="#EBEBEB"/>
<path d="M99.9355 134.029L114.52 123.453L128.545 140.287C152.822 144.233 162.608 159.473 162.608 159.473L119.145 192.755C104.268 176.308 111.316 152.82 111.316 152.82L99.9355 134.029Z" fill="#BBDDED"/>
<path d="M111.285 152.819C111.419 153 115.389 150.349 120.14 146.892C124.892 143.435 128.648 140.475 128.514 140.294C128.38 140.112 124.418 142.764 119.659 146.221C114.9 149.678 111.183 152.637 111.285 152.819Z" fill="#E9E9E9"/>
<path d="M113.376 21.5859H27.6348V107.327H113.376V21.5859Z" fill="#EBEBEB"/>
<path d="M110.858 24.1133H30.1602V104.812H110.858V24.1133Z" fill="white"/>
<path d="M82.0916 52.8711H58.9199V76.0428H82.0916V52.8711Z" fill="#E9E9E9"/>
<path d="M116.992 21.6094H113.377V107.327H116.992V21.6094Z" fill="#E9E9E9"/>
<path d="M341.462 134.352H255.721V220.093H341.462V134.352Z" fill="#EBEBEB"/>
<path d="M338.938 136.879H258.239V217.577H338.938V136.879Z" fill="white"/>
<path d="M310.177 165.637H287.005V188.808H310.177V165.637Z" fill="#E9E9E9"/>
<path d="M345.077 134.375H341.462V220.093H345.077V134.375Z" fill="#E9E9E9"/>
<path d="M294.298 20.8813L283.193 20.9414L283.492 76.1864L294.597 76.1263L294.298 20.8813Z" fill="#E9E9E9"/>
<path d="M215.754 21.0202L187.003 21.1758L187.168 51.6789L215.919 51.5233L215.754 21.0202Z" fill="#EBEBEB"/>
<path d="M244.37 20.8757L215.619 21.0312L215.784 51.5344L244.535 51.3788L244.37 20.8757Z" fill="#BBDDED"/>
<path d="M187.045 29.6286C206.149 29.7865 225.272 29.6997 244.413 29.3682C244.495 29.3682 244.573 29.3358 244.631 29.2781C244.689 29.2203 244.721 29.142 244.721 29.0604C244.721 28.9788 244.689 28.9005 244.631 28.8428C244.573 28.785 244.495 28.7526 244.413 28.7526C225.306 28.65 206.144 28.7526 187.045 29.1078C186.976 29.1078 186.909 29.1352 186.86 29.184C186.812 29.2329 186.784 29.2991 186.784 29.3682C186.784 29.4373 186.812 29.5035 186.86 29.5524C186.909 29.6012 186.976 29.6286 187.045 29.6286Z" fill="#E9E9E9"/>
<path d="M221.313 51.0142L169.075 51.2969L169.21 76.1492L221.448 75.8666L221.313 51.0142Z" fill="#EBEBEB"/>
<path d="M273.305 50.7408L221.067 51.0234L221.202 75.8758L273.44 75.5931L273.305 50.7408Z" fill="#BBDDED"/>
<path d="M169.111 58.2225C203.837 58.6171 238.634 58.2225 273.336 57.7095C273.418 57.7095 273.496 57.6771 273.554 57.6194C273.612 57.5616 273.644 57.4834 273.644 57.4017C273.644 57.3201 273.612 57.2418 273.554 57.1841C273.496 57.1264 273.418 57.0939 273.336 57.0939C238.61 56.9124 203.806 56.9361 169.103 57.6937C169.041 57.7045 168.985 57.737 168.944 57.7854C168.903 57.8337 168.881 57.8949 168.881 57.9581C168.881 58.0213 168.903 58.0825 168.944 58.1309C168.985 58.1793 169.041 58.2117 169.103 58.2225H169.111Z" fill="#E9E9E9"/>
<path d="M351.959 76.1602H149.57V85.0626H351.959V76.1602Z" fill="#E9E9E9"/>
<path d="M190.928 80.4492H182.712V110.834H190.928V80.4492Z" fill="#E9E9E9"/>
<path d="M313.571 80.4492H305.355V110.834H313.571V80.4492Z" fill="#E9E9E9"/>
<path d="M305.13 0.268045L294.025 0.328125L294.437 76.3136L305.541 76.2535L305.13 0.268045Z" fill="#EBEBEB"/>
<path d="M322.476 14.4223L305.224 14.5156L305.557 76.0901L322.809 75.9967L322.476 14.4223Z" fill="#BBDDED"/>
<path d="M322.356 26.2999C322.356 26.4656 318.497 26.5998 313.73 26.5998C308.963 26.5998 305.104 26.4656 305.104 26.2999C305.104 26.1342 308.963 26 313.73 26C318.497 26 322.356 26.1342 322.356 26.2999Z" fill="#E9E9E9"/>
<path d="M322.356 23.7101C322.356 23.8758 318.497 24.01 313.73 24.01C308.963 24.01 305.104 23.8758 305.104 23.7101C305.104 23.5443 308.963 23.4102 313.73 23.4102C318.497 23.4102 322.356 23.5443 322.356 23.7101Z" fill="#E9E9E9"/>
<path d="M322.356 66.7218C322.356 66.8875 318.497 67.0217 313.73 67.0217C308.963 67.0217 305.104 66.8875 305.104 66.7218C305.104 66.556 308.963 66.4219 313.73 66.4219C318.497 66.4219 322.356 66.5797 322.356 66.7218Z" fill="#E9E9E9"/>
<path d="M322.356 64.1592C322.356 64.3249 318.497 64.4591 313.73 64.4591C308.963 64.4591 305.104 64.3249 305.104 64.1592C305.104 63.9935 308.963 63.8672 313.73 63.8672C318.497 63.8672 322.356 64.0014 322.356 64.1592Z" fill="#E9E9E9"/>
<path d="M314.015 58.5148C313.849 58.5148 313.723 52.3036 313.723 44.6402C313.723 36.9768 313.849 30.7656 314.015 30.7656C314.18 30.7656 314.315 36.9768 314.315 44.6402C314.315 52.3036 314.173 58.5148 314.015 58.5148Z" fill="#E9E9E9"/>
<path d="M341.321 29.5586H322.545V76.0361H341.321V29.5586Z" fill="#EBEBEB"/>
<path d="M302.601 13.2706C302.593 13.8932 302.401 14.4996 302.05 15.0136C301.698 15.5275 301.202 15.926 300.625 16.1589C300.047 16.3918 299.414 16.4487 298.804 16.3225C298.194 16.1962 297.635 15.8925 297.198 15.4495C296.76 15.0064 296.464 14.4439 296.345 13.8326C296.226 13.2214 296.291 12.5886 296.531 12.0141C296.771 11.4395 297.176 10.9488 297.694 10.6036C298.212 10.2585 298.821 10.0743 299.444 10.0742C299.862 10.0742 300.275 10.1571 300.661 10.3182C301.047 10.4794 301.396 10.7154 301.69 11.0128C301.984 11.3101 302.215 11.6628 302.372 12.0504C302.528 12.4379 302.606 12.8527 302.601 13.2706Z" fill="#E9E9E9"/>
<path d="M300.398 22.043H298.425V67.2419H300.398V22.043Z" fill="#E9E9E9"/>
<path d="M28.4736 305.809L33.7772 340.661H64.5886L71.739 306.314L28.4736 305.809Z" fill="#737373"/>
<path d="M67.4306 328.146C67.4306 328.249 59.5383 328.328 49.7993 328.328C40.0602 328.328 32.168 328.249 32.168 328.146C32.168 328.044 40.0602 327.965 49.7993 327.965C59.5383 327.965 67.4306 328.044 67.4306 328.146Z" fill="#BBF4FF"/>
<path d="M67.5501 326.432C67.5501 326.526 59.6026 326.613 49.8005 326.613C39.9983 326.613 32.0508 326.526 32.0508 326.432C32.0508 326.337 39.9983 326.25 49.8005 326.25C59.6026 326.25 67.5501 326.329 67.5501 326.432Z" fill="#BBF4FF"/>
<path d="M67.4955 324.498C67.4955 324.593 59.548 324.672 49.7459 324.672C39.9437 324.672 31.9883 324.593 31.9883 324.498C31.9883 324.403 39.9358 324.316 49.7459 324.316C59.5559 324.316 67.4955 324.395 67.4955 324.498Z" fill="#BBF4FF"/>
<path d="M37.3232 338.675C36.8894 337.241 36.5727 335.773 36.3761 334.287C36.062 332.821 35.864 331.333 35.7842 329.836C36.2225 331.269 36.5393 332.737 36.7313 334.224C37.0463 335.69 37.2443 337.178 37.3232 338.675Z" fill="#BBF4FF"/>
<path d="M39.4144 338.302C39.1962 336.883 39.0697 335.451 39.0356 334.016C38.8829 332.59 38.8144 331.157 38.8304 329.723C39.3927 332.545 39.589 335.429 39.4144 338.302Z" fill="#BBF4FF"/>
<path d="M43.2354 338.304C42.8221 336.87 42.5576 335.397 42.4461 333.908C42.213 332.437 42.1337 330.945 42.2094 329.457C42.6543 332.394 42.9992 335.344 43.2433 338.304H43.2354Z" fill="#BBF4FF"/>
<path d="M45.9196 338.485C45.6268 337.017 45.4841 335.523 45.4934 334.026C45.3888 332.531 45.4337 331.029 45.6276 329.543C45.789 331.026 45.8655 332.518 45.8564 334.01C45.9659 335.499 45.987 336.993 45.9196 338.485Z" fill="#BBF4FF"/>
<path d="M50.6603 338.301C50.436 336.899 50.3278 335.482 50.3368 334.062C50.2146 332.65 50.2146 331.229 50.3368 329.816C50.6731 332.631 50.7682 335.47 50.6209 338.301H50.6603Z" fill="#BBF4FF"/>
<path d="M54.1341 338.483C53.9104 335.569 53.9342 332.641 54.2051 329.73C54.4182 332.645 54.3944 335.572 54.1341 338.483Z" fill="#BBF4FF"/>
<path d="M57.3857 338.018C57.4507 334.96 57.7594 331.911 58.3091 328.902C58.3357 330.433 58.2486 331.963 58.0487 333.48C57.9447 335.007 57.7231 336.525 57.3857 338.018Z" fill="#BBF4FF"/>
<path d="M61.5752 337.562C61.5837 336.248 61.756 334.941 62.0882 333.671C62.3109 332.375 62.6982 331.112 63.2405 329.914C63.0473 331.206 62.7839 332.486 62.4512 333.75C62.233 335.036 61.9405 336.309 61.5752 337.562Z" fill="#BBF4FF"/>
<path d="M24.9463 298.914V305.433C24.9452 305.772 25.0114 306.107 25.1409 306.42C25.2704 306.732 25.4607 307.016 25.7008 307.255C25.9409 307.493 26.2259 307.682 26.5394 307.809C26.8529 307.937 27.1886 308.001 27.5271 307.998H72.1183C72.4558 307.999 72.7902 307.933 73.1023 307.805C73.4144 307.677 73.6981 307.488 73.9371 307.25C74.1761 307.011 74.3658 306.728 74.4952 306.416C74.6246 306.105 74.6912 305.771 74.6912 305.433V298.914H24.9463Z" fill="#737373"/>
<g opacity="0.4">
<path d="M28.8115 307.996L29.1825 310.072L70.3406 313.008L71.3902 307.996H28.8115Z" fill="black"/>
</g>
<path d="M31.6645 298.944C31.6645 298.944 14.3173 278.953 16.243 278.234C18.1687 277.516 33.6059 288.589 33.6059 288.589C33.6059 288.589 20.3548 258.962 23.0066 256.791C25.6584 254.621 39.6277 283.049 39.6277 283.049C39.6277 283.049 37.4574 241.622 39.6277 241.141C41.7981 240.659 49.7456 282.567 49.7456 282.567C49.7456 282.567 61.5366 244.298 64.9066 244.298C68.2766 244.298 61.292 281.155 61.292 281.155C61.292 281.155 75.2613 257.549 77.4316 260.682C79.602 263.815 67.5584 289.284 67.5584 289.284C67.5584 289.284 85.1424 274.588 85.8606 276.514C86.5788 278.44 66.8323 298.92 66.8323 298.92L31.6645 298.944Z" fill="#C4FFA9"/>
<path d="M29.2399 268.836C29.3583 268.781 32.3968 275.371 36.114 283.563C39.8313 291.755 42.6725 298.432 42.5462 298.487C42.4199 298.543 39.3893 291.945 35.68 283.761C31.9706 275.576 29.1057 268.884 29.2399 268.836Z" fill="#263238"/>
<path d="M43.2596 272.512C43.3859 272.512 43.8989 278.32 44.3961 285.494C44.8933 292.669 45.1853 298.509 45.0669 298.517C44.9485 298.525 44.4197 292.716 43.9225 285.534C43.4253 278.352 43.1254 272.528 43.2596 272.512Z" fill="#263238"/>
<path d="M62.5776 253.957C62.5671 254.119 62.5325 254.279 62.475 254.431C62.3803 254.786 62.254 255.22 62.0962 255.749C61.7331 256.956 61.2438 258.59 60.644 260.571C59.4207 264.651 57.7791 270.294 56.1059 276.56C54.4328 282.827 53.0437 288.549 52.073 292.692C51.6073 294.713 51.2127 296.37 50.9286 297.601C50.8023 298.138 50.6918 298.572 50.605 298.935C50.5757 299.094 50.5253 299.248 50.4551 299.393C50.4552 299.231 50.4737 299.069 50.5103 298.911L50.7471 297.562C50.9602 296.394 51.3074 294.705 51.7494 292.621C52.6333 288.454 53.9671 282.724 55.6482 276.442C57.3292 270.16 59.0182 264.525 60.3283 260.476C60.9754 258.448 61.5279 256.814 61.9067 255.685C62.0961 255.172 62.2461 254.746 62.3724 254.399C62.4237 254.244 62.4926 254.096 62.5776 253.957Z" fill="#263238"/>
<path d="M70.9354 275.313C71.0459 275.392 67.6601 280.443 63.3746 286.591C59.0891 292.739 55.5297 297.64 55.4271 297.593C55.3245 297.546 58.7024 292.471 62.9879 286.315C67.2734 280.159 70.8328 275.242 70.9354 275.313Z" fill="#263238"/>
<path d="M37.513 298.516C36.9607 298.227 36.4509 297.863 35.9977 297.435C34.8428 296.481 33.7415 295.464 32.6987 294.389C31.6529 293.316 30.665 292.188 29.7391 291.011C29.3154 290.537 28.9619 290.006 28.6895 289.432C28.7999 289.345 30.6073 291.532 33.0381 294.025C35.4689 296.519 37.6077 298.406 37.513 298.516Z" fill="#263238"/>
<path d="M48.0506 290.578C48.1847 290.578 48.4609 292.409 48.6661 294.698C48.8713 296.987 48.9424 298.857 48.8082 298.865C48.674 298.873 48.4057 297.034 48.1926 294.745C47.9928 293.366 47.9452 291.968 48.0506 290.578Z" fill="#263238"/>
<path d="M273.398 203.141C276.958 202.482 280.277 200.88 283.008 198.502C285.739 196.124 287.782 193.057 288.924 189.62C290.066 186.184 290.266 182.504 289.502 178.965C288.738 175.425 287.039 172.155 284.581 169.496C283.9 168.637 282.967 168.014 281.914 167.712C279.664 167.255 277.786 169.346 276.452 171.216L266.792 184.696" fill="#263238"/>
<path d="M270.463 188.594C278.506 182.872 283.651 171.791 284.535 161.965C285.419 152.139 279.082 133.687 274.875 124.761C269.753 113.894 267.638 129.426 263.968 131.328C261.782 132.456 260.551 134.926 260.274 137.373C259.998 139.82 260.511 142.274 261.064 144.681C264.221 159.313 267.377 173.951 270.534 188.594" fill="#263238"/>
<path d="M231.371 99.4986C215.278 94.2345 204.332 100.998 199.399 106.507C194.467 112.016 192.241 119.45 191.381 126.79C190.52 134.13 190.899 141.549 190.457 148.888C190.134 153.141 190.118 157.411 190.41 161.666C190.647 167.869 192.857 178.618 196.897 183.338C200.78 187.868 204.79 191.806 210.314 194.15C212.287 194.995 214.6 195.831 216.494 194.829C217.875 194.111 218.633 192.604 219.288 191.191C231.164 165.558 239.2 138.317 243.138 110.343" fill="#263238"/>
<path d="M250.755 113.538L223.488 107.84L216.945 109.773C201.95 112.425 194.499 130.759 196.512 142.921C198.745 156.432 202.036 172.833 205.88 182.382C213.67 201.623 229.557 200.629 229.557 200.629C229.557 200.629 230.346 206.154 231.388 212.854C231.831 215.724 232.851 218.474 234.386 220.939C235.921 223.404 237.939 225.532 240.319 227.196C242.699 228.86 245.391 230.024 248.233 230.619C251.075 231.215 254.009 231.228 256.856 230.659C262.36 229.558 267.215 226.35 270.386 221.718C273.556 217.086 274.79 211.399 273.824 205.87L258.687 119.213C258.313 117.447 257.292 115.884 255.824 114.834C254.356 113.784 252.547 113.321 250.755 113.538Z" fill="#FFDFCF"/>
<path d="M206.341 156.228C206.488 156.898 206.892 157.483 207.466 157.859C208.04 158.235 208.738 158.372 209.411 158.24C209.743 158.192 210.062 158.077 210.349 157.902C210.636 157.728 210.885 157.498 211.082 157.226C211.278 156.954 211.418 156.645 211.493 156.317C211.568 155.99 211.576 155.651 211.518 155.32C211.368 154.653 210.965 154.07 210.394 153.695C209.822 153.319 209.127 153.181 208.456 153.308C208.123 153.357 207.804 153.471 207.517 153.646C207.229 153.82 206.98 154.05 206.782 154.322C206.585 154.594 206.445 154.903 206.369 155.23C206.293 155.557 206.283 155.897 206.341 156.228Z" fill="#263238"/>
<path d="M203.072 148.848C203.466 149.109 205.076 147.222 207.807 146.599C210.538 145.975 212.906 146.875 213.127 146.473C213.245 146.291 212.779 145.762 211.745 145.32C210.363 144.771 208.844 144.661 207.397 145.005C205.963 145.333 204.67 146.107 203.703 147.214C203.032 148.067 202.882 148.738 203.072 148.848Z" fill="#263238"/>
<path d="M223.95 167.587C223.95 167.429 222.143 167.524 219.286 167.816C218.56 167.902 217.865 167.918 217.637 167.46C217.413 166.746 217.413 165.981 217.637 165.266C217.905 163.412 218.189 161.47 218.481 159.426C219.61 151.131 220.257 144.368 219.917 144.328C219.578 144.289 218.394 150.981 217.266 159.276C217.003 161.323 216.755 163.275 216.524 165.132C216.437 165.993 216.192 167.003 216.792 167.973C216.949 168.203 217.157 168.393 217.399 168.53C217.641 168.667 217.911 168.746 218.189 168.763C218.602 168.779 219.016 168.742 219.42 168.652C222.238 168.131 223.974 167.745 223.95 167.587Z" fill="#263238"/>
<path d="M229.572 200.646C239.013 198.621 247.705 194.011 254.678 187.332C254.678 187.332 250.731 202.825 230.322 205.571L229.572 200.646Z" fill="#FFD7C1"/>
<path d="M226.802 173.269C227.142 172.434 227.696 171.703 228.408 171.149C229.12 170.595 229.965 170.237 230.858 170.112C231.486 169.985 232.134 170.008 232.751 170.178C233.368 170.348 233.936 170.661 234.41 171.091C234.894 171.566 235.233 172.17 235.386 172.831C235.54 173.492 235.503 174.183 235.278 174.824C234.978 175.499 234.48 176.068 233.85 176.456C233.221 176.843 232.489 177.031 231.75 176.994C230.319 176.865 228.938 176.403 227.717 175.645C227.346 175.484 227.015 175.245 226.747 174.942C226.645 174.673 226.598 174.387 226.608 174.1C226.617 173.813 226.683 173.531 226.802 173.269Z" fill="#FFD7C1"/>
<path d="M232.5 167.617C232.05 167.696 232.736 170.687 230.661 173.402C228.585 176.117 225.333 176.559 225.404 176.954C225.404 177.151 226.249 177.364 227.606 177.096C229.364 176.713 230.932 175.724 232.034 174.302C233.091 172.936 233.575 171.212 233.384 169.496C233.21 168.217 232.728 167.554 232.5 167.617Z" fill="#263238"/>
<path d="M202.084 141.003C202.708 141.516 204.452 140.427 206.733 139.867C209.014 139.306 211.05 139.314 211.342 138.557C211.468 138.193 211.018 137.641 210.032 137.238C208.733 136.79 207.331 136.738 206.002 137.09C204.674 137.441 203.481 138.18 202.574 139.212C201.95 140.04 201.8 140.743 202.084 141.003Z" fill="#263238"/>
<path d="M236.107 150.595C236.241 151.266 236.109 151.963 235.737 152.538C235.366 153.112 234.785 153.52 234.118 153.673C233.794 153.763 233.456 153.787 233.123 153.744C232.79 153.701 232.469 153.592 232.179 153.422C231.889 153.253 231.636 153.027 231.435 152.759C231.234 152.49 231.089 152.183 231.008 151.857C230.874 151.186 231.006 150.489 231.378 149.915C231.749 149.34 232.33 148.933 232.997 148.779C233.321 148.689 233.659 148.665 233.992 148.708C234.325 148.751 234.646 148.861 234.936 149.03C235.226 149.199 235.479 149.425 235.68 149.694C235.881 149.962 236.026 150.269 236.107 150.595Z" fill="#263238"/>
<path d="M240.132 141.891C239.88 142.293 237.638 141.22 234.868 141.756C232.098 142.293 230.314 144.077 229.951 143.793C229.777 143.674 229.951 143.003 230.74 142.214C231.784 141.154 233.129 140.44 234.592 140.17C236.035 139.884 237.532 140.069 238.861 140.699C239.832 141.157 240.258 141.701 240.132 141.891Z" fill="#263238"/>
<path d="M237.341 133.28C236.978 134.006 234.973 133.714 232.605 134.124C230.238 134.535 228.43 135.363 227.87 134.795C227.61 134.511 227.791 133.816 228.533 133.059C229.539 132.124 230.8 131.509 232.155 131.291C233.511 131.073 234.901 131.263 236.149 131.835C237.104 132.333 237.467 132.932 237.341 133.28Z" fill="#263238"/>
<path d="M226.037 105.165C232.019 101.416 242.018 100.532 248.301 103.744C254.583 106.956 259.208 112.907 261.717 119.529C264.227 126.15 264.314 136.552 263.706 143.577C250.881 131.999 237.362 118.424 224.837 106.522L226.037 105.165Z" fill="#263238"/>
<path d="M220.018 99.9492C183.801 101.283 196.618 154.13 196.618 154.13C196.618 133.815 220.35 108.315 220.35 108.315L225.748 106.381L220.018 99.9492Z" fill="#263238"/>
<path d="M262.577 153.665C262.238 152.173 263.145 148.274 264.566 147.706C268.346 146.183 275.489 144.865 277.856 154.809C281.092 168.408 266.768 168.85 266.657 168.463C266.547 168.076 263.753 158.803 262.577 153.665Z" fill="#FFDFCF"/>
<path d="M267.757 162.66C267.812 162.597 268.033 162.763 268.475 162.858C269.097 162.96 269.735 162.822 270.259 162.471C271.569 161.603 272.24 159.03 271.719 156.567C271.477 155.393 270.976 154.287 270.251 153.332C270.022 152.937 269.7 152.604 269.314 152.36C268.928 152.117 268.488 151.971 268.033 151.935C267.744 151.927 267.461 152.022 267.234 152.202C267.007 152.383 266.852 152.637 266.794 152.921C266.699 153.34 266.849 153.592 266.794 153.632C266.739 153.671 266.447 153.474 266.423 152.89C266.416 152.535 266.533 152.189 266.755 151.911C267.062 151.537 267.504 151.298 267.986 151.248C268.57 151.228 269.15 151.358 269.671 151.624C270.191 151.891 270.636 152.285 270.961 152.771C271.816 153.812 272.407 155.044 272.682 156.362C273.25 159.125 272.453 162.021 270.622 163.063C270.282 163.256 269.904 163.369 269.514 163.395C269.125 163.421 268.734 163.359 268.373 163.213C267.86 163.008 267.717 162.692 267.757 162.66Z" fill="#FFD7C1"/>
<path d="M272.861 117.912C267.668 109.12 259.168 102.609 249.871 98.3946C244.883 96.1374 239.477 94.4484 234.007 94.7799C228.538 95.1114 222.998 97.6764 220.156 102.364L219.367 103.556C227.851 115.931 234.165 126.562 244.228 137.698C247.929 141.794 251.97 157.255 253.62 162.519C259.27 180.482 270.746 186.551 270.746 186.551C292.489 182.676 278.054 126.704 272.861 117.912Z" fill="#263238"/>
<path d="M282.271 198.295C282.2 198.248 282.823 197.262 283.454 195.502C283.822 194.478 284.087 193.421 284.244 192.345C284.399 191.034 284.399 189.709 284.244 188.399C283.924 185.988 283.098 183.672 281.821 181.603C280.826 180.025 280.029 179.165 280.092 179.109C280.308 179.279 280.504 179.472 280.676 179.686C281.186 180.234 281.65 180.822 282.065 181.445C284.249 184.667 285.152 188.587 284.599 192.439C284.429 193.541 284.138 194.621 283.731 195.659C283.58 196.058 283.406 196.448 283.21 196.827C283.075 197.12 282.92 197.402 282.744 197.672C282.613 197.899 282.454 198.108 282.271 198.295Z" fill="white"/>
<path d="M283.391 168.674C283.365 168.598 283.352 168.518 283.352 168.438L283.241 167.743C283.241 167.428 283.17 167.041 283.099 166.591L282.831 165.012C282.184 161.722 281.123 158.526 279.674 155.502C277.504 151.027 274.726 146.873 271.418 143.159C267.327 138.642 262.798 134.542 257.899 130.918C252.738 126.972 247.639 123.515 243.069 120.208C239.014 117.318 235.112 114.218 231.381 110.919C228.872 108.676 226.519 106.263 224.341 103.698C223.552 102.782 223.007 102.056 222.644 101.551L222.218 100.975C222.168 100.91 222.123 100.841 222.084 100.77C222.148 100.824 222.206 100.885 222.258 100.951C222.368 101.093 222.518 101.275 222.707 101.496C223.094 101.993 223.694 102.695 224.467 103.595C226.68 106.113 229.053 108.485 231.57 110.698C235.329 113.96 239.248 117.031 243.314 119.9C247.876 123.191 252.998 126.656 258.175 130.594C263.092 134.235 267.632 138.36 271.726 142.906C275.04 146.657 277.811 150.855 279.958 155.376C281.385 158.432 282.406 161.661 282.996 164.981C283.083 165.573 283.162 166.094 283.225 166.559C283.288 167.025 283.304 167.404 283.328 167.712C283.352 168.019 283.367 168.24 283.383 168.43C283.397 168.511 283.4 168.593 283.391 168.674Z" fill="white"/>
<path d="M274.134 124.645C273.811 123.981 273.425 123.349 272.981 122.759C272.412 122.086 271.75 121.496 271.016 121.007C270.029 120.359 268.97 119.829 267.859 119.428C265.436 118.473 262.335 117.85 259.028 116.863C255.721 115.877 252.059 114.693 248.326 113.249C241.936 110.785 235.748 107.827 229.819 104.402C227.546 103.076 225.746 101.947 224.523 101.142L223.118 100.195C222.949 100.093 222.79 99.9736 222.645 99.8398C222.826 99.92 223 100.015 223.165 100.124L224.602 101.008C225.857 101.797 227.68 102.863 229.961 104.165C235.916 107.494 242.101 110.396 248.468 112.846C252.201 114.291 255.816 115.498 259.138 116.485C262.461 117.471 265.515 118.142 267.97 119.144C269.084 119.57 270.143 120.127 271.127 120.802C271.867 121.317 272.527 121.939 273.084 122.648C273.283 122.898 273.462 123.161 273.621 123.438C273.747 123.641 273.855 123.855 273.944 124.077C274.027 124.259 274.09 124.45 274.134 124.645Z" fill="#FCDA2A"/>
<path d="M212.251 193.734L211.983 193.64L211.194 193.324C210.192 192.912 209.214 192.443 208.266 191.919C206.774 191.081 205.352 190.126 204.012 189.062C202.222 187.656 200.582 186.07 199.119 184.327C195.282 179.795 192.594 174.405 191.282 168.613C189.76 161.495 190.081 154.106 192.213 147.146C193.28 143.549 194.76 140.088 196.625 136.831C198.391 133.826 200.366 130.949 202.536 128.221C204.58 125.601 206.616 123.178 208.495 120.897C210.373 118.616 212.078 116.461 213.569 114.449C215.952 111.282 217.975 107.859 219.599 104.244C219.867 103.597 220.136 103.037 220.317 102.524C220.499 102.011 220.641 101.592 220.767 101.237L221.051 100.448C221.079 100.355 221.116 100.265 221.162 100.18C221.15 100.277 221.126 100.372 221.091 100.464L220.846 101.253C220.735 101.616 220.593 102.042 220.436 102.555C220.278 103.068 220.009 103.644 219.749 104.299C218.17 107.96 216.17 111.424 213.79 114.623C212.307 116.659 210.633 118.829 208.739 121.118C206.845 123.407 204.856 125.853 202.82 128.458C200.671 131.18 198.712 134.046 196.956 137.037C195.112 140.277 193.647 143.72 192.592 147.296C190.503 154.186 190.193 161.493 191.692 168.535C192.972 174.278 195.611 179.632 199.387 184.145C201.922 187.191 204.966 189.773 208.384 191.777C209.615 192.456 210.578 192.961 211.265 193.245L212.054 193.6C212.123 193.639 212.189 193.684 212.251 193.734Z" fill="#FCDA2A"/>
<path d="M284.195 164.625C284.179 164.956 284.129 165.284 284.045 165.604C283.934 166.235 283.721 167.135 283.437 168.24C282.702 171.133 281.643 173.934 280.28 176.59C279.514 178.046 278.629 179.437 277.636 180.749C276.819 181.813 275.925 182.815 274.961 183.748C274.318 184.382 273.641 184.98 272.932 185.539C272.692 185.76 272.427 185.954 272.143 186.116C272.096 186.06 273.201 185.176 274.779 183.543C275.698 182.587 276.56 181.578 277.36 180.52C278.32 179.209 279.183 177.83 279.941 176.392C281.288 173.761 282.374 171.004 283.184 168.161C283.476 167.127 283.721 166.259 283.91 165.564C283.97 165.242 284.066 164.927 284.195 164.625Z" fill="#FCDA2A"/>
<path d="M355.732 340.212L344.462 268.661C344.462 268.661 330.035 212.357 318.418 205.286C306.8 198.214 276.297 199.312 276.297 199.312L273.866 204.449C272.125 208.143 269.486 211.342 266.191 213.755C262.897 216.167 259.051 217.717 255.004 218.262C250.957 218.808 246.837 218.331 243.022 216.877C239.206 215.422 235.815 213.035 233.158 209.934L220.625 213.012C209.994 215.573 200.747 222.108 194.786 231.275C194.58 231.591 186.223 242.782 186.025 243.114C181.661 250.264 139.879 300.08 139.879 300.08C139.879 300.08 109.47 285.59 108.168 285.795C106.866 286 94.9092 300.695 94.9092 300.695C94.9092 300.695 132.547 339.833 148.49 337.978C164.432 336.124 181.953 309.803 181.953 309.803L214.453 278.613C219.031 295.85 233.844 340.307 233.844 340.307L355.732 340.212Z" fill="#40A6FF"/>
<g opacity="0.3">
<path d="M172.406 311.255C169.099 307.53 164.45 305.32 159.857 303.403C143.552 296.584 126.339 292.259 109.205 287.957C108.697 287.776 108.148 287.752 107.626 287.886C106.537 288.305 106.49 289.812 106.671 290.972L106.845 292.125L106.056 293.79C115.954 306.216 128.647 316.13 143.102 322.723C147.159 324.578 151.483 326.195 155.935 325.967C161.128 325.706 165.832 322.991 170.299 320.339C172.043 319.313 173.953 318.043 174.308 316.054C174.631 314.294 173.598 312.581 172.406 311.255Z" fill="black"/>
</g>
<path d="M207.23 244.797C207.281 244.969 207.313 245.146 207.325 245.326C207.372 245.72 207.443 246.225 207.522 246.849C207.601 247.472 207.727 248.317 207.869 249.217C208.011 250.116 208.185 251.221 208.398 252.373C209.235 257.069 210.766 263.486 212.557 270.526C214.349 277.566 216.109 283.942 217.245 288.583C217.814 290.903 218.24 292.782 218.516 294.108C218.642 294.731 218.745 295.228 218.816 295.615C218.865 295.787 218.891 295.965 218.895 296.144C218.825 295.978 218.773 295.807 218.737 295.631C218.642 295.252 218.516 294.755 218.358 294.147C218.042 292.845 217.569 290.99 216.961 288.67C215.722 284.013 214.025 277.621 212.163 270.644C210.3 263.667 208.88 257.14 208.114 252.421C207.917 251.245 207.751 250.179 207.64 249.264C207.53 248.348 207.404 247.512 207.364 246.849C207.325 246.186 207.277 245.704 207.246 245.31C207.223 245.14 207.218 244.968 207.23 244.797Z" fill="#263238"/>
<path d="M276.641 297.176C276.239 297.188 275.837 297.159 275.441 297.09C275.052 297.058 274.586 296.995 274.044 296.9C273.5 296.798 272.876 296.711 272.205 296.545C270.617 296.197 269.054 295.743 267.525 295.188C265.653 294.5 263.833 293.677 262.08 292.725C260.339 291.753 258.67 290.659 257.084 289.45C255.798 288.451 254.577 287.37 253.43 286.214C252.933 285.741 252.522 285.259 252.151 284.857C251.78 284.454 251.472 284.067 251.236 283.775C250.969 283.475 250.731 283.15 250.525 282.805C250.826 283.072 251.106 283.363 251.362 283.673C251.615 283.957 251.93 284.312 252.317 284.699C252.704 285.086 253.106 285.551 253.635 286.009C254.798 287.133 256.026 288.187 257.313 289.166C260.466 291.552 263.949 293.468 267.652 294.856C269.161 295.424 270.702 295.901 272.269 296.285C272.932 296.474 273.547 296.577 274.084 296.695C274.62 296.813 275.086 296.9 275.465 296.955C275.862 296.998 276.255 297.071 276.641 297.176Z" fill="#263238"/>
<path d="M276.65 195.074C278.512 192.864 277.668 190.907 276.586 190.054C274.803 188.626 272.64 189.139 271.062 190.425C266.137 194.371 260.463 197.844 255.427 201.64C250.392 205.436 243.715 208.222 237.843 205.91C236.517 205.389 235.278 204.616 233.897 204.205C233.225 203.953 232.501 203.869 231.789 203.96C231.076 204.051 230.397 204.314 229.809 204.726C228.712 205.642 228.538 209.193 229.754 209.943C232.003 215.791 237.409 220.14 243.455 221.781C249.5 223.423 256.082 222.523 261.796 219.99C267.51 217.456 272.459 213.36 276.634 208.696C278.136 207.205 279.273 205.387 279.956 203.384C280.738 200.567 276.65 195.074 276.65 195.074Z" fill="#40A6FF"/>
<path d="M278.204 193.273C278.111 193.436 278 193.587 277.872 193.723C277.635 194.015 277.304 194.441 276.846 194.978C275.947 196.052 274.589 197.575 272.813 199.358C270.735 201.448 268.503 203.379 266.136 205.135C263.235 207.296 260.078 209.09 256.737 210.479C249.571 213.391 242.333 213.675 237.409 212.649C235.45 212.283 233.546 211.67 231.742 210.826C231.249 210.59 230.769 210.327 230.306 210.037C230.137 209.953 229.976 209.855 229.824 209.745C229.824 209.705 230.527 210.084 231.805 210.644C233.619 211.426 235.518 211.993 237.464 212.333C242.341 213.272 249.5 212.949 256.579 210.068C259.888 208.701 263.022 206.944 265.915 204.836C268.28 203.101 270.519 201.202 272.616 199.153C274.408 197.409 275.773 195.917 276.728 194.876L277.809 193.684C277.923 193.531 278.055 193.393 278.204 193.273Z" fill="#263238"/>
<path d="M276.8 204.2C276.744 204.32 276.675 204.434 276.594 204.539C276.413 204.784 276.2 205.092 275.939 205.455C275.363 206.244 274.495 207.372 273.374 208.73C267.521 215.781 260.597 221.869 252.855 226.772C251.371 227.703 250.14 228.429 249.279 228.887L248.285 229.423C248.048 229.542 247.93 229.597 247.922 229.581C248.019 229.494 248.124 229.417 248.238 229.352L249.2 228.753C250.037 228.247 251.237 227.49 252.697 226.527C260.322 221.51 267.212 215.457 273.169 208.54C274.314 207.215 275.213 206.125 275.821 205.384C276.113 205.036 276.35 204.744 276.539 204.508C276.729 204.271 276.784 204.192 276.8 204.2Z" fill="#263238"/>
<g opacity="0.3">
<path d="M301.46 256.391C302.651 267.527 303.038 278.023 304.245 289.151C304.403 290.682 304.553 292.308 303.827 293.674C302.762 295.67 300.268 296.318 298.058 296.775C292.091 297.999 285.92 299.845 279.953 301.069C289.124 300.887 298.563 299.845 307.734 299.672C308.444 299.672 310.512 299.545 310.512 299.545C310.512 299.545 309.975 296.649 309.825 295.954C306.779 282.143 304.498 270.202 301.46 256.391Z" fill="black"/>
</g>
<g opacity="0.3">
<path d="M214.824 279.687C207.2 270.359 204.683 257.486 207.232 245.703C208.889 258.331 211.967 269.475 214.824 279.687Z" fill="black"/>
</g>
<g opacity="0.3">
<path d="M238.826 282.464C241.325 280.256 243.171 277.406 244.163 274.222C245.155 271.038 245.256 267.643 244.453 264.407C243.593 261.131 241.817 258.148 241.115 254.833C240.373 251.345 240.87 247.73 241.036 244.171C241.202 240.612 240.973 236.823 239 233.848C237.911 232.206 236.309 230.825 235.803 228.923C235.298 227.021 235.938 225.237 236.064 223.399C236.163 221.696 235.857 219.995 235.171 218.433C234.485 216.872 233.438 215.496 232.118 214.417C231.329 213.794 230.153 213.289 229.395 213.944C229.18 214.187 229.016 214.471 228.911 214.779C228.807 215.086 228.765 215.411 228.787 215.735C227.832 232.309 226.94 249.356 232.497 264.975C234.62 270.949 237.682 276.687 238.447 282.977" fill="black"/>
</g>
<g opacity="0.3">
<path d="M256.184 210.567C248.189 213.827 238.379 214.276 229.997 209.873L230.881 211.127C234.74 214.995 240.525 216.486 245.971 216.092C251.417 215.697 256.61 213.613 261.487 211.159C264.968 209.535 268.191 207.407 271.053 204.845C273.932 202.271 275.896 198.831 276.648 195.043C270.934 201.546 264.171 207.308 256.184 210.567Z" fill="black"/>
</g>
<path d="M296.359 200.102C296.359 200.102 300.392 215.57 300.676 229.721C300.96 243.872 310.518 299.544 310.518 299.544L260.252 302.046L257.048 330.837C257.048 330.837 314.022 343.204 330.446 342.352C346.87 341.499 353.617 328.745 351.637 309.804C351.637 309.804 339.956 239.176 333.405 222.555C327.439 207.481 316.737 201.759 296.359 200.102Z" fill="#40A6FF"/>
<path d="M333.401 222.531C333.401 222.531 333.512 222.8 333.701 223.32L334.553 225.688C335.224 227.811 336.132 230.968 337.182 235.08C339.273 243.296 341.846 255.292 344.703 270.169C346.131 277.611 347.639 285.764 349.194 294.54C349.951 298.928 350.74 303.461 351.561 308.139C351.656 308.723 351.782 309.314 351.845 309.914C351.908 310.514 351.94 311.106 351.987 311.714C352.035 312.321 352.098 312.921 352.106 313.529C352.114 314.137 352.106 314.744 352.106 315.36C352.144 317.842 351.983 320.323 351.624 322.779C351.498 323.394 351.38 324.018 351.253 324.633L351.111 325.588L350.843 326.512C350.654 327.119 350.488 327.735 350.291 328.343L349.557 330.134C348.518 332.543 347.041 334.737 345.2 336.606C343.267 338.464 340.988 339.922 338.492 340.899C335.929 341.821 333.247 342.369 330.528 342.525C325.043 342.691 319.479 342.028 313.955 341.325C308.43 340.623 302.716 339.747 297.026 338.753C283.167 336.385 269.774 333.717 257.059 331.01H256.886V330.829C258.006 320.813 259.08 311.193 260.106 302.046V301.888H260.264L310.529 299.425L310.395 299.591C307.444 285.188 305.06 273.547 303.411 265.544C302.621 261.543 301.966 258.441 301.54 256.318C301.327 255.276 301.169 254.471 301.067 253.95C300.964 253.429 300.917 253.161 300.917 253.161C300.917 253.161 300.988 253.437 301.106 253.95C301.224 254.463 301.39 255.292 301.619 256.318C302.061 258.433 302.716 261.535 303.568 265.528C305.242 273.547 307.665 285.156 310.671 299.552V299.717H310.506L260.248 302.267L260.421 302.101C259.403 311.256 258.338 320.877 257.225 330.892L257.075 330.671C269.782 333.378 283.175 336.038 297.018 338.397C302.716 339.376 308.351 340.252 313.931 340.978C319.511 341.704 325.067 342.312 330.473 342.162C333.15 342.015 335.792 341.484 338.318 340.584C340.763 339.628 342.997 338.201 344.892 336.385C346.697 334.547 348.149 332.393 349.178 330.032C349.415 329.448 349.651 328.856 349.896 328.272C350.141 327.688 350.259 327.064 350.441 326.456L350.709 325.557L350.898 324.633C351.017 324.018 351.143 323.41 351.261 322.794C351.618 320.359 351.784 317.9 351.759 315.439C351.759 314.831 351.759 314.223 351.719 313.624C351.68 313.024 351.64 312.416 351.601 311.824L351.467 310.041C351.403 309.449 351.285 308.865 351.19 308.281C350.401 303.608 349.612 299.062 348.823 294.674C347.292 285.906 345.8 277.745 344.387 270.303C341.562 255.418 339.036 243.422 337 235.198C335.998 231.086 335.09 227.922 334.443 225.791C334.088 224.741 333.819 223.936 333.654 223.384C333.488 222.831 333.401 222.531 333.401 222.531Z" fill="#263238"/>
<path d="M326.534 316.116C326.471 316.116 325.848 314.98 324.672 313.212C323.143 310.901 321.393 308.745 319.447 306.772C317.495 304.803 315.36 303.025 313.07 301.461C311.31 300.269 310.15 299.63 310.189 299.566C310.484 299.664 310.768 299.793 311.034 299.953C311.571 300.221 312.32 300.648 313.228 301.224C317.965 304.241 321.96 308.287 324.916 313.062C325.477 313.97 325.903 314.735 326.163 315.272C326.326 315.535 326.451 315.819 326.534 316.116Z" fill="#263238"/>
<path d="M310.398 208.785C310.077 209.116 309.734 209.424 309.372 209.709C308.952 210.049 308.552 210.413 308.172 210.798C307.73 211.24 307.185 211.713 306.672 212.321L305.844 213.244C305.552 213.568 305.291 213.931 304.999 214.294C304.407 215.012 303.863 215.872 303.279 216.717C300.822 220.548 299.191 224.848 298.488 229.344C298.354 230.386 298.196 231.365 298.172 232.296C298.172 232.762 298.101 233.212 298.101 233.646C298.101 234.08 298.101 234.49 298.101 234.885C298.101 235.674 298.18 236.392 298.22 237.024C298.248 237.553 298.306 238.08 298.393 238.602C298.478 239.058 298.531 239.52 298.551 239.983C298.406 239.544 298.301 239.092 298.236 238.634C298.122 238.113 298.04 237.586 297.991 237.055C297.895 236.343 297.837 235.627 297.817 234.909C297.817 234.506 297.817 234.119 297.778 233.646C297.738 233.172 297.778 232.762 297.825 232.288C297.825 231.349 297.983 230.347 298.101 229.297C298.769 224.734 300.423 220.371 302.947 216.512C303.555 215.644 304.107 214.799 304.723 214.089C305.023 213.726 305.299 213.355 305.591 213.039L306.451 212.124C306.988 211.524 307.548 211.058 308.03 210.624C308.425 210.248 308.844 209.897 309.285 209.574C309.633 209.281 310.006 209.017 310.398 208.785Z" fill="#263238"/>
<path d="M237.533 239.075C236.697 236.747 234.66 234.908 234.242 232.477C233.919 230.583 234.637 228.681 234.81 226.771C235.173 222.738 233.058 217.245 231.614 213.465C230.107 209.519 227.139 207.616 230.091 204.199L229.823 202.7C224.298 201.91 218.308 207.198 218.363 212.802C216.373 213.638 214.65 215.002 213.379 216.746C212.109 218.491 211.339 220.549 211.154 222.7C210.969 224.85 211.375 227.01 212.328 228.946C213.282 230.882 214.746 232.521 216.564 233.685C215.885 238.893 215.238 244.371 217.219 249.232C219.2 254.094 224.795 257.914 229.696 256.028C233.043 254.749 235.039 251.347 236.428 248.049C237.628 245.199 238.583 241.979 237.533 239.075Z" fill="#263238"/>
<path d="M229.06 212.635C225.304 211.276 221.164 211.452 217.537 213.124C217.991 212.743 218.509 212.446 219.068 212.248C220.393 211.702 221.804 211.392 223.235 211.333C224.665 211.268 226.094 211.458 227.458 211.893C228.032 212.041 228.575 212.292 229.06 212.635Z" fill="#FCDA2A"/>
<path d="M230.622 235.903C230.476 236.026 230.31 236.124 230.133 236.195C229.668 236.426 229.185 236.616 228.688 236.763C227.039 237.255 225.307 237.41 223.596 237.22C221.885 237.031 220.23 236.499 218.728 235.658C218.273 235.411 217.842 235.12 217.442 234.79C217.158 234.561 217.016 234.419 217.031 234.395C217.047 234.372 217.718 234.829 218.862 235.406C221.882 236.906 225.335 237.289 228.609 236.487C229.856 236.171 230.59 235.84 230.622 235.903Z" fill="#FCDA2A"/>
<path d="M233.299 232.397C233.228 232.437 232.51 231.15 231.184 229.24C230.379 228.14 229.512 227.086 228.587 226.084C227.44 224.868 226.214 223.729 224.917 222.674C223.607 221.641 222.228 220.697 220.79 219.849C219.605 219.169 218.382 218.558 217.128 218.018C214.981 217.102 213.576 216.723 213.6 216.652C213.941 216.684 214.278 216.755 214.602 216.865C214.918 216.944 215.305 217.055 215.747 217.213C216.189 217.371 216.702 217.52 217.238 217.749C218.523 218.252 219.77 218.846 220.971 219.525C222.443 220.361 223.85 221.309 225.178 222.358C226.49 223.421 227.722 224.579 228.864 225.823C229.786 226.85 230.641 227.936 231.421 229.075C231.768 229.556 232.028 230.014 232.273 230.416C232.518 230.819 232.715 231.166 232.865 231.458C233.04 231.756 233.186 232.071 233.299 232.397Z" fill="#FCDA2A"/>
<path d="M228.508 209.383C228.405 209.446 227.584 208.168 226.179 207.015C224.775 205.863 223.378 205.224 223.425 205.105C224.555 205.348 225.597 205.894 226.44 206.684C227.365 207.376 228.08 208.31 228.508 209.383Z" fill="#FCDA2A"/>
<path d="M233.89 238.562C233.89 238.618 232.896 239.154 231.333 240.141C229.308 241.46 227.41 242.966 225.667 244.64C223.937 246.326 222.375 248.176 221.002 250.164C219.945 251.687 219.384 252.698 219.321 252.658C219.401 252.398 219.512 252.149 219.653 251.916C219.882 251.451 220.26 250.788 220.758 249.998C222.078 247.944 223.63 246.048 225.383 244.348C227.136 242.643 229.083 241.149 231.183 239.896C231.973 239.423 232.659 239.068 233.133 238.847C233.369 238.713 233.625 238.617 233.89 238.562Z" fill="white"/>
<path d="M220.03 233.011C220.002 232.749 220.002 232.484 220.03 232.222C220.05 231.49 220.116 230.76 220.228 230.036C220.968 225.21 223.194 220.735 226.597 217.234C227.106 216.708 227.65 216.215 228.223 215.759C228.419 215.575 228.64 215.418 228.878 215.293C228.925 215.348 228.088 216.082 226.81 217.432C223.576 220.974 221.39 225.346 220.496 230.059C220.157 231.867 220.102 233.011 220.03 233.011Z" fill="white"/>
<path d="M230.93 251.171C230.59 250.554 230.284 249.919 230.015 249.269C228.519 246.23 226.29 243.612 223.527 241.653C222.47 240.864 221.759 240.501 221.791 240.445C222.467 240.669 223.106 240.994 223.685 241.408C225.133 242.341 226.437 243.482 227.552 244.794C228.671 246.103 229.589 247.571 230.275 249.15C230.59 249.789 230.811 250.469 230.93 251.171Z" fill="#FCDA2A"/>
<path d="M238.104 259.403C236.691 257.161 234.694 254.944 232.058 254.715L223.677 257.485C222.454 259.142 221.704 261.1 221.506 263.151C221.309 265.201 221.672 267.266 222.556 269.126C223.645 271.064 224.97 272.858 226.502 274.469C227.938 276.174 229.319 278.021 229.848 280.183C230.377 282.346 229.848 284.918 228.073 286.229C230.204 285.412 232.018 283.935 233.25 282.014C233.502 283.797 233.131 285.611 232.2 287.152C237.377 285.424 241.008 280.341 241.844 274.951C242.681 269.56 241.024 264.028 238.104 259.403Z" fill="#263238"/>
<path d="M237.135 251.797C237.019 251.457 236.824 251.151 236.564 250.903C236.304 250.656 235.988 250.475 235.643 250.377C234.585 250.148 233.654 251.032 232.833 251.742C231.346 252.997 229.586 253.887 227.694 254.342C225.802 254.797 223.829 254.804 221.934 254.362H221.792C221.41 254.602 221.095 254.937 220.88 255.333C220.664 255.73 220.554 256.176 220.561 256.627C220.694 257.396 221.083 258.097 221.666 258.616C222.988 259.828 224.703 260.52 226.496 260.566C228.275 260.6 230.043 260.281 231.697 259.626C233.399 259.085 234.931 258.108 236.14 256.793C236.739 256.126 237.147 255.31 237.322 254.431C237.497 253.552 237.432 252.643 237.135 251.797Z" fill="#FCDA2A"/>
<path d="M72.4561 234.742L77.2782 263.944L119.825 304.896L156.035 323.798L213.885 307.73L215.124 301.013L183.8 279.815L148.482 249.587C148.482 249.587 136.92 216.14 132.895 208.848L72.4561 234.742Z" fill="white"/>
<path d="M72.4561 234.74C72.4561 234.74 72.8033 234.574 73.5057 234.267L76.6626 232.909L88.6746 227.724L132.871 208.712L133.005 208.656L133.069 208.775C134.584 211.687 135.839 214.812 137.133 218.024C138.427 221.236 139.682 224.567 140.953 227.984C143.494 234.824 146.078 242.006 148.703 249.53L148.648 249.451L183.966 279.671L215.29 300.838L215.401 300.917V301.051C215.322 301.453 215.243 301.895 215.164 302.337C214.824 304.153 214.485 305.968 214.154 307.759V307.886L214.035 307.925L156.185 323.986H156.114H156.043L119.841 305.044L77.2072 264.028C75.684 254.676 74.5002 247.368 73.6873 242.396C73.2926 239.925 72.9848 238.031 72.7796 236.753C72.6849 236.121 72.606 235.64 72.5587 235.316C72.5113 234.993 72.4876 234.835 72.4876 234.835L72.5823 235.324C72.6376 235.664 72.7244 236.113 72.8349 236.776C73.048 238.063 73.3716 239.933 73.7977 242.435C74.587 247.391 75.8497 254.668 77.4203 263.989V263.926C88.1222 274.186 102.675 288.163 120.038 304.831H119.999L156.224 323.717H156.082L213.925 307.633L213.775 307.791C214.106 305.991 214.446 304.184 214.777 302.361C214.864 301.927 214.943 301.485 215.022 301.075L215.109 301.28L183.697 279.971L148.395 249.728H148.356V249.68C145.751 242.162 143.179 234.977 140.637 228.126C139.374 224.712 138.109 221.392 136.841 218.166C135.555 214.962 134.3 211.853 132.808 208.948L132.998 209.011L88.8483 227.85L76.7494 232.996L73.5925 234.33L72.4561 234.74Z" fill="#263238"/>
<path d="M148.486 249.578C148.32 249.702 148.143 249.81 147.957 249.902L146.379 250.762C145.013 251.504 143.032 252.546 140.562 253.816C135.629 256.358 128.724 259.751 121.044 263.232C113.365 266.712 106.231 269.601 101.038 271.558C98.4489 272.537 96.3417 273.31 94.8737 273.807L93.1769 274.383C92.9851 274.459 92.787 274.517 92.585 274.557C92.7688 274.461 92.9586 274.376 93.1532 274.305L94.8185 273.657L100.935 271.29C106.089 269.261 113.168 266.333 120.879 262.861C128.589 259.388 135.471 256.026 140.436 253.556L146.3 250.62L147.878 249.831C148.072 249.726 148.275 249.641 148.486 249.578Z" fill="#263238"/>
<path d="M183.253 279.646C183.293 279.749 169.126 285.479 151.613 292.447C134.1 299.416 119.871 304.964 119.823 304.862C119.776 304.759 133.943 299.03 151.463 292.061C168.984 285.092 183.214 279.536 183.253 279.646Z" fill="#263238"/>
<path d="M82.7767 268.9C82.7767 268.9 85.5311 267.929 86.0993 266.335C86.6676 264.741 86.5571 263.478 86.0993 262.909C85.6416 262.341 77.6546 259.027 76.8575 258.798C76.0604 258.569 69.2099 258.008 68.8705 262.112C68.7701 263.922 69.3311 265.706 70.449 267.132C70.449 267.132 67.8209 272.151 67.8209 273.406C67.8209 274.661 69.0757 276.603 68.9652 277.629C68.8548 278.655 66.5976 281.164 67.3868 283.224C68.176 285.284 69.0915 285.592 69.0915 287.099C69.0915 288.607 68.5233 289.727 69.0915 290.635C69.6598 291.543 73.3139 296.231 76.1946 296.799C79.0752 297.367 92.8551 299.309 92.8551 299.309L94.9071 300.682C94.9071 300.682 100.96 302.505 104.157 297.146C107.353 291.787 106.777 292.119 106.777 292.119L96.375 282.182C96.375 282.182 97.622 279.815 96.162 278.52C95.411 277.998 94.5541 277.648 93.6522 277.494C93.6522 277.494 94.5677 274.069 92.863 272.925C91.1583 271.78 82.7767 268.9 82.7767 268.9Z" fill="#FFDFCF"/>
<path d="M71.373 285.695C71.4846 285.638 71.6044 285.598 71.7282 285.577C71.965 285.514 72.3201 285.419 72.77 285.325C73.6855 285.119 75.0114 284.867 76.6687 284.638C80.9968 284.04 85.3786 283.935 89.7304 284.322H89.8251L89.8725 284.393C89.957 284.499 90.031 284.613 90.0935 284.733C90.2514 285.075 90.3332 285.448 90.3332 285.826C90.3332 286.203 90.2514 286.576 90.0935 286.919C89.8009 287.564 89.3299 288.111 88.736 288.497C87.6364 289.137 86.4757 289.666 85.2713 290.076L79.5179 292.349L79.5968 292.222C79.5389 293.43 79.0323 294.573 78.1762 295.427C77.9534 295.65 77.7073 295.848 77.4422 296.019C77.2528 296.129 77.1502 296.176 77.1423 296.161C77.4732 295.905 77.7844 295.626 78.0736 295.324C78.8462 294.468 79.2908 293.367 79.3284 292.214V292.128H79.4152L85.1371 289.76C86.3085 289.343 87.4371 288.815 88.5071 288.182C89.0399 287.833 89.4595 287.336 89.7146 286.753C89.8472 286.465 89.9158 286.151 89.9158 285.834C89.9158 285.516 89.8472 285.203 89.7146 284.914C89.6632 284.818 89.6052 284.726 89.541 284.638L89.6831 284.717C85.3551 284.336 80.9996 284.4 76.6845 284.906C75.035 285.104 73.7013 285.309 72.7858 285.467C72.3209 285.576 71.8488 285.653 71.373 285.695Z" fill="#FFD7C1"/>
<path d="M93.725 277.486C93.725 277.486 93.725 277.573 93.6382 277.723C93.5181 277.934 93.3506 278.115 93.1489 278.251C92.8295 278.476 92.4618 278.622 92.0756 278.678C91.5728 278.733 91.0645 278.712 90.5681 278.614C88.4057 278.212 85.4461 277.612 82.1708 276.933C79.3138 276.334 76.6936 275.773 74.6889 275.355H74.7836L71.7293 276.515C71.3627 276.684 70.9791 276.814 70.585 276.902C70.9269 276.688 71.2859 276.504 71.6583 276.349L74.6258 275.023H74.6653H74.7205C76.7409 275.418 79.3611 275.947 82.226 276.547C85.4934 277.225 88.453 277.873 90.5918 278.346C91.4015 278.595 92.2762 278.518 93.0305 278.133C93.3005 277.963 93.5361 277.743 93.725 277.486Z" fill="#FFD7C1"/>
<path d="M96.3744 282.18C96.3744 282.18 96.3744 282.274 96.3033 282.424C96.1936 282.643 96.0497 282.843 95.8772 283.016C95.2064 283.626 94.3441 283.984 93.4384 284.026C90.5619 284.226 87.6761 284.252 84.7964 284.105C83.1075 284.042 81.4975 283.892 80.0611 283.782C78.7808 283.664 77.4912 283.693 76.2176 283.869C75.3604 283.895 74.5251 284.146 73.7946 284.595C73.2974 284.934 73.0764 285.21 73.0054 285.179C72.9344 285.147 73.0054 285.1 73.1475 284.966C73.2982 284.778 73.4704 284.608 73.6605 284.461C73.9637 284.221 74.3052 284.034 74.6707 283.908C75.1518 283.754 75.6457 283.643 76.1465 283.577C77.4342 283.36 78.7435 283.302 80.0453 283.403C81.5054 283.498 83.0996 283.632 84.7806 283.695C88.1349 283.845 91.197 283.837 93.3832 283.742C94.2434 283.726 95.0748 283.43 95.7509 282.898C95.9877 282.685 96.1971 282.444 96.3744 282.18Z" fill="#FFD7C1"/>
<path d="M98.1516 288.653C96.984 288.137 95.7907 287.681 94.5764 287.288C92.5323 286.743 90.7881 286.838 90.7881 286.711C92.083 286.496 93.4087 286.558 94.6779 286.893C95.9471 287.228 97.131 287.827 98.1516 288.653Z" fill="#FFD7C1"/>
<path d="M84.3553 269.468C83.6887 269.374 83.0313 269.223 82.3901 269.018C81.1905 268.702 79.5253 268.3 77.6548 267.929C75.7843 267.558 74.1112 267.29 72.9194 267.14C72.25 267.084 71.5869 266.968 70.9385 266.792C71.6118 266.732 72.2899 266.751 72.9589 266.848C74.5783 266.99 76.1882 267.225 77.7811 267.55C79.3805 267.865 80.9614 268.268 82.5164 268.758C83.1552 268.921 83.7725 269.16 84.3553 269.468Z" fill="#FFD7C1"/>
<path d="M252.5 305.306C252.5 305.306 239.509 294.406 237.023 294.02C234.537 293.633 230.52 293.23 229.565 294.02C228.61 294.809 204.894 301.123 204.894 301.123C203.597 301.879 202.605 303.066 202.092 304.477C201.911 305.046 201.956 305.662 202.217 306.199C202.479 306.735 202.937 307.15 203.497 307.358C205.044 307.94 206.733 308.033 208.335 307.626C208.07 308.287 207.983 309.006 208.084 309.712C208.186 310.417 208.471 311.083 208.911 311.643C210.434 313.553 215.177 312.432 215.177 312.432C215.177 312.432 213.307 317.215 217.9 318.549C217.9 318.549 216.172 319.89 217.9 321.998C219.629 324.105 221.389 326.244 224.782 326.015C228.176 325.786 234.727 326.015 234.727 326.015H246.936C247.98 325.522 249.069 325.131 250.187 324.847C251.332 324.657 257.29 325.967 257.29 325.967L259.611 305.858L252.5 305.306Z" fill="#FFDFCF"/>
<path d="M232.327 302.269C232.019 302.377 231.702 302.457 231.38 302.506L228.783 303.042C226.597 303.5 223.59 304.21 220.275 305.039C216.961 305.868 213.962 306.617 211.768 307.067C210.671 307.296 209.779 307.47 209.163 307.572C208.845 307.649 208.52 307.692 208.192 307.699C208.494 307.57 208.809 307.475 209.132 307.414L211.704 306.783L220.181 304.636C223.495 303.808 226.495 303.145 228.728 302.758C229.833 302.561 230.725 302.419 231.348 302.348C231.67 302.282 231.999 302.256 232.327 302.269Z" fill="#FFD7C1"/>
<path d="M232.068 309.803C231.248 309.99 230.413 310.109 229.574 310.158C228.035 310.332 225.904 310.561 223.56 310.892C221.216 311.224 219.117 311.61 217.593 311.926C216.781 312.135 215.956 312.291 215.123 312.392C215.899 312.064 216.705 311.813 217.53 311.642C219.5 311.152 221.494 310.767 223.505 310.49C225.872 310.158 227.995 309.969 229.55 309.866C230.386 309.77 231.228 309.748 232.068 309.803Z" fill="#FFD7C1"/>
<path d="M232.327 318.059C231.659 318.324 230.967 318.523 230.259 318.651C228.58 319.065 226.874 319.361 225.153 319.534C223.411 319.68 221.657 319.539 219.96 319.116C219.253 318.987 218.567 318.759 217.924 318.437C218.63 318.532 219.331 318.664 220.023 318.832C221.698 319.168 223.412 319.266 225.114 319.124C227.11 318.943 228.902 318.603 230.204 318.335C230.902 318.177 231.612 318.085 232.327 318.059Z" fill="#FFD7C1"/>
<path d="M368.308 340.547H0.647461V356.126H368.308V340.547Z" fill="#FCDA2A"/>
<path d="M0.646066 340.585H2.50864H8.03321L29.2949 340.538L107.752 340.435L368.322 340.301H368.591V356.448H368.322L0.653958 356.204H0.59082V356.125C0.59082 350.774 0.59082 346.875 0.630281 344.286C0.669742 341.698 0.630281 340.53 0.630281 340.53C0.630281 341.082 0.630281 345.518 0.701311 356.109L0.630281 356.03L368.299 355.777L368.023 356.109V340.585L368.299 340.908L107.933 340.774L29.4133 340.68L8.10424 340.632H2.57967L0.646066 340.585Z" fill="#263238"/>
<path d="M78.5341 340.773C78.5341 340.773 78.5341 340.837 78.4157 340.939C78.2974 341.042 78.2105 341.208 78.029 341.413C77.4908 341.981 76.8678 342.463 76.1822 342.841C75.076 343.434 73.8736 343.827 72.6307 344.001C70.989 344.228 69.3293 344.297 67.6744 344.207C65.6765 344.107 63.6866 343.885 61.7157 343.544C59.4697 343.136 57.2 342.873 54.9205 342.754C50.1062 342.589 44.8658 343.804 39.6332 345.627C34.4006 347.45 29.4917 349.51 24.8037 350.765C22.5936 351.384 20.3369 351.822 18.0558 352.075C16.0591 352.281 14.0465 352.281 12.0498 352.075C9.15368 351.806 6.34514 350.938 3.80237 349.526C2.87413 349.018 2.0103 348.401 1.22949 347.687C1.29115 347.718 1.34936 347.755 1.40312 347.798L1.90033 348.153C2.52088 348.601 3.1723 349.004 3.84972 349.36C6.39253 350.695 9.17929 351.5 12.0419 351.728C14.0151 351.928 16.0036 351.928 17.9769 351.728C20.2397 351.466 22.4778 351.023 24.6695 350.402C29.318 349.131 34.1954 347.064 39.4675 345.233C44.7395 343.402 50.0273 342.178 54.9205 342.376C57.2142 342.504 59.4973 342.781 61.7552 343.204C63.7129 343.555 65.6893 343.792 67.6744 343.915C69.3089 344.019 70.9497 343.972 72.5755 343.773C73.7964 343.623 74.982 343.262 76.0796 342.707C76.9992 342.203 77.8287 341.549 78.5341 340.773Z" fill="#263238"/>
<path d="M38.3133 341.012C37.9652 341.346 37.5933 341.655 37.2005 341.936C36.1332 342.715 35.0094 343.414 33.8384 344.027C29.9275 346.046 25.6107 347.155 21.2108 347.271C16.7971 347.435 12.4067 346.559 8.39381 344.714C7.17458 344.165 6.11127 343.322 5.30005 342.259C5.08929 341.971 4.91932 341.655 4.79494 341.32C4.71602 341.088 4.68445 340.97 4.70024 340.965C4.91291 341.382 5.15558 341.783 5.42632 342.164C6.27056 343.148 7.32885 343.926 8.52009 344.437C12.5018 346.153 16.815 346.962 21.1477 346.805C25.5008 346.689 29.779 345.645 33.6964 343.743C34.8688 343.16 36.0047 342.506 37.0979 341.786C37.4828 341.497 37.8892 341.239 38.3133 341.012Z" fill="#263238"/>
<path d="M124.601 350.883C124.601 350.883 124.798 350.946 125.169 351.08C125.723 351.271 126.29 351.419 126.866 351.522C129.062 351.9 131.321 351.557 133.306 350.544V350.741C130.978 349.016 128.215 347.974 125.327 347.734C121.67 347.378 118.002 348.301 114.949 350.346C114.754 350.45 114.583 350.594 114.447 350.768C114.311 350.942 114.213 351.142 114.16 351.357C114.159 351.573 114.225 351.785 114.347 351.964C114.47 352.143 114.644 352.281 114.846 352.359C115.292 352.594 115.771 352.759 116.267 352.848L117.845 353.188C119.945 353.645 122.123 354.095 124.372 354.411C126.667 354.767 128.988 354.92 131.309 354.869C132.505 354.84 133.697 354.729 134.877 354.537C135.469 354.442 136.061 354.332 136.652 354.182C137.24 354.057 137.813 353.874 138.365 353.637C139.225 353.301 139.989 352.759 140.591 352.059C140.867 351.738 141.052 351.35 141.127 350.933C141.202 350.517 141.164 350.088 141.017 349.691C140.652 348.892 140.041 348.231 139.273 347.805C138.498 347.343 137.681 346.954 136.834 346.645C133.553 345.45 130.11 344.758 126.621 344.593C116.655 344.063 106.805 346.947 98.6986 352.769C97.57 353.606 96.7097 354.269 96.1573 354.758L95.5101 355.295L95.2812 355.468C95.2812 355.468 95.3444 355.39 95.4786 355.263L96.0942 354.695C96.6308 354.182 97.4753 353.495 98.5881 352.635C101.778 350.24 105.291 348.308 109.022 346.897C114.628 344.789 120.608 343.859 126.59 344.167C130.124 344.317 133.614 345.012 136.937 346.227C137.816 346.54 138.662 346.939 139.462 347.418C140.313 347.892 140.989 348.629 141.388 349.518C141.563 349.989 141.611 350.498 141.525 350.993C141.439 351.488 141.223 351.951 140.898 352.335C140.244 353.084 139.418 353.664 138.491 354.024C137.919 354.275 137.321 354.462 136.708 354.585C136.108 354.742 135.5 354.853 134.892 354.955C133.694 355.148 132.484 355.259 131.27 355.287C128.922 355.339 126.574 355.18 124.254 354.813C121.981 354.49 119.802 354.024 117.695 353.566L116.117 353.219C115.566 353.125 115.033 352.943 114.538 352.682C114.289 352.548 114.071 352.363 113.899 352.138C113.712 351.901 113.627 351.601 113.662 351.301C113.724 351.031 113.843 350.776 114.01 350.554C114.178 350.333 114.39 350.149 114.633 350.015C117.769 347.936 121.529 347.01 125.272 347.395C128.216 347.667 131.024 348.761 133.377 350.552L133.519 350.662L133.353 350.749C131.32 351.763 129.008 352.074 126.779 351.633C126.019 351.495 125.285 351.243 124.601 350.883Z" fill="#263238"/>
<path d="M171.901 341.176C172.071 341.414 172.194 341.681 172.264 341.965C172.507 342.729 172.587 343.536 172.501 344.333C172.382 346.337 171.112 348.973 168.925 351.136C167.923 352.184 166.8 353.108 165.579 353.89C164.565 354.518 163.482 355.026 162.351 355.406C161.577 355.654 160.786 355.844 159.983 355.974C159.696 356.039 159.401 356.063 159.107 356.045C159.107 355.966 160.339 355.792 162.217 355.114C163.305 354.696 164.347 354.167 165.327 353.535C166.506 352.751 167.594 351.838 168.57 350.812C170.709 348.705 171.964 346.203 172.161 344.285C172.271 343.242 172.182 342.187 171.901 341.176Z" fill="#263238"/>
<path d="M237.92 355.304C237.387 354.746 236.823 354.219 236.231 353.726C234.567 352.403 232.586 351.538 230.485 351.216C229.028 351.012 227.548 351.055 226.105 351.342C224.422 351.718 222.698 351.872 220.975 351.8C219.089 351.626 217.4 350.521 215.869 349.369C214.335 348.102 212.598 347.104 210.731 346.417C207.035 345.221 203.064 345.164 199.334 346.252C196.306 347.129 193.452 348.523 190.898 350.371C189.176 351.604 187.543 352.957 186.012 354.42L184.757 355.58C184.622 355.73 184.471 355.865 184.308 355.983C184.424 355.817 184.553 355.662 184.694 355.517C184.955 355.225 185.357 354.799 185.886 354.262C187.38 352.747 188.993 351.354 190.708 350.095C193.27 348.178 196.15 346.727 199.216 345.81C203.033 344.681 207.102 344.733 210.889 345.96C212.799 346.658 214.574 347.681 216.137 348.982C217.66 350.143 219.255 351.184 221.022 351.35C222.709 351.426 224.399 351.285 226.05 350.932C227.529 350.657 229.045 350.633 230.533 350.861C232.679 351.216 234.689 352.146 236.349 353.552C236.962 354.05 237.492 354.641 237.92 355.304Z" fill="#263238"/>
<path d="M296.864 340.695C296.747 340.884 296.612 341.061 296.462 341.224C296.068 341.729 295.649 342.213 295.207 342.676C293.583 344.397 291.784 345.944 289.84 347.293C286.952 349.335 283.824 351.016 280.527 352.297C278.578 353.076 276.57 353.696 274.521 354.152C272.319 354.672 270.067 354.952 267.805 354.988C263.431 354.96 259.103 354.089 255.059 352.423C251.773 351.114 248.661 349.404 245.793 347.333C243.869 345.956 242.085 344.394 240.466 342.668C239.874 342.076 239.495 341.556 239.211 341.224C239.064 341.057 238.926 340.88 238.801 340.695C238.98 340.833 239.142 340.992 239.282 341.169C239.59 341.477 239.993 341.958 240.6 342.55C242.253 344.224 244.057 345.741 245.991 347.08C248.854 349.101 251.952 350.768 255.217 352.044C259.214 353.667 263.483 354.519 267.797 354.554C270.028 354.521 272.25 354.256 274.426 353.765C276.455 353.32 278.445 352.713 280.377 351.95C283.651 350.693 286.766 349.056 289.658 347.072C291.602 345.742 293.415 344.231 295.073 342.558C295.68 341.99 296.075 341.477 296.383 341.169C296.527 340.995 296.688 340.837 296.864 340.695Z" fill="#263238"/>
<path d="M288.445 340.586C288.354 340.681 288.25 340.763 288.137 340.831C287.916 340.973 287.608 341.202 287.182 341.454C284.218 343.283 281.036 344.733 277.711 345.771C275.256 346.559 272.698 346.981 270.119 347.026C265.439 346.923 260.838 345.797 256.639 343.727C255.378 343.119 254.16 342.426 252.993 341.651C252.575 341.383 252.275 341.146 252.062 340.988C251.952 340.916 251.852 340.831 251.762 340.736C252.22 340.971 252.663 341.234 253.088 341.525C254.284 342.236 255.517 342.884 256.781 343.467C260.961 345.431 265.503 346.506 270.119 346.624C272.646 346.541 275.149 346.103 277.554 345.321C279.539 344.731 281.48 344 283.362 343.135C284.941 342.393 286.227 341.73 287.087 341.249C287.526 341 287.979 340.778 288.445 340.586Z" fill="#263238"/>
<path d="M325.852 342.163C325.711 342.184 325.568 342.184 325.426 342.163L324.219 342.092L323.358 342.029H322.317C321.575 342.029 320.738 342.029 319.799 342.029L318.339 342.108L316.761 342.281C315.664 342.376 314.519 342.629 313.304 342.826C310.689 343.371 308.12 344.112 305.617 345.044C303.126 346.01 300.71 347.158 298.387 348.477C297.354 349.124 296.335 349.7 295.467 350.339L294.173 351.239L293.036 352.139C292.295 352.691 291.679 353.252 291.127 353.717L290.337 354.388C290.124 354.609 289.919 354.806 289.73 354.996L288.885 355.825C288.786 355.924 288.677 356.014 288.562 356.093C288.633 355.973 288.717 355.862 288.814 355.761L289.603 354.877L290.187 354.238L290.929 353.536C291.466 353.031 292.074 352.447 292.808 351.871L293.936 350.955L295.223 350.024C296.091 349.361 297.109 348.769 298.151 348.106C302.785 345.358 307.857 343.427 313.146 342.4C314.377 342.218 315.514 341.974 316.642 341.903L318.221 341.745L319.704 341.697C320.548 341.653 321.394 341.653 322.238 341.697H323.28L324.148 341.8L325.347 341.958C325.527 341.993 325.699 342.063 325.852 342.163Z" fill="#263238"/>
<path d="M244.566 354.996C243.972 354.143 243.295 353.35 242.545 352.629C240.41 350.75 237.876 349.379 235.135 348.619C233.241 348.07 231.31 347.656 229.357 347.38C227.242 347.057 224.969 346.804 222.594 346.402C220.111 345.966 217.66 345.37 215.254 344.618C212.698 343.797 210.08 343.185 207.425 342.787C202.247 342.278 197.022 342.978 192.161 344.831C190.042 345.607 187.97 346.508 185.958 347.53C184.056 348.477 182.312 349.409 180.733 350.269C177.576 352.005 175.051 353.489 173.315 354.515L171.31 355.699L170.789 355.999C170.673 356.072 170.61 356.104 170.6 356.093L170.765 355.967L171.263 355.628C171.705 355.328 172.36 354.902 173.22 354.365C174.925 353.292 177.419 351.776 180.575 350.001C182.154 349.117 183.882 348.17 185.784 347.207C187.805 346.163 189.887 345.243 192.019 344.452C196.938 342.565 202.23 341.856 207.472 342.385C210.15 342.783 212.79 343.404 215.364 344.239C217.752 344.994 220.185 345.595 222.649 346.039C225.017 346.441 227.282 346.71 229.397 347.057C231.367 347.347 233.314 347.779 235.221 348.351C237.989 349.152 240.532 350.587 242.648 352.542C243.423 353.244 244.072 354.075 244.566 354.996Z" fill="#263238"/>
<path d="M161.695 340.773C161.731 341.105 161.715 341.441 161.647 341.768C161.514 342.67 161.27 343.553 160.921 344.396C159.792 347.251 157.821 349.695 155.27 351.404C152.638 352.979 149.826 354.235 146.897 355.145C145.776 355.5 144.86 355.761 144.221 355.934C143.896 356.041 143.56 356.11 143.219 356.14C143.522 355.981 143.842 355.86 144.174 355.777L146.794 354.861C149.662 353.88 152.42 352.605 155.026 351.057C157.497 349.383 159.44 347.04 160.629 344.301C161.094 343.161 161.451 341.98 161.695 340.773Z" fill="#263238"/>
<path d="M76.3643 356.124C76.6347 355.818 76.9333 355.538 77.2561 355.287C77.848 354.766 78.7398 354.056 79.8763 353.212C82.8566 351.036 85.9901 349.079 89.2523 347.356C93.0722 345.327 96.6395 343.694 99.2281 342.541C100.53 341.965 101.596 341.515 102.314 341.208C102.687 341.027 103.075 340.882 103.474 340.773C103.134 341.005 102.771 341.203 102.393 341.365L99.3465 342.825C96.7894 344.049 93.2537 345.714 89.4496 347.742C86.2029 349.461 83.0615 351.372 80.0421 353.464C78.8898 354.253 77.9664 354.94 77.3429 355.421C77.0388 355.685 76.7112 355.92 76.3643 356.124Z" fill="#263238"/>
<path d="M93.6803 341.413C93.6803 341.46 92.8358 341.311 91.3126 341.413C89.1733 341.626 87.0931 342.239 85.1803 343.22C82.7179 344.381 80.1293 346.306 77.2091 348.398C75.6833 349.515 74.0797 350.523 72.4107 351.413C70.5843 352.338 68.6597 353.056 66.673 353.551C62.8195 354.431 58.8818 354.888 54.9293 354.917C51.291 355.027 48.0315 354.956 45.2929 355.059C43.1323 355.121 40.9782 355.326 38.8449 355.674C38.0557 355.809 37.5111 355.919 37.1165 356.006C36.9181 356.063 36.7145 356.1 36.5088 356.116C36.6972 356.035 36.8927 355.972 37.0928 355.927C37.4795 355.809 38.0636 355.667 38.8133 355.509C40.9447 355.082 43.1056 354.818 45.2771 354.719C48.0236 354.57 51.2989 354.609 54.9135 354.483C58.8344 354.428 62.7388 353.963 66.5625 353.094C68.5159 352.61 70.4088 351.909 72.2055 351.002C73.8466 350.12 75.4285 349.131 76.9408 348.043C79.8609 345.975 82.4654 344.049 85.0146 342.905C86.9687 341.933 89.0956 341.356 91.2731 341.208C91.8656 341.18 92.4593 341.198 93.0489 341.263C93.2645 341.288 93.4764 341.339 93.6803 341.413Z" fill="#263238"/>
<path d="M334.463 356.124C334.738 355.819 335.039 355.539 335.363 355.287C335.955 354.766 336.846 354.056 337.975 353.212C340.958 351.04 344.091 349.083 347.351 347.356C351.179 345.327 354.746 343.694 357.335 342.541C358.629 341.965 359.702 341.515 360.42 341.208C360.791 341.03 361.177 340.885 361.573 340.773C361.234 341.007 360.871 341.206 360.492 341.365L357.477 342.825C354.92 344.049 351.376 345.714 347.572 347.742C344.328 349.461 341.189 351.372 338.172 353.464C337.02 354.253 336.097 354.94 335.473 355.421C335.16 355.688 334.821 355.923 334.463 356.124Z" fill="#263238"/>
<path d="M351.788 341.413C351.788 341.46 350.935 341.311 349.42 341.413C347.278 341.626 345.195 342.239 343.28 343.22C340.825 344.381 338.229 346.306 335.317 348.398C333.791 349.515 332.187 350.523 330.518 351.413C328.692 352.338 326.767 353.056 324.78 353.551C320.927 354.43 316.989 354.888 313.037 354.917C309.398 355.027 306.131 354.956 303.392 355.059C301.234 355.121 299.083 355.327 296.952 355.674C296.203 355.809 295.619 355.919 295.224 356.006C295.025 356.063 294.822 356.099 294.616 356.116C294.804 356.033 295 355.97 295.2 355.927C295.587 355.809 296.163 355.667 296.921 355.509C299.052 355.081 301.213 354.817 303.384 354.719C306.131 354.57 309.398 354.609 313.021 354.483C316.939 354.429 320.841 353.963 324.662 353.094C326.616 352.613 328.509 351.911 330.305 351.002C331.947 350.121 333.529 349.133 335.04 348.043C337.953 345.975 340.565 344.049 343.106 342.905C345.064 341.934 347.193 341.358 349.373 341.208C349.965 341.18 350.559 341.198 351.148 341.263C351.366 341.289 351.581 341.339 351.788 341.413Z" fill="#263238"/>
<path d="M322.989 340.483C322.989 340.601 307.622 340.704 288.673 340.704C269.724 340.704 254.35 340.601 254.35 340.483C254.35 340.364 269.716 340.262 288.673 340.262C307.63 340.262 322.989 340.364 322.989 340.483Z" fill="#263238"/>
<path d="M142.846 131.921C162.271 128.656 175.372 110.263 172.107 90.8381C168.843 71.4133 150.449 58.3127 131.024 61.5773C111.6 64.8418 98.499 83.2352 101.764 102.66C105.028 122.085 123.422 135.186 142.846 131.921Z" fill="white"/>
<path d="M172.642 125.365C172.287 125.423 171.937 125.503 171.592 125.602C170.675 125.92 169.877 126.509 169.303 127.291C168.912 127.82 168.642 128.429 168.514 129.075C168.369 129.817 168.446 130.586 168.735 131.285C169.024 132.108 169.559 132.824 170.267 133.334C170.976 133.844 171.823 134.125 172.696 134.139C173.569 134.153 174.425 133.899 175.149 133.411C175.874 132.923 176.431 132.225 176.746 131.411C177.054 130.721 177.159 129.956 177.046 129.209C176.932 128.559 176.676 127.942 176.296 127.402C175.749 126.6 174.97 125.986 174.062 125.642C173.415 125.413 173.021 125.405 173.028 125.365C173.123 125.355 173.218 125.355 173.313 125.365C173.427 125.369 173.541 125.385 173.652 125.413C173.806 125.431 173.957 125.468 174.102 125.523C174.917 125.784 175.646 126.261 176.211 126.903C176.777 127.545 177.158 128.328 177.314 129.169C177.452 129.969 177.354 130.792 177.03 131.537C176.679 132.358 176.108 133.065 175.38 133.581C174.611 134.172 173.665 134.486 172.695 134.472C171.725 134.458 170.788 134.116 170.037 133.502C169.326 132.96 168.78 132.23 168.459 131.395C168.158 130.644 168.084 129.82 168.246 129.027C168.396 128.345 168.698 127.706 169.13 127.157C169.746 126.355 170.604 125.771 171.576 125.492C171.726 125.446 171.879 125.411 172.034 125.389C172.147 125.379 172.26 125.379 172.373 125.389C172.539 125.35 172.642 125.35 172.642 125.365Z" fill="#263238"/>
<path d="M172.494 102.238C172.494 102.238 172.494 102.041 172.494 101.662C172.494 101.283 172.589 100.699 172.66 99.957C172.691 99.5834 172.731 99.1651 172.778 98.7021C172.778 98.2444 172.778 97.7314 172.778 97.1868C172.778 96.6422 172.778 96.0503 172.778 95.411C172.783 95.0865 172.764 94.7621 172.723 94.4403C172.723 94.1088 172.652 93.7615 172.612 93.4064C172.301 89.9544 171.469 86.5695 170.142 83.3674C168.42 79.1125 165.89 75.2316 162.692 71.9395C162.25 71.4817 161.8 71.024 161.342 70.5662C160.861 70.1242 160.34 69.7138 159.835 69.2877L159.046 68.6405C158.798 68.4162 158.534 68.2104 158.256 68.0249L156.56 66.8569L155.691 66.2728L154.768 65.7598L152.89 64.7259C152.242 64.4024 151.556 64.1498 150.885 63.8499C150.554 63.7 150.214 63.5579 149.867 63.4158C149.701 63.3448 149.528 63.2659 149.354 63.2027L148.825 63.0291C147.388 62.5306 145.919 62.1272 144.429 61.8216C143.64 61.6795 142.914 61.4901 142.14 61.3796L139.773 61.1429C139.378 61.1034 138.983 61.0403 138.581 61.0324H137.373C136.584 61.0324 135.748 61.0324 134.935 61.0324C133.28 61.1385 131.635 61.3574 130.01 61.6874L128.771 61.9321C128.558 61.9794 128.353 62.011 128.147 62.0663L127.54 62.2478L125.085 63.037C124.296 63.329 123.507 63.6921 122.678 64.0156C122.283 64.1893 121.889 64.3313 121.478 64.5365L120.318 65.1521C118.749 65.983 117.235 66.9163 115.788 67.946L113.681 69.6428L113.152 70.0769C112.986 70.2268 112.829 70.3926 112.663 70.5504L111.747 71.458L110.761 72.4209L109.877 73.4785L108.985 74.536L108.535 75.0648L108.141 75.6409L106.562 77.9455L105.197 80.4157C101.629 87.281 100.406 95.1255 101.716 102.751C101.906 103.682 102.087 104.598 102.277 105.521C102.466 106.444 102.821 107.305 103.066 108.196L103.271 108.859L103.539 109.507L104.068 110.785L104.605 112.056L105.252 113.271L105.891 114.479L106.215 115.079L106.594 115.647L108.085 117.904C109.154 119.322 110.317 120.667 111.566 121.929L112.489 122.868C112.789 123.184 113.152 123.444 113.476 123.728C114.147 124.281 114.794 124.865 115.472 125.386L117.588 126.838L118.116 127.193L118.669 127.509L119.774 128.117C121.224 128.919 122.727 129.623 124.272 130.224C125.062 130.516 125.851 130.729 126.593 131.013L127.745 131.376C128.132 131.487 128.534 131.542 128.913 131.629L131.241 132.11C132.03 132.244 132.82 132.292 133.562 132.378C135.071 132.538 136.59 132.596 138.107 132.552H138.668C138.857 132.552 139.039 132.552 139.22 132.505L140.325 132.394C141.051 132.307 141.785 132.276 142.496 132.157L144.595 131.739L145.637 131.526L146.639 131.234L148.612 130.634C148.936 130.539 149.253 130.421 149.559 130.279L150.49 129.9C151.098 129.64 151.714 129.403 152.306 129.111L154.01 128.203C158.051 126.015 161.631 123.067 164.554 119.522C164.878 119.135 165.209 118.733 165.509 118.377L166.299 117.194L167.088 116.057C167.214 115.868 167.356 115.694 167.467 115.505C167.577 115.315 167.68 115.118 167.782 114.929L168.99 112.75C169.353 112.056 169.613 111.345 169.913 110.698L170.324 109.743C170.463 109.448 170.579 109.142 170.671 108.828L171.208 107.139C171.365 106.618 171.539 106.144 171.657 105.695C171.776 105.245 171.839 104.826 171.918 104.463C172.076 103.737 172.194 103.177 172.281 102.79L172.415 102.222C172.415 102.222 172.415 102.419 172.312 102.798C172.21 103.177 172.131 103.745 171.989 104.479C171.91 104.85 171.831 105.268 171.736 105.71C171.642 106.152 171.46 106.642 171.302 107.17C171.144 107.699 170.963 108.26 170.781 108.867C170.69 109.184 170.574 109.492 170.434 109.791C170.308 110.099 170.166 110.414 170.032 110.746C169.74 111.401 169.479 112.111 169.116 112.821C168.753 113.532 168.327 114.242 167.924 115.007L167.601 115.584C167.49 115.781 167.356 115.962 167.23 116.152L166.441 117.296L165.651 118.488C165.344 118.875 165.012 119.277 164.689 119.64C161.764 123.211 158.176 126.181 154.121 128.385L152.4 129.3C151.808 129.577 151.193 129.813 150.569 130.09L149.638 130.476C149.329 130.619 149.01 130.738 148.683 130.831L146.694 131.439L145.692 131.739L144.642 131.952L142.527 132.378C141.809 132.505 141.075 132.536 140.341 132.623L139.236 132.733C139.047 132.733 138.865 132.781 138.676 132.789H138.107C136.577 132.839 135.045 132.784 133.522 132.623C132.733 132.536 131.944 132.489 131.154 132.363L128.787 131.881C128.4 131.794 127.997 131.731 127.611 131.621L126.451 131.258C125.661 131.005 124.872 130.784 124.083 130.468C122.522 129.863 121.003 129.154 119.537 128.345L118.424 127.73C118.235 127.627 118.045 127.533 117.864 127.422L117.335 127.059L115.196 125.591C114.51 125.07 113.862 124.486 113.184 123.926C112.852 123.634 112.489 123.381 112.181 123.058L111.258 122.111C109.994 120.84 108.818 119.484 107.738 118.054L106.231 115.781L105.852 115.205L105.52 114.605L104.873 113.382L104.218 112.158L103.681 110.872L103.145 109.586L102.876 108.938L102.671 108.268L101.882 105.56C101.7 104.637 101.511 103.706 101.322 102.767C100.029 95.0899 101.276 87.2012 104.873 80.2974L106.246 77.8034L107.825 75.4357C107.959 75.2463 108.085 75.049 108.227 74.8596L108.677 74.3229L109.577 73.2575L110.477 72.192L111.463 71.2213L112.45 70.2584C112.615 70.0927 112.781 69.9269 112.947 69.777L113.484 69.3429L115.599 67.6303C117.06 66.5923 118.589 65.6537 120.176 64.8206L121.352 64.1972C121.739 63.9841 122.141 63.8499 122.56 63.6684C123.349 63.3448 124.138 62.9818 124.991 62.6897L127.461 61.9005L128.076 61.719C128.289 61.6638 128.495 61.6322 128.708 61.5848L129.955 61.3402C131.595 61.0101 133.257 60.7912 134.927 60.6851C135.716 60.6378 136.568 60.6851 137.381 60.6851H138.605C139.007 60.6851 139.394 60.7561 139.804 60.7956L142.172 61.0403C142.961 61.1508 143.75 61.3481 144.484 61.4901C145.983 61.8001 147.459 62.2087 148.904 62.7134L149.441 62.887C149.622 62.9502 149.788 63.0291 149.962 63.1001L150.988 63.5421C151.658 63.842 152.353 64.1025 153 64.4339L154.886 65.4757L155.818 65.9966C156.118 66.186 156.402 66.3912 156.686 66.5885L158.398 67.7645C158.678 67.9508 158.942 68.1593 159.188 68.3879L159.977 69.043C160.49 69.4771 161.003 69.8875 161.492 70.3294L162.85 71.7185C166.09 75.0501 168.648 78.9832 170.379 83.2964C171.698 86.515 172.518 89.9164 172.81 93.3827C172.81 93.7458 172.873 94.0851 172.904 94.4245C172.946 94.749 172.964 95.076 172.96 95.4031C172.96 96.0345 172.96 96.6264 172.96 97.1789C172.96 97.7313 172.96 98.2365 172.96 98.7021C172.96 99.1677 172.865 99.5781 172.825 99.957C172.739 100.699 172.676 101.267 172.636 101.654C172.597 102.041 172.494 102.238 172.494 102.238Z" fill="#263238"/>
<path d="M127.631 97.3946C127.633 98.0865 127.429 98.7632 127.046 99.3392C126.663 99.9152 126.117 100.365 125.478 100.63C124.84 100.896 124.136 100.967 123.458 100.833C122.779 100.699 122.155 100.366 121.665 99.8775C121.176 99.3889 120.842 98.7659 120.706 98.0875C120.571 97.4091 120.64 96.7057 120.904 96.0664C121.168 95.4271 121.617 94.8806 122.192 94.496C122.767 94.1115 123.443 93.9063 124.135 93.9063C125.061 93.9062 125.949 94.2735 126.604 94.9275C127.26 95.5815 127.629 96.4687 127.631 97.3946Z" fill="#263238"/>
<path d="M139.702 97.3946C139.703 98.0865 139.499 98.7632 139.116 99.3392C138.733 99.9152 138.187 100.365 137.549 100.63C136.91 100.896 136.207 100.967 135.528 100.833C134.849 100.699 134.226 100.366 133.736 99.8775C133.246 99.3889 132.912 98.7659 132.777 98.0875C132.641 97.4091 132.71 96.7057 132.974 96.0664C133.239 95.4271 133.687 94.8806 134.262 94.496C134.837 94.1115 135.513 93.9063 136.205 93.9063C137.131 93.9062 138.019 94.2735 138.675 94.9275C139.33 95.5815 139.699 96.4687 139.702 97.3946Z" fill="#263238"/>
<path d="M151.766 97.3946C151.768 98.0868 151.564 98.7639 151.18 99.34C150.796 99.9162 150.25 100.366 149.611 100.631C148.972 100.897 148.268 100.967 147.59 100.832C146.911 100.697 146.287 100.364 145.797 99.8748C145.308 99.3853 144.975 98.7616 144.84 98.0827C144.706 97.4037 144.775 96.7001 145.041 96.0609C145.307 95.4217 145.756 94.8758 146.332 94.4922C146.908 94.1086 147.585 93.9047 148.278 93.9063C149.203 93.9063 150.09 94.2738 150.744 94.928C151.398 95.5822 151.766 96.4695 151.766 97.3946Z" fill="#263238"/>
</svg>
