<svg width="75" height="76" viewBox="0 0 75 76" fill="none" xmlns="http://www.w3.org/2000/svg">
<g filter="url(#filter0_d_769_2890)">
<ellipse cx="37.3467" cy="32.9102" rx="19" ry="19.5" fill="white"/>
</g>
<path d="M37.6592 30.375C37.6592 29.9608 37.3234 29.625 36.9092 29.625C36.495 29.625 36.1592 29.9608 36.1592 30.375V37.3112C36.145 37.3001 36.1305 37.2887 36.1157 37.2768C35.793 37.0177 35.4095 36.6323 34.8397 36.0574L33.4419 34.647C33.1503 34.3528 32.6754 34.3507 32.3812 34.6423C32.087 34.9339 32.0849 35.4088 32.3765 35.703L33.8048 37.1441C34.3362 37.6803 34.7794 38.1275 35.1764 38.4463C35.5928 38.7807 36.0305 39.0351 36.5637 39.1031C36.7931 39.1323 37.0253 39.1323 37.2547 39.1031C37.7879 39.0351 38.2255 38.7807 38.6419 38.4463C39.039 38.1275 39.4821 37.6803 40.0135 37.1441L41.4419 35.703C41.7335 35.4088 41.7313 34.9339 41.4371 34.6423C41.1429 34.3507 40.6681 34.3528 40.3765 34.647L38.9786 36.0574C38.4088 36.6323 38.0253 37.0177 37.7027 37.2768C37.6919 37.2855 37.6812 37.2939 37.6707 37.3022C37.6669 37.3052 37.663 37.3082 37.6592 37.3112V30.375Z" fill="#868686"/>
<path fill-rule="evenodd" clip-rule="evenodd" d="M44.2889 23.7232C43.4826 23.1373 42.5382 22.875 41.3727 22.7487C40.2306 22.625 38.791 22.625 36.9544 22.625H36.8981C35.7381 22.625 34.7407 22.625 33.8835 22.6544C32.0101 22.7186 30.6331 22.9213 29.5294 23.7232C29.0413 24.0778 28.612 24.5071 28.2573 24.9952C27.4555 26.0989 27.2527 27.4759 27.1885 29.3493C27.1592 30.2065 27.1592 31.2039 27.1592 32.364V34.4203C27.1592 36.2568 27.1592 37.6964 27.2829 38.8385C27.4092 40.0041 27.6715 40.9484 28.2573 41.7548C28.612 42.2429 29.0413 42.6722 29.5294 43.0268C30.3357 43.6127 31.2801 43.875 32.4457 44.0013C33.5878 44.125 35.0273 44.125 36.8638 44.125H36.9545C38.7909 44.125 40.2306 44.125 41.3727 44.0013C42.5382 43.875 43.4826 43.6127 44.2889 43.0268C44.7771 42.6722 45.2064 42.2429 45.561 41.7548C46.1469 40.9484 46.4092 40.0041 46.5355 38.8385C46.6592 37.6964 46.6592 36.2568 46.6592 34.4203V32.3297C46.6592 30.4932 46.6592 29.0536 46.5355 27.9115C46.4092 26.7459 46.1469 25.8016 45.561 24.9952C45.2064 24.5071 44.7771 24.0778 44.2889 23.7232ZM36.9092 24.125C38.8008 24.125 40.1592 24.126 41.2111 24.24C42.249 24.3525 42.8993 24.5676 43.4073 24.9367C43.7681 25.1988 44.0854 25.5161 44.3475 25.8769C44.7166 26.3849 44.9317 27.0351 45.0442 28.073C45.1581 29.125 45.1592 30.4834 45.1592 32.375V34.375C45.1592 36.2666 45.1581 37.625 45.0442 38.677C44.9317 39.7149 44.7166 40.3651 44.3475 40.8731C44.0854 41.2339 43.7681 41.5512 43.4073 41.8133C42.8993 42.1824 42.249 42.3975 41.2111 42.51C40.1592 42.624 38.8008 42.625 36.9092 42.625C35.0176 42.625 33.6592 42.624 32.6072 42.51C31.5693 42.3975 30.9191 42.1824 30.4111 41.8133C30.0503 41.5512 29.733 41.2339 29.4709 40.8731C29.1018 40.3651 28.8866 39.7149 28.7742 38.677C28.6602 37.625 28.6592 36.2666 28.6592 34.375V32.375C28.6592 31.5267 28.6592 30.7832 28.67 30.1232C29.1446 30.1188 29.4941 30.104 29.8087 30.0542C32.2691 29.6645 34.1987 27.7349 34.5884 25.2745C34.6382 24.9599 34.653 24.6105 34.6574 24.1358C35.3174 24.125 36.0608 24.125 36.9092 24.125ZM29.574 28.5727C29.369 28.6052 29.1316 28.6175 28.7266 28.6222C28.8204 27.2619 29.0353 26.4764 29.4709 25.8769C29.733 25.5161 30.0503 25.1988 30.4111 24.9367C31.0105 24.5012 31.7961 24.2862 33.1564 24.1924C33.1517 24.5974 33.1393 24.8348 33.1069 25.0398C32.8188 26.8584 31.3926 28.2846 29.574 28.5727Z" fill="#868686"/>
<defs>
<filter id="filter0_d_769_2890" x="0.34668" y="0.410156" width="74" height="75" filterUnits="userSpaceOnUse" color-interpolation-filters="sRGB">
<feFlood flood-opacity="0" result="BackgroundImageFix"/>
<feColorMatrix in="SourceAlpha" type="matrix" values="0 0 0 0 0 0 0 0 0 0 0 0 0 0 0 0 0 0 127 0" result="hardAlpha"/>
<feMorphology radius="1" operator="dilate" in="SourceAlpha" result="effect1_dropShadow_769_2890"/>
<feOffset dy="5"/>
<feGaussianBlur stdDeviation="8.5"/>
<feComposite in2="hardAlpha" operator="out"/>
<feColorMatrix type="matrix" values="0 0 0 0 0.2 0 0 0 0 0.2 0 0 0 0 0.2 0 0 0 0.06 0"/>
<feBlend mode="normal" in2="BackgroundImageFix" result="effect1_dropShadow_769_2890"/>
<feBlend mode="normal" in="SourceGraphic" in2="effect1_dropShadow_769_2890" result="shape"/>
</filter>
</defs>
</svg>
