<svg width="75" height="76" viewBox="0 0 75 76" fill="none" xmlns="http://www.w3.org/2000/svg">
<g filter="url(#filter0_d_769_2900)">
<ellipse cx="37.3623" cy="32.9102" rx="19" ry="19.5" fill="white"/>
</g>
<g clip-path="url(#clip0_769_2900)">
<path d="M37.6748 27.875C37.6748 27.4608 37.339 27.125 36.9248 27.125C36.5106 27.125 36.1748 27.4608 36.1748 27.875V37.875C36.1748 38.2892 36.5106 38.625 36.9248 38.625C37.339 38.625 37.6748 38.2892 37.6748 37.875V27.875Z" fill="#868686"/>
<path d="M41.6748 31.875C41.6748 31.4608 41.339 31.125 40.9248 31.125C40.5106 31.125 40.1748 31.4608 40.1748 31.875V37.875C40.1748 38.2892 40.5106 38.625 40.9248 38.625C41.339 38.625 41.6748 38.2892 41.6748 37.875V31.875Z" fill="#868686"/>
<path d="M33.6748 33.875C33.6748 33.4608 33.339 33.125 32.9248 33.125C32.5106 33.125 32.1748 33.4608 32.1748 33.875V37.875C32.1748 38.2892 32.5106 38.625 32.9248 38.625C33.339 38.625 33.6748 38.2892 33.6748 37.875V33.875Z" fill="#868686"/>
<path fill-rule="evenodd" clip-rule="evenodd" d="M41.3883 23.2487C40.2462 23.125 38.8066 23.125 36.9701 23.125H36.8796C35.043 23.125 33.6034 23.125 32.4613 23.2487C31.2957 23.375 30.3514 23.6373 29.545 24.2232C29.0569 24.5778 28.6276 25.0071 28.273 25.4952C27.6871 26.3016 27.4248 27.2459 27.2985 28.4115C27.1748 29.5536 27.1748 30.9932 27.1748 32.8298V32.9202C27.1748 34.7568 27.1748 36.1964 27.2985 37.3385C27.4248 38.5041 27.6871 39.4484 28.273 40.2548C28.6276 40.7429 29.0569 41.1722 29.545 41.5268C30.3514 42.1127 31.2957 42.375 32.4613 42.5013C33.6034 42.625 35.043 42.625 36.8795 42.625H36.9701C38.8066 42.625 40.2462 42.625 41.3883 42.5013C42.5539 42.375 43.4982 42.1127 44.3046 41.5268C44.7927 41.1722 45.222 40.7429 45.5767 40.2548C46.1625 39.4484 46.4248 38.5041 46.5511 37.3385C46.6748 36.1964 46.6748 34.7568 46.6748 32.9203V32.8297C46.6748 30.9932 46.6748 29.5536 46.5511 28.4115C46.4248 27.2459 46.1625 26.3016 45.5767 25.4952C45.222 25.0071 44.7927 24.5778 44.3046 24.2232C43.4982 23.6373 42.5539 23.375 41.3883 23.2487ZM30.4267 25.4367C30.9347 25.0676 31.5849 24.8525 32.6228 24.74C33.6748 24.626 35.0332 24.625 36.9248 24.625C38.8164 24.625 40.1748 24.626 41.2268 24.74C42.2647 24.8525 42.9149 25.0676 43.4229 25.4367C43.7837 25.6988 44.101 26.0161 44.3631 26.3769C44.7322 26.8849 44.9474 27.5351 45.0598 28.573C45.1738 29.625 45.1748 30.9834 45.1748 32.875C45.1748 34.7666 45.1738 36.125 45.0598 37.177C44.9474 38.2149 44.7322 38.8651 44.3631 39.3731C44.101 39.7339 43.7837 40.0512 43.4229 40.3133C42.9149 40.6824 42.2647 40.8975 41.2268 41.01C40.1748 41.124 38.8164 41.125 36.9248 41.125C35.0332 41.125 33.6748 41.124 32.6228 41.01C31.5849 40.8975 30.9347 40.6824 30.4267 40.3133C30.0659 40.0512 29.7486 39.7339 29.4865 39.3731C29.1174 38.8651 28.9023 38.2149 28.7898 37.177C28.6758 36.125 28.6748 34.7666 28.6748 32.875C28.6748 30.9834 28.6758 29.625 28.7898 28.573C28.9023 27.5351 29.1174 26.8849 29.4865 26.3769C29.7486 26.0161 30.0659 25.6988 30.4267 25.4367Z" fill="#868686"/>
</g>
<defs>
<filter id="filter0_d_769_2900" x="0.362305" y="0.410156" width="74" height="75" filterUnits="userSpaceOnUse" color-interpolation-filters="sRGB">
<feFlood flood-opacity="0" result="BackgroundImageFix"/>
<feColorMatrix in="SourceAlpha" type="matrix" values="0 0 0 0 0 0 0 0 0 0 0 0 0 0 0 0 0 0 127 0" result="hardAlpha"/>
<feMorphology radius="1" operator="dilate" in="SourceAlpha" result="effect1_dropShadow_769_2900"/>
<feOffset dy="5"/>
<feGaussianBlur stdDeviation="8.5"/>
<feComposite in2="hardAlpha" operator="out"/>
<feColorMatrix type="matrix" values="0 0 0 0 0.2 0 0 0 0 0.2 0 0 0 0 0.2 0 0 0 0.06 0"/>
<feBlend mode="normal" in2="BackgroundImageFix" result="effect1_dropShadow_769_2900"/>
<feBlend mode="normal" in="SourceGraphic" in2="effect1_dropShadow_769_2900" result="shape"/>
</filter>
<clipPath id="clip0_769_2900">
<rect width="24" height="24" fill="white" transform="translate(24.9248 21.375)"/>
</clipPath>
</defs>
</svg>
