<svg width="75" height="76" viewBox="0 0 75 76" fill="none" xmlns="http://www.w3.org/2000/svg">
<g filter="url(#filter0_d_771_2934)">
<ellipse cx="37.3779" cy="32.9102" rx="19" ry="19.5" fill="white"/>
</g>
<g clip-path="url(#clip0_771_2934)">
<path d="M40.9619 31.3456C41.2218 31.023 41.171 30.5509 40.8485 30.291C40.5259 30.0311 40.0538 30.0819 39.7939 30.4044L37.7724 32.9132C37.3573 33.4283 37.0954 33.7505 36.8774 33.9541C36.775 34.0497 36.7096 34.0923 36.672 34.1111C36.644 34.1251 36.634 34.125 36.6286 34.125H36.6272C36.6218 34.125 36.6118 34.1251 36.5838 34.1111C36.5462 34.0923 36.4808 34.0497 36.3783 33.9541C36.1604 33.7505 35.8985 33.4283 35.4834 32.9132L34.9619 32.266C34.702 31.9435 34.2298 31.8927 33.9073 32.1526C33.5848 32.4125 33.534 32.8846 33.7939 33.2071L34.348 33.8948C34.7205 34.3572 35.0491 34.7651 35.3545 35.0503C35.6824 35.3566 36.0901 35.625 36.6279 35.625C37.1656 35.625 37.5733 35.3566 37.9012 35.0503C38.2067 34.7651 38.5353 34.3572 38.9078 33.8948L40.9619 31.3456Z" fill="#8E8E8E"/>
<path fill-rule="evenodd" clip-rule="evenodd" d="M34.9408 22.125C33.399 22.125 32.1491 23.3749 32.1491 24.9167C32.1491 25.63 31.5708 26.2083 30.8574 26.2083H30.5486C28.9725 26.2083 27.5686 27.4277 27.6541 29.1215C27.7556 31.1325 28.2023 34.2668 29.8314 37.2358C30.2877 38.0673 30.8971 38.8842 31.5559 39.6453L31.6055 39.7026C32.5531 40.7976 33.3433 41.7106 34.1928 42.3329C35.1065 43.0023 36.0816 43.3357 37.3779 43.3357C38.6742 43.3357 39.6494 43.0023 40.5631 42.3329C41.4126 41.7106 42.2027 40.7976 43.1504 39.7026L43.2 39.6453C43.8588 38.8842 44.4682 38.0673 44.9244 37.2358C46.6078 34.1681 47.0275 30.7017 47.1103 28.5406C47.1749 26.855 45.781 25.625 44.1961 25.625H43.6068C43.0545 25.625 42.6068 25.1773 42.6068 24.625C42.6068 23.2443 41.4875 22.125 40.1068 22.125H34.9408ZM33.6491 24.9167C33.6491 24.2033 34.2274 23.625 34.9408 23.625H40.1068C40.6591 23.625 41.1068 24.0727 41.1068 24.625C41.1068 26.0057 42.2261 27.125 43.6068 27.125H44.1961C45.0338 27.125 45.6396 27.7481 45.6114 28.4832C45.5323 30.5479 45.1297 33.7436 43.6094 36.5142C43.2205 37.223 42.6819 37.9518 42.0658 38.6636C41.0557 39.8307 40.3736 40.6123 39.6766 41.1229C39.0291 41.5973 38.3667 41.8357 37.3779 41.8357C36.3891 41.8357 35.7268 41.5973 35.0792 41.1229C34.3823 40.6123 33.7002 39.8307 32.6901 38.6636C32.074 37.9518 31.5354 37.223 31.1465 36.5142C29.668 33.8198 29.2476 30.9366 29.1522 29.0459C29.1159 28.3265 29.7084 27.7083 30.5486 27.7083H30.8574C32.3992 27.7083 33.6491 26.4585 33.6491 24.9167Z" fill="#8E8E8E"/>
</g>
<defs>
<filter id="filter0_d_771_2934" x="0.37793" y="0.410156" width="74" height="75" filterUnits="userSpaceOnUse" color-interpolation-filters="sRGB">
<feFlood flood-opacity="0" result="BackgroundImageFix"/>
<feColorMatrix in="SourceAlpha" type="matrix" values="0 0 0 0 0 0 0 0 0 0 0 0 0 0 0 0 0 0 127 0" result="hardAlpha"/>
<feMorphology radius="1" operator="dilate" in="SourceAlpha" result="effect1_dropShadow_771_2934"/>
<feOffset dy="5"/>
<feGaussianBlur stdDeviation="8.5"/>
<feComposite in2="hardAlpha" operator="out"/>
<feColorMatrix type="matrix" values="0 0 0 0 0.2 0 0 0 0 0.2 0 0 0 0 0.2 0 0 0 0.06 0"/>
<feBlend mode="normal" in2="BackgroundImageFix" result="effect1_dropShadow_771_2934"/>
<feBlend mode="normal" in="SourceGraphic" in2="effect1_dropShadow_771_2934" result="shape"/>
</filter>
<clipPath id="clip0_771_2934">
<rect width="24" height="24" fill="white" transform="translate(24.9404 21.375)"/>
</clipPath>
</defs>
</svg>
