<svg width="75" height="76" viewBox="0 0 75 76" fill="none" xmlns="http://www.w3.org/2000/svg">
<g filter="url(#filter0_d_771_2962)">
<ellipse cx="37.3467" cy="32.9102" rx="19" ry="19.5" fill="white"/>
</g>
<g clip-path="url(#clip0_771_2962)">
<path fill-rule="evenodd" clip-rule="evenodd" d="M37.4561 31.5859C35.9373 31.5859 34.7061 32.8172 34.7061 34.3359C34.7061 35.5947 35.5518 36.656 36.7061 36.9824V40.3359C36.7061 40.7502 37.0419 41.0859 37.4561 41.0859C37.8703 41.0859 38.2061 40.7502 38.2061 40.3359V36.9824C39.3603 36.656 40.2061 35.5947 40.2061 34.3359C40.2061 32.8172 38.9749 31.5859 37.4561 31.5859ZM36.2061 34.3359C36.2061 33.6456 36.7657 33.0859 37.4561 33.0859C38.1464 33.0859 38.7061 33.6456 38.7061 34.3359C38.7061 35.0263 38.1464 35.5859 37.4561 35.5859C36.7657 35.5859 36.2061 35.0263 36.2061 34.3359Z" fill="#8E8E8E"/>
<path fill-rule="evenodd" clip-rule="evenodd" d="M37.4561 22.5859C34.2805 22.5859 31.7061 25.1603 31.7061 28.3359V28.8587L31.6792 28.8674C29.9287 29.4361 28.5563 30.8086 27.9875 32.5591C27.7056 33.4266 27.7058 34.4678 27.7061 36.1741V36.4978C27.7058 38.2041 27.7056 39.2453 27.9875 40.1128C28.5563 41.8633 29.9287 43.2357 31.6792 43.8045C32.5468 44.0864 33.588 44.0862 35.2942 44.086H39.618C41.3242 44.0862 42.3654 44.0864 43.2329 43.8045C44.9835 43.2357 46.3559 41.8633 46.9247 40.1128C47.2065 39.2453 47.2064 38.2041 47.2061 36.4978V36.1741C47.2064 34.4678 47.2065 33.4266 46.9247 32.5591C46.3559 30.8086 44.9835 29.4361 43.2329 28.8674L43.2061 28.8587V28.3359C43.2061 25.1603 40.6317 22.5859 37.4561 22.5859ZM35.3721 28.5859C34.4929 28.5859 33.7912 28.5859 33.2061 28.619V28.3359C33.2061 25.9887 35.1089 24.0859 37.4561 24.0859C39.8033 24.0859 41.7061 25.9887 41.7061 28.3359V28.619C41.121 28.5859 40.4193 28.5859 39.5401 28.5859H35.3721ZM32.5807 30.1892C33.1783 30.0886 33.9842 30.0859 35.4561 30.0859H39.4561C40.9279 30.0859 41.7339 30.0886 42.3315 30.1892C42.4967 30.2171 42.6392 30.2517 42.7694 30.2939C44.0633 30.7143 45.0777 31.7288 45.4981 33.0226C45.6968 33.6343 45.7061 34.4163 45.7061 36.3359C45.7061 38.2556 45.6968 39.0375 45.4981 39.6493C45.0777 40.9431 44.0633 41.9575 42.7694 42.3779C42.1577 42.5767 41.3757 42.5859 39.4561 42.5859H35.4561C33.5364 42.5859 32.7545 42.5767 32.1428 42.3779C30.8489 41.9575 29.8345 40.9431 29.4141 39.6493C29.2153 39.0375 29.2061 38.2556 29.2061 36.3359C29.2061 34.4163 29.2153 33.6343 29.4141 33.0226C29.8345 31.7288 30.8489 30.7143 32.1428 30.2939C32.2729 30.2517 32.4154 30.2171 32.5807 30.1892Z" fill="#8E8E8E"/>
</g>
<defs>
<filter id="filter0_d_771_2962" x="0.34668" y="0.410156" width="74" height="75" filterUnits="userSpaceOnUse" color-interpolation-filters="sRGB">
<feFlood flood-opacity="0" result="BackgroundImageFix"/>
<feColorMatrix in="SourceAlpha" type="matrix" values="0 0 0 0 0 0 0 0 0 0 0 0 0 0 0 0 0 0 127 0" result="hardAlpha"/>
<feMorphology radius="1" operator="dilate" in="SourceAlpha" result="effect1_dropShadow_771_2962"/>
<feOffset dy="5"/>
<feGaussianBlur stdDeviation="8.5"/>
<feComposite in2="hardAlpha" operator="out"/>
<feColorMatrix type="matrix" values="0 0 0 0 0.2 0 0 0 0 0.2 0 0 0 0 0.2 0 0 0 0.06 0"/>
<feBlend mode="normal" in2="BackgroundImageFix" result="effect1_dropShadow_771_2962"/>
<feBlend mode="normal" in="SourceGraphic" in2="effect1_dropShadow_771_2962" result="shape"/>
</filter>
<clipPath id="clip0_771_2962">
<rect width="24" height="24" fill="white" transform="translate(24.9092 21.375)"/>
</clipPath>
</defs>
</svg>
