<svg width="229" height="52" viewBox="0 0 229 52" fill="none" xmlns="http://www.w3.org/2000/svg">
<g clip-path="url(#clip0_765_2228)">
<path d="M71.6374 13.9688H68.5264V38.3826H83.9872V35.3604H71.6374V13.9688Z" fill="black"/>
<path d="M202.303 22.7515L200.229 20.957L194.289 27.757L188.397 21.0043L188.35 20.957L186.323 22.7515L192.498 29.882L186.37 36.9181L186.323 37.0126L188.35 38.807L194.289 31.9598L200.181 38.7598L200.229 38.807L202.303 37.0126L196.128 29.882L202.255 22.7987L202.303 22.7515Z" fill="black"/>
<path d="M161.763 31.5354L145.124 13.9688H144.511V38.3826H147.622V20.8632L164.261 38.3826H164.874V13.9688H161.763V31.5354Z" fill="black"/>
<path d="M208.332 21.332H205.409V38.4265H208.332V21.332Z" fill="black"/>
<path d="M208.474 13.9688H205.269V16.7076H208.474V13.9688Z" fill="black"/>
<path d="M177.082 21.0508C172.321 21.0508 168.55 24.923 168.55 29.8813C168.55 34.7924 172.274 38.7119 177.317 38.7119C180.287 38.7119 182.691 37.4841 184.152 35.9258L182.078 34.1313C180.994 35.123 179.344 35.973 177.317 35.973C174.206 35.973 171.849 33.7063 171.614 30.6369H185.472C185.33 24.498 181.842 21.0508 177.082 21.0508ZM171.661 28.0397C172.274 25.4424 174.395 23.7897 176.893 23.7897C179.486 23.7424 181.654 25.2536 182.078 28.0397H171.661Z" fill="black"/>
<path d="M219.125 28.6539L217.664 28.1345C215.59 27.4261 215.071 26.5761 215.071 25.5372C215.071 24.3567 216.25 23.6484 217.57 23.6484C218.795 23.6484 219.691 24.1678 220.445 24.9706L222.425 23.2234C221.199 21.7122 219.502 21.0039 217.57 21.0039C214.364 21.0039 212.055 22.9872 212.055 25.5372C212.055 27.5678 213.139 29.4567 216.25 30.59L217.617 31.1095C219.691 31.8178 220.633 32.5261 220.633 33.8484C220.633 35.1234 219.219 36.0206 217.475 36.0206C215.59 36.0206 214.411 35.1706 213.28 33.8484L211.206 35.69C212.714 37.5317 214.93 38.665 217.428 38.665C221.293 38.665 223.697 36.4928 223.697 33.8011C223.744 31.2511 222.142 29.74 219.125 28.6539Z" fill="black"/>
<path d="M119.014 22.7515L116.94 20.957L111.001 27.757L105.108 21.0043L105.061 20.957L102.987 22.7515L109.209 29.882L103.034 36.9181L102.987 37.0126L105.061 38.807L111.001 31.9598L116.893 38.7598L116.94 38.807L119.014 37.0126L112.839 29.882L118.967 22.7987L119.014 22.7515Z" fill="black"/>
<path d="M125.043 21.332H122.12V38.4265H125.043V21.332Z" fill="black"/>
<path d="M125.185 13.9688H121.979V16.7076H125.185V13.9688Z" fill="black"/>
<path d="M93.7456 21.0508C88.9848 21.0508 85.2139 24.923 85.2139 29.8813C85.2139 34.7924 88.9377 38.7119 93.9813 38.7119C96.9509 38.7119 99.3549 37.4841 100.816 35.9258L98.7421 34.1313C97.658 35.123 96.0082 35.973 93.9813 35.973C90.8703 35.973 88.5134 33.7063 88.2777 30.6369H102.136C101.995 24.498 98.5535 21.0508 93.7456 21.0508ZM88.372 28.0397C88.9848 25.4424 91.106 23.7897 93.6042 23.7897C96.1967 23.7424 98.365 25.2536 98.7892 28.0397H88.372Z" fill="black"/>
<path d="M135.836 28.6539L134.375 28.1345C132.301 27.4261 131.782 26.5761 131.782 25.5372C131.782 24.3567 132.961 23.6484 134.28 23.6484C135.506 23.6484 136.402 24.1678 137.156 24.9706L139.136 23.2234C137.91 21.7122 136.213 21.0039 134.28 21.0039C131.075 21.0039 128.765 22.9872 128.765 25.5372C128.765 27.5678 129.85 29.4567 132.961 30.59L134.328 31.1095C136.402 31.8178 137.344 32.5261 137.344 33.8484C137.344 35.1234 135.93 36.0206 134.186 36.0206C132.301 36.0206 131.122 35.1706 129.991 33.8484L127.917 35.69C129.425 37.5317 131.641 38.665 134.139 38.665C138.004 38.665 140.408 36.4928 140.408 33.8011C140.408 31.2511 138.806 29.74 135.836 28.6539Z" fill="black"/>
<path d="M226.148 16.707C224.876 16.707 223.886 17.7459 223.886 18.9737C223.886 20.2487 224.876 21.2404 226.148 21.2404C227.421 21.2404 228.411 20.2487 228.411 18.9737C228.411 17.7459 227.421 16.707 226.148 16.707ZM226.148 20.9098C225.111 20.9098 224.263 20.0598 224.263 18.9737C224.263 17.9348 225.111 17.0376 226.148 17.0376C227.185 17.0376 228.034 17.8876 228.034 18.9737C228.034 20.0598 227.185 20.9098 226.148 20.9098Z" fill="black"/>
<path d="M227.091 18.404C227.091 17.9318 226.761 17.6484 226.195 17.6484H225.3V20.2457H225.724V19.1595H226.148L226.714 20.2457H227.185L226.572 19.1123C226.95 19.0179 227.091 18.7818 227.091 18.404ZM226.148 18.829H225.677V18.0734H226.148C226.525 18.0734 226.667 18.1679 226.667 18.4512C226.667 18.6873 226.525 18.829 226.148 18.829Z" fill="black"/>
<path d="M53.8202 9.43359C52.5475 9.43359 51.5576 10.4725 51.5576 11.7003C51.5576 12.9753 52.5475 13.9669 53.8202 13.9669C55.0929 13.9669 56.0827 12.9753 56.0827 11.7003C56.0827 10.4253 55.0929 9.43359 53.8202 9.43359ZM53.8202 13.5891C52.7832 13.5891 51.9347 12.7391 51.9347 11.653C51.9347 10.6141 52.7832 9.71693 53.8202 9.71693C54.8572 9.71693 55.7056 10.5669 55.7056 11.653C55.7056 12.7864 54.8572 13.5891 53.8202 13.5891Z" fill="black"/>
<path d="M54.7629 11.0876C54.7629 10.6154 54.4329 10.332 53.8673 10.332H52.9717V12.882H53.3959V11.7959H53.8201L54.3858 12.882H54.8571L54.2444 11.7487C54.5743 11.7015 54.7629 11.4654 54.7629 11.0876ZM53.8201 11.5126H53.3488V10.757H53.8201C54.1972 10.757 54.3386 10.8515 54.3386 11.1348C54.3386 11.3709 54.1972 11.5126 53.8201 11.5126Z" fill="black"/>
<path d="M9.9837 23.6945C12.6705 18.3112 17.1485 13.9668 22.3806 11.4168C22.9934 11.1334 23.6062 10.8501 24.2661 10.614C24.3132 10.614 24.3132 10.5195 24.219 10.5195C5.55285 13.6834 -2.46038 36.9168 9.9837 46.8806C10.0308 46.9279 10.078 46.8806 10.078 46.8334C8.28678 44.3306 3.99734 35.7362 9.9837 23.6945Z" fill="#E8171F"/>
<path d="M14.2735 39.1833C13.8021 36.1139 13.8021 32.9972 14.2735 29.975C15.2633 23.9306 18.1387 18.4056 22.3338 14.3444C23.088 13.5889 23.9365 12.8806 24.7849 12.2194C24.8321 12.1722 24.7849 12.125 24.7378 12.125C14.9805 16.5167 9.37125 27.425 10.0783 37.3417C10.4554 41.875 12.2466 50.2333 20.9197 51.8861C20.9669 51.8861 21.014 51.8389 20.9669 51.7917C17.3845 49.3361 14.8862 43.575 14.2735 39.1833Z" fill="#E8171F"/>
<path d="M2.20658 16.8032C6.54315 10.6171 15.4991 6.46151 24.2665 7.54762C24.3137 7.54762 24.3608 7.45317 24.2665 7.45317C17.5731 5.51706 10.644 6.79206 6.40174 10.2393C4.61055 11.7504 3.19645 14.3004 2.1123 16.7559C2.1123 16.8504 2.15944 16.8976 2.20658 16.8032Z" fill="#E8171F"/>
<path d="M51.4665 24.5458C50.2881 10.4263 37.6084 -0.293116 23.5145 0.981884C18.6123 1.45411 13.3801 3.48466 9.46777 6.79022C9.42063 6.83744 9.46777 6.88466 9.5149 6.88466C12.8616 4.94855 17.4339 4.99577 20.1678 5.32633C21.5819 5.51522 22.996 5.79855 24.3629 6.22355C25.7299 6.64855 27.0497 7.21522 28.3224 7.87633C28.9823 8.20688 29.5951 8.58466 30.255 9.00966C32.5647 7.97077 34.9687 7.30966 37.4198 6.97911C37.6083 6.93188 37.7498 7.02633 37.844 7.21522C37.9383 7.45133 37.7969 7.64022 37.5612 7.68744C36.2414 7.97077 34.9687 8.34855 33.696 8.82077C33.6489 8.82077 33.6489 8.91522 33.696 8.91522C35.4872 8.91522 37.2784 9.10411 38.9753 9.48188C39.1167 9.52911 39.2581 9.62355 39.2581 9.81244C39.3053 10.0486 39.0696 10.2374 38.8339 10.2374C37.3255 10.0013 35.77 9.90688 34.2616 9.95411C34.2145 9.95411 34.1674 10.0486 34.2616 10.0486C34.9687 10.2847 35.6757 10.5208 36.3828 10.8041C37.7026 11.3236 38.9282 11.9847 40.1537 12.693C40.248 12.7402 40.3423 12.8819 40.3423 13.0236C40.2951 13.3069 40.0123 13.4486 39.8238 13.3069C38.6454 12.6458 37.4198 12.0791 36.1 11.6541C35.5815 11.4652 35.0158 11.2763 34.4502 11.1347C34.4031 11.1347 34.3559 11.1819 34.4031 11.2291C35.2987 11.7958 36.1471 12.4097 36.9484 13.118C38.0326 14.0152 39.0225 15.0069 39.918 16.093C40.0123 16.1874 40.0123 16.3291 39.9652 16.4708C39.8238 16.7541 39.541 16.7541 39.3524 16.5652C38.4568 15.5736 37.4198 14.6291 36.3828 13.7791C35.77 13.3069 35.1101 12.8347 34.4031 12.4097C34.3559 12.3624 34.3088 12.4569 34.3559 12.5041C34.5445 12.693 34.733 12.9291 34.9216 13.118C35.8643 14.2041 36.7128 15.3374 37.4198 16.518C38.1269 17.7458 38.7396 19.0208 39.2581 20.2958C39.3053 20.4374 39.3053 20.5791 39.211 20.6736C39.0224 20.8624 38.6925 20.8152 38.5982 20.5791C38.0797 19.3041 37.4669 18.1236 36.7599 16.943C36.0528 15.8097 35.2044 14.7236 34.2616 13.7319C33.3189 12.7402 32.329 11.843 31.2449 10.993C30.9149 10.7569 30.4907 10.4263 30.3022 10.3319C9.09067 22.1847 16.444 53.2569 31.7634 51.6513C43.9718 48.7708 52.5035 37.343 51.4665 24.5458Z" fill="#E8171F"/>
<path d="M5.41226 20.6256C10.3145 12.8811 18.8462 9.52835 24.0784 9.05613C24.1255 9.05613 24.1255 8.96169 24.0784 8.96169C21.9101 8.7728 19.9304 8.91446 17.2907 9.48113C14.651 10.095 12.1057 11.1339 9.84311 12.5978C7.58055 14.0617 5.55367 15.9506 3.90389 18.1228L3.85675 18.17C0.698598 22.3728 -0.291272 27.8034 0.934281 32.9034C1.07569 33.47 1.45278 34.6978 1.7356 35.4534C1.7356 35.5006 1.82988 35.5006 1.82988 35.4534C1.2171 29.4089 2.96116 24.5922 5.41226 20.6256Z" fill="#E8171F"/>
</g>
<defs>
<clipPath id="clip0_765_2228">
<rect width="228" height="51" fill="white" transform="translate(0.416992 0.886719)"/>
</clipPath>
</defs>
</svg>
