<svg width="102" height="30" viewBox="0 0 102 30" fill="none" xmlns="http://www.w3.org/2000/svg">
<path d="M15.2248 1.00036L28.1866 28.7461H23.7142L20.8154 22.1202H7.81213L4.87191 28.7461H0.399467L13.3613 1.00036H15.2248ZM14.3552 7.29491L9.34436 18.6003H19.2831L14.3552 7.29491ZM39.1077 2.07706V8.04032H45.1538V11.229H39.1077V23.3626C39.1077 24.2184 39.3285 24.8948 39.7703 25.3918C40.212 25.8887 40.8884 26.1372 41.7994 26.1372C42.6277 26.1372 43.3178 26.0405 43.87 25.8473C44.4222 25.6264 44.9053 25.3918 45.3194 25.1433V27.9179C44.7672 28.3596 44.1737 28.7047 43.5387 28.9532C42.9313 29.2292 42.1031 29.3673 41.054 29.3673C39.2871 29.3673 37.9481 28.8427 37.0371 27.7936C36.1536 26.7169 35.7119 25.2951 35.7119 23.5282V11.229H31.7364V10.2351C33.0892 9.62776 34.2211 8.63388 35.1322 7.2535C36.0432 5.84551 36.8438 4.12003 37.534 2.07706H39.1077ZM61.9552 7.6262C64.0534 7.6262 65.917 8.12314 67.5458 9.11702C69.1747 10.1109 70.4446 11.4361 71.3557 13.0925C72.2943 14.749 72.7637 16.5573 72.7637 18.5174C72.7637 20.4776 72.2943 22.2859 71.3557 23.9424C70.4446 25.5712 69.1747 26.8826 67.5458 27.8765C65.917 28.8703 64.0534 29.3673 61.9552 29.3673C59.8571 29.3673 57.9935 28.8703 56.3647 27.8765C54.7358 26.8826 53.4521 25.5712 52.5134 23.9424C51.6024 22.2859 51.1468 20.4776 51.1468 18.5174C51.1468 16.5573 51.6024 14.749 52.5134 13.0925C53.4521 11.4361 54.7358 10.1109 56.3647 9.11702C57.9935 8.12314 59.8571 7.6262 61.9552 7.6262ZM61.9552 10.9391C60.492 10.9391 59.2083 11.298 58.104 12.0158C56.9997 12.706 56.1438 13.6309 55.5365 14.7904C54.9567 15.9223 54.6668 17.1647 54.6668 18.5174C54.6668 19.8426 54.9567 21.085 55.5365 22.2445C56.1438 23.3764 56.9997 24.3013 58.104 25.0191C59.2083 25.7092 60.492 26.0543 61.9552 26.0543C63.4461 26.0543 64.7298 25.7092 65.8065 25.0191C66.9108 24.3013 67.7529 23.3764 68.3326 22.2445C68.94 21.085 69.2437 19.8426 69.2437 18.5174C69.2437 17.1647 68.94 15.9223 68.3326 14.7904C67.7529 13.6309 66.9108 12.706 65.8065 12.0158C64.7298 11.298 63.4461 10.9391 61.9552 10.9391ZM90.4348 0.337771C92.4778 0.337771 94.2447 0.682867 95.7355 1.37306C97.2539 2.03564 98.4272 2.9467 99.2555 4.10622C100.084 5.26575 100.498 6.60472 100.498 8.12314C100.498 9.47592 100.111 10.7183 99.3383 11.8502C98.5653 12.9545 97.599 13.7827 96.4395 14.3349C97.2677 14.5005 98.0821 14.8456 98.8828 15.3702C99.6834 15.8947 100.346 16.6125 100.871 17.5236C101.423 18.4346 101.699 19.5665 101.699 20.9193C101.699 22.4653 101.257 23.8595 100.374 25.1019C99.4901 26.3442 98.2202 27.3381 96.5637 28.0835C94.9349 28.8013 93.0023 29.1602 90.7661 29.1602C89.0544 29.1602 87.2599 29.0498 85.3826 28.8289C83.5329 28.6357 81.9592 28.401 80.6617 28.1249V1.37306C82.0973 1.04177 83.6571 0.793298 85.3412 0.627652C87.0529 0.434398 88.7507 0.337771 90.4348 0.337771ZM90.1863 3.85775C89.0268 3.85775 87.9777 3.89916 87.0391 3.98199C86.128 4.06481 85.2446 4.18905 84.3887 4.35469V13.0511H90.8903C92.7677 13.0511 94.2033 12.5818 95.1971 11.6431C96.191 10.6769 96.6879 9.55874 96.6879 8.28879C96.6879 7.29491 96.3843 6.48048 95.7769 5.84551C95.1695 5.18292 94.3689 4.68598 93.375 4.35469C92.4088 4.0234 91.3459 3.85775 90.1863 3.85775ZM84.3887 25.1433C85.3826 25.3365 86.4869 25.4746 87.7016 25.5574C88.9164 25.6126 89.9103 25.6402 90.6833 25.6402C92.7538 25.6402 94.4655 25.2123 95.8183 24.3565C97.1987 23.5006 97.8889 22.3549 97.8889 20.9193C97.8889 19.4009 97.2125 18.269 95.8597 17.5236C94.5345 16.7505 92.9057 16.364 90.9732 16.364H84.3887V25.1433Z" fill="#333333"/>
</svg>
