<svg width="86" height="62" viewBox="0 0 86 62" fill="none" xmlns="http://www.w3.org/2000/svg">
<path d="M6.24335 0.867188H61.1015L79.1168 61.6406H59.8116L56.5977 52.106H42.1177L38.8994 61.6406H1.57885L14.1663 19.1338H0.775391L6.24335 0.867188Z" fill="white"/>
<path d="M6.24335 0.867188H61.1015L79.1168 61.6406H59.8116L56.5977 52.106H42.1177L38.8994 61.6406H1.57885L14.1663 19.1338H0.775391L6.24335 0.867188Z" stroke="white" stroke-width="0.173333" stroke-miterlimit="3.864"/>
<path d="M51.7669 2.26884L46.8479 17.8176C46.9417 17.849 46.6694 17.8176 32.8901 17.8176L19.4768 60.1406H3.87641L16.3211 17.6965H3.02832L7.70176 2.26884H51.7669Z" fill="#0060A9"/>
<path d="M51.7669 2.26885L46.8479 17.8176C46.9417 17.849 46.6694 17.8176 32.8901 17.8176L19.4768 60.1406H3.87641L16.3211 17.6965H3.02832L7.70176 2.26885H51.7669Z" stroke="#0060A9" stroke-width="0.193333" stroke-miterlimit="3.864"/>
<path d="M49.3341 23.1273L45.2677 35.5682H53.463L49.3654 23.1228L49.3341 23.1273ZM54.3736 2.27304H59.5916L76.8302 60.082H61.1092L58.0159 50.4487H40.7148L37.617 60.2031H22.0791L34.5862 19.7727H48.6378L54.3736 2.27304Z" fill="#ED1C2E"/>
<path d="M49.3341 23.1273L45.2677 35.5682H53.463L49.3654 23.1228L49.3341 23.1273ZM54.3736 2.27305H59.5916L76.8302 60.082H61.1092L58.0159 50.4487H40.7148L37.617 60.2031H22.0791L34.5862 19.7727H48.6378L54.3736 2.27305Z" stroke="#ED1C2E" stroke-width="0.193333" stroke-miterlimit="3.864"/>
<path fill-rule="evenodd" clip-rule="evenodd" d="M81.6753 57.4932V56.3495H82.5948C82.9921 56.3495 83.4295 56.4123 83.4295 56.9101C83.4295 57.5694 82.7287 57.4932 82.2779 57.4932H81.6753ZM82.8136 57.8026C83.3849 57.7892 83.8313 57.5515 83.8313 56.9191L83.4697 56.2195L82.6841 56.0625H81.2825V59.2961H81.6753V57.8026H82.3984L83.3179 59.2961H83.7822L82.8136 57.8026ZM82.3538 60.2244C80.9522 60.2244 79.8229 59.0898 79.8229 57.677C79.8229 56.2733 80.9522 55.1386 82.3538 55.1386C83.7465 55.1386 84.8758 56.2733 84.8758 57.677C84.8758 59.0898 83.7465 60.2244 82.3538 60.2244ZM82.3538 60.5742C83.9429 60.5742 85.2239 59.2781 85.2239 57.677C85.2239 56.0849 83.9429 54.7888 82.3538 54.7888C80.7558 54.7888 79.4658 56.0849 79.4658 57.677C79.4658 59.2781 80.7558 60.5742 82.3538 60.5742Z" fill="black"/>
</svg>
