<svg width="212" height="26" viewBox="0 0 212 26" fill="none" xmlns="http://www.w3.org/2000/svg">
<path d="M174.395 7.32946C174.513 7.43443 174.663 7.49213 174.818 7.49213C174.974 7.49213 175.124 7.43443 175.242 7.32946L176.739 5.66407C176.844 5.54681 176.903 5.3921 176.903 5.23137C176.903 5.07063 176.844 4.91592 176.739 4.79866C176.177 4.14358 175.54 3.56232 174.843 3.06782C172.277 1.20062 169.162 0.330518 166.042 0.60975C162.955 0.645694 160.004 1.93701 157.822 4.20709C155.639 6.47716 154.399 9.54544 154.366 12.7547V13.0892C154.366 16.3681 155.619 19.5127 157.85 21.8312C160.08 24.1498 163.105 25.4523 166.259 25.4523H168.358C171.856 25.4523 177.41 23.4233 177.41 17.9908V12.8783C177.411 12.7211 177.382 12.5652 177.325 12.4197C177.268 12.2741 177.183 12.1418 177.077 12.0302C176.97 11.9187 176.843 11.8302 176.704 11.7698C176.564 11.7094 176.414 11.6784 176.263 11.6784H167.308C167.028 11.6803 166.759 11.7976 166.561 12.0047C166.363 12.2118 166.252 12.4918 166.252 12.7838V13.9764C166.252 14.1206 166.279 14.2634 166.332 14.3967C166.385 14.5299 166.463 14.651 166.561 14.7529C166.659 14.8549 166.776 14.9358 166.904 14.991C167.032 15.0462 167.17 15.0746 167.308 15.0746H173.535C173.678 15.0765 173.815 15.1371 173.916 15.2433C174.017 15.3494 174.073 15.4926 174.073 15.6418V17.6199C173.898 20.4852 170.806 21.8961 167.826 21.9834H166.126C163.956 21.9618 161.878 21.0673 160.329 19.4877C158.779 17.9081 157.878 15.7661 157.815 13.511V12.8201C157.815 7.86761 162.11 4.28959 166.112 4.09323C168.364 3.99253 170.592 4.60086 172.506 5.83861C173.014 6.16721 173.496 6.53682 173.947 6.94402" fill="#333333"/>
<path d="M19.2967 1.08987H1.38061C1.25324 1.08891 1.12695 1.11416 1.00902 1.16417C0.891078 1.21417 0.783824 1.28794 0.693435 1.38123C0.603046 1.47452 0.531308 1.58548 0.482354 1.70772C0.433401 1.82995 0.4082 1.96105 0.408203 2.09346L0.408203 3.43159C0.408203 3.70161 0.51139 3.96058 0.695064 4.15152C0.878738 4.34246 1.12785 4.44972 1.38761 4.44972H8.10353C8.18279 4.44875 8.26145 4.46426 8.33487 4.49534C8.40828 4.52643 8.47498 4.57246 8.53104 4.63073C8.58709 4.689 8.63137 4.75834 8.66127 4.83466C8.69118 4.91098 8.7061 4.99275 8.70516 5.07515V24.0852C8.70516 24.3418 8.80319 24.5878 8.97768 24.7692C9.15217 24.9506 9.38883 25.0525 9.63559 25.0525H10.9578C11.2175 25.0525 11.4667 24.9452 11.6503 24.7543C11.834 24.5633 11.9372 24.3043 11.9372 24.0343V5.06788C11.9372 4.90393 11.9998 4.7467 12.1114 4.63078C12.2229 4.51485 12.3741 4.44972 12.5318 4.44972H19.2268C19.4958 4.44972 19.7538 4.33862 19.944 4.14087C20.1343 3.94311 20.2411 3.67489 20.2411 3.39522V2.07892C20.2412 1.81786 20.1419 1.56739 19.965 1.38211C19.788 1.19684 19.5478 1.09179 19.2967 1.08987Z" fill="#32AAC6"/>
<path d="M41.4305 0.632812C34.5956 0.632812 29.041 6.23257 29.041 13.1123C29.041 19.992 34.5956 25.5917 41.4305 25.5917C48.2653 25.5917 53.827 19.992 53.827 13.1123C53.827 6.23257 48.2653 0.632812 41.4305 0.632812ZM41.4305 22.0646C40.2594 22.0838 39.0962 21.863 38.0074 21.4146C36.9185 20.9662 35.9253 20.2992 35.0846 19.4515C34.2439 18.6039 33.5721 17.5923 33.1077 16.4747C32.6433 15.357 32.3953 14.1551 32.378 12.9377C32.47 10.5059 33.464 8.20555 35.1516 6.51883C36.8392 4.8321 39.0894 3.88999 41.4305 3.88999C43.7716 3.88999 46.0218 4.8321 47.7094 6.51883C49.397 8.20555 50.391 10.5059 50.483 12.9377C50.4657 14.1551 50.2177 15.357 49.7533 16.4747C49.2889 17.5923 48.6171 18.6039 47.7764 19.4515C46.9357 20.2992 45.9425 20.9662 44.8536 21.4146C43.7647 21.863 42.6015 22.0838 41.4305 22.0646Z" fill="#32AAC6"/>
<path d="M77.3599 1.13281H65.8449C65.5703 1.13281 65.307 1.24621 65.1128 1.44806C64.9187 1.64991 64.8096 1.92367 64.8096 2.20913V24.2663C64.8114 24.485 64.8963 24.694 65.0456 24.8479C65.195 25.0018 65.3968 25.0881 65.6071 25.0881H67.2371C67.4505 25.0881 67.6551 25 67.806 24.8432C67.9568 24.6863 68.0416 24.4736 68.0416 24.2518L68.0556 15.8449C68.0556 15.786 68.0669 15.7277 68.0887 15.6734C68.1106 15.6191 68.1427 15.5699 68.1831 15.5286C68.2234 15.4873 68.2713 15.4548 68.3239 15.4329C68.3765 15.4111 68.4327 15.4003 68.4893 15.4013H76.1847C76.2707 15.4021 76.355 15.4267 76.4288 15.4728C76.5026 15.5188 76.5632 15.5845 76.6044 15.6631L81.2776 24.5863C81.3494 24.7174 81.4504 24.8288 81.5721 24.911C81.6938 24.9932 81.8327 25.044 81.9771 25.059H83.9989C84.1316 25.0671 84.2641 25.0422 84.3858 24.9866C84.5074 24.931 84.6146 24.8461 84.6985 24.739C84.7902 24.6161 84.8451 24.4677 84.8563 24.3126C84.8675 24.1574 84.8345 24.0022 84.7614 23.8664L84.6215 23.59L80.508 15.7504C80.4838 15.7056 80.4702 15.6555 80.4685 15.6041C80.4668 15.5528 80.477 15.5018 80.4983 15.4554C80.5196 15.4091 80.5513 15.3687 80.5907 15.3378C80.6302 15.3068 80.6762 15.2862 80.7249 15.2776C82.1284 14.9643 83.3867 14.1618 84.2914 13.0031C85.196 11.8445 85.6926 10.3993 85.6989 8.90702V7.91797C85.6989 3.6927 82.8096 1.34371 77.3599 1.13281ZM82.4109 8.57249C82.257 10.8633 80.8578 11.976 78.0595 11.976H68.4683C68.37 11.976 68.2757 11.9354 68.2062 11.8631C68.1366 11.7908 68.0976 11.6928 68.0976 11.5905V4.93628C68.0976 4.80898 68.1462 4.6869 68.2328 4.59689C68.3194 4.50687 68.4368 4.4563 68.5593 4.4563H77.9826C80.6759 4.54357 82.4109 5.98351 82.4109 8.09251V8.57249Z" fill="#32AAC6"/>
<path d="M137.232 1.80187C137.15 1.62209 137.025 1.46667 136.87 1.34979C136.715 1.23292 136.534 1.15832 136.344 1.13281H134.245C133.769 1.13281 133.406 1.65643 133.294 1.91096L123.185 23.9318C123.138 24.0367 123.114 24.1508 123.114 24.2663C123.114 24.3818 123.138 24.496 123.185 24.6009C123.242 24.7351 123.335 24.8496 123.453 24.9307C123.571 25.0119 123.708 25.0564 123.849 25.059H126.06C126.196 25.0601 126.329 25.0202 126.443 24.944C126.557 24.8678 126.648 24.7587 126.704 24.63L135.099 6.30349C135.123 6.25158 135.163 6.2086 135.211 6.18009C135.26 6.15158 135.316 6.13884 135.371 6.1435C135.426 6.13934 135.481 6.15238 135.528 6.18091C135.575 6.20945 135.613 6.25216 135.637 6.30349L143.703 24.6227C143.759 24.7551 143.851 24.8673 143.968 24.945C144.085 25.0227 144.222 25.0624 144.361 25.059H146.656C146.774 25.0546 146.89 25.0206 146.994 24.9599C147.097 24.8991 147.185 24.8134 147.25 24.71C147.318 24.6033 147.358 24.4799 147.365 24.3522C147.372 24.2245 147.347 24.0971 147.292 23.9827L137.232 1.80187Z" fill="#333333"/>
<path d="M211.575 11.1265C210.651 5.1122 205.383 0.574219 199.283 0.574219C193.183 0.574219 187.894 5.1122 186.999 11.1265C186.982 11.2372 186.988 11.3503 187.017 11.4583C187.046 11.5662 187.097 11.6664 187.167 11.7519C187.239 11.8385 187.328 11.908 187.428 11.9557C187.528 12.0033 187.637 12.0281 187.747 12.0283H189.237C189.566 12.0348 189.886 11.9211 190.141 11.707C190.397 11.493 190.572 11.1922 190.636 10.8574C191.518 6.69759 194.876 4.04316 199.311 4.04316C203.746 4.04316 207.097 6.69759 207.986 10.8574C208.05 11.1922 208.225 11.493 208.481 11.707C208.737 11.9211 209.057 12.0348 209.385 12.0283H210.875C210.985 12.0281 211.094 12.0033 211.194 11.9557C211.294 11.908 211.384 11.8385 211.456 11.7519C211.515 11.6613 211.556 11.5593 211.577 11.4518C211.597 11.3443 211.596 11.2337 211.575 11.1265Z" fill="#333333"/>
<path d="M210.803 15.4297H208.809C208.553 15.4306 208.304 15.5134 208.095 15.667C207.885 15.8205 207.727 16.0373 207.641 16.2878C206.388 19.8222 203.226 22.0039 199.246 22.0039C195.405 22.0039 192.25 19.9022 190.97 16.4987C190.855 16.1885 190.654 15.921 190.393 15.7305C190.131 15.54 189.82 15.4352 189.501 15.4297H187.731C187.646 15.4305 187.562 15.4512 187.486 15.4902C187.409 15.5292 187.343 15.5856 187.29 15.6551C187.238 15.7254 187.201 15.8069 187.183 15.8937C187.165 15.9805 187.166 16.0704 187.185 16.1569C188.535 21.7276 193.383 25.4729 199.246 25.4729C205.227 25.4729 209.963 21.8367 211.314 16.1569C211.333 16.0704 211.334 15.9805 211.316 15.8937C211.297 15.8069 211.261 15.7254 211.209 15.6551C211.16 15.5901 211.099 15.5365 211.029 15.4977C210.959 15.4588 210.882 15.4357 210.803 15.4297Z" fill="#333333"/>
<path d="M116.571 6.615C115.732 1.68431 111.492 1.20433 110.184 1.16797H97.5496H97.4797C97.2661 1.2309 97.0766 1.36129 96.9375 1.54109C96.7984 1.7209 96.7165 1.94123 96.7031 2.17156V24.0906C96.705 24.3504 96.805 24.599 96.9818 24.7827C97.1585 24.9664 97.3976 25.0705 97.6476 25.0724H98.9628C99.2225 25.0724 99.4716 24.9651 99.6553 24.7742C99.839 24.5832 99.9422 24.3243 99.9422 24.0542V15.5528C99.9422 15.4821 99.9556 15.4121 99.9816 15.3468C100.008 15.2816 100.046 15.2222 100.094 15.1723C100.142 15.1223 100.199 15.0826 100.262 15.0556C100.325 15.0286 100.392 15.0146 100.46 15.0146H111.016C112.396 14.98 113.718 14.4341 114.744 13.4753C115.77 12.5165 116.433 11.2079 116.613 9.78577C116.613 9.70578 116.613 9.63305 116.613 9.56033V6.91317L116.571 6.615ZM113.318 8.43311C113.206 10.1203 112.618 11.6911 109.253 11.6911H100.446C100.321 11.6892 100.202 11.6363 100.114 11.5438C100.026 11.4512 99.9771 11.3265 99.9771 11.1966V5.00053C99.9762 4.93307 99.9882 4.86609 100.012 4.80348C100.037 4.74088 100.073 4.6839 100.118 4.63585C100.164 4.58781 100.218 4.54966 100.278 4.52362C100.338 4.49758 100.402 4.48418 100.467 4.48419H109.219C111.961 4.48419 113.353 5.66959 113.353 7.99676L113.318 8.43311Z" fill="#333333"/>
</svg>
