<svg width="186" height="27" viewBox="0 0 186 27" fill="none" xmlns="http://www.w3.org/2000/svg">
<g clip-path="url(#clip0_1143_2293)">
<path d="M168.746 1.77344H163.883V3.65058L171.16 13.9832L163.883 24.3135V26.193H168.746L177.344 13.9832L168.746 1.77344Z" fill="#FF5100"/>
<path d="M174.984 19.4231L179.758 26.2021H184.621V24.3249L178.075 15.0312L174.984 19.4231Z" fill="#FF5100"/>
<path d="M179.76 1.78125L174.992 8.55082L178.084 12.9427L184.623 3.66076V1.78125H179.76Z" fill="#FF5100"/>
<path d="M0.574219 1.80078H10.986C13.6009 1.80078 15.5378 2.39109 16.797 3.57168C18.0562 4.75228 18.685 6.56254 18.6835 9.00243C18.7014 10.4225 18.288 11.8108 17.5045 12.9622C16.685 14.147 15.56 15.0548 14.2652 15.5761L22.1719 26.2202H16.59L9.30407 16.3575H5.11489V26.2202H0.574219V1.80078ZM10.868 11.7485C12.0071 11.7485 12.8377 11.5352 13.3597 11.1087C13.8818 10.682 14.142 10.0083 14.1406 9.08744C14.1406 8.27519 14.0828 7.71086 13.9649 7.39919C13.8972 7.23716 13.7998 7.09107 13.6783 6.96944C13.5568 6.84782 13.4137 6.7531 13.2574 6.69083C12.4757 6.48806 11.6727 6.39283 10.868 6.40749H5.11489V11.7485H10.868Z" fill="#131410"/>
<path d="M40.8657 2.98972C42.6017 3.99464 44.0103 5.53403 44.9058 7.40515C45.852 9.30357 46.3244 11.5073 46.323 14.0164C46.3215 16.5257 45.8491 18.7295 44.9058 20.6278C44.0013 22.4957 42.5953 24.0371 40.8657 25.0575C39.1348 26.0807 37.1001 26.5922 34.761 26.5922C32.4221 26.5922 30.3821 26.0752 28.6408 25.0409C26.9104 24.0416 25.5063 22.5087 24.614 20.6445C23.6708 18.7255 23.1992 16.5131 23.1992 14.007C23.1992 11.5011 23.6708 9.28388 24.614 7.35557C25.5204 5.48578 26.9401 3.95189 28.6854 2.95665C30.4147 1.93346 32.4399 1.42188 34.761 1.42188C37.0823 1.42188 39.1171 1.94449 40.8657 2.98972ZM39.9223 19.8629C41.1416 18.4854 41.7511 16.5344 41.7511 14.0094C41.7511 11.4845 41.1416 9.53339 39.9223 8.15602C38.7033 6.77235 36.9829 6.08052 34.761 6.08052C32.5393 6.08052 30.8189 6.7692 29.5996 8.14657C28.379 9.52237 27.7695 11.4734 27.7709 14C27.7724 16.5265 28.382 18.4776 29.5996 19.8534C30.8174 21.2323 32.5378 21.9211 34.761 21.9194C36.9843 21.9178 38.7047 21.2323 39.9223 19.8629Z" fill="#131410"/>
<path d="M65.1099 20.1781H55.7017L53.4212 26.2204H48.5625L58.4158 1.67578H62.0131L72.6607 26.2323H67.7663L65.1099 20.1781ZM57.4703 15.6706H63.3101L60.3023 8.87744L57.4703 15.6706Z" fill="#131410"/>
<path d="M77.0859 1.80078H85.0127C87.5488 1.80078 89.7514 2.2864 91.6202 3.25764C93.4264 4.15704 94.9263 5.62764 95.9138 7.46766C96.8972 9.32671 97.3892 11.5077 97.3892 14.0105C97.3892 17.9349 96.3225 20.9508 94.1896 23.0587C92.0569 25.1664 88.9978 26.2202 85.0127 26.2202H77.0859V1.80078ZM84.7546 21.6183C87.5874 21.6183 89.6372 21.0178 90.9038 19.8167C92.1704 18.6157 92.8022 16.6803 92.7992 14.0105C92.7992 11.4227 92.1407 9.50774 90.8237 8.26575C89.5067 7.02376 87.4813 6.40276 84.7478 6.40276H81.6333V21.6183H84.7546Z" fill="#131410"/>
<path d="M114.513 15.7956H106.934V26.2202H102.391V1.80078H118.828V6.40276H106.934V11.1936H114.513V15.7956Z" fill="#131410"/>
<path d="M127.727 21.5535H139.26V26.1508H123.188V1.73828H127.727V21.5535Z" fill="#131410"/>
<path d="M147.608 21.6183H160.026V26.2202H143.078V1.80078H159.594V6.40276H147.608V11.2243H155.19V15.8264H147.608V21.6183Z" fill="#131410"/>
</g>
<defs>
<clipPath id="clip0_1143_2293">
<rect width="185" height="26" fill="white" transform="translate(0.5 0.746094)"/>
</clipPath>
</defs>
</svg>
