<svg width="171" height="195" viewBox="0 0 171 195" fill="none" xmlns="http://www.w3.org/2000/svg">
<rect x="16.2344" y="50.4453" width="134.038" height="130" rx="65" fill="url(#paint0_linear_1956_2936)"/>
<rect x="16.2344" y="50.4453" width="134.038" height="130" rx="65" fill="url(#paint1_linear_1956_2936)" fill-opacity="0.1" style="mix-blend-mode:darken"/>
<g filter="url(#filter0_d_1956_2936)">
<path d="M84.2982 74.7474C83.9127 74.3518 83.2796 74.3437 82.8841 74.7292L76.4388 81.0107C76.0432 81.3962 76.0351 82.0293 76.4206 82.4248C76.806 82.8203 77.4391 82.8285 77.8347 82.443L83.5638 76.8594L89.1474 82.5886C89.5329 82.9841 90.166 82.9922 90.5615 82.6068C90.9571 82.2213 90.9652 81.5882 90.5797 81.1927L84.2982 74.7474ZM83.9257 126.458L84.5819 75.4582L82.5821 75.4324L81.9259 126.432L83.9257 126.458Z" fill="white"/>
</g>
<g filter="url(#filter1_d_1956_2936)">
<path d="M59.9371 144.605C59.5538 144.605 59.2004 144.562 58.8771 144.475C58.5538 144.392 58.2638 144.287 58.0071 144.16C57.7538 144.03 57.5354 143.897 57.3521 143.76C57.1688 143.624 57.0238 143.504 56.9171 143.4L57.7471 142.06C57.8571 142.157 57.9888 142.265 58.1421 142.385C58.2954 142.505 58.4671 142.62 58.6571 142.73C58.8471 142.837 59.0521 142.927 59.2721 143C59.4954 143.07 59.7321 143.105 59.9821 143.105C60.2154 143.105 60.4204 143.069 60.5971 142.995C60.7771 142.922 60.9188 142.814 61.0221 142.67C61.1254 142.524 61.1771 142.342 61.1771 142.125C61.1771 141.929 61.1354 141.762 61.0521 141.625C60.9688 141.485 60.8454 141.36 60.6821 141.25C60.5221 141.137 60.3238 141.027 60.0871 140.92C59.8538 140.81 59.5871 140.69 59.2871 140.56C59.0638 140.46 58.8504 140.347 58.6471 140.22C58.4471 140.09 58.2688 139.94 58.1121 139.77C57.9554 139.6 57.8304 139.409 57.7371 139.195C57.6471 138.979 57.6021 138.737 57.6021 138.47C57.6021 138.154 57.6654 137.85 57.7921 137.56C57.9188 137.27 58.0988 137.012 58.3321 136.785C58.5688 136.559 58.8488 136.379 59.1721 136.245C59.4988 136.112 59.8621 136.045 60.2621 136.045C60.5621 136.045 60.8621 136.085 61.1621 136.165C61.4621 136.245 61.7421 136.35 62.0021 136.48C62.2621 136.61 62.4821 136.752 62.6621 136.905L61.9871 138.175C61.8438 138.052 61.6804 137.942 61.4971 137.845C61.3171 137.745 61.1238 137.665 60.9171 137.605C60.7138 137.545 60.5071 137.515 60.2971 137.515C60.0604 137.515 59.8588 137.557 59.6921 137.64C59.5288 137.724 59.4021 137.835 59.3121 137.975C59.2254 138.112 59.1821 138.265 59.1821 138.435C59.1821 138.575 59.2104 138.695 59.2671 138.795C59.3271 138.892 59.4104 138.977 59.5171 139.05C59.6238 139.12 59.7521 139.189 59.9021 139.255C60.0521 139.319 60.2171 139.387 60.3971 139.46C60.7838 139.624 61.1338 139.785 61.4471 139.945C61.7604 140.105 62.0288 140.284 62.2521 140.48C62.4754 140.674 62.6454 140.9 62.7621 141.16C62.8821 141.42 62.9421 141.73 62.9421 142.09C62.9421 142.617 62.8154 143.069 62.5621 143.445C62.3121 143.822 61.9621 144.11 61.5121 144.31C61.0621 144.507 60.5371 144.605 59.9371 144.605ZM64.3835 144.445V135.845H65.9185V139.895C66.1152 139.675 66.3602 139.499 66.6535 139.365C66.9502 139.232 67.2768 139.165 67.6335 139.165C68.0268 139.165 68.3718 139.252 68.6685 139.425C68.9685 139.595 69.2035 139.834 69.3735 140.14C69.5435 140.444 69.6285 140.799 69.6285 141.205V144.445H68.0935V141.53C68.0935 141.164 67.9968 140.879 67.8035 140.675C67.6135 140.469 67.3518 140.365 67.0185 140.365C66.7918 140.365 66.5952 140.412 66.4285 140.505C66.2652 140.595 66.1385 140.72 66.0485 140.88C65.9618 141.037 65.9185 141.215 65.9185 141.415V144.445H64.3835ZM73.8866 144.605C73.3233 144.605 72.815 144.49 72.3616 144.26C71.9083 144.027 71.5483 143.707 71.2816 143.3C71.015 142.89 70.8816 142.419 70.8816 141.885C70.8816 141.352 71.0133 140.882 71.2766 140.475C71.5433 140.065 71.9033 139.745 72.3566 139.515C72.8133 139.282 73.3233 139.165 73.8866 139.165C74.4533 139.165 74.9633 139.282 75.4166 139.515C75.87 139.745 76.2283 140.065 76.4916 140.475C76.7583 140.882 76.8916 141.352 76.8916 141.885C76.8916 142.419 76.7583 142.89 76.4916 143.3C76.2283 143.707 75.87 144.027 75.4166 144.26C74.9633 144.49 74.4533 144.605 73.8866 144.605ZM73.8916 143.295C74.1516 143.295 74.3883 143.235 74.6016 143.115C74.815 142.995 74.9833 142.83 75.1066 142.62C75.23 142.407 75.2916 142.162 75.2916 141.885C75.2916 141.609 75.23 141.365 75.1066 141.155C74.9833 140.942 74.815 140.775 74.6016 140.655C74.3883 140.535 74.1516 140.475 73.8916 140.475C73.6283 140.475 73.39 140.535 73.1766 140.655C72.9666 140.775 72.8 140.942 72.6766 141.155C72.5533 141.365 72.4916 141.609 72.4916 141.885C72.4916 142.162 72.5533 142.407 72.6766 142.62C72.8 142.83 72.9666 142.995 73.1766 143.115C73.39 143.235 73.6283 143.295 73.8916 143.295ZM79.9219 144.445L77.2319 139.325H78.9869L80.3869 142.4L81.7069 139.325H82.7519L84.0719 142.4L85.4719 139.325H87.2269L84.5369 144.445H83.5069L82.2269 141.49L80.9469 144.445H79.9219ZM90.7605 144.445V135.845H92.2955V144.445H90.7605ZM96.5603 144.605C96.007 144.605 95.5103 144.487 95.0703 144.25C94.6336 144.01 94.287 143.685 94.0303 143.275C93.7736 142.865 93.6453 142.402 93.6453 141.885C93.6453 141.505 93.717 141.15 93.8603 140.82C94.007 140.49 94.2103 140.202 94.4703 139.955C94.7303 139.705 95.032 139.512 95.3753 139.375C95.7186 139.235 96.0903 139.165 96.4903 139.165C97.0236 139.165 97.4903 139.277 97.8903 139.5C98.2936 139.72 98.607 140.027 98.8303 140.42C99.057 140.814 99.1703 141.272 99.1703 141.795C99.1703 141.839 99.1686 141.877 99.1653 141.91C99.1653 141.94 99.1603 141.999 99.1503 142.085H95.2253C95.2253 142.345 95.2836 142.572 95.4003 142.765C95.5203 142.959 95.687 143.11 95.9003 143.22C96.1136 143.327 96.362 143.38 96.6453 143.38C96.912 143.38 97.147 143.329 97.3503 143.225C97.557 143.122 97.7553 142.957 97.9453 142.73L99.0503 143.285C98.8103 143.699 98.4703 144.022 98.0303 144.255C97.5903 144.489 97.1003 144.605 96.5603 144.605ZM95.2803 141.235H97.6603C97.627 141.039 97.5553 140.869 97.4453 140.725C97.3386 140.582 97.202 140.472 97.0353 140.395C96.8686 140.319 96.6803 140.28 96.4703 140.28C96.247 140.28 96.0503 140.319 95.8803 140.395C95.7103 140.472 95.5736 140.582 95.4703 140.725C95.367 140.869 95.3036 141.039 95.2803 141.235ZM101.966 144.605C101.533 144.605 101.145 144.537 100.801 144.4C100.461 144.264 100.178 144.064 99.9513 143.8L100.596 142.77C100.81 142.997 101.033 143.17 101.266 143.29C101.5 143.41 101.733 143.47 101.966 143.47C102.096 143.47 102.208 143.449 102.301 143.405C102.398 143.362 102.473 143.3 102.526 143.22C102.583 143.137 102.611 143.037 102.611 142.92C102.611 142.787 102.573 142.682 102.496 142.605C102.423 142.529 102.31 142.459 102.156 142.395C102.003 142.329 101.805 142.245 101.561 142.145C101.355 142.059 101.156 141.96 100.966 141.85C100.776 141.74 100.621 141.6 100.501 141.43C100.385 141.26 100.326 141.045 100.326 140.785C100.326 140.469 100.415 140.19 100.591 139.95C100.768 139.707 101.011 139.517 101.321 139.38C101.635 139.244 101.995 139.175 102.401 139.175C102.655 139.175 102.92 139.214 103.196 139.29C103.476 139.367 103.775 139.484 104.091 139.64L103.566 140.625C103.136 140.349 102.751 140.21 102.411 140.21C102.221 140.21 102.07 140.252 101.956 140.335C101.843 140.419 101.786 140.524 101.786 140.65C101.786 140.77 101.845 140.875 101.961 140.965C102.081 141.052 102.226 141.13 102.396 141.2C102.57 141.267 102.735 141.329 102.891 141.385C103.148 141.479 103.375 141.582 103.571 141.695C103.771 141.809 103.928 141.957 104.041 142.14C104.155 142.32 104.211 142.562 104.211 142.865C104.211 143.235 104.121 143.55 103.941 143.81C103.765 144.067 103.508 144.264 103.171 144.4C102.838 144.537 102.436 144.605 101.966 144.605ZM107.084 144.605C106.65 144.605 106.262 144.537 105.919 144.4C105.579 144.264 105.295 144.064 105.069 143.8L105.714 142.77C105.927 142.997 106.15 143.17 106.384 143.29C106.617 143.41 106.85 143.47 107.084 143.47C107.214 143.47 107.325 143.449 107.419 143.405C107.515 143.362 107.59 143.3 107.644 143.22C107.7 143.137 107.729 143.037 107.729 142.92C107.729 142.787 107.69 142.682 107.614 142.605C107.54 142.529 107.427 142.459 107.274 142.395C107.12 142.329 106.922 142.245 106.679 142.145C106.472 142.059 106.274 141.96 106.084 141.85C105.894 141.74 105.739 141.6 105.619 141.43C105.502 141.26 105.444 141.045 105.444 140.785C105.444 140.469 105.532 140.19 105.709 139.95C105.885 139.707 106.129 139.517 106.439 139.38C106.752 139.244 107.112 139.175 107.519 139.175C107.772 139.175 108.037 139.214 108.314 139.29C108.594 139.367 108.892 139.484 109.209 139.64L108.684 140.625C108.254 140.349 107.869 140.21 107.529 140.21C107.339 140.21 107.187 140.252 107.074 140.335C106.96 140.419 106.904 140.524 106.904 140.65C106.904 140.77 106.962 140.875 107.079 140.965C107.199 141.052 107.344 141.13 107.514 141.2C107.687 141.267 107.852 141.329 108.009 141.385C108.265 141.479 108.492 141.582 108.689 141.695C108.889 141.809 109.045 141.957 109.159 142.14C109.272 142.32 109.329 142.562 109.329 142.865C109.329 143.235 109.239 143.55 109.059 143.81C108.882 144.067 108.625 144.264 108.289 144.4C107.955 144.537 107.554 144.605 107.084 144.605Z" fill="white"/>
</g>
<g filter="url(#filter2_f_1956_2936)">
<path d="M107.129 71.4059C99.0841 71.0657 95.8285 60.8829 102.183 55.939L102.771 55.4821C106.66 52.4566 112.265 53.1566 115.291 57.0456L115.582 57.4207C120.509 63.7535 115.026 72.8248 107.129 71.4059Z" fill="url(#paint2_linear_1956_2936)"/>
</g>
<defs>
<filter id="filter0_d_1956_2936" x="61.1367" y="63.4453" width="44.7266" height="82.0117" filterUnits="userSpaceOnUse" color-interpolation-filters="sRGB">
<feFlood flood-opacity="0" result="BackgroundImageFix"/>
<feColorMatrix in="SourceAlpha" type="matrix" values="0 0 0 0 0 0 0 0 0 0 0 0 0 0 0 0 0 0 127 0" result="hardAlpha"/>
<feOffset dy="4"/>
<feGaussianBlur stdDeviation="7.5"/>
<feComposite in2="hardAlpha" operator="out"/>
<feColorMatrix type="matrix" values="0 0 0 0 0.2 0 0 0 0 0.2 0 0 0 0 0.2 0 0 0 0.5 0"/>
<feBlend mode="normal" in2="BackgroundImageFix" result="effect1_dropShadow_1956_2936"/>
<feBlend mode="normal" in="SourceGraphic" in2="effect1_dropShadow_1956_2936" result="shape"/>
</filter>
<filter id="filter1_d_1956_2936" x="40.917" y="121.844" width="84.4111" height="40.7617" filterUnits="userSpaceOnUse" color-interpolation-filters="sRGB">
<feFlood flood-opacity="0" result="BackgroundImageFix"/>
<feColorMatrix in="SourceAlpha" type="matrix" values="0 0 0 0 0 0 0 0 0 0 0 0 0 0 0 0 0 0 127 0" result="hardAlpha"/>
<feOffset dy="2"/>
<feGaussianBlur stdDeviation="8"/>
<feComposite in2="hardAlpha" operator="out"/>
<feColorMatrix type="matrix" values="0 0 0 0 0.14902 0 0 0 0 0.517647 0 0 0 0 1 0 0 0 0.43 0"/>
<feBlend mode="normal" in2="BackgroundImageFix" result="effect1_dropShadow_1956_2936"/>
<feBlend mode="normal" in="SourceGraphic" in2="effect1_dropShadow_1956_2936" result="shape"/>
</filter>
<filter id="filter2_f_1956_2936" x="45.8311" y="0.601562" width="124.624" height="123.953" filterUnits="userSpaceOnUse" color-interpolation-filters="sRGB">
<feFlood flood-opacity="0" result="BackgroundImageFix"/>
<feBlend mode="normal" in="SourceGraphic" in2="BackgroundImageFix" result="shape"/>
<feGaussianBlur stdDeviation="26.5" result="effect1_foregroundBlur_1956_2936"/>
</filter>
<linearGradient id="paint0_linear_1956_2936" x1="83.2536" y1="50.4453" x2="83.2536" y2="180.445" gradientUnits="userSpaceOnUse">
<stop stop-color="#E0F1FA" stop-opacity="0.9"/>
<stop offset="1" stop-color="#A3A3A3"/>
</linearGradient>
<linearGradient id="paint1_linear_1956_2936" x1="48.1016" y1="158.935" x2="134.102" y2="100.935" gradientUnits="userSpaceOnUse">
<stop stop-color="#FDFDFD"/>
<stop offset="1" stop-color="white"/>
</linearGradient>
<linearGradient id="paint2_linear_1956_2936" x1="96.6972" y1="60.2071" x2="116.489" y2="85.6472" gradientUnits="userSpaceOnUse">
<stop stop-color="white"/>
<stop offset="1" stop-color="white"/>
</linearGradient>
</defs>
</svg>
