<svg width="168" height="163" viewBox="0 0 168 163" fill="none" xmlns="http://www.w3.org/2000/svg">
<rect x="1.23926" y="0.507812" width="166.023" height="161.021" rx="80.5106" stroke="url(#paint0_linear_589_1463)"/>
<rect x="17.2314" y="16.0195" width="134.038" height="130" rx="65" fill="url(#paint1_linear_589_1463)"/>
<path d="M83.2067 92.7175C83.5922 93.113 84.2253 93.1211 84.6208 92.7357L91.0661 86.4541C91.4616 86.0687 91.4698 85.4356 91.0843 85.04C90.6988 84.6445 90.0657 84.6364 89.6702 85.0218L83.941 90.6054L78.3574 84.8763C77.972 84.4808 77.3389 84.4726 76.9433 84.8581C76.5478 85.2435 76.5397 85.8767 76.9252 86.2722L83.2067 92.7175ZM83.5792 41.0067L82.9229 92.0067L84.9228 92.0324L85.579 41.0324L83.5792 41.0067Z" fill="white"/>
<path d="M56.6373 110.18C56.254 110.18 55.9006 110.136 55.5773 110.05C55.254 109.966 54.964 109.861 54.7073 109.735C54.454 109.605 54.2356 109.471 54.0523 109.335C53.869 109.198 53.724 109.078 53.6173 108.975L54.4473 107.635C54.5573 107.731 54.689 107.84 54.8423 107.96C54.9956 108.08 55.1673 108.195 55.3573 108.305C55.5473 108.411 55.7523 108.501 55.9723 108.575C56.1956 108.645 56.4323 108.68 56.6823 108.68C56.9156 108.68 57.1206 108.643 57.2973 108.57C57.4773 108.496 57.619 108.388 57.7223 108.245C57.8256 108.098 57.8773 107.916 57.8773 107.7C57.8773 107.503 57.8356 107.336 57.7523 107.2C57.669 107.06 57.5456 106.935 57.3823 106.825C57.2223 106.711 57.024 106.601 56.7873 106.495C56.554 106.385 56.2873 106.265 55.9873 106.135C55.764 106.035 55.5506 105.921 55.3473 105.795C55.1473 105.665 54.969 105.515 54.8123 105.345C54.6556 105.175 54.5306 104.983 54.4373 104.77C54.3473 104.553 54.3023 104.311 54.3023 104.045C54.3023 103.728 54.3656 103.425 54.4923 103.135C54.619 102.845 54.799 102.586 55.0323 102.36C55.269 102.133 55.549 101.953 55.8723 101.82C56.199 101.686 56.5623 101.62 56.9623 101.62C57.2623 101.62 57.5623 101.66 57.8623 101.74C58.1623 101.82 58.4423 101.925 58.7023 102.055C58.9623 102.185 59.1823 102.326 59.3623 102.48L58.6873 103.75C58.544 103.626 58.3806 103.516 58.1973 103.42C58.0173 103.32 57.824 103.24 57.6173 103.18C57.414 103.12 57.2073 103.09 56.9973 103.09C56.7606 103.09 56.559 103.131 56.3923 103.215C56.229 103.298 56.1023 103.41 56.0123 103.55C55.9256 103.686 55.8823 103.84 55.8823 104.01C55.8823 104.15 55.9106 104.27 55.9673 104.37C56.0273 104.466 56.1106 104.551 56.2173 104.625C56.324 104.695 56.4523 104.763 56.6023 104.83C56.7523 104.893 56.9173 104.961 57.0973 105.035C57.484 105.198 57.834 105.36 58.1473 105.52C58.4606 105.68 58.729 105.858 58.9523 106.055C59.1756 106.248 59.3456 106.475 59.4623 106.735C59.5823 106.995 59.6423 107.305 59.6423 107.665C59.6423 108.191 59.5156 108.643 59.2623 109.02C59.0123 109.396 58.6623 109.685 58.2123 109.885C57.7623 110.081 57.2373 110.18 56.6373 110.18ZM61.0837 110.02V101.42H62.6187V105.47C62.8154 105.25 63.0604 105.073 63.3537 104.94C63.6504 104.806 63.977 104.74 64.3337 104.74C64.727 104.74 65.072 104.826 65.3687 105C65.6687 105.17 65.9037 105.408 66.0737 105.715C66.2437 106.018 66.3287 106.373 66.3287 106.78V110.02H64.7937V107.105C64.7937 106.738 64.697 106.453 64.5037 106.25C64.3137 106.043 64.052 105.94 63.7187 105.94C63.492 105.94 63.2954 105.986 63.1287 106.08C62.9654 106.17 62.8387 106.295 62.7487 106.455C62.662 106.611 62.6187 106.79 62.6187 106.99V110.02H61.0837ZM70.5868 110.18C70.0235 110.18 69.5152 110.065 69.0618 109.835C68.6085 109.601 68.2485 109.281 67.9818 108.875C67.7152 108.465 67.5818 107.993 67.5818 107.46C67.5818 106.926 67.7135 106.456 67.9768 106.05C68.2435 105.64 68.6035 105.32 69.0568 105.09C69.5135 104.856 70.0235 104.74 70.5868 104.74C71.1535 104.74 71.6635 104.856 72.1168 105.09C72.5702 105.32 72.9285 105.64 73.1918 106.05C73.4585 106.456 73.5918 106.926 73.5918 107.46C73.5918 107.993 73.4585 108.465 73.1918 108.875C72.9285 109.281 72.5702 109.601 72.1168 109.835C71.6635 110.065 71.1535 110.18 70.5868 110.18ZM70.5918 108.87C70.8518 108.87 71.0885 108.81 71.3018 108.69C71.5152 108.57 71.6835 108.405 71.8068 108.195C71.9302 107.981 71.9918 107.736 71.9918 107.46C71.9918 107.183 71.9302 106.94 71.8068 106.73C71.6835 106.516 71.5152 106.35 71.3018 106.23C71.0885 106.11 70.8518 106.05 70.5918 106.05C70.3285 106.05 70.0902 106.11 69.8768 106.23C69.6668 106.35 69.5002 106.516 69.3768 106.73C69.2535 106.94 69.1918 107.183 69.1918 107.46C69.1918 107.736 69.2535 107.981 69.3768 108.195C69.5002 108.405 69.6668 108.57 69.8768 108.69C70.0902 108.81 70.3285 108.87 70.5918 108.87ZM76.6221 110.02L73.9321 104.9H75.6871L77.0871 107.975L78.4071 104.9H79.4521L80.7721 107.975L82.1721 104.9H83.9271L81.2371 110.02H80.2071L78.9271 107.065L77.6471 110.02H76.6221ZM87.4607 110.02V104.9H88.9957V105.47C89.249 105.216 89.5007 105.031 89.7507 104.915C90.0007 104.798 90.2707 104.74 90.5607 104.74C90.954 104.74 91.309 104.828 91.6257 105.005C91.9423 105.181 92.169 105.418 92.3057 105.715C92.5557 105.391 92.824 105.148 93.1107 104.985C93.3973 104.821 93.7257 104.74 94.0957 104.74C94.4657 104.74 94.794 104.816 95.0807 104.97C95.3673 105.123 95.5923 105.341 95.7557 105.625C95.9223 105.905 96.0057 106.236 96.0057 106.62V110.02H94.4707V107.04C94.4707 106.706 94.384 106.445 94.2107 106.255C94.0373 106.061 93.8057 105.965 93.5157 105.965C93.3157 105.965 93.139 106.006 92.9857 106.09C92.8357 106.173 92.7173 106.285 92.6307 106.425C92.544 106.565 92.5007 106.72 92.5007 106.89V110.02H90.9657V107.01C90.9657 106.693 90.8807 106.44 90.7107 106.25C90.544 106.06 90.3123 105.965 90.0157 105.965C89.819 105.965 89.6423 106.006 89.4857 106.09C89.3323 106.173 89.2123 106.286 89.1257 106.43C89.039 106.573 88.9957 106.731 88.9957 106.905V110.02H87.4607ZM100.284 110.18C99.7208 110.18 99.2124 110.065 98.7591 109.835C98.3058 109.601 97.9458 109.281 97.6791 108.875C97.4124 108.465 97.2791 107.993 97.2791 107.46C97.2791 106.926 97.4108 106.456 97.6741 106.05C97.9408 105.64 98.3008 105.32 98.7541 105.09C99.2108 104.856 99.7208 104.74 100.284 104.74C100.851 104.74 101.361 104.856 101.814 105.09C102.267 105.32 102.626 105.64 102.889 106.05C103.156 106.456 103.289 106.926 103.289 107.46C103.289 107.993 103.156 108.465 102.889 108.875C102.626 109.281 102.267 109.601 101.814 109.835C101.361 110.065 100.851 110.18 100.284 110.18ZM100.289 108.87C100.549 108.87 100.786 108.81 100.999 108.69C101.212 108.57 101.381 108.405 101.504 108.195C101.627 107.981 101.689 107.736 101.689 107.46C101.689 107.183 101.627 106.94 101.504 106.73C101.381 106.516 101.212 106.35 100.999 106.23C100.786 106.11 100.549 106.05 100.289 106.05C100.026 106.05 99.7874 106.11 99.5741 106.23C99.3641 106.35 99.1974 106.516 99.0741 106.73C98.9508 106.94 98.8891 107.183 98.8891 107.46C98.8891 107.736 98.9508 107.981 99.0741 108.195C99.1974 108.405 99.3641 108.57 99.5741 108.69C99.7874 108.81 100.026 108.87 100.289 108.87ZM104.629 110.02V104.9H106.164V105.635C106.354 105.348 106.585 105.128 106.859 104.975C107.135 104.818 107.432 104.74 107.749 104.74C107.929 104.74 108.115 104.766 108.309 104.82C108.502 104.873 108.664 104.941 108.794 105.025L108.154 106.32C108.04 106.243 107.907 106.183 107.754 106.14C107.604 106.093 107.464 106.07 107.334 106.07C107.134 106.07 106.944 106.121 106.764 106.225C106.584 106.328 106.439 106.463 106.329 106.63C106.219 106.793 106.164 106.97 106.164 107.16V110.02H104.629ZM112.05 110.18C111.496 110.18 111 110.061 110.56 109.825C110.123 109.585 109.776 109.26 109.52 108.85C109.263 108.44 109.135 107.976 109.135 107.46C109.135 107.08 109.206 106.725 109.35 106.395C109.496 106.065 109.7 105.776 109.96 105.53C110.22 105.28 110.521 105.086 110.865 104.95C111.208 104.81 111.58 104.74 111.98 104.74C112.513 104.74 112.98 104.851 113.38 105.075C113.783 105.295 114.096 105.601 114.32 105.995C114.546 106.388 114.66 106.846 114.66 107.37C114.66 107.413 114.658 107.451 114.655 107.485C114.655 107.515 114.65 107.573 114.64 107.66H110.715C110.715 107.92 110.773 108.146 110.89 108.34C111.01 108.533 111.176 108.685 111.39 108.795C111.603 108.901 111.851 108.955 112.135 108.955C112.401 108.955 112.636 108.903 112.84 108.8C113.046 108.696 113.245 108.531 113.435 108.305L114.54 108.86C114.3 109.273 113.96 109.596 113.52 109.83C113.08 110.063 112.59 110.18 112.05 110.18ZM110.77 106.81H113.15C113.116 106.613 113.045 106.443 112.935 106.3C112.828 106.156 112.691 106.046 112.525 105.97C112.358 105.893 112.17 105.855 111.96 105.855C111.736 105.855 111.54 105.893 111.37 105.97C111.2 106.046 111.063 106.156 110.96 106.3C110.856 106.443 110.793 106.613 110.77 106.81Z" fill="white"/>
<defs>
<linearGradient id="paint0_linear_589_1463" x1="84.251" y1="0.507812" x2="84.251" y2="161.529" gradientUnits="userSpaceOnUse">
<stop stop-color="#88BFFF"/>
<stop offset="1" stop-color="#CFD0D2" stop-opacity="0.53"/>
</linearGradient>
<linearGradient id="paint1_linear_589_1463" x1="84.2507" y1="16.0195" x2="84.2507" y2="146.02" gradientUnits="userSpaceOnUse">
<stop stop-color="#8ECAE6" stop-opacity="0.9"/>
<stop offset="1" stop-color="#56A2FA"/>
</linearGradient>
</defs>
</svg>
