<svg width="17" height="16" viewBox="0 0 17 16" fill="none" xmlns="http://www.w3.org/2000/svg">
<path d="M7.39981 1.35065C7.70345 0.438393 8.99382 0.438393 9.29745 1.35065L10.4783 4.89839C10.6143 5.30694 10.9965 5.58258 11.4271 5.58258H15.1962C16.1707 5.58258 16.5696 6.83446 15.7747 7.39825L12.7673 9.53127C12.4083 9.78586 12.258 10.2452 12.3969 10.6628L13.5554 14.1433C13.8607 15.0604 12.8165 15.8339 12.0281 15.2748L8.92715 13.0755C8.58062 12.8297 8.11664 12.8297 7.77012 13.0755L4.66918 15.2748C3.88079 15.8339 2.8366 15.0604 3.14185 14.1433L4.30032 10.6628C4.43931 10.2452 4.28898 9.78586 3.93001 9.53127L0.922553 7.39825C0.127638 6.83446 0.526516 5.58258 1.50107 5.58258H5.27014C5.70073 5.58258 6.08298 5.30694 6.21896 4.89839L7.39981 1.35065Z" fill="#38B000"/>
</svg>
