<svg width="9" height="9" viewBox="0 0 9 9" fill="none" xmlns="http://www.w3.org/2000/svg">
<path d="M3.80917 1.31162C4.02641 0.45254 5.24703 0.45254 5.46427 1.31162C5.59463 1.82714 6.16 2.09907 6.64435 1.87962C7.45109 1.5141 8.21285 2.46761 7.67654 3.17245C7.35453 3.59564 7.49407 4.20712 7.96779 4.44871C8.75683 4.85112 8.48479 6.04074 7.5993 6.06119C7.0677 6.07347 6.67654 6.56382 6.78292 7.08482C6.96016 7.95276 5.86013 8.48164 5.29171 7.8022C4.95049 7.39434 4.32295 7.39434 3.98173 7.8022C3.4133 8.48164 2.31327 7.95276 2.49051 7.08482C2.5969 6.56382 2.20574 6.07347 1.67414 6.06119C0.788646 6.04074 0.516609 4.85112 1.30565 4.44871C1.77937 4.20712 1.91891 3.59564 1.5969 3.17245C1.06058 2.46761 1.82235 1.5141 2.62909 1.87962C3.11344 2.09907 3.67881 1.82714 3.80917 1.31162Z" fill="#EB6B7A"/>
</svg>
