<svg width="187" height="51" viewBox="0 0 187 51" fill="none" xmlns="http://www.w3.org/2000/svg">
<g clip-path="url(#clip0_586_822)">
<path d="M126.119 11.2833C122.816 11.2833 120.277 12.4824 117.902 14.9922V11.8689H111.431V42.5995H118.393V24.7802C118.393 20.7088 120.768 18.1154 124.372 18.1154C125.027 18.1154 125.6 18.1991 126.01 18.2827L130.842 11.7852C129.013 11.4227 127.348 11.2833 126.119 11.2833ZM186.263 11.841H178.209L170.783 21.8801L163.357 11.841H155.331L166.688 27.3458L155.331 42.5995H163.521L170.756 32.8672L177.991 42.5995H186.29L174.878 27.3736L186.263 11.841ZM39.8215 4.92523C37.4463 8.16003 36.873 9.2476 34.5797 9.2476H0.262695V50.9096H13.722C16.7523 50.9096 19.7008 49.4038 21.6119 46.9219C24.0689 43.5755 24.3966 42.5995 26.7717 42.5995H61.1434V0.9375H47.6022C44.5718 0.9375 41.6233 2.44336 39.8215 4.92523ZM50.4688 31.8633H36.1086C32.9963 31.8633 30.1297 33.2019 28.2187 35.7674C25.7616 39.1137 25.2702 40.0898 22.9769 40.0898H10.8554V20.0953H25.2156C28.3279 20.0953 31.1944 18.5895 33.1055 16.1076C35.5626 12.8728 36.2178 11.8689 38.4291 11.8689H50.4961V31.8633H50.4688ZM102.013 21.6012C105.043 19.8444 107.172 16.7769 107.172 12.6776C107.172 6.68206 102.668 0.9375 96.0883 0.9375H76.4045V42.5995H96.0883C103.214 42.5995 108.155 37.4406 108.155 30.9431C108.155 27.0948 106.435 23.7763 102.013 21.6012ZM83.3935 7.43499H95.5423C98.5727 7.43499 100.375 10.363 100.375 12.9286C100.375 16.1076 97.6718 18.2548 95.1328 18.2548H83.3935V7.43499ZM95.1055 36.102H83.3662V24.7523H95.515C98.6273 24.7523 101.166 27.5131 101.166 30.3296C101.194 33.5086 97.9994 36.102 95.1055 36.102Z" fill="#010202"/>
<path d="M148.368 33.7581C147.221 35.5986 145.01 36.6861 142.553 36.6861C138.703 36.6861 135.509 34.0091 135.509 29.9377H156.34C156.667 28.6828 156.749 28.0972 156.749 27.0096C156.749 17.6677 151.098 11.2539 142.553 11.2539C134.171 11.2539 128.274 17.3331 128.274 27.2606C128.274 36.9371 133.926 43.1836 142.717 43.1836C148.859 43.1836 154.292 40.1161 155.848 33.7581C155.821 33.7581 148.368 33.7581 148.368 33.7581ZM142.525 17.7793C146.375 17.7793 149.351 20.289 149.269 24.0258H135.564C135.564 20.3448 138.676 17.7793 142.525 17.7793Z" fill="#010202"/>
</g>
<defs>
<clipPath id="clip0_586_822">
<rect width="186" height="50" fill="white" transform="translate(0.262695 0.9375)"/>
</clipPath>
</defs>
</svg>
