<svg width="154" height="36" viewBox="0 0 154 36" fill="none" xmlns="http://www.w3.org/2000/svg">
<path fill-rule="evenodd" clip-rule="evenodd" d="M146.761 26.1406L145.262 35.3934H29.703L31.202 26.1406H146.761ZM29.9755 26.1406L28.4766 35.3934H23.9114L25.4104 26.1406H29.9755ZM23.2982 26.1406L21.7992 35.3934H18.0517L19.5507 26.1406C19.6189 26.1406 23.2982 26.1406 23.2982 26.1406ZM16.689 26.1406L15.19 35.3934H12.3283L13.8273 26.1406H16.689ZM10.0117 26.1406L8.51266 35.3934H6.46858L7.96757 26.1406H10.0117ZM3.40245 26.1406L1.90345 35.3934H0.677002L2.176 26.1406H3.40245Z" fill="#C8102E"/>
<path fill-rule="evenodd" clip-rule="evenodd" d="M24.5939 0.849399H34.8143C37.1991 0.986477 39.7201 2.35726 40.4015 4.82467C41.151 7.42916 40.1289 9.89657 38.2211 11.6786C37.4716 12.364 36.7221 12.9123 35.7682 13.1864H35.4957L37.6079 16.8876H39.5157L38.8343 21.5482H33.7241L29.636 14.146L29.2271 16.8876H30.3854L29.636 21.4797H21.2552L22.0047 16.8876H23.5718L25.4796 5.16737H23.9806L24.5939 0.849399ZM73.4475 0.78086L72.7661 5.16737H71.2671L69.3593 16.8876H70.8583L70.1088 21.4797H61.2511L62.0006 16.819H63.4996L65.4074 5.09883H63.9084L64.5898 0.712321L73.4475 0.78086ZM4.83439 3.93366C7.76424 0.506703 12.5338 -0.727001 16.6901 0.849399C17.167 0.986477 17.5758 1.26063 17.9165 1.53479L18.2572 1.94603L18.4616 0.849399H22.6861L21.5959 7.84039H16.7582C16.4857 6.67523 15.3274 5.64714 14.2372 5.37298C12.1931 4.89321 10.149 5.5786 8.85442 7.22354C7.42356 9.27971 6.94661 12.5011 8.30933 14.7628C9.26324 16.2707 10.8304 16.8876 12.5338 16.6134C13.8284 16.3392 15.1229 15.3112 15.668 14.0775H10.2853L10.9666 9.89657H22.2772L20.4376 21.5482H16.0769L16.3494 19.8347C14.5097 21.3426 12.0568 21.6168 9.80833 21.4797C6.60593 20.9314 3.40353 18.5325 2.38149 15.3797C1.15504 11.3359 2.24521 7.01792 4.83439 3.93366ZM108.197 0.849399C108.538 0.986477 108.878 1.12356 109.219 1.39771L109.423 1.60333L109.764 2.01456L109.968 0.849399H114.193L113.103 7.84039H108.265C107.993 6.67523 106.834 5.64714 105.744 5.37298C103.7 4.89321 101.656 5.5786 100.361 7.22354C98.9304 9.27971 98.4535 12.5011 99.8162 14.7628C100.77 16.2707 102.337 16.8876 104.041 16.6134C105.267 16.4078 106.494 15.4482 107.107 14.2831L107.243 14.0775H101.86L102.542 9.89657H113.784L111.944 21.5482H107.584L107.856 19.8347C106.017 21.3426 103.564 21.6168 101.315 21.4797C98.2491 20.9314 94.9785 18.5325 93.9565 15.3797C92.73 11.3359 93.8202 7.01792 96.4094 3.93366C99.3392 0.506703 104.041 -0.727001 108.197 0.849399ZM81.215 0.849399L86.5296 11.1303L87.4836 5.2359H85.9846L86.6659 0.849399H95.1829L94.5016 5.2359H93.0026L90.3453 21.5482H85.7802L79.9886 9.96511L78.8984 16.9561H80.3974L79.6479 21.5482H71.0627L71.8122 16.9561H73.3112L75.219 5.2359H73.72L74.4014 0.849399H81.215ZM131.976 0.849399L130.954 7.36062H125.844L126.185 5.2359H122.369L121.892 8.25163H126.389L125.572 13.255H121.143L120.53 16.9561H124.55L124.958 14.3516H130.205L129.047 21.6168H112.83L113.58 17.0246H115.147L117.055 5.30444H115.556L116.237 0.917938C116.169 0.849399 131.976 0.849399 131.976 0.849399ZM143.491 0.78086C145.876 0.917938 148.397 2.28872 149.079 4.75613C149.828 7.36062 148.806 9.82803 146.898 11.61C146.149 12.2954 145.399 12.8437 144.445 13.1179L144.173 13.1864L146.285 16.8876H148.193L147.443 21.4797H142.401L138.313 14.0775L137.904 16.819H139.063L138.313 21.4111H130.001L130.75 16.819H132.317L134.225 5.09883H132.726L133.407 0.712321L143.491 0.78086ZM56.8904 0.849399L59.6159 16.9561H61.1149L60.3654 21.5482H51.5077L52.2572 16.9561H53.8243L53.6199 15.2426H48.3053L47.5558 16.9561H49.0548L48.3053 21.5482H39.7201L40.4696 16.9561H41.9686L47.8964 5.2359H46.3974L47.0788 0.849399H56.8904ZM151.668 17.0932C152.894 17.0932 153.848 18.0527 153.848 19.2864V19.355C153.848 20.5887 152.894 21.5482 151.668 21.5482C151.668 21.5482 151.668 21.5482 151.6 21.5482C150.373 21.5482 149.419 20.5887 149.419 19.355C149.419 18.0527 150.441 17.0932 151.668 17.0932ZM151.668 17.2988C150.51 17.2988 149.692 18.1898 149.692 19.2864C149.692 20.3831 150.578 21.2741 151.668 21.2741C152.826 21.2741 153.644 20.3831 153.644 19.2864C153.644 18.1898 152.758 17.2988 151.668 17.2988ZM151.6 17.9156C151.94 17.9156 152.077 17.9156 152.213 17.9842C152.485 18.0527 152.622 18.3269 152.622 18.601C152.622 19.0123 152.349 19.2179 152.008 19.2864C152.281 19.4235 152.417 19.5606 152.417 19.9033C152.485 20.246 152.485 20.3831 152.554 20.5887L152.622 20.6572H152.145C152.077 20.5201 152.077 20.3831 152.008 20.246C152.008 20.1774 151.94 19.9033 151.94 19.8347C151.872 19.492 151.668 19.355 151.327 19.355H151.191H150.986V20.6572H150.578V17.9156H151.6ZM151.668 18.1898H151.191V19.0123H151.736C151.94 19.0123 152.281 19.0123 152.281 18.601C152.281 18.464 152.213 18.3954 152.145 18.3269C152.077 18.2583 151.94 18.2583 151.804 18.1898H151.668ZM52.666 5.98983L50.5537 10.8561H53.1429L52.666 5.98983ZM31.2031 5.44152H31.0668L30.3173 9.96511C31.68 9.89657 33.179 10.2393 34.2011 9.34825C35.0187 8.7314 35.3594 7.77185 35.2231 6.74377C34.678 5.09883 32.7021 5.44152 31.2031 5.44152ZM139.88 5.44152H139.744L138.994 9.96511C140.357 9.89657 141.856 10.2393 142.878 9.34825C143.696 8.7314 144.037 7.77185 143.9 6.74377C143.355 5.09883 141.379 5.44152 139.88 5.44152Z" fill="black"/>
</svg>
