<svg width="138" height="76" viewBox="0 0 138 76" fill="none" xmlns="http://www.w3.org/2000/svg">
<g clip-path="url(#clip0_586_1324)">
<path d="M137.106 37.6378C137.106 58.3156 106.418 75.1036 68.6064 75.1036C30.7944 75.1719 0.106445 58.3839 0.106445 37.6378C0.106445 16.8916 30.7944 0.171875 68.6064 0.171875C106.418 0.171875 137.106 16.9599 137.106 37.6378Z" fill="#C3002F"/>
<path d="M123.681 38.048C123.681 53.6076 98.952 66.2327 68.538 66.2327C38.0555 66.2327 13.3955 53.6076 13.3955 38.048C13.3955 22.4884 38.124 9.86328 68.538 9.86328C98.952 9.86328 123.681 22.4884 123.681 38.048Z" fill="black"/>
<path d="M120.598 38.0466C120.598 52.1731 97.239 63.5699 68.5375 63.5699C39.7675 63.5699 16.4775 52.1049 16.4775 38.0466C16.4775 23.9202 39.836 12.5234 68.5375 12.5234C97.239 12.5234 120.598 23.9202 120.598 38.0466Z" fill="black"/>
<path d="M48.3999 60.9757C42.2349 59.679 36.7549 57.9047 31.9599 55.5844C27.2334 53.2641 23.5344 50.6026 20.9999 47.5999C18.3969 44.5971 17.0269 41.3214 17.0269 38.0457C17.0269 34.77 18.3969 31.5625 20.9999 28.4916C23.5344 25.4888 27.3019 22.8273 31.9599 20.507C36.6864 18.1868 42.2349 16.3442 48.3999 15.1158C54.7704 13.8191 61.5519 13.1367 68.539 13.1367C75.526 13.1367 82.3074 13.8191 88.678 15.1158C94.843 16.4124 100.323 18.1868 105.118 20.507C109.844 22.8273 113.543 25.4888 116.078 28.4916C118.681 31.4943 120.051 34.77 120.051 38.0457C120.051 41.3214 118.681 44.5289 116.078 47.5999C113.543 50.6026 109.776 53.2641 105.118 55.5844C100.391 57.9047 94.843 59.7473 88.678 60.9757C82.3074 62.2723 75.526 62.9547 68.539 62.9547C61.5519 62.9547 54.7019 62.3405 48.3999 60.9757ZM31.4119 19.4834C26.5484 21.8719 22.7809 24.6017 20.0409 27.7409C17.2324 31.0166 15.7939 34.497 15.7939 38.0457C15.7939 41.5944 17.2324 45.0748 20.0409 48.3505C22.7124 51.4215 26.5484 54.2195 31.4119 56.608C41.3444 61.4534 54.4964 64.1149 68.539 64.1149C82.5815 64.1149 95.7335 61.4534 105.666 56.608C110.529 54.2195 114.297 51.4898 117.037 48.3505C119.845 45.0748 121.284 41.5944 121.284 38.0457C121.284 34.497 119.914 31.0166 117.037 27.7409C114.365 24.6699 110.529 21.8719 105.666 19.4834C95.7335 14.6381 82.5815 11.9766 68.539 11.9766C54.4964 11.9766 41.3444 14.6381 31.4119 19.4834Z" fill="white"/>
<path d="M57.303 36.9538H57.6455C57.6455 36.7491 57.577 36.5443 57.44 36.3396C57.166 36.0666 56.755 36.0666 56.4125 36.0666C55.933 36.1349 55.522 36.5443 55.248 37.022C54.6315 39.3423 54.289 41.7991 53.6725 44.1876H50.9325L50.727 45.0748H54.4945C55.0425 42.7545 55.4535 40.2977 56.07 37.9092C56.4125 37.4315 56.8235 37.0903 57.303 36.9538ZM68.7425 35.5207C68.6055 34.8382 68.126 34.224 67.578 33.8828C67.715 34.0875 67.7835 34.3605 67.852 34.5653C68.1945 35.6572 67.852 36.8173 67.715 37.841L66.482 44.1194H63.742L63.5365 45.0066H67.304L68.537 38.7281C68.7425 37.7045 69.085 36.6126 68.7425 35.5207ZM63.9475 36.8855C63.9475 36.6808 63.879 36.4078 63.6735 36.2713C63.194 35.7936 62.4405 36.0666 62.0295 36.3396L61.6185 36.9538L60.1115 44.1194H57.3715L57.166 45.0066H60.9335L62.4405 37.841L62.8515 37.2268C63.194 37.022 63.605 36.8855 63.9475 36.8855ZM45.247 44.2559C45.247 43.7782 45.384 43.3687 45.4525 42.9592C44.288 44.3241 42.4385 44.9383 40.7945 44.3241C40.726 44.3241 40.589 44.2559 40.5205 44.1876C40.7945 44.6653 41.274 45.0748 41.685 45.2113C43.192 45.7572 44.7675 45.3478 45.932 44.2559H45.247ZM43.1235 39.82C43.055 40.2977 43.329 40.7072 43.603 40.9802C43.74 41.0484 43.877 41.1167 44.014 41.1167C44.014 40.9802 44.014 40.9119 44.014 40.7072L45.384 33.9511C45.0415 33.9511 44.699 33.9511 44.288 33.9511L43.1235 39.82ZM50.9325 33.8828L48.809 44.1194C47.987 44.1876 47.165 44.1876 46.2745 44.1876C46.206 44.4606 46.1375 44.8018 46.1375 45.143C47.302 45.0748 48.6035 45.143 49.6995 45.0066L52.0285 33.8828H50.9325ZM104.363 41.1167C104.157 40.4342 104.363 39.4788 104.5 38.8646C104.774 37.7045 105.459 36.3396 106.418 36.3396C106.486 36.3396 106.623 36.3396 106.692 36.3396C106.692 36.1349 106.555 35.9301 106.486 35.7936C106.281 35.4524 105.87 35.4524 105.527 35.4524C104.568 35.5207 103.883 36.8855 103.609 37.9774C103.404 38.7281 103.198 39.9565 103.678 40.7072C103.815 41.0484 104.089 41.1167 104.363 41.1167Z" fill="black"/>
<path d="M110.939 35.1114C110.665 34.4972 110.186 34.0877 109.775 33.7465C109.843 33.883 109.98 34.0195 110.049 34.2242C111.008 36.3398 110.391 39.0013 109.569 40.9121C108.062 43.7784 105.665 44.6655 103.13 44.3243C102.514 44.2561 101.966 44.0513 101.418 43.6419C102.103 44.5973 103.062 45.0067 104.021 45.2115C106.555 45.5527 109.021 44.6655 110.46 41.7993C111.282 39.9567 111.898 37.2952 110.939 35.1114ZM80.936 32.3816C81.4155 33.2688 81.2785 34.7019 80.799 35.5208C80.3195 36.5445 79.3605 37.0222 78.607 37.5682C78.881 37.9776 79.018 38.5918 79.3605 38.7283L79.4975 38.5236C79.4975 38.5236 79.566 38.5236 79.566 38.4553L79.977 37.7729H80.525C81.0045 37.4317 81.4155 37.0222 81.6895 36.4763C82.1005 35.6573 82.306 34.2242 81.8265 33.337C81.5525 32.8593 81.1415 32.4499 80.799 32.1769C80.8675 32.2451 80.8675 32.2451 80.936 32.3816ZM75.045 41.3216C75.182 41.3898 75.319 41.4581 75.456 41.4581V41.3898C75.3875 40.9121 75.6615 40.4344 76.004 40.2297C76.141 40.0932 76.3465 40.0249 76.4835 39.8885L76.004 38.8648C75.6615 38.8648 75.319 39.1378 75.045 39.3425C74.7025 39.5472 74.4285 40.0249 74.497 40.5026C74.634 40.7756 74.771 41.1168 75.045 41.3216ZM83.676 38.5918H82.5115C82.1005 39.6155 81.4155 40.5026 80.662 41.2533C81.073 42.1405 81.621 42.9594 82.032 43.9148H78.607C78.2645 42.4817 77.648 43.9148 76.963 44.0513C75.6615 44.3243 74.1545 44.4608 72.9215 43.6419C72.99 43.7784 73.0585 43.8466 73.127 43.9148C74.36 45.2797 76.278 45.2115 77.8535 44.8703C78.5385 44.7338 79.155 43.3006 79.4975 44.7338H82.9225C82.5115 43.7784 81.9635 42.9594 81.5525 42.0723C82.5115 41.1851 83.402 40.0249 83.676 38.5918ZM77.9905 34.7702C78.059 34.3607 78.4015 34.0877 78.744 34.0877C78.744 33.9512 78.744 33.8147 78.744 33.61C78.607 33.2688 78.2645 33.1323 77.9905 33.1323C77.648 33.1323 77.237 33.4735 77.1 33.883C77.0315 34.4289 77.3055 34.9066 77.511 35.3844C77.648 35.3844 77.8535 35.2479 77.9905 35.1114C77.922 35.0431 77.922 34.9067 77.9905 34.7702ZM35.863 35.0431L39.3565 44.3925C39.562 44.7338 39.9045 45.0067 40.247 45.1432L36.7535 35.8621L44.494 28.2188H42.713L35.863 35.0431ZM94.0195 37.9094H93.54L93.403 38.7965H93.814C93.8825 38.6601 93.951 38.4553 93.951 38.3188C93.951 38.1824 94.0195 37.9094 94.0195 37.9094ZM32.5065 33.4053C32.9175 32.9958 33.397 32.5864 33.8765 32.1769C34.1505 30.8803 34.493 29.2424 34.63 28.287H33.6025C33.1915 30.3343 32.5065 33.4053 32.5065 33.4053ZM88.9505 44.1878C88.5395 44.1196 88.1285 43.9148 87.786 43.6419C88.334 44.3925 89.0875 44.9385 89.841 45.075C90.663 45.348 91.622 45.2797 92.3755 45.0067C92.581 44.6655 92.6495 44.1196 92.7865 43.6419V43.5736C91.6905 44.1878 90.252 44.5973 88.9505 44.1878ZM32.6435 38.3871L30.9995 39.8885L30.246 44.0513H27.1635L26.958 44.9385H31.1365L31.89 40.7756L33.123 39.6837C32.986 39.206 32.7805 38.7965 32.6435 38.3871Z" fill="black"/>
<path d="M100.458 28.287C100.321 29.2424 100.115 30.1978 99.9782 30.6755L94.7037 30.7438C92.8542 31.4262 91.2102 32.6546 90.5937 34.7019C90.1142 36.2033 89.6347 38.4553 90.5937 39.8202C90.7992 40.0249 91.0047 40.2297 91.2787 40.2979C90.5937 38.933 91.0732 36.8857 91.4842 35.5208C92.1007 33.4053 93.6762 32.2451 95.5257 31.5627L100.8 31.4945C101.006 30.812 101.28 29.3107 101.417 28.2188C101.485 28.287 100.458 28.287 100.458 28.287Z" fill="black"/>
<path d="M97.3747 43.6447C96.5527 46.6474 95.5252 48.8312 91.4152 49.036H39.9717C38.6702 48.8312 37.7797 48.5582 37.0947 48.0805C37.9167 49.1042 38.9442 49.7184 40.8622 49.9231H92.3057C96.4157 49.7866 97.4432 47.6028 98.2652 44.6001L100.457 35.6602H99.3612L97.3747 43.6447Z" fill="black"/>
<path d="M60.8646 33.4081C60.8646 33.6129 60.9331 33.7494 61.0016 33.8858C62.0976 32.4527 63.6731 31.7703 65.3171 32.1798C66.2076 32.3162 67.1666 33.0669 67.3721 34.0906C67.7146 35.1825 67.3721 36.3426 67.2351 37.3663L66.0021 43.6447H62.2346L63.4676 37.0933C63.5361 36.6838 63.6046 36.1379 63.2621 35.7967C62.7826 35.319 62.0291 35.5919 61.6181 35.8649L61.0701 36.4791L59.5631 43.6447H55.7956L57.1656 36.8203C57.2341 36.4791 57.1656 36.1379 56.9601 35.8649C56.6861 35.5919 56.2751 35.5919 55.8641 35.5919C55.3846 35.7284 54.9736 36.0696 54.6996 36.5474C54.0831 38.8676 53.7406 41.3244 53.1241 43.713H49.3566L51.6171 32.521C52.7816 32.3845 54.0831 32.4527 55.2476 32.4527C55.2476 32.8622 55.1106 33.3399 55.1106 33.8176C56.2751 32.3845 57.9191 31.8385 59.5631 32.3162C60.1111 32.521 60.5906 32.7939 60.8646 33.4081ZM42.6436 39.3454C42.5751 39.8231 42.8491 40.2325 43.1231 40.5055C43.6026 40.7102 44.1506 40.642 44.5616 40.4373C45.1781 40.0278 45.3836 39.2089 45.5891 38.4582L46.8221 32.5892H50.5896L48.2606 43.7812C47.0961 43.9177 45.8631 43.8495 44.6986 43.8495C44.6986 43.3717 44.8356 42.9623 44.9041 42.5528C43.7396 43.9177 41.9586 44.5319 40.2461 43.9177C39.6981 43.713 39.1501 43.2353 38.8761 42.5528C38.5336 41.8704 38.6706 40.7785 38.8076 40.0278L40.3146 32.7939C41.5476 32.6575 42.7806 32.6575 44.0136 32.7257C44.0136 32.5892 42.6436 39.3454 42.6436 39.3454ZM105.047 34.9777C104.088 35.046 103.403 36.4109 103.129 37.5028C102.924 38.2535 102.718 39.4818 103.129 40.2325C103.403 40.7102 103.814 40.642 104.157 40.642C104.705 40.5737 105.116 40.1643 105.527 39.5501C106.075 38.3899 106.623 36.6838 106.006 35.2507C105.732 35.046 105.39 35.046 105.047 34.9777ZM109.568 33.7494C110.527 35.8649 109.911 38.5264 109.089 40.4373C107.582 43.3035 105.184 44.1907 102.65 43.8495C101.485 43.6447 100.252 43.0305 99.6356 41.5292C98.6766 39.0041 99.3616 36.0697 100.732 34.0906C102.581 31.6338 105.527 31.1561 108.061 32.1115C108.609 32.521 109.157 32.9987 109.568 33.7494ZM75.5236 38.3217C75.1811 38.3217 74.8386 38.5947 74.5646 38.7994C74.2221 39.0041 73.9481 39.4818 74.0166 39.9595C74.0851 40.2325 74.2221 40.642 74.4961 40.7785C75.1811 41.1197 75.8661 40.7785 76.3456 40.1643C76.4141 40.2325 75.5236 38.3217 75.5236 38.3217ZM77.4416 32.6575C77.0306 32.6575 76.6881 32.9987 76.5511 33.4081C76.4826 33.9541 76.7566 34.4318 76.9621 34.9095C77.3046 34.773 77.6471 34.5 77.9896 34.1588C78.1951 33.8858 78.3321 33.5446 78.1951 33.1352C78.0581 32.7257 77.7156 32.6575 77.4416 32.6575ZM80.4556 31.9068C80.9351 32.7939 80.7981 34.2271 80.3186 35.046C79.8391 36.0696 78.8801 36.5474 78.1266 37.0933C78.4006 37.5028 78.5376 38.117 78.8801 38.2535L79.4966 37.298H82.2366C81.9626 38.6629 81.0721 39.8913 80.1131 40.8467C80.5241 41.7339 81.0721 42.5528 81.4831 43.5082H78.0581C77.7156 42.0751 77.0991 43.5082 76.4141 43.6447C74.8386 43.9859 72.9206 44.1224 71.6876 42.6893C70.9341 41.7339 70.6601 40.2325 71.0026 39.0041C71.4136 37.298 72.8521 36.3426 74.0851 35.7967C73.7426 35.1142 73.4686 34.1588 73.6056 33.2717C73.8111 32.1115 74.6331 31.0196 75.5921 30.6101C77.3046 29.9959 79.4281 29.9959 80.4556 31.9068Z" fill="white"/>
<path d="M35.3845 34.5652L38.878 43.9146C39.6315 45.0065 40.8645 45.2112 42.029 45.2112L91.075 45.143C91.9655 45.0065 92.1025 44.1193 92.308 43.1639V43.0957C91.212 43.7099 89.7735 44.1876 88.4035 43.7099C87.1705 43.4369 86.0745 42.2085 85.595 40.7754C84.4305 36.476 86.28 32.3814 88.6775 29.4469C90.116 27.9455 91.76 27.1266 93.6095 26.9219H100.117C99.9115 28.0138 99.6375 29.5151 99.5005 30.1976L94.226 30.2658C92.3765 30.9483 90.7325 32.1767 90.1845 34.224C89.705 35.7253 89.2255 37.9774 90.1845 39.3423C90.5955 39.7517 91.075 40.0247 91.623 39.9565C92.5135 39.7517 93.267 38.8645 93.4725 37.7726C93.4725 37.7044 93.541 37.3632 93.541 37.3632H91.9655L92.5135 34.0875H99.021L96.829 43.1639C96.007 46.1666 94.9795 48.3504 90.8695 48.4869H39.426C36.686 48.1457 35.864 47.2585 34.768 45.2112C33.672 42.2767 33.3295 41.1848 32.0965 37.9091L30.4525 39.4105L29.699 43.5734H25.5205L29.014 26.9219H33.124C32.85 28.7645 31.9595 32.9273 31.9595 32.9273C33.8775 31.153 36.6175 28.6962 38.33 26.9219H43.0565C43.125 26.9219 35.3845 34.5652 35.3845 34.5652Z" fill="white"/>
<path d="M111.075 42.7573C111.075 41.9384 111.76 41.3242 112.514 41.3242C113.336 41.3242 113.952 42.0067 113.952 42.7573C113.952 43.508 113.267 44.1905 112.514 44.1905C111.76 44.2587 111.075 43.6445 111.075 42.7573ZM113.61 42.7573C113.61 42.0749 113.13 41.6654 112.514 41.6654C111.897 41.6654 111.418 42.0749 111.418 42.7573C111.418 43.4398 111.897 43.8492 112.514 43.8492C113.13 43.8492 113.61 43.4398 113.61 42.7573ZM113.267 43.5763H112.856L112.514 42.8938H112.308V43.5763H111.966V42.0067H112.719C113.13 42.0067 113.336 42.1431 113.336 42.4844C113.336 42.7573 113.199 42.8938 112.925 42.8938L113.267 43.5763ZM112.719 42.6891C112.856 42.6891 112.925 42.6891 112.925 42.4844C112.925 42.2796 112.719 42.2796 112.582 42.2796H112.24V42.6209L112.719 42.6891Z" fill="black"/>
<path d="M123.544 37.7042C123.544 53.2638 98.8153 65.889 68.4013 65.889C37.9188 65.889 13.2588 53.2638 13.2588 37.7042C13.2588 22.1446 37.9873 9.51953 68.4013 9.51953C98.8153 9.51953 123.544 22.1446 123.544 37.7042Z" fill="black"/>
<path d="M120.531 37.7068C120.531 51.8333 97.1726 63.23 68.4711 63.23C39.7696 63.23 16.4111 51.8333 16.4111 37.7068C16.4111 23.5803 39.7696 12.1836 68.4711 12.1836C97.1726 12.1836 120.531 23.6486 120.531 37.7068Z" fill="#C3002F"/>
<path d="M48.2611 60.6358C42.0961 59.3392 36.6161 57.5648 31.8211 55.2445C27.0946 52.9242 23.3956 50.2627 20.8611 47.26C18.2581 44.2573 16.8881 40.9816 16.8881 37.7059C16.8881 34.4302 18.2581 31.2227 20.8611 28.1517C23.3956 25.149 27.1631 22.4875 31.8211 20.1672C36.5476 17.8469 42.0961 16.0043 48.2611 14.7759C54.6316 13.4793 61.4131 12.7969 68.4001 12.7969C75.3871 12.7969 82.1686 13.4793 88.5391 14.7759C94.7041 16.0726 100.184 17.8469 104.979 20.1672C109.706 22.4875 113.405 25.149 115.939 28.1517C118.542 31.1545 119.912 34.4302 119.912 37.7059C119.912 40.9816 118.542 44.189 115.939 47.26C113.405 50.2627 109.637 52.9242 104.979 55.2445C100.253 57.5648 94.7041 59.4074 88.5391 60.6358C82.1686 61.9324 75.3871 62.6149 68.4001 62.6149C61.4131 62.6149 54.7001 62.0007 48.2611 60.6358ZM31.3416 19.1435C26.4781 21.5321 22.7106 24.3301 19.9706 27.4011C17.1621 30.6768 15.7236 34.1572 15.7236 37.7059C15.7236 41.3228 17.1621 44.735 19.9706 48.0107C22.6421 51.0817 26.4781 53.8797 31.3416 56.2682C41.2741 61.1135 54.4261 63.775 68.4686 63.775C82.5111 63.775 95.6631 61.1135 105.596 56.2682C110.459 53.8797 114.227 51.1499 116.967 48.0107C119.775 44.735 121.214 41.2546 121.214 37.7059C121.214 34.0889 119.844 30.6768 116.967 27.4011C114.295 24.3301 110.459 21.5321 105.596 19.1435C95.6631 14.2982 82.5111 11.6367 68.4686 11.6367C54.4261 11.6367 41.2741 14.2982 31.3416 19.1435Z" fill="white"/>
<path d="M57.2366 36.6139H57.5791C57.5791 36.4092 57.5106 36.2045 57.3736 35.9997C57.0996 35.7268 56.6886 35.7268 56.3461 35.7268C55.8666 35.795 55.4556 36.2045 55.1816 36.6822C54.5651 39.0025 54.2226 41.4593 53.6061 43.8478H50.8661L50.7976 44.735H54.5651C55.1131 42.4147 55.5241 39.9579 56.1406 37.5694C56.3461 37.0916 56.8256 36.7504 57.2366 36.6139ZM68.6761 35.1808C68.5391 34.4984 68.0596 33.8842 67.5116 33.543C67.6486 33.7477 67.7171 34.0207 67.7856 34.2254C68.1281 35.3173 67.7856 36.4775 67.6486 37.5011L66.4156 43.7795H63.6756L63.4701 44.6667H67.2376L68.4706 38.3883C68.7446 37.3646 69.0186 36.2727 68.6761 35.1808ZM63.8811 36.5457C63.8811 36.341 63.8126 36.068 63.6071 35.9315C63.1276 35.4538 62.3741 35.7268 61.9631 35.9997L61.5521 36.6139L60.0451 43.7795H57.3051L57.0996 44.6667H60.8671L62.3741 37.5011L62.7851 36.8869C63.1276 36.6822 63.5386 36.5457 63.8811 36.5457ZM45.1806 43.916C45.1806 43.4383 45.3176 43.0289 45.3861 42.6194C44.2216 43.9843 42.3721 44.5985 40.7281 43.9843C40.6596 43.9843 40.5226 43.916 40.4541 43.8478C40.7281 44.3255 41.2076 44.735 41.6186 44.8714C43.1256 45.4174 44.7011 45.0079 45.8656 43.916C45.5916 43.916 45.3861 43.916 45.1806 43.916ZM43.0571 39.4802C42.9886 39.9579 43.2626 40.3674 43.5366 40.6403C43.6736 40.7086 43.8106 40.7768 43.9476 40.7768C43.9476 40.6403 43.9476 40.5721 43.9476 40.3674L45.3176 33.6112C44.9751 33.6112 44.6326 33.6112 44.2901 33.6112L43.0571 39.4802ZM50.7976 33.6112L48.6741 43.8478C47.8521 43.916 47.0301 43.916 46.1396 43.916C46.0711 44.189 46.0026 44.5302 46.0026 44.8714C47.1671 44.8032 48.4686 44.8714 49.5646 44.8032L51.8936 33.6112H50.7976ZM104.228 40.8451C104.022 40.1626 104.228 39.2072 104.365 38.593C104.639 37.4329 105.324 36.068 106.283 36.068C106.351 36.068 106.488 36.068 106.557 36.068C106.557 35.8633 106.42 35.6585 106.351 35.522C106.146 35.1808 105.735 35.1808 105.392 35.1808C104.433 35.2491 103.748 36.6139 103.474 37.7058C103.269 38.4565 103.063 39.6849 103.543 40.4356C103.748 40.7086 103.954 40.8451 104.228 40.8451Z" fill="black"/>
<path d="M110.873 34.8398C110.599 34.2256 110.119 33.8161 109.708 33.4749C109.777 33.6114 109.914 33.7479 109.982 33.9526C110.941 36.0682 110.325 38.7297 109.503 40.6405C107.996 43.5068 105.598 44.3939 102.995 44.0527C102.379 43.9845 101.831 43.7797 101.283 43.3703C101.968 44.3257 102.927 44.7351 103.886 44.9399C106.42 45.2811 108.886 44.3939 110.325 41.5277C111.215 39.6169 111.832 36.9553 110.873 34.8398ZM80.8696 32.0418C81.3491 32.929 81.2121 34.3621 80.7326 35.181C80.2531 36.2047 79.2941 36.6824 78.5406 37.2283C78.8146 37.6378 78.9516 38.252 79.2941 38.3885L79.4311 38.1837C79.4311 38.1837 79.4996 38.1837 79.4996 38.1155L79.9106 37.433H80.4586C80.9381 37.0918 81.3491 36.7506 81.6231 36.1364C82.0341 35.3175 82.2396 33.8844 81.7601 32.9972C81.4861 32.5195 81.0751 32.11 80.7326 31.8371C80.7326 31.9053 80.8011 31.9735 80.8696 32.0418ZM74.9786 40.9817C75.1156 41.05 75.2526 41.1182 75.3896 41.1182V41.05C75.3211 40.5723 75.5951 40.0946 75.9376 39.8898C76.0746 39.7533 76.2801 39.6851 76.4171 39.5486L75.9376 38.525C75.5951 38.525 75.2526 38.7979 74.9786 39.0027C74.6361 39.2074 74.3621 39.6851 74.4306 40.1628C74.5676 40.4358 74.7046 40.8452 74.9786 40.9817ZM83.6096 38.3202H82.4451C82.0341 39.3439 81.3491 40.231 80.5956 40.9817C81.0066 41.8689 81.5546 42.6878 81.9656 43.6432H78.5406C78.1981 42.2101 77.5816 43.6432 76.8966 43.7797C75.5951 44.0527 74.0881 44.1892 72.8551 43.3703C72.9236 43.5068 72.9921 43.575 73.0606 43.6432C74.2936 45.0081 76.2116 44.9399 77.7871 44.5987C78.4721 44.4622 79.0886 43.029 79.4311 44.4622H82.8561C82.4451 43.5068 81.8971 42.6878 81.4861 41.8007C82.4451 40.8452 83.3356 39.6851 83.6096 38.3202ZM77.8556 34.4303C77.9241 34.0209 78.2666 33.7479 78.6091 33.7479C78.6091 33.6114 78.6091 33.4749 78.6091 33.2702C78.4721 32.929 78.1296 32.7925 77.8556 32.7925C77.5131 32.7925 77.1021 33.1337 76.9651 33.5431C76.8966 34.0891 77.1706 34.5668 77.3761 35.0445C77.5131 35.0445 77.7186 34.908 77.8556 34.7715C77.8556 34.7033 77.8556 34.5668 77.8556 34.4303ZM35.7966 34.7033L39.2901 44.0527C39.4956 44.3939 39.8381 44.6669 40.1806 44.8034L36.6871 35.5222L44.4276 27.8789H42.6466L35.7966 34.7033ZM93.9531 37.6378H93.4736L93.3366 38.525H93.7476C93.8161 38.3885 93.8846 38.1837 93.8846 38.0472C93.8846 37.8425 93.9531 37.6378 93.9531 37.6378ZM32.4401 33.1337C32.8511 32.7242 33.3306 32.3148 33.8101 31.9053C34.0841 30.6087 34.4266 28.9708 34.5636 28.0154H33.5361C33.1251 29.9945 32.4401 33.1337 32.4401 33.1337ZM88.8841 43.848C88.4731 43.7797 88.0621 43.575 87.7196 43.302C88.2676 44.0527 89.0211 44.5987 89.7746 44.7351C90.5966 45.0081 91.5556 44.9399 92.3091 44.6669C92.5146 44.3257 92.5831 43.7797 92.7201 43.302V43.2338C91.6241 43.848 90.1856 44.3257 88.8841 43.848ZM32.5771 38.0472L30.9331 39.5486L30.1796 43.7115H27.0971L26.8916 44.5987H31.0701L31.8236 40.4358L33.0566 39.3439C32.8511 38.9344 32.7141 38.525 32.5771 38.0472Z" fill="black"/>
<path d="M100.391 27.9472C100.254 28.9026 100.049 29.858 99.9118 30.3357L94.6373 30.4039C92.7878 31.0864 91.1438 32.3148 90.5273 34.3621C90.0478 35.8634 89.5683 38.1155 90.5273 39.4804C90.7328 39.6851 90.9383 39.8898 91.2123 39.9581C90.5273 38.5932 91.0068 36.6141 91.4178 35.181C92.0343 33.0654 93.6098 31.9053 95.4593 31.2229L100.734 31.1546C100.939 30.4722 101.213 28.9708 101.35 27.8789C101.419 27.9472 100.391 27.9472 100.391 27.9472Z" fill="black"/>
<path d="M97.238 43.3028C96.416 46.3055 95.3885 48.4893 91.2785 48.694H39.835C38.5335 48.4893 37.643 48.2163 36.958 47.7386C37.78 48.7623 38.8075 49.3765 40.7255 49.5812H92.169C96.279 49.4447 97.3065 47.2609 98.1285 44.1899L100.321 35.25H99.2245L97.238 43.3028Z" fill="black"/>
<path d="M60.7982 33.1325C60.7982 33.3372 60.8667 33.4737 60.9352 33.6102C62.0312 32.1771 63.6067 31.4946 65.2507 31.9041C66.1412 32.0406 67.1002 32.7913 67.3057 33.8149C67.6482 34.9068 67.3057 36.067 67.1687 37.0906L65.9357 43.3691H62.1682L63.4012 36.8177C63.4697 36.4082 63.5382 35.8623 63.1957 35.521C62.7162 35.0433 61.9627 35.3163 61.5517 35.5893L61.0722 36.1352L59.5652 43.3008H55.7977L57.1677 36.4764C57.2362 36.1352 57.1677 35.794 56.9622 35.521C56.6882 35.2481 56.2772 35.2481 55.8662 35.2481C55.3867 35.3845 54.9757 35.7258 54.7017 36.2035C54.0852 38.5238 53.7427 40.9805 53.1262 43.3691H49.3587L51.6192 32.2453C52.7837 32.1088 54.0852 32.1771 55.2497 32.1771C55.2497 32.5865 55.1127 33.0643 55.1127 33.542C56.2772 32.1088 57.9212 31.5629 59.5652 32.0406C59.9762 32.1771 60.5242 32.5183 60.7982 33.1325ZM42.5772 39.0015C42.5087 39.4792 42.7827 39.8886 43.0567 40.1616C43.5362 40.3663 44.0842 40.3663 44.4952 40.0934C45.1117 39.6839 45.3172 38.865 45.5227 38.1143L46.7557 32.2453H50.5232L48.1942 43.4373C47.0297 43.5738 45.7967 43.5056 44.6322 43.5056C44.6322 43.0279 44.7692 42.6184 44.8377 42.1407C43.6732 43.5056 41.8922 44.1198 40.1797 43.5056C39.6317 43.3008 39.0837 42.8231 38.8097 42.1407C38.4672 41.4582 38.6042 40.3663 38.7412 39.6157L40.2482 32.3818C41.4812 32.2453 42.7142 32.2453 43.9472 32.3136C43.8787 32.2453 42.5772 39.0015 42.5772 39.0015ZM104.912 34.6339C103.953 34.7021 103.268 36.067 102.994 37.1589C102.789 37.9096 102.583 39.138 102.994 39.8886C103.268 40.3663 103.679 40.2981 104.022 40.2981C104.57 40.2299 104.981 39.8204 105.392 39.2062C105.94 38.0461 106.488 36.34 105.871 34.9068C105.666 34.7021 105.323 34.7021 104.912 34.6339ZM109.502 33.4055C110.461 35.521 109.844 38.1825 109.022 40.0934C107.515 42.9596 105.118 43.8468 102.583 43.5056C101.419 43.3008 100.186 42.6866 99.5692 41.1853C98.6102 38.6602 99.2952 35.7258 100.665 33.7467C102.515 31.2899 105.46 30.8122 107.995 31.7676C108.543 32.1771 109.091 32.723 109.502 33.4055ZM75.4572 38.0461C75.1147 38.0461 74.7722 38.319 74.4982 38.5238C74.1557 38.7285 73.8817 39.2062 73.9502 39.6839C74.0187 39.9569 74.1557 40.3663 74.4297 40.5028C75.1147 40.8441 75.7997 40.5028 76.2792 39.8886L75.4572 38.0461ZM77.3752 32.3136C76.9642 32.3136 76.6217 32.6548 76.4847 33.0643C76.4162 33.6102 76.6902 34.0879 76.8957 34.5656C77.2382 34.4291 77.5807 34.1562 77.9232 33.8149C78.1287 33.542 78.2657 33.2007 78.1287 32.7913C77.9917 32.4501 77.6492 32.3136 77.3752 32.3136ZM80.3892 31.5629C80.8687 32.4501 80.7317 33.8832 80.2522 34.7021C79.7727 35.7258 78.8137 36.2035 78.0602 36.7494C78.3342 37.1589 78.4712 37.7731 78.8137 37.9096L79.4302 36.9542H82.1702C81.8962 38.319 81.0057 39.5474 80.0467 40.5028C80.4577 41.39 81.0057 42.2089 81.4167 43.1643H77.9917C77.6492 41.7312 77.0327 43.1643 76.3477 43.3008C74.7722 43.6421 72.8542 43.7785 71.6212 42.3454C70.8677 41.39 70.5937 39.8886 70.9362 38.6603C71.3472 36.9542 72.7857 35.9987 74.0187 35.4528C73.6762 34.7704 73.4022 33.8149 73.5392 32.9278C73.7447 31.7676 74.5667 30.6757 75.5257 30.2663C77.2382 29.7203 79.3617 29.7203 80.3892 31.5629Z" fill="white"/>
<path d="M35.3163 34.2253L38.8098 43.5748C39.5633 44.6667 40.7963 44.8714 41.9608 44.8714L91.0068 44.8031C91.8973 44.6667 92.0343 43.7795 92.2398 42.8241V42.7558C91.1438 43.37 89.7053 43.8477 88.3353 43.37C87.1023 43.097 86.0063 41.8687 85.5268 40.4355C84.3623 36.1362 86.2118 32.0415 88.6093 29.1071C90.0478 27.6057 91.6918 26.7868 93.5413 26.582H100.049C99.8433 27.6739 99.5693 29.1753 99.3638 29.8577L94.0893 29.926C92.2398 30.6084 90.5958 31.8368 90.0478 33.8841C89.5683 35.3855 89.0888 37.6375 90.0478 39.0024C90.4588 39.4119 90.9383 39.6849 91.4863 39.6166C92.3768 39.4119 93.1303 38.5247 93.3358 37.4328C93.3358 37.3646 93.4043 37.0233 93.4043 37.0233H91.8288L92.3768 33.7476H98.8843L96.6923 42.8241C95.8703 45.8268 94.8428 48.0106 90.7328 48.1471H39.2893C36.5493 47.8059 35.7273 46.9187 34.6313 44.8714C33.5353 41.9369 33.1928 40.845 31.9598 37.5693L30.3158 39.0707L29.5623 43.2335H25.3838L28.8773 26.582H32.9873C32.7133 28.4246 31.8228 32.5875 31.8228 32.5875C33.7408 30.8132 36.4808 28.3564 38.1933 26.582H42.9198L35.3163 34.2253Z" fill="white"/>
<path d="M111.009 42.4839C111.009 41.665 111.694 41.0508 112.447 41.0508C113.269 41.0508 113.886 41.7332 113.886 42.4839C113.886 43.3028 113.201 43.917 112.447 43.917C111.694 43.917 111.009 43.3028 111.009 42.4839ZM113.543 42.4839C113.543 41.8015 113.064 41.392 112.447 41.392C111.831 41.392 111.351 41.8015 111.351 42.4839C111.351 43.1663 111.831 43.5758 112.447 43.5758C113.064 43.5758 113.543 43.1663 113.543 42.4839ZM113.201 43.2346H112.79L112.447 42.5521H112.242V43.2346H111.899V41.665H112.653C113.064 41.665 113.269 41.8015 113.269 42.1427C113.269 42.4157 113.132 42.5521 112.858 42.5521C112.79 42.5521 113.201 43.2346 113.201 43.2346ZM112.653 42.3474C112.79 42.3474 112.858 42.3474 112.858 42.1427C112.858 41.938 112.653 41.938 112.516 41.938H112.173V42.2792L112.653 42.3474Z" fill="black"/>
</g>
<defs>
<clipPath id="clip0_586_1324">
<rect width="137" height="75" fill="white" transform="translate(0.106445 0.171875)"/>
</clipPath>
</defs>
</svg>
