<svg width="157" height="59" viewBox="0 0 157 59" fill="none" xmlns="http://www.w3.org/2000/svg">
<g clip-path="url(#clip0_586_185)">
<path d="M146.206 10.1055H11.1104V48.8606H146.206V10.1055Z" fill="white"/>
<path d="M0.606445 0.0195312H156.606V58.0195H0.606445V0.0195312ZM11.1104 32.8818C11.1104 38.4827 11.7864 41.1106 14.8804 44.5614C17.8704 47.8795 22.8104 48.6225 25.4884 48.6225C30.0384 48.6225 33.3404 47.0301 35.7324 44.5614C38.0724 41.9866 39.3464 39.2259 39.3464 32.8818V10.1065H30.0384V32.8818C30.0384 35.8813 30.0384 40.0223 25.3324 40.0223C20.7304 40.0223 20.5224 35.4831 20.5224 32.8818V10.1065H11.1104V32.8818ZM66.5944 47.8264V39.3852H55.7784V10.1065H46.3144V47.8264H66.5944ZM81.2844 10.1065H71.8724V47.8264H81.2844V10.1065ZM96.8064 47.8264V24.8918L110.82 47.8264H119.088V10.1065H110.3V33.8905L96.0264 10.1065H87.9664V47.8264H96.8064ZM146.206 47.8264V39.3852H134.818V32.8818H145.894V24.4937H134.818V18.7335H146.206V10.133H125.77V47.8529H146.206V47.8264Z" fill="#003366"/>
</g>
<defs>
<clipPath id="clip0_586_185">
<rect width="156" height="58" fill="white" transform="translate(0.606445 0.0195312)"/>
</clipPath>
</defs>
</svg>
