<svg width="20" height="20" viewBox="0 0 20 20" fill="none" xmlns="http://www.w3.org/2000/svg">
<g clip-path="url(#clip0_501_39)">
<path d="M14.7277 1.63646C15.5252 1.63291 16.0731 1.63136 16.4905 1.67694C16.6262 1.69176 16.7395 1.71085 16.8358 1.73392L8.42161 10.1481C8.18974 10.38 8.18974 10.7559 8.42161 10.9878C8.65349 11.2197 9.02943 11.2197 9.2613 10.9878L17.6755 2.57361C17.6986 2.66988 17.7177 2.78325 17.7325 2.91889C17.7781 3.33629 17.7765 3.88424 17.773 4.68174L17.7642 6.64677C17.7627 6.97468 18.0274 7.2417 18.3553 7.24316C18.6832 7.24462 18.9502 6.97998 18.9517 6.65206L18.9606 4.65165C18.964 3.89821 18.9667 3.28242 18.913 2.78998C18.857 2.2779 18.7339 1.82454 18.432 1.43442C18.3666 1.34997 18.2961 1.26979 18.2209 1.19431C18.1437 1.11692 18.0616 1.04447 17.975 0.977452C17.5849 0.675541 17.1315 0.552382 16.6194 0.496461C16.127 0.442684 15.5112 0.445442 14.7578 0.448817L12.7574 0.457743C12.4294 0.459206 12.1648 0.72622 12.1663 1.05414C12.1677 1.38205 12.4347 1.64669 12.7627 1.64523L14.7277 1.63646Z" fill="#FAFAFA"/>
<path d="M10.7994 2.97431C10.32 2.96856 9.79186 2.96856 9.21155 2.96856H9.17316C7.71924 2.96856 6.57955 2.96855 5.67536 3.06651C4.75264 3.16648 4.00501 3.37415 3.36667 3.83793C2.98022 4.1187 2.64038 4.45855 2.35961 4.845C1.89582 5.48334 1.68816 6.23097 1.58819 7.15369C1.49022 8.05788 1.49023 9.19757 1.49023 10.6515V10.7231C1.49023 12.1771 1.49022 13.3167 1.58819 14.2209C1.68816 15.1437 1.89582 15.8913 2.35961 16.5296C2.64038 16.9161 2.98022 17.2559 3.36667 17.5367C4.00501 18.0005 4.75264 18.2081 5.67536 18.3081C6.57954 18.4061 7.7192 18.4061 9.17308 18.4061H9.24483C10.6987 18.4061 11.8384 18.4061 12.7426 18.3081C13.6653 18.2081 14.413 18.0005 15.0513 17.5367C15.4377 17.2559 15.7776 16.9161 16.0584 16.5296C16.5221 15.8913 16.7298 15.1437 16.8298 14.2209C16.9277 13.3168 16.9277 12.1771 16.9277 10.7232V10.6846C16.9277 10.1043 16.9277 9.57628 16.922 9.09686C16.9181 8.76897 16.6491 8.50634 16.3212 8.51027C15.9933 8.5142 15.7306 8.7832 15.7346 9.11109C15.7402 9.58274 15.7402 10.1041 15.7402 10.6873C15.7402 12.1848 15.7394 13.2602 15.6492 14.093C15.5602 14.9147 15.3899 15.4295 15.0977 15.8316C14.8901 16.1173 14.6389 16.3685 14.3533 16.576C13.9511 16.8682 13.4364 17.0385 12.6147 17.1275C11.7819 17.2177 10.7065 17.2186 9.20898 17.2186C7.71149 17.2186 6.63606 17.2177 5.80327 17.1275C4.98159 17.0385 4.46684 16.8682 4.06467 16.576C3.77903 16.3685 3.52784 16.1173 3.32031 15.8316C3.02812 15.4295 2.8578 14.9147 2.76878 14.093C2.67855 13.2602 2.67773 12.1848 2.67773 10.6873C2.67773 9.18982 2.67855 8.11439 2.76878 7.2816C2.8578 6.45992 3.02812 5.94516 3.32031 5.54299C3.52784 5.25736 3.77903 5.00617 4.06467 4.79864C4.46684 4.50645 4.98159 4.33613 5.80327 4.2471C6.63606 4.15688 7.71149 4.15606 9.20898 4.15606C9.79219 4.15606 10.3136 4.15607 10.7852 4.16172C11.1131 4.16565 11.3821 3.90303 11.386 3.57513C11.39 3.24724 11.1273 2.97824 10.7994 2.97431Z" fill="#FAFAFA"/>
<path d="M14.7277 1.63646C15.5252 1.63291 16.0731 1.63136 16.4905 1.67694C16.6262 1.69176 16.7395 1.71085 16.8358 1.73392L8.42161 10.1481C8.18974 10.38 8.18974 10.7559 8.42161 10.9878C8.65349 11.2197 9.02943 11.2197 9.2613 10.9878L17.6755 2.57361C17.6986 2.66988 17.7177 2.78325 17.7325 2.91889C17.7781 3.33629 17.7765 3.88424 17.773 4.68174L17.7642 6.64677C17.7627 6.97468 18.0274 7.2417 18.3553 7.24316C18.6832 7.24462 18.9502 6.97998 18.9517 6.65206L18.9606 4.65165C18.964 3.89821 18.9667 3.28242 18.913 2.78998C18.857 2.2779 18.7339 1.82454 18.432 1.43442C18.3666 1.34997 18.2961 1.26979 18.2209 1.19431C18.1437 1.11692 18.0616 1.04447 17.975 0.977452C17.5849 0.675541 17.1315 0.552382 16.6194 0.496461C16.127 0.442684 15.5112 0.445442 14.7578 0.448817L12.7574 0.457743C12.4294 0.459206 12.1648 0.72622 12.1663 1.05414C12.1677 1.38205 12.4347 1.64669 12.7627 1.64523L14.7277 1.63646Z" stroke="white" stroke-linecap="round"/>
<path d="M10.7994 2.97431C10.32 2.96856 9.79186 2.96856 9.21155 2.96856H9.17316C7.71924 2.96856 6.57955 2.96855 5.67536 3.06651C4.75264 3.16648 4.00501 3.37415 3.36667 3.83793C2.98022 4.1187 2.64038 4.45855 2.35961 4.845C1.89582 5.48334 1.68816 6.23097 1.58819 7.15369C1.49022 8.05788 1.49023 9.19757 1.49023 10.6515V10.7231C1.49023 12.1771 1.49022 13.3167 1.58819 14.2209C1.68816 15.1437 1.89582 15.8913 2.35961 16.5296C2.64038 16.9161 2.98022 17.2559 3.36667 17.5367C4.00501 18.0005 4.75264 18.2081 5.67536 18.3081C6.57954 18.4061 7.7192 18.4061 9.17308 18.4061H9.24483C10.6987 18.4061 11.8384 18.4061 12.7426 18.3081C13.6653 18.2081 14.413 18.0005 15.0513 17.5367C15.4377 17.2559 15.7776 16.9161 16.0584 16.5296C16.5221 15.8913 16.7298 15.1437 16.8298 14.2209C16.9277 13.3168 16.9277 12.1771 16.9277 10.7232V10.6846C16.9277 10.1043 16.9277 9.57628 16.922 9.09686C16.9181 8.76897 16.6491 8.50634 16.3212 8.51027C15.9933 8.5142 15.7306 8.7832 15.7346 9.11109C15.7402 9.58274 15.7402 10.1041 15.7402 10.6873C15.7402 12.1848 15.7394 13.2602 15.6492 14.093C15.5602 14.9147 15.3899 15.4295 15.0977 15.8316C14.8901 16.1173 14.6389 16.3685 14.3533 16.576C13.9511 16.8682 13.4364 17.0385 12.6147 17.1275C11.7819 17.2177 10.7065 17.2186 9.20898 17.2186C7.71149 17.2186 6.63606 17.2177 5.80327 17.1275C4.98159 17.0385 4.46684 16.8682 4.06467 16.576C3.77903 16.3685 3.52784 16.1173 3.32031 15.8316C3.02812 15.4295 2.8578 14.9147 2.76878 14.093C2.67855 13.2602 2.67773 12.1848 2.67773 10.6873C2.67773 9.18982 2.67855 8.11439 2.76878 7.2816C2.8578 6.45992 3.02812 5.94516 3.32031 5.54299C3.52784 5.25736 3.77903 5.00617 4.06467 4.79864C4.46684 4.50645 4.98159 4.33613 5.80327 4.2471C6.63606 4.15688 7.71149 4.15606 9.20898 4.15606C9.79219 4.15606 10.3136 4.15607 10.7852 4.16172C11.1131 4.16565 11.3821 3.90303 11.386 3.57513C11.39 3.24724 11.1273 2.97824 10.7994 2.97431Z" stroke="white" stroke-linecap="round"/>
</g>
<defs>
<clipPath id="clip0_501_39">
<rect width="19" height="19" fill="white" transform="translate(0.500488 0.25)"/>
</clipPath>
</defs>
</svg>
