<svg width="21" height="19" viewBox="0 0 21 19" fill="none" xmlns="http://www.w3.org/2000/svg">
<path d="M9.229 0.572266C7.02 0.572266 5.229 2.36327 5.229 4.57227H4.229C2.149 4.57227 0.484016 6.16827 0.291016 8.19727C0.797016 8.37027 7.573 10.6353 7.573 10.6343C9.008 11.1133 11.45 11.1133 12.885 10.6343C12.885 10.6343 18.067 8.90427 20.198 8.19727C20.013 6.16027 18.314 4.57227 16.229 4.57227H15.229C15.229 2.36327 13.438 0.572266 11.229 0.572266H9.229ZM9.229 2.57227H11.229C12.334 2.57227 13.229 3.46727 13.229 4.57227H7.229C7.229 3.46727 8.124 2.57227 9.229 2.57227ZM0.229004 10.2913V14.5723C0.229004 16.7813 2.02 18.5723 4.229 18.5723H16.229C18.438 18.5723 20.229 16.7813 20.229 14.5723V10.2913L13.51 12.5413C11.665 13.1563 8.793 13.1563 6.948 12.5413L0.229004 10.2913Z" fill="#085ABB"/>
</svg>
