<svg width="25" height="23" viewBox="0 0 25 23" fill="none" xmlns="http://www.w3.org/2000/svg">
<g clip-path="url(#clip0_697_119)">
<path d="M19.5566 17.127V11.627H21.0566V10.252H3.05664V11.627H4.55664V17.127H1.55664V18.502H22.5566V17.127H19.5566ZM9.05664 17.127H6.05664V11.627H9.05664V17.127ZM10.5566 17.127V11.627H13.5566V17.127H10.5566ZM18.0566 17.127H15.0566V11.627H18.0566V17.127Z" fill="#085ABB"/>
<path d="M24.0566 19.877H0.0566406V21.252H24.0566V19.877Z" fill="#085ABB"/>
<path d="M23.659 7.58445L12.409 2.08445C12.1915 1.97445 11.9215 1.97445 11.704 2.08445L0.454034 7.58445C0.146534 7.72883 -0.00346579 8.05195 0.0790342 8.35445C0.161534 8.66383 0.461534 8.87695 0.806534 8.87695H23.3065C23.6515 8.87695 23.9515 8.66383 24.034 8.35445C24.1165 8.05195 23.9665 7.72883 23.659 7.58445ZM3.80653 7.50195L12.0565 3.46633L20.3065 7.50195H3.80653Z" fill="#085ABB"/>
</g>
<defs>
<clipPath id="clip0_697_119">
<rect width="24" height="22" fill="white" transform="translate(0.0566406 0.626953)"/>
</clipPath>
</defs>
</svg>
