<svg width="43" height="43" viewBox="0 0 43 43" fill="none" xmlns="http://www.w3.org/2000/svg">
<path d="M22.979 29.4023C22.2541 29.4023 21.6665 29.99 21.6665 30.7148C21.6665 31.4397 22.2541 32.0273 22.979 32.0273H29.979C30.7039 32.0273 31.2915 31.4397 31.2915 30.7148C31.2915 29.99 30.7039 29.4023 29.979 29.4023H22.979Z" fill="#085ABB"/>
<path fill-rule="evenodd" clip-rule="evenodd" d="M28.8329 6.77591C27.3203 6.65233 25.4382 6.65234 23.0377 6.65234H19.4203C17.0198 6.65234 15.1378 6.65233 13.6251 6.77591C12.0849 6.90176 10.8125 7.16226 9.66072 7.74909C7.76734 8.71382 6.22798 10.2532 5.26325 12.1466C4.4184 13.8047 4.23755 15.7513 4.18608 18.4397C4.1665 19.4621 4.1665 20.6265 4.1665 21.9547V22.0236C4.1665 24.4241 4.16649 26.3061 4.29007 27.8187C4.41592 29.359 4.67642 30.6314 5.26325 31.7831C6.22798 33.6765 7.76734 35.2159 9.66072 36.1806C10.8125 36.7674 12.0849 37.0279 13.6251 37.1538C15.1377 37.2774 17.0197 37.2774 19.4202 37.2773H23.0378C25.4382 37.2774 27.3203 37.2774 28.8329 37.1538C30.3731 37.0279 31.6456 36.7674 32.7973 36.1806C34.6907 35.2159 36.23 33.6765 37.1948 31.7831C37.7816 30.6314 38.0421 29.359 38.1679 27.8187C38.2915 26.3061 38.2915 24.4241 38.2915 22.0237V21.9547C38.2915 20.6265 38.2915 19.4621 38.2719 18.4397C38.2205 15.7513 38.0396 13.8047 37.1948 12.1466C36.23 10.2532 34.6907 8.71382 32.7973 7.74909C31.6456 7.16226 30.3731 6.90176 28.8329 6.77591ZM10.8525 10.088C11.5724 9.72112 12.461 9.50478 13.8389 9.3922C15.2321 9.27836 17.0071 9.27734 19.479 9.27734H22.979C25.4509 9.27734 27.2259 9.27836 28.6191 9.3922C29.997 9.50478 30.8856 9.72112 31.6056 10.088C33.005 10.801 34.1428 11.9388 34.8559 13.3383C35.3005 14.211 35.5133 15.3011 35.6041 17.1523H6.85392C6.94466 15.3011 7.15748 14.211 7.60214 13.3383C8.3152 11.9388 9.45299 10.801 10.8525 10.088ZM6.7915 21.9648C6.7915 21.169 6.79152 20.4436 6.79553 19.7773H35.6625C35.6665 20.4436 35.6665 21.169 35.6665 21.9648C35.6665 24.4367 35.6655 26.2117 35.5517 27.6049C35.4391 28.9829 35.2227 29.8714 34.8559 30.5914C34.1428 31.9909 33.005 33.1286 31.6056 33.8417C30.8856 34.2086 29.997 34.4249 28.6191 34.5375C27.2259 34.6513 25.4509 34.6523 22.979 34.6523H19.479C17.0071 34.6523 15.2321 34.6513 13.8389 34.5375C12.461 34.4249 11.5724 34.2086 10.8525 33.8417C9.45299 33.1286 8.3152 31.9909 7.60214 30.5914C7.23529 29.8714 7.01894 28.9829 6.90636 27.6049C6.79253 26.2117 6.7915 24.4367 6.7915 21.9648Z" fill="#085ABB"/>
</svg>
