<svg width="39" height="38" viewBox="0 0 39 38" fill="none" xmlns="http://www.w3.org/2000/svg">
<path d="M21.89 15.5983C21.89 14.9597 21.3583 14.4421 20.7025 14.4421C20.0466 14.4421 19.515 14.9597 19.515 15.5983V19.0671H15.9525C15.2966 19.0671 14.765 19.5847 14.765 20.2233C14.765 20.8619 15.2966 21.3796 15.9525 21.3796H19.515V24.8483C19.515 25.4869 20.0466 26.0046 20.7025 26.0046C21.3583 26.0046 21.89 25.4869 21.89 24.8483V21.3796H25.4525C26.1083 21.3796 26.64 20.8619 26.64 20.2233C26.64 19.5847 26.1083 19.0671 25.4525 19.0671H21.89V15.5983Z" fill="#38B000"/>
<path fill-rule="evenodd" clip-rule="evenodd" d="M30.8038 5.34338C29.5271 4.44022 28.0318 4.03582 26.1864 3.84114C24.378 3.65037 22.0986 3.65038 19.1908 3.65039H19.1016C17.2649 3.65039 15.6857 3.65039 14.3285 3.69567C11.3622 3.79462 9.18198 4.10718 7.43451 5.34338C6.66162 5.89014 5.98192 6.55195 5.42038 7.3045C4.15078 9.00598 3.82977 11.1288 3.72814 14.017C3.68164 15.3386 3.68164 16.8762 3.68164 18.6646V18.7514C3.68163 21.5827 3.68162 23.8021 3.87754 25.5629C4.07748 27.3598 4.49282 28.8157 5.42038 30.0588C5.98192 30.8113 6.66162 31.4731 7.43451 32.0199C8.71119 32.9231 10.2065 33.3275 12.0519 33.5221C13.8602 33.7129 16.1396 33.7129 19.0473 33.7129H19.1908C22.0986 33.7129 24.378 33.7129 26.1864 33.5221C28.0318 33.3275 29.5271 32.9231 30.8038 32.0199C31.5767 31.4731 32.2564 30.8113 32.8179 30.0588C33.7455 28.8157 34.1608 27.3598 34.3607 25.5629C34.5567 23.8021 34.5567 21.5828 34.5566 18.7516V18.6118C34.5567 15.7806 34.5567 13.5611 34.3607 11.8004C34.1608 10.0035 33.7455 8.54759 32.8179 7.3045C32.2564 6.55195 31.5767 5.89014 30.8038 5.34338ZM19.1191 5.96289C22.1141 5.96289 24.265 5.96448 25.9306 6.14018C27.5739 6.31355 28.6034 6.64522 29.4078 7.21423C29.9791 7.61836 30.4814 8.10752 30.8965 8.66376C31.4809 9.44693 31.8215 10.4493 31.9996 12.0495C32.18 13.6712 32.1816 15.7655 32.1816 18.6816C32.1816 21.5978 32.18 23.6921 31.9996 25.3138C31.8215 26.9139 31.4809 27.9164 30.8965 28.6995C30.4814 29.2558 29.9791 29.7449 29.4078 30.1491C28.6034 30.7181 27.5739 31.0497 25.9306 31.2231C24.265 31.3988 22.1141 31.4004 19.1191 31.4004C16.1242 31.4004 13.9733 31.3988 12.3077 31.2231C10.6644 31.0497 9.63484 30.7181 8.8305 30.1491C8.25923 29.7449 7.75685 29.2558 7.3418 28.6995C6.75741 27.9164 6.41677 26.9139 6.23873 25.3138C6.05827 23.6921 6.05664 21.5978 6.05664 18.6816C6.05664 17.3738 6.05672 16.2276 6.07377 15.2101C6.8253 15.2033 7.37856 15.1806 7.87668 15.1038C11.7723 14.503 14.8275 11.5281 15.4446 7.73503C15.5234 7.25002 15.5468 6.71132 15.5538 5.97957C16.5988 5.96297 17.7759 5.96289 19.1191 5.96289ZM7.50515 12.8197C7.18051 12.8698 6.80458 12.8889 6.16343 12.8961C6.3119 10.7989 6.65221 9.58791 7.3418 8.66376C7.75685 8.10752 8.25923 7.61836 8.8305 7.21423C9.77964 6.54279 11.0234 6.21143 13.1772 6.06686C13.1698 6.69115 13.1502 7.05719 13.0988 7.37328C12.6427 10.1769 10.3845 12.3757 7.50515 12.8197Z" fill="#38B000"/>
</svg>
