<svg width="70" height="67" viewBox="0 0 70 67" fill="none" xmlns="http://www.w3.org/2000/svg">
<path d="M68.0883 23.864C68.7571 25.9495 69.2185 28.1227 69.4491 30.3613L68.9517 30.4125C69.0624 31.4874 69.1191 32.5778 69.1191 33.681C69.1191 34.7843 69.0624 35.8746 68.9517 36.9495L69.4491 37.0008C69.2185 39.2393 68.7571 41.4125 68.0883 43.498L67.6122 43.3453C66.9412 45.4376 66.0579 47.4405 64.9864 49.3308L65.4214 49.5773C64.3272 51.5075 63.04 53.3216 61.5848 54.9956L61.2074 54.6676C59.7793 56.3103 58.1866 57.8164 56.4537 59.1622L56.7603 59.5571C55.0212 60.9077 53.1431 62.0991 51.1499 63.1081L50.9241 62.662C48.9949 63.6387 46.9563 64.4421 44.8304 65.0509L44.968 65.5315C42.8689 66.1326 40.6862 66.5465 38.4406 66.753L38.3948 66.2551C37.3169 66.3543 36.2243 66.405 35.1191 66.405C34.014 66.405 32.9214 66.3543 31.8435 66.2551L31.7977 66.753C29.5521 66.5465 27.3693 66.1326 25.2702 65.5315L25.4079 65.0509C23.282 64.4421 21.2433 63.6387 19.3142 62.662L19.0883 63.1081C17.0952 62.0991 15.2171 60.9077 13.4779 59.5571L13.7846 59.1622C12.0517 57.8164 10.459 56.3103 9.03086 54.6676L8.65352 54.9956C7.19824 53.3216 5.91104 51.5075 4.8169 49.5773L5.25187 49.3308C4.18037 47.4405 3.2971 45.4376 2.6261 43.3453L2.14998 43.498C1.48115 41.4125 1.01982 39.2393 0.789212 37.0008L1.28658 36.9495C1.17585 35.8746 1.11914 34.7843 1.11914 33.681C1.11914 32.5778 1.17585 31.4874 1.28658 30.4125L0.789212 30.3613C1.01982 28.1227 1.48115 25.9495 2.14998 23.864L2.6261 24.0167C3.2971 21.9245 4.18037 19.9216 5.25187 18.0313L4.8169 17.7847C5.91104 15.8546 7.19824 14.0404 8.65351 12.3665L9.03086 12.6945C10.459 11.0517 12.0517 9.54565 13.7846 8.19984L13.4779 7.80494C15.2171 6.45433 17.0952 5.26299 19.0883 4.25395L19.3142 4.70004C21.2433 3.72339 23.282 2.91993 25.4079 2.3112L25.2702 1.83052C27.3693 1.22945 29.5521 0.815588 31.7977 0.609017L31.8435 1.10691C32.9214 1.00776 34.014 0.957031 35.1191 0.957031C36.2243 0.957031 37.3169 1.00776 38.3948 1.10691L38.4406 0.609017C40.6862 0.815588 42.8689 1.22945 44.968 1.83052L44.8304 2.3112C46.9563 2.91993 48.9949 3.72339 50.9241 4.70004L51.1499 4.25395C53.1431 5.26299 55.0212 6.45433 56.7603 7.80494L56.4537 8.19984C58.1866 9.54565 59.7793 11.0517 61.2074 12.6945L61.5848 12.3665C63.04 14.0404 64.3272 15.8546 65.4214 17.7847L64.9864 18.0313C66.0579 19.9216 66.9412 21.9245 67.6122 24.0167L68.0883 23.864Z" fill="#FCFCFC" stroke="url(#paint0_linear_649_1475)" stroke-dasharray="6 6"/>
<path d="M37.89 30.5983C37.89 29.9597 37.3583 29.4421 36.7025 29.4421C36.0466 29.4421 35.515 29.9597 35.515 30.5983V34.0671H31.9525C31.2966 34.0671 30.765 34.5847 30.765 35.2233C30.765 35.8619 31.2966 36.3796 31.9525 36.3796H35.515V39.8483C35.515 40.4869 36.0466 41.0046 36.7025 41.0046C37.3583 41.0046 37.89 40.4869 37.89 39.8483V36.3796H41.4525C42.1083 36.3796 42.64 35.8619 42.64 35.2233C42.64 34.5847 42.1083 34.0671 41.4525 34.0671H37.89V30.5983Z" fill="#38B000"/>
<path fill-rule="evenodd" clip-rule="evenodd" d="M46.8038 20.3434C45.5271 19.4402 44.0318 19.0358 42.1864 18.8411C40.378 18.6504 38.0986 18.6504 35.1908 18.6504H35.1016C33.2649 18.6504 31.6857 18.6504 30.3285 18.6957C27.3622 18.7946 25.182 19.1072 23.4345 20.3434C22.6616 20.8901 21.9819 21.5519 21.4204 22.3045C20.1508 24.006 19.8298 26.1288 19.7281 29.017C19.6816 30.3386 19.6816 31.8762 19.6816 33.6646V33.7514C19.6816 36.5827 19.6816 38.8021 19.8775 40.5629C20.0775 42.3598 20.4928 43.8157 21.4204 45.0588C21.9819 45.8113 22.6616 46.4731 23.4345 47.0199C24.7112 47.9231 26.2065 48.3275 28.0519 48.5221C29.8602 48.7129 32.1396 48.7129 35.0473 48.7129H35.1908C38.0986 48.7129 40.378 48.7129 42.1864 48.5221C44.0318 48.3275 45.5271 47.9231 46.8038 47.0199C47.5767 46.4731 48.2564 45.8113 48.8179 45.0588C49.7455 43.8157 50.1608 42.3598 50.3607 40.5629C50.5567 38.8021 50.5567 36.5828 50.5566 33.7516V33.6118C50.5567 30.7806 50.5567 28.5611 50.3607 26.8004C50.1608 25.0035 49.7455 23.5476 48.8179 22.3045C48.2564 21.5519 47.5767 20.8901 46.8038 20.3434ZM35.1191 20.9629C38.1141 20.9629 40.265 20.9645 41.9306 21.1402C43.5739 21.3135 44.6034 21.6452 45.4078 22.2142C45.9791 22.6184 46.4814 23.1075 46.8965 23.6638C47.4809 24.4469 47.8215 25.4493 47.9996 27.0495C48.18 28.6712 48.1816 30.7655 48.1816 33.6816C48.1816 36.5978 48.18 38.6921 47.9996 40.3138C47.8215 41.9139 47.4809 42.9164 46.8965 43.6995C46.4814 44.2558 45.9791 44.7449 45.4078 45.1491C44.6034 45.7181 43.5739 46.0497 41.9306 46.2231C40.265 46.3988 38.1141 46.4004 35.1191 46.4004C32.1242 46.4004 29.9733 46.3988 28.3077 46.2231C26.6644 46.0497 25.6348 45.7181 24.8305 45.1491C24.2592 44.7449 23.7568 44.2558 23.3418 43.6995C22.7574 42.9164 22.4168 41.9139 22.2387 40.3138C22.0583 38.6921 22.0566 36.5978 22.0566 33.6816C22.0566 32.3738 22.0567 31.2276 22.0738 30.2101C22.8253 30.2033 23.3786 30.1806 23.8767 30.1038C27.7723 29.503 30.8275 26.5281 31.4446 22.735C31.5234 22.25 31.5468 21.7113 31.5538 20.9796C32.5988 20.963 33.7759 20.9629 35.1191 20.9629ZM23.5051 27.8197C23.1805 27.8698 22.8046 27.8889 22.1634 27.8961C22.3119 25.7989 22.6522 24.5879 23.3418 23.6638C23.7568 23.1075 24.2592 22.6184 24.8305 22.2142C25.7796 21.5428 27.0234 21.2114 29.1772 21.0669C29.1698 21.6911 29.1502 22.0572 29.0988 22.3733C28.6427 25.1769 26.3845 27.3757 23.5051 27.8197Z" fill="#38B000"/>
<defs>
<linearGradient id="paint0_linear_649_1475" x1="35.1191" y1="0.457031" x2="35.1191" y2="66.905" gradientUnits="userSpaceOnUse">
<stop stop-color="#5083C1"/>
<stop offset="1" stop-color="#88BFFF"/>
</linearGradient>
</defs>
</svg>
