<svg width="20" height="20" viewBox="0 0 20 20" fill="none" xmlns="http://www.w3.org/2000/svg">
<g clip-path="url(#clip0_501_217)">
<path d="M14.7257 1.63646C15.5232 1.63291 16.0712 1.63136 16.4886 1.67694C16.6242 1.69176 16.7376 1.71085 16.8339 1.73392L8.41966 10.1481C8.18779 10.38 8.18779 10.7559 8.41966 10.9878C8.65153 11.2197 9.02748 11.2197 9.25935 10.9878L17.6736 2.57361C17.6966 2.66988 17.7157 2.78325 17.7305 2.91889C17.7761 3.33629 17.7746 3.88424 17.771 4.68174L17.7622 6.64677C17.7608 6.97468 18.0254 7.2417 18.3533 7.24316C18.6813 7.24462 18.9483 6.97998 18.9497 6.65206L18.9587 4.65165C18.962 3.89821 18.9648 3.28242 18.911 2.78998C18.8551 2.2779 18.7319 1.82454 18.43 1.43442C18.3647 1.34997 18.2941 1.26979 18.2189 1.19431C18.1418 1.11692 18.0596 1.04447 17.973 0.977452C17.5829 0.675541 17.1296 0.552382 16.6175 0.496461C16.1251 0.442684 15.5093 0.445442 14.7558 0.448817L12.7554 0.457743C12.4275 0.459206 12.1628 0.72622 12.1643 1.05414C12.1658 1.38205 12.4328 1.64669 12.7607 1.64523L14.7257 1.63646Z" fill="#FAFAFA"/>
<path d="M10.7975 2.97431C10.318 2.96856 9.78991 2.96856 9.2096 2.96856H9.17121C7.71728 2.96856 6.5776 2.96855 5.67341 3.06651C4.75069 3.16648 4.00306 3.37415 3.36472 3.83793C2.97827 4.1187 2.63842 4.45855 2.35765 4.845C1.89387 5.48334 1.6862 6.23097 1.58623 7.15369C1.48827 8.05788 1.48827 9.19756 1.48828 10.6515V10.7231C1.48827 12.1771 1.48827 13.3167 1.58623 14.2209C1.6862 15.1437 1.89387 15.8913 2.35765 16.5296C2.63842 16.9161 2.97827 17.2559 3.36472 17.5367C4.00306 18.0005 4.75069 18.2081 5.67341 18.3081C6.57758 18.4061 7.71725 18.4061 9.17113 18.4061H9.24287C10.6968 18.4061 11.8365 18.4061 12.7407 18.3081C13.6634 18.2081 14.411 18.0005 15.0493 17.5367C15.4358 17.2559 15.7756 16.9161 16.0564 16.5296C16.5202 15.8913 16.7279 15.1437 16.8278 14.2209C16.9258 13.3168 16.9258 12.1771 16.9258 10.7232V10.6846C16.9258 10.1043 16.9258 9.57628 16.92 9.09686C16.9161 8.76897 16.6471 8.50634 16.3192 8.51027C15.9913 8.5142 15.7287 8.7832 15.7326 9.11109C15.7383 9.58274 15.7383 10.1041 15.7383 10.6873C15.7383 12.1848 15.7375 13.2602 15.6472 14.093C15.5582 14.9147 15.3879 15.4295 15.0957 15.8316C14.8882 16.1173 14.637 16.3685 14.3514 16.576C13.9492 16.8682 13.4344 17.0385 12.6127 17.1275C11.78 17.2177 10.7045 17.2186 9.20703 17.2186C7.70954 17.2186 6.63411 17.2177 5.80132 17.1275C4.97964 17.0385 4.46488 16.8682 4.06271 16.576C3.77708 16.3685 3.52589 16.1173 3.31836 15.8316C3.02617 15.4295 2.85585 14.9147 2.76682 14.093C2.6766 13.2602 2.67578 12.1848 2.67578 10.6873C2.67578 9.18982 2.6766 8.11439 2.76682 7.2816C2.85585 6.45992 3.02617 5.94516 3.31836 5.54299C3.52589 5.25736 3.77708 5.00617 4.06271 4.79864C4.46488 4.50645 4.97964 4.33613 5.80132 4.2471C6.63411 4.15688 7.70954 4.15606 9.20703 4.15606C9.79024 4.15606 10.3116 4.15607 10.7832 4.16172C11.1111 4.16565 11.3801 3.90303 11.3841 3.57513C11.388 3.24724 11.1254 2.97824 10.7975 2.97431Z" fill="#FAFAFA"/>
<path d="M14.7257 1.63646C15.5232 1.63291 16.0712 1.63136 16.4886 1.67694C16.6242 1.69176 16.7376 1.71085 16.8339 1.73392L8.41966 10.1481C8.18779 10.38 8.18779 10.7559 8.41966 10.9878C8.65153 11.2197 9.02748 11.2197 9.25935 10.9878L17.6736 2.57361C17.6966 2.66988 17.7157 2.78325 17.7305 2.91889C17.7761 3.33629 17.7746 3.88424 17.771 4.68174L17.7622 6.64677C17.7608 6.97468 18.0254 7.2417 18.3533 7.24316C18.6813 7.24462 18.9483 6.97998 18.9497 6.65206L18.9587 4.65165C18.962 3.89821 18.9648 3.28242 18.911 2.78998C18.8551 2.2779 18.7319 1.82454 18.43 1.43442C18.3647 1.34997 18.2941 1.26979 18.2189 1.19431C18.1418 1.11692 18.0596 1.04447 17.973 0.977452C17.5829 0.675541 17.1296 0.552382 16.6175 0.496461C16.1251 0.442684 15.5093 0.445442 14.7558 0.448817L12.7554 0.457743C12.4275 0.459206 12.1628 0.72622 12.1643 1.05414C12.1658 1.38205 12.4328 1.64669 12.7607 1.64523L14.7257 1.63646Z" stroke="white" stroke-linecap="round"/>
<path d="M10.7975 2.97431C10.318 2.96856 9.78991 2.96856 9.2096 2.96856H9.17121C7.71728 2.96856 6.5776 2.96855 5.67341 3.06651C4.75069 3.16648 4.00306 3.37415 3.36472 3.83793C2.97827 4.1187 2.63842 4.45855 2.35765 4.845C1.89387 5.48334 1.6862 6.23097 1.58623 7.15369C1.48827 8.05788 1.48827 9.19756 1.48828 10.6515V10.7231C1.48827 12.1771 1.48827 13.3167 1.58623 14.2209C1.6862 15.1437 1.89387 15.8913 2.35765 16.5296C2.63842 16.9161 2.97827 17.2559 3.36472 17.5367C4.00306 18.0005 4.75069 18.2081 5.67341 18.3081C6.57758 18.4061 7.71725 18.4061 9.17113 18.4061H9.24287C10.6968 18.4061 11.8365 18.4061 12.7407 18.3081C13.6634 18.2081 14.411 18.0005 15.0493 17.5367C15.4358 17.2559 15.7756 16.9161 16.0564 16.5296C16.5202 15.8913 16.7279 15.1437 16.8278 14.2209C16.9258 13.3168 16.9258 12.1771 16.9258 10.7232V10.6846C16.9258 10.1043 16.9258 9.57628 16.92 9.09686C16.9161 8.76897 16.6471 8.50634 16.3192 8.51027C15.9913 8.5142 15.7287 8.7832 15.7326 9.11109C15.7383 9.58274 15.7383 10.1041 15.7383 10.6873C15.7383 12.1848 15.7375 13.2602 15.6472 14.093C15.5582 14.9147 15.3879 15.4295 15.0957 15.8316C14.8882 16.1173 14.637 16.3685 14.3514 16.576C13.9492 16.8682 13.4344 17.0385 12.6127 17.1275C11.78 17.2177 10.7045 17.2186 9.20703 17.2186C7.70954 17.2186 6.63411 17.2177 5.80132 17.1275C4.97964 17.0385 4.46488 16.8682 4.06271 16.576C3.77708 16.3685 3.52589 16.1173 3.31836 15.8316C3.02617 15.4295 2.85585 14.9147 2.76682 14.093C2.6766 13.2602 2.67578 12.1848 2.67578 10.6873C2.67578 9.18982 2.6766 8.11439 2.76682 7.2816C2.85585 6.45992 3.02617 5.94516 3.31836 5.54299C3.52589 5.25736 3.77708 5.00617 4.06271 4.79864C4.46488 4.50645 4.97964 4.33613 5.80132 4.2471C6.63411 4.15688 7.70954 4.15606 9.20703 4.15606C9.79024 4.15606 10.3116 4.15607 10.7832 4.16172C11.1111 4.16565 11.3801 3.90303 11.3841 3.57513C11.388 3.24724 11.1254 2.97824 10.7975 2.97431Z" stroke="white" stroke-linecap="round"/>
</g>
<defs>
<clipPath id="clip0_501_217">
<rect width="19" height="19" fill="white" transform="translate(0.498535 0.25)"/>
</clipPath>
</defs>
</svg>
