<svg width="225" height="47" viewBox="0 0 225 47" fill="none" xmlns="http://www.w3.org/2000/svg">
<g clip-path="url(#clip0_679_767)">
<path d="M44.7965 2.1313C39.438 -1.24448 32.3836 -0.440196 26.0919 3.54596C19.8199 -0.440196 12.7611 -1.24448 7.40911 2.1313C-1.05704 7.466 -2.08635 21.2049 5.11228 32.8196C10.4184 41.3825 18.7162 46.3999 26.1028 46.3073C33.4894 46.3999 41.7873 41.3825 47.0933 32.8196C54.2832 21.2049 53.2627 7.466 44.7965 2.1313ZM9.00444 30.3671C7.5201 27.9945 6.40018 25.4092 5.68266 22.6989C5.04518 20.3462 4.80144 17.9027 4.96149 15.4692C5.28274 11.1767 7.01574 7.83399 9.83925 6.05576C12.6628 4.27752 16.3954 4.16955 20.3706 5.76049C20.9672 6.00067 21.5572 6.27831 22.1429 6.5846C19.9339 8.61552 18.0131 10.9438 16.4347 13.5036C12.064 20.5549 10.7309 28.4016 12.2563 34.6573C11.04 33.3344 9.95114 31.8978 9.00444 30.3671ZM46.5252 22.6967C45.8067 25.4067 44.6868 27.9918 43.2034 30.3649C42.2559 31.8978 41.1671 33.3372 39.9515 34.664C41.3152 29.056 40.3886 22.1855 37.045 15.7424C36.937 15.5278 36.7439 15.3694 36.5136 15.3064C36.2832 15.2434 36.0372 15.2817 35.8365 15.4119L25.4122 21.9783C25.2202 22.0991 25.0837 22.292 25.0329 22.5144C24.9821 22.7368 25.021 22.9704 25.1413 23.1638L26.671 25.6296C26.7904 25.823 26.9813 25.9606 27.2015 26.0119C27.4217 26.0631 27.6531 26.0239 27.8446 25.9028L34.6017 21.6456C34.8203 22.3067 35.0388 22.9677 35.2027 23.6288C35.8401 25.9785 36.0846 28.4189 35.9261 30.8497C35.6048 35.1399 33.8718 38.4826 31.0483 40.2631C29.592 41.1609 27.9233 41.6479 26.2165 41.6733C26.1793 41.6733 26.14 41.6733 26.1028 41.6733H26.0001C24.2932 41.6485 22.6244 41.1614 21.1682 40.2631C18.3425 38.4826 16.6095 35.1399 16.2883 30.8497C16.1292 28.4161 16.3729 25.9728 17.0095 23.62C18.4741 18.1764 21.5016 13.2908 25.7116 9.57697C27.5272 7.97014 29.5951 6.67891 31.8307 5.75608C35.795 4.16514 39.5341 4.27091 42.3598 6.05135C45.1855 7.83179 46.9163 11.1723 47.2376 15.4648C47.3997 17.8986 47.1589 20.3426 46.5252 22.6967ZM100.333 17.5691C94.8526 17.5691 90.4228 21.8836 90.4228 27.3725C90.4228 32.824 94.8526 37.068 100.333 37.068C105.852 37.068 110.281 32.8306 110.281 27.3725C110.281 21.8858 105.858 17.5713 100.333 17.5713V17.5691ZM100.333 31.9426C97.8072 31.9426 95.8841 29.8823 95.8841 27.3351C95.8841 24.7878 97.8072 22.6967 100.333 22.6967C102.897 22.6967 104.82 24.7944 104.82 27.3417C104.82 29.8889 102.897 31.9514 100.333 31.9514V31.9426ZM122.64 10.0396H112.554C112.334 10.0355 112.122 10.1219 111.966 10.2791C111.811 10.4363 111.725 10.6507 111.73 10.8726V35.6643C111.714 35.8938 111.794 36.1195 111.951 36.2869C112.107 36.4543 112.326 36.5482 112.554 36.5458H122.64C130.71 36.5458 136.318 31.1339 136.318 23.2608C136.318 15.3392 130.71 10.0396 122.64 10.0396ZM122.878 31.3102H117.36V15.262H122.878C127.345 15.262 130.424 18.6312 130.424 23.2498C130.424 27.7912 127.345 31.3102 122.878 31.3102ZM156.393 18.1024H152.601C152.167 18.137 151.828 18.4959 151.814 18.9353V20.0701C150.951 18.6312 149 17.5713 146.569 17.5713C141.84 17.5713 137.411 21.3173 137.411 27.2998C137.411 33.2493 141.801 37.0636 146.532 37.0636C148.971 37.0636 150.962 36.0059 151.825 34.567V35.7393C151.828 36.1767 152.178 36.5311 152.612 36.5347H156.404C156.614 36.5396 156.818 36.4574 156.967 36.3071C157.116 36.1569 157.197 35.9517 157.193 35.7393V18.9353C157.199 18.717 157.118 18.5054 156.967 18.3485C156.816 18.1916 156.609 18.1029 156.393 18.1024ZM147.573 31.9845C145.062 31.9845 143.176 30.0388 143.176 27.3395C143.176 24.6402 145.062 22.6967 147.573 22.6967C150.084 22.6967 151.97 24.638 151.97 27.3373C151.97 30.0366 150.086 31.9823 147.573 31.9823V31.9845ZM177.676 10.0397H173.884C173.67 10.0332 173.462 10.1138 173.307 10.2633C173.152 10.4129 173.063 10.6189 173.061 10.8352V19.9952C172.186 18.6312 170.207 17.5713 167.73 17.5713C163.036 17.5713 158.683 21.3173 158.683 27.2998C158.683 33.2493 163.073 37.0636 167.805 37.0636C170.244 37.0636 172.084 36.0059 173.098 34.567V35.7393C173.099 36.1772 173.45 36.5323 173.884 36.5347H177.676C177.887 36.5402 178.091 36.4582 178.24 36.3078C178.389 36.1574 178.471 35.9519 178.465 35.7393V10.8396C178.472 10.6262 178.391 10.4195 178.242 10.2681C178.092 10.1168 177.888 10.0341 177.676 10.0397ZM168.856 32.0308C166.356 32.0308 164.485 30.0652 164.485 27.3373C164.485 24.6093 166.362 22.6438 168.856 22.6438C171.349 22.6438 173.227 24.6093 173.227 27.3373C173.227 30.0652 171.358 32.0308 168.856 32.0308ZM198.955 10.0397H195.17C194.955 10.0332 194.747 10.1137 194.592 10.2632C194.437 10.4127 194.347 10.6187 194.344 10.8352V19.9952C193.481 18.6312 191.49 17.5713 189.014 17.5713C184.32 17.5713 179.966 21.3173 179.966 27.2998C179.966 33.2493 184.359 37.0636 189.088 37.0636C191.529 37.0636 193.367 36.0059 194.381 34.567V35.7393C194.384 36.1776 194.735 36.5323 195.17 36.5347H198.955C199.166 36.5403 199.369 36.4582 199.518 36.3077C199.667 36.1572 199.748 35.9517 199.742 35.7393V10.8396C199.749 10.6264 199.669 10.4197 199.52 10.2682C199.371 10.1168 199.167 10.0341 198.955 10.0397ZM190.135 32.0308C187.633 32.0308 185.764 30.0652 185.764 27.3373C185.764 24.6093 187.641 22.6438 190.135 22.6438C192.628 22.6438 194.506 24.6093 194.506 27.3373C194.506 30.0652 192.642 32.0308 190.142 32.0308H190.135ZM219.716 19.3914L214.058 38.9564C212.966 42.4379 210.529 44.5203 206.737 44.5203C205.013 44.5203 203.444 44.1655 202.214 43.456C201.497 43.0439 200.902 42.6671 200.902 42.0633C200.902 41.6887 201.022 41.4948 201.241 41.1445L202.364 39.4478C202.681 38.974 202.915 38.8198 203.256 38.8198C203.526 38.8265 203.787 38.9182 204.003 39.082C204.709 39.5425 205.365 39.9392 206.364 39.9392C207.531 39.9392 208.422 39.5624 208.903 38.1609L209.388 36.5369H207.098C206.534 36.5369 206.224 36.1976 206.084 35.7415L201.02 19.3914C200.832 18.748 201.005 18.1046 201.943 18.1046H205.931C206.418 18.1046 206.759 18.272 206.973 18.9749L210.712 32.1409L214.209 18.9749C214.321 18.521 214.622 18.1046 215.223 18.1046H219.006C219.751 18.1024 219.976 18.6312 219.716 19.3914ZM88.9937 25.2109V35.6621C88.9971 35.8923 88.908 36.1141 88.7466 36.2769C88.5852 36.4397 88.3652 36.5295 88.1369 36.5259H85.0074C84.779 36.5301 84.5586 36.4405 84.3971 36.2776C84.2355 36.1147 84.1466 35.8925 84.1508 35.6621V32.9188C82.1643 35.4484 78.7092 37.0415 74.8017 37.0415C67.4632 37.0415 61.7288 31.4755 61.7288 23.5516C61.7288 15.3171 67.92 9.64087 75.7414 9.64087C81.5152 9.64087 86.1307 12.1441 88.1806 17.1791C88.238 17.3121 88.2699 17.4549 88.2746 17.6C88.2746 17.8379 88.1194 18.0186 87.619 18.1927L83.965 19.6118C83.7446 19.7039 83.4976 19.7079 83.2744 19.6228C83.0788 19.5063 82.9255 19.3293 82.8374 19.1182C81.5261 16.604 79.1921 14.8962 75.5994 14.8962C70.9402 14.8962 67.6031 18.5651 67.6031 23.3225C67.6031 27.9344 70.4441 31.7267 75.7327 31.7267C78.5147 31.7267 80.7328 30.4046 81.7665 28.9524H78.4666C78.2383 28.9561 78.0183 28.8662 77.8569 28.7034C77.6955 28.5407 77.6064 28.3188 77.6099 28.0887V25.2483C77.6064 25.0182 77.6955 24.7964 77.8569 24.6336C78.0183 24.4708 78.2383 24.381 78.4666 24.3846H88.1369C88.3609 24.373 88.5798 24.4551 88.7419 24.6115C88.904 24.7679 88.9951 24.9847 88.9937 25.2109ZM219.819 14.233V13.9796C219.819 13.9618 219.825 13.9446 219.836 13.9311C219.849 13.9198 219.865 13.9136 219.882 13.9135H221.48C221.497 13.9129 221.513 13.9193 221.526 13.9311C221.537 13.9446 221.543 13.9618 221.543 13.9796V14.233C221.543 14.25 221.537 14.2665 221.526 14.2793C221.513 14.2911 221.497 14.2975 221.48 14.2969H220.896V15.8856C220.895 15.9216 220.866 15.9506 220.831 15.9517H220.529C220.512 15.9517 220.497 15.9444 220.485 15.9319C220.473 15.9198 220.466 15.9031 220.466 15.8856V14.2969H219.882C219.865 14.2982 219.848 14.2919 219.836 14.2796C219.824 14.2674 219.818 14.2503 219.819 14.233ZM222.612 13.9708L223.049 14.991L223.486 13.9708C223.493 13.9527 223.505 13.9372 223.521 13.9267C223.539 13.9172 223.559 13.9126 223.58 13.9135H224.087C224.104 13.9122 224.12 13.9182 224.132 13.93C224.144 13.9418 224.151 13.9582 224.15 13.9752V15.8878C224.152 15.9047 224.146 15.9214 224.134 15.9336C224.122 15.9458 224.106 15.9524 224.089 15.9517H223.805C223.788 15.9523 223.771 15.946 223.759 15.9341C223.747 15.9221 223.74 15.9051 223.742 15.8878V14.4445L223.272 15.4934C223.265 15.5132 223.253 15.5307 223.237 15.5441C223.219 15.5541 223.198 15.5587 223.178 15.5573H222.946C222.926 15.5584 222.907 15.5538 222.889 15.5441C222.873 15.5314 222.86 15.5136 222.854 15.4934L222.387 14.4445V15.8878C222.387 15.9049 222.38 15.9213 222.369 15.9341C222.357 15.9449 222.342 15.9511 222.326 15.9517H222.035C222.019 15.9519 222.004 15.9455 221.993 15.9341C221.981 15.9221 221.974 15.9051 221.976 15.8878V13.9752C221.975 13.9582 221.982 13.9418 221.994 13.93C222.006 13.9182 222.022 13.9122 222.039 13.9135H222.531C222.551 13.9129 222.57 13.9175 222.588 13.9267C222.6 13.9388 222.608 13.9541 222.612 13.9708Z" fill="#1BDBDB"/>
</g>
<defs>
<clipPath id="clip0_679_767">
<rect width="224.102" height="46.4941" fill="white" transform="translate(0.310547)"/>
</clipPath>
</defs>
</svg>
