<svg width="188" height="41" viewBox="0 0 188 41" fill="none" xmlns="http://www.w3.org/2000/svg">
<path d="M15.8159 9.77838C17.1668 11.125 17.8844 13.1028 17.8844 15.6697V26.6107H16.0692V15.838C16.0692 13.734 15.5204 12.1349 14.4651 11.0408C13.4097 9.9467 11.89 9.39965 9.99034 9.39965C7.79519 9.39965 6.0644 10.0729 4.75575 11.3775C3.48932 12.682 2.8561 14.4494 2.8561 16.6796V26.6528H1.0831V7.88474H2.81389V11.9245C3.44711 10.62 4.41804 9.56798 5.72668 8.8526C6.99312 8.09515 8.51284 7.7585 10.2858 7.7585C12.6076 7.7585 14.4651 8.43179 15.8159 9.77838ZM26.6228 25.5587C25.1875 24.7592 24.09 23.623 23.2457 22.1501C22.4436 20.7194 22.0215 19.0782 22.0215 17.2688C22.0215 15.4593 22.4436 13.8181 23.2457 12.3874C24.0477 10.9566 25.1875 9.82046 26.6228 8.97884C28.0581 8.17931 29.6623 7.7585 31.4353 7.7585C33.2083 7.7585 34.8124 8.17931 36.2477 8.97884C37.683 9.77838 38.7806 10.9146 39.6249 12.3874C40.4269 13.8181 40.8491 15.4593 40.8491 17.2688C40.8491 19.0782 40.4269 20.7194 39.6249 22.1501C38.8228 23.5809 37.683 24.7171 36.2477 25.5587C34.7702 26.3582 33.1661 26.737 31.3931 26.737C29.62 26.737 28.0159 26.3582 26.6228 25.5587ZM35.2768 24.1279C36.4166 23.4547 37.3031 22.5289 37.9785 21.3506C38.6539 20.1723 38.9494 18.7837 38.9494 17.2688C38.9494 15.7539 38.6117 14.3652 37.9785 13.1869C37.3031 12.0087 36.4166 11.0408 35.2768 10.4096C34.137 9.7363 32.8283 9.39965 31.3931 9.39965C29.9578 9.39965 28.6491 9.7363 27.5093 10.4096C26.3695 11.0829 25.483 12.0087 24.8076 13.1869C24.1322 14.3652 23.8367 15.7539 23.8367 17.2688C23.8367 18.7837 24.1744 20.1723 24.8076 21.3506C25.483 22.5289 26.3695 23.4967 27.5093 24.1279C28.6491 24.8012 29.9578 25.1379 31.3931 25.1379C32.8283 25.1379 34.137 24.8012 35.2768 24.1279ZM50.8117 8.8526C52.0359 8.13723 53.5134 7.7585 55.2864 7.7585V9.52589L54.8643 9.48381C52.7958 9.48381 51.1494 10.115 49.9674 11.4195C48.7854 12.724 48.1944 14.5335 48.1944 16.848V26.6107H46.3792V7.88474H48.11V11.9666C48.6587 10.62 49.5875 9.56798 50.8117 8.8526ZM71.8345 25.4325C71.3701 25.8533 70.8213 26.1899 70.1459 26.4003C69.4705 26.6107 68.7528 26.737 67.993 26.737C66.3466 26.737 65.1224 26.2741 64.2359 25.3904C63.3494 24.5067 62.885 23.2442 62.885 21.6452V9.44173H59.4234V7.88474H62.885V3.8029H64.7002V7.88474H70.6525V9.44173H64.7002V21.4769C64.7002 22.6972 64.9957 23.623 65.5867 24.2542C66.1777 24.8854 67.0642 25.222 68.204 25.222C69.386 25.222 70.357 24.8854 71.1168 24.17L71.8345 25.4325ZM91.5908 9.77838C92.9417 11.125 93.6593 13.1028 93.6593 15.6697V26.6107H91.8441V15.838C91.8441 13.734 91.2953 12.1349 90.24 11.0408C89.1846 9.9467 87.6649 9.39965 85.7652 9.39965C83.5701 9.39965 81.8393 10.0729 80.5306 11.3775C79.2642 12.682 78.631 14.4494 78.631 16.6796V26.6528H76.8158V0.015625H78.631V11.7983C79.2642 10.4938 80.2351 9.52589 81.5016 8.81052C82.768 8.09515 84.2877 7.7585 86.0185 7.7585C88.3825 7.7585 90.24 8.43179 91.5908 9.77838ZM129.837 7.33769L122.829 26.6528H117.426L113.078 14.6598L108.561 26.6528H103.158L96.1922 7.33769H101.469L106.028 20.3828L110.756 7.33769H115.526L120.128 20.3828L124.856 7.33769H129.837ZM150.775 18.5312H136.127C136.38 19.7095 137.014 20.6773 137.984 21.3506C138.955 22.0239 140.18 22.4026 141.657 22.4026C142.67 22.4026 143.557 22.2343 144.317 21.9397C145.076 21.6452 145.836 21.1823 146.512 20.509L149.509 23.7492C147.694 25.8112 145.034 26.8632 141.53 26.8632C139.335 26.8632 137.436 26.4424 135.747 25.6008C134.059 24.7592 132.792 23.5809 131.863 22.066C130.935 20.5511 130.513 18.8678 130.513 16.9321C130.513 15.0385 130.977 13.3552 131.863 11.8403C132.75 10.3254 134.016 9.14717 135.578 8.30555C137.14 7.46393 138.913 7.04313 140.855 7.04313C142.755 7.04313 144.485 7.46393 146.005 8.26347C147.525 9.06301 148.749 10.2413 149.636 11.7562C150.522 13.2711 150.944 15.0385 150.944 17.0584C150.902 17.1004 150.86 17.6054 150.775 18.5312ZM137.647 12.3453C136.802 13.0607 136.254 14.0285 136.043 15.291H145.583C145.372 14.0706 144.865 13.1028 143.979 12.3874C143.135 11.672 142.079 11.2933 140.813 11.2933C139.589 11.2512 138.533 11.6299 137.647 12.3453ZM156.432 26.3161C154.912 25.9374 153.688 25.4325 152.76 24.8433L154.617 20.8456C155.461 21.3927 156.517 21.8556 157.741 22.1922C158.965 22.5289 160.147 22.6972 161.329 22.6972C163.693 22.6972 164.875 22.1081 164.875 20.9298C164.875 20.3828 164.537 20.004 163.904 19.7515C163.271 19.4991 162.258 19.2886 160.907 19.1624C159.303 18.9099 158.036 18.6574 156.981 18.3208C155.968 18.0262 155.039 17.4792 154.279 16.6796C153.519 15.8801 153.139 14.786 153.139 13.3132C153.139 12.0928 153.477 10.9987 154.195 10.0729C154.912 9.14717 155.926 8.38971 157.276 7.88474C158.627 7.37977 160.231 7.08521 162.089 7.08521C163.44 7.08521 164.833 7.25353 166.184 7.54809C167.535 7.84266 168.674 8.26347 169.561 8.76844L167.703 12.7661C166.015 11.7983 164.157 11.3354 162.131 11.3354C160.949 11.3354 160.02 11.5037 159.429 11.8403C158.838 12.177 158.543 12.5978 158.543 13.1448C158.543 13.734 158.881 14.1548 159.514 14.4073C160.147 14.6598 161.202 14.8702 162.595 15.0806C164.2 15.333 165.466 15.6276 166.479 15.9222C167.492 16.2167 168.379 16.7638 169.096 17.5633C169.856 18.3629 170.194 19.457 170.194 20.8456C170.194 22.0239 169.814 23.118 169.096 24.0438C168.379 24.9696 167.323 25.6849 165.93 26.232C164.537 26.737 162.933 26.9894 161.034 26.9894C159.556 26.9053 157.952 26.6949 156.432 26.3161ZM187.671 25.6849C187.122 26.1057 186.447 26.4003 185.645 26.6107C184.842 26.8211 183.998 26.9053 183.112 26.9053C180.79 26.9053 179.017 26.3161 177.75 25.1379C176.484 23.9596 175.851 22.2343 175.851 19.9619V12.0507H172.896V7.7585H175.893V3.04545H181.508V7.7585H186.32V12.0507H181.508V19.9199C181.508 20.7194 181.719 21.3506 182.141 21.8135C182.563 22.2764 183.154 22.4868 183.914 22.4868C184.8 22.4868 185.56 22.2343 186.193 21.7714L187.671 25.6849ZM3.61596 38.8562H2.60282V40.5816H0.787598V34.1011H3.74261C4.33361 34.1011 4.84018 34.1853 5.26233 34.3957C5.68447 34.6061 6.02219 34.8586 6.27547 35.2373C6.52876 35.616 6.61319 36.0368 6.61319 36.4997C6.61319 36.9626 6.48654 37.3834 6.27547 37.7201C6.0644 38.0567 5.72669 38.3513 5.34676 38.5196L6.73983 40.5395H4.75575L3.61596 38.8562ZM4.50247 35.7843C4.29139 35.616 4.03811 35.5319 3.65818 35.5319H2.64503V37.4255H3.65818C4.03811 37.4255 4.33361 37.3413 4.50247 37.173C4.67132 37.0047 4.79797 36.7943 4.79797 36.4576C4.79797 36.121 4.71354 35.9527 4.50247 35.7843ZM14.7184 39.1508V40.5816H9.52598V34.1011H14.6339V35.5319H11.3412V36.626H14.2118V38.0146H11.3412V39.1929H14.7184V39.1508ZM21.9792 37.2151H23.5834V39.9083C23.2035 40.1607 22.7813 40.3712 22.317 40.5395C21.8526 40.6657 21.346 40.7499 20.8817 40.7499C20.2062 40.7499 19.573 40.6236 19.0242 40.3291C18.4754 40.0345 18.0533 39.6558 17.7578 39.1508C17.4623 38.6458 17.2934 38.0567 17.2934 37.4255C17.2934 36.7943 17.4623 36.2051 17.7578 35.7002C18.0533 35.1952 18.5177 34.7744 19.0664 34.5219C19.6152 34.2273 20.2484 34.1011 20.9239 34.1011C21.5149 34.1011 22.0637 34.1853 22.5702 34.3957C23.0346 34.6061 23.4567 34.9006 23.7945 35.2794L22.6125 36.3314C22.1903 35.8685 21.6415 35.616 21.0505 35.616C20.5017 35.616 20.0374 35.7843 19.6997 36.121C19.3619 36.4576 19.1931 36.9205 19.1931 37.4676C19.1931 37.8463 19.2775 38.1409 19.4042 38.4354C19.573 38.73 19.7841 38.9404 20.0374 39.1087C20.2907 39.277 20.6284 39.3612 21.0083 39.3612C21.346 39.3612 21.6837 39.277 22.0215 39.1508V37.2151H21.9792ZM26.6228 34.1011H28.4803V40.5816H26.6228V34.1011ZM32.364 40.5395C31.8574 40.4132 31.4775 40.2449 31.1398 40.0345L31.7308 38.6879C32.0263 38.8983 32.364 39.0246 32.7439 39.1508C33.1238 39.277 33.5038 39.3191 33.8837 39.3191C34.6013 39.3191 34.9391 39.1508 34.9391 38.7721C34.9391 38.6038 34.8546 38.4354 34.6436 38.3513C34.4325 38.2671 34.137 38.1829 33.6726 38.0567C33.1661 37.9725 32.7861 37.8463 32.4484 37.7201C32.1107 37.5938 31.8574 37.4255 31.6041 37.1309C31.3508 36.8784 31.2664 36.4997 31.2664 36.0368C31.2664 35.6581 31.3931 35.2794 31.6041 34.9848C31.8152 34.6482 32.1529 34.3957 32.5751 34.2273C32.9972 34.059 33.546 33.9328 34.1792 33.9328C34.6013 33.9328 35.0235 33.9749 35.4456 34.059C35.8678 34.1432 36.2055 34.3115 36.5432 34.4798L35.9944 35.8264C35.3612 35.4898 34.7702 35.3214 34.1792 35.3214C33.7993 35.3214 33.546 35.3635 33.3771 35.4898C33.2083 35.616 33.1238 35.7423 33.1238 35.9106C33.1238 36.0789 33.2083 36.2051 33.4193 36.2893C33.6304 36.3735 33.9259 36.4576 34.3903 36.5418C34.8969 36.626 35.2768 36.7522 35.6145 36.8784C35.9522 37.0047 36.2055 37.173 36.4588 37.4676C36.7121 37.7201 36.7965 38.0988 36.7965 38.5196C36.7965 38.8983 36.6699 39.277 36.4588 39.5716C36.2477 39.8662 35.91 40.1187 35.4879 40.3291C35.0657 40.4974 34.5169 40.6236 33.9259 40.6236C33.3771 40.7078 32.8706 40.6657 32.364 40.5395ZM40.7647 35.5739H38.7806V34.1011H44.6062V35.5739H42.6221V40.5816H40.7647V35.5739ZM52.3736 39.1508V40.5816H47.139V34.1011H52.247V35.5319H48.9543V36.626H51.8248V38.0146H48.9543V39.1929H52.3736V39.1508ZM58.0726 38.8562H57.0594V40.5816H55.202V34.1011H58.157C58.748 34.1011 59.2546 34.1853 59.6767 34.3957C60.0989 34.6061 60.4366 34.8586 60.6899 35.2373C60.9431 35.616 61.0276 36.0368 61.0276 36.4997C61.0276 36.9626 60.9009 37.3834 60.6899 37.7201C60.4788 38.0567 60.1411 38.3513 59.7611 38.5196L61.1542 40.5395H59.1701L58.0726 38.8562ZM58.9591 35.7843C58.748 35.616 58.4947 35.5319 58.1148 35.5319H57.1016V37.4255H58.1148C58.4947 37.4255 58.7902 37.3413 58.9591 37.173C59.1279 37.0047 59.2546 36.7943 59.2546 36.4576C59.2546 36.121 59.1701 35.9527 58.9591 35.7843ZM69.2172 39.1508V40.5816H63.9826V34.1011H69.0905V35.5319H65.7978V36.626H68.6684V38.0146H65.7978V39.1929H69.2172V39.1508ZM72.0878 34.1011H75.1694C75.887 34.1011 76.5203 34.2273 77.0691 34.4798C77.6178 34.7323 78.04 35.111 78.3355 35.616C78.631 36.121 78.7999 36.668 78.7999 37.3413C78.7999 38.0146 78.631 38.5617 78.3355 39.0666C78.04 39.5716 77.6178 39.9503 77.0691 40.2028C76.5203 40.4553 75.887 40.5816 75.1694 40.5816H72.0878V34.1011ZM75.085 39.1087C75.6338 39.1087 76.0981 38.9404 76.4358 38.6458C76.7736 38.3513 76.9424 37.8884 76.9424 37.3413C76.9424 36.7943 76.7736 36.3314 76.4358 36.0368C76.0981 35.7423 75.6338 35.5739 75.085 35.5739H73.903V39.1087H75.085ZM90.5355 39.3191H87.7915L87.2849 40.5816H85.4275L88.2981 34.1011H90.1133L92.9839 40.5816H91.0842L90.5355 39.3191ZM89.9867 37.9725L89.1424 35.9106L88.2981 37.9725H89.9867ZM99.5693 37.2151H101.173V39.9083C100.794 40.1607 100.371 40.3712 99.9071 40.5395C99.4427 40.6657 98.9361 40.7499 98.4718 40.7499C97.7963 40.7499 97.1631 40.6236 96.6143 40.3291C96.0655 40.0345 95.6434 39.6558 95.3479 39.1508C95.0524 38.6458 94.8835 38.0567 94.8835 37.4255C94.8835 36.7943 95.0524 36.2051 95.3479 35.7002C95.6434 35.1952 96.1078 34.7744 96.6565 34.5219C97.2053 34.2273 97.8385 34.1011 98.514 34.1011C99.105 34.1011 99.6538 34.1853 100.16 34.3957C100.625 34.6061 101.047 34.9006 101.385 35.2794L100.203 36.3314C99.7804 35.8685 99.2316 35.616 98.6406 35.616C98.0918 35.616 97.6275 35.7843 97.2898 36.121C96.952 36.4576 96.7832 36.9205 96.7832 37.4676C96.7832 37.8463 96.8676 38.1409 96.9943 38.4354C97.1631 38.73 97.3742 38.9404 97.6275 39.1087C97.8808 39.277 98.2185 39.3612 98.5984 39.3612C98.9361 39.3612 99.2738 39.277 99.6115 39.1508V37.2151H99.5693ZM109.448 39.1508V40.5816H104.213V34.1011H109.321V35.5319H106.028V36.626H108.899V38.0146H106.028V39.1929H109.448V39.1508ZM118.524 34.1011V40.5816H117.004L114.133 37.1309V40.5816H112.318V34.1011H113.838L116.708 37.5517V34.1011H118.524ZM123.083 35.5739H121.099V34.1011H126.882V35.5739H124.898V40.5816H123.083V35.5739Z" fill="#003952"/>
</svg>
