<svg width="235" height="46" viewBox="0 0 235 46" fill="none" xmlns="http://www.w3.org/2000/svg">
<g clip-path="url(#clip0_501_221)">
<path d="M54.1431 29.6913V10.1633H58.0029L62.5852 23.9927C63.0049 25.2824 63.3145 26.2427 63.5072 26.8805C63.7274 26.1726 64.0714 25.1282 64.5392 23.7474L69.1766 10.1562H72.6236V29.6913H70.1536V13.3455L64.5255 29.6913H62.2137L56.6131 13.0651V29.6913H54.1431Z" fill="#0A7CB7"/>
<path d="M76.3464 35.145L76.0849 32.895C76.6009 33.0352 77.055 33.1053 77.4472 33.1053C77.977 33.1053 78.3967 33.0142 78.7132 32.8389C79.0297 32.6637 79.2911 32.4114 79.4907 32.0959C79.642 31.8576 79.8829 31.2618 80.22 30.3086C80.2613 30.1754 80.337 29.9791 80.4333 29.7198L75.1079 15.5469H77.6674L80.5847 23.7408C80.9631 24.7782 81.3002 25.8716 81.6029 27.0212C81.8781 25.9207 82.2015 24.8483 82.5799 23.7969L85.5798 15.5469H87.9604L82.6212 29.9371C82.0502 31.4931 81.6029 32.5586 81.2864 33.1473C80.8667 33.9394 80.3782 34.5142 79.8347 34.8857C79.2911 35.2572 78.6375 35.4394 77.8807 35.4394C77.4197 35.4394 76.9106 35.3413 76.3464 35.145Z" fill="#0A7CB7"/>
<path d="M104.1 22.8441L106.66 23.496C106.123 25.6198 105.153 27.239 103.763 28.3535C102.366 29.468 100.66 30.0287 98.6442 30.0287C96.5594 30.0287 94.86 29.6011 93.5527 28.746C92.2455 27.8909 91.2478 26.6502 90.5667 25.024C89.8855 23.3979 89.5415 21.6525 89.5415 19.7881C89.5415 17.7553 89.9268 15.982 90.6974 14.468C91.468 12.9539 92.562 11.8044 93.9862 11.0194C95.4104 10.2343 96.9723 9.8418 98.6786 9.8418C100.619 9.8418 102.243 10.3395 103.564 11.3348C104.885 12.3301 105.807 13.732 106.323 15.5334L103.798 16.1362C103.35 14.7133 102.697 13.6829 101.844 13.031C100.99 12.3862 99.917 12.0568 98.6235 12.0568C97.1374 12.0568 95.8921 12.4142 94.8944 13.1362C93.8968 13.8582 93.195 14.8184 92.789 16.031C92.3831 17.2437 92.1836 18.4913 92.1836 19.781C92.1836 21.4423 92.4244 22.8932 92.906 24.1339C93.3876 25.3745 94.1307 26.2997 95.1421 26.9096C96.1535 27.5194 97.2544 27.8278 98.4309 27.8278C99.8689 27.8278 101.08 27.4072 102.077 26.5731C103.075 25.732 103.749 24.4913 104.1 22.8441Z" fill="#0A7CB7"/>
<path d="M108.627 22.6195C108.627 19.998 109.35 18.0564 110.795 16.7947C111.999 15.7433 113.471 15.2246 115.205 15.2246C117.132 15.2246 118.707 15.8625 119.932 17.1382C121.157 18.4139 121.769 20.1732 121.769 22.4232C121.769 24.2456 121.501 25.6755 120.957 26.7199C120.413 27.7643 119.629 28.5774 118.59 29.1522C117.558 29.7269 116.423 30.0213 115.205 30.0213C113.244 30.0213 111.655 29.3835 110.444 28.1148C109.233 26.8391 108.627 25.0097 108.627 22.6195ZM111.07 22.6195C111.07 24.4349 111.462 25.7877 112.246 26.6919C113.031 27.5961 114.015 28.0447 115.205 28.0447C116.382 28.0447 117.365 27.5891 118.15 26.6849C118.934 25.7807 119.326 24.3998 119.326 22.5424C119.326 20.79 118.934 19.4653 118.143 18.5681C117.352 17.6639 116.375 17.2153 115.205 17.2153C114.015 17.2153 113.031 17.6639 112.246 18.5611C111.462 19.4512 111.07 20.8111 111.07 22.6195Z" fill="#0A7CB7"/>
<path d="M124.538 29.6927V15.5478H126.677V17.6927C127.221 16.6904 127.73 16.0245 128.191 15.7091C128.652 15.3866 129.161 15.2324 129.718 15.2324C130.517 15.2324 131.335 15.4918 132.161 16.0034L131.342 18.2254C130.764 17.882 130.179 17.7067 129.602 17.7067C129.079 17.7067 128.618 17.8679 128.205 18.1763C127.792 18.4918 127.496 18.9263 127.317 19.4871C127.056 20.3422 126.918 21.2745 126.918 22.2838V29.6927H124.538Z" fill="#0A7CB7"/>
<path d="M133.569 35.1171V15.547H135.736V17.3835C136.245 16.6615 136.823 16.1218 137.463 15.7643C138.103 15.4069 138.887 15.2246 139.802 15.2246C141 15.2246 142.059 15.533 142.974 16.1569C143.889 16.7807 144.584 17.6569 145.045 18.7854C145.513 19.9209 145.747 21.1615 145.747 22.5073C145.747 23.9583 145.492 25.262 144.976 26.4185C144.46 27.5751 143.71 28.4653 142.733 29.0821C141.75 29.6989 140.718 30.0073 139.637 30.0073C138.846 30.0073 138.131 29.8391 137.504 29.5026C136.871 29.1662 136.355 28.7386 135.949 28.2269V35.1171H133.569ZM135.722 22.7036C135.722 24.526 136.087 25.8718 136.816 26.741C137.546 27.6101 138.433 28.0447 139.472 28.0447C140.532 28.0447 141.433 27.5961 142.19 26.6919C142.94 25.7877 143.318 24.3928 143.318 22.5003C143.318 20.6989 142.954 19.3461 142.217 18.4489C141.481 17.5517 140.601 17.1031 139.582 17.1031C138.571 17.1031 137.676 17.5797 136.892 18.533C136.108 19.4933 135.722 20.8812 135.722 22.7036Z" fill="#0A7CB7"/>
<path d="M147.729 22.6195C147.729 19.998 148.451 18.0564 149.896 16.7947C151.1 15.7433 152.573 15.2246 154.307 15.2246C156.233 15.2246 157.809 15.8625 159.033 17.1382C160.258 18.4139 160.87 20.1732 160.87 22.4232C160.87 24.2456 160.602 25.6755 160.059 26.7199C159.515 27.7643 158.731 28.5774 157.692 29.1522C156.66 29.7269 155.524 30.0213 154.307 30.0213C152.346 30.0213 150.756 29.3835 149.545 28.1148C148.334 26.8391 147.729 25.0097 147.729 22.6195ZM150.172 22.6195C150.172 24.4349 150.564 25.7877 151.348 26.6919C152.132 27.5961 153.116 28.0447 154.307 28.0447C155.483 28.0447 156.467 27.5891 157.251 26.6849C158.036 25.7807 158.428 24.3998 158.428 22.5424C158.428 20.79 158.036 19.4653 157.245 18.5681C156.453 17.6639 155.476 17.2153 154.307 17.2153C153.116 17.2153 152.132 17.6639 151.348 18.5611C150.564 19.4512 150.172 20.8111 150.172 22.6195Z" fill="#0A7CB7"/>
<path d="M163.631 29.6927V15.5478H165.771V17.6927C166.315 16.6904 166.824 16.0245 167.285 15.7091C167.746 15.3866 168.255 15.2324 168.812 15.2324C169.61 15.2324 170.429 15.4918 171.255 16.0034L170.436 18.2254C169.858 17.882 169.273 17.7067 168.695 17.7067C168.172 17.7067 167.711 17.8679 167.299 18.1763C166.886 18.4918 166.59 18.9263 166.411 19.4871C166.15 20.3422 166.012 21.2745 166.012 22.2838V29.6927H163.631Z" fill="#0A7CB7"/>
<path d="M181.822 27.9466C180.941 28.7036 180.095 29.2363 179.276 29.5447C178.464 29.8531 177.59 30.0143 176.654 30.0143C175.113 30.0143 173.93 29.6358 173.104 28.8718C172.279 28.1148 171.866 27.1405 171.866 25.9629C171.866 25.269 172.024 24.6382 172.334 24.0634C172.643 23.4886 173.056 23.033 173.565 22.6826C174.074 22.3391 174.638 22.0727 175.278 21.8975C175.746 21.7713 176.448 21.6522 177.391 21.54C179.31 21.3087 180.721 21.0354 181.629 20.7129C181.636 20.3835 181.643 20.1732 181.643 20.0891C181.643 19.1148 181.416 18.4209 180.968 18.0213C180.363 17.4816 179.455 17.2083 178.258 17.2083C177.136 17.2083 176.31 17.4045 175.781 17.804C175.251 18.1966 174.852 18.8975 174.597 19.8998L172.272 19.5774C172.485 18.5751 172.829 17.762 173.317 17.1452C173.799 16.5283 174.501 16.0517 175.416 15.7223C176.331 15.3858 177.391 15.2246 178.602 15.2246C179.799 15.2246 180.769 15.3648 181.519 15.6522C182.269 15.9396 182.819 16.297 183.17 16.7246C183.521 17.1522 183.769 17.6989 183.913 18.3578C183.996 18.7643 184.03 19.5003 184.03 20.5727V23.769C184.03 25.998 184.078 27.4069 184.182 27.9956C184.285 28.5844 184.484 29.1522 184.78 29.6919H182.296C182.049 29.1942 181.89 28.6125 181.822 27.9466ZM181.622 22.5914C180.762 22.9489 179.462 23.2503 177.742 23.4956C176.765 23.6358 176.07 23.797 175.671 23.9723C175.265 24.1475 174.955 24.4069 174.735 24.7503C174.515 25.0938 174.405 25.4723 174.405 25.8928C174.405 26.5307 174.645 27.0634 175.127 27.491C175.609 27.9185 176.31 28.1288 177.232 28.1288C178.147 28.1288 178.959 27.9255 179.675 27.526C180.39 27.1195 180.913 26.5657 181.244 25.8648C181.498 25.3251 181.629 24.526 181.629 23.4676V22.5914H181.622Z" fill="#0A7CB7"/>
<path d="M192.904 27.5471L193.248 29.6639C192.58 29.8041 191.982 29.8742 191.452 29.8742C190.592 29.8742 189.918 29.734 189.443 29.4606C188.968 29.1872 188.631 28.8228 188.438 28.3742C188.246 27.9256 188.149 26.9793 188.149 25.5424V17.4115H186.409V15.5471H188.149V12.0424L190.516 10.6055V15.5471H192.904V17.4115H190.516V25.6826C190.516 26.3695 190.558 26.8041 190.64 27.0003C190.723 27.1966 190.86 27.3508 191.053 27.47C191.246 27.5821 191.514 27.6452 191.865 27.6452C192.119 27.6452 192.47 27.6101 192.904 27.5471Z" fill="#0A7CB7"/>
<path d="M195.237 12.9187V10.1641H197.617V12.9187H195.237ZM195.237 29.6921V15.5472H197.617V29.6991H195.237V29.6921Z" fill="#0A7CB7"/>
<path d="M200.35 22.6195C200.35 19.998 201.073 18.0564 202.517 16.7947C203.721 15.7433 205.194 15.2246 206.928 15.2246C208.854 15.2246 210.43 15.8625 211.654 17.1382C212.879 18.4139 213.492 20.1732 213.492 22.4232C213.492 24.2456 213.223 25.6755 212.68 26.7199C212.136 27.7643 211.352 28.5774 210.313 29.1522C209.281 29.7269 208.146 30.0213 206.928 30.0213C204.967 30.0213 203.377 29.3835 202.166 28.1148C200.956 26.8391 200.35 25.0097 200.35 22.6195ZM202.793 22.6195C202.793 24.4349 203.185 25.7877 203.969 26.6919C204.753 27.5961 205.737 28.0447 206.928 28.0447C208.104 28.0447 209.088 27.5891 209.872 26.6849C210.657 25.7807 211.049 24.3998 211.049 22.5424C211.049 20.79 210.657 19.4653 209.866 18.5681C209.074 17.6639 208.097 17.2153 206.928 17.2153C205.737 17.2153 204.753 17.6639 203.969 18.5611C203.185 19.4512 202.793 20.8111 202.793 22.6195Z" fill="#0A7CB7"/>
<path d="M216.284 29.6919V15.547H218.423V17.5587C219.456 16.0026 220.942 15.2246 222.889 15.2246C223.735 15.2246 224.513 15.3788 225.221 15.6872C225.93 15.9956 226.46 16.3952 226.811 16.8928C227.161 17.3905 227.409 17.9793 227.554 18.6662C227.643 19.1078 227.684 19.8858 227.684 21.0003V29.6989H225.304V21.0914C225.304 20.1171 225.214 19.3812 225.029 18.8975C224.843 18.4139 224.513 18.0283 224.045 17.741C223.577 17.4536 223.02 17.3064 222.387 17.3064C221.375 17.3064 220.501 17.6288 219.765 18.2807C219.029 18.9326 218.664 20.1592 218.664 21.9746V29.6989H216.284V29.6919Z" fill="#0A7CB7"/>
<path d="M118.047 40.0942C118.04 40.8652 118.233 41.468 118.625 41.9026C119.01 42.3372 119.471 42.5615 119.994 42.5615C120.345 42.5615 120.648 42.4704 120.902 42.2811C121.157 42.0919 121.377 41.7764 121.549 41.3208L121.728 41.433C121.645 41.9517 121.411 42.4213 121.019 42.8419C120.627 43.2624 120.138 43.4797 119.547 43.4797C118.907 43.4797 118.356 43.2344 117.902 42.7507C117.448 42.2671 117.221 41.6152 117.221 40.7951C117.221 39.9119 117.455 39.218 117.923 38.7274C118.391 38.2297 118.976 37.9844 119.684 37.9844C120.283 37.9844 120.771 38.1736 121.157 38.5591C121.542 38.9447 121.735 39.4563 121.735 40.0942H118.047ZM118.047 39.7718H120.517C120.496 39.4423 120.455 39.204 120.393 39.0708C120.297 38.8605 120.152 38.6923 119.96 38.5732C119.767 38.454 119.567 38.3909 119.354 38.3909C119.031 38.3909 118.742 38.5101 118.487 38.7554C118.233 39.0007 118.088 39.3372 118.047 39.7718Z" fill="#0A7CB7"/>
<path d="M124.109 39.0907C124.735 38.3617 125.327 37.9972 125.898 37.9972C126.187 37.9972 126.441 38.0673 126.648 38.2075C126.854 38.3477 127.026 38.579 127.15 38.9085C127.233 39.1328 127.281 39.4832 127.281 39.9458V42.1538C127.281 42.4832 127.308 42.7005 127.363 42.8197C127.405 42.9108 127.474 42.9879 127.57 43.037C127.666 43.093 127.838 43.1141 128.1 43.1141V43.3173H125.464V43.1141H125.575C125.822 43.1141 125.994 43.079 126.097 43.0019C126.201 42.9248 126.263 42.8197 126.304 42.6795C126.318 42.6234 126.324 42.4482 126.324 42.1468V40.03C126.324 39.5603 126.263 39.2169 126.139 39.0066C126.015 38.7963 125.802 38.6842 125.499 38.6842C125.038 38.6842 124.577 38.9295 124.123 39.4201V42.1468C124.123 42.4972 124.143 42.7145 124.185 42.7986C124.24 42.9108 124.315 42.9879 124.412 43.037C124.508 43.086 124.701 43.1141 124.99 43.1141V43.3173H122.355V43.1141H122.471C122.74 43.1141 122.926 43.044 123.022 42.9108C123.118 42.7776 123.166 42.5253 123.166 42.1468V40.2262C123.166 39.6024 123.153 39.2239 123.125 39.0907C123.098 38.9575 123.049 38.8594 122.994 38.8103C122.932 38.7613 122.857 38.7402 122.754 38.7402C122.644 38.7402 122.513 38.7683 122.361 38.8243L122.272 38.6211L123.875 37.9902H124.123L124.109 39.0907Z" fill="#0A7CB7"/>
<path d="M130.183 36.4484V38.1517H131.428V38.5442H130.183V41.9017C130.183 42.2381 130.231 42.4624 130.334 42.5816C130.431 42.7008 130.561 42.7568 130.713 42.7568C130.844 42.7568 130.967 42.7148 131.084 42.6377C131.201 42.5606 131.298 42.4484 131.366 42.2942H131.594C131.456 42.6657 131.263 42.9391 131.016 43.1283C130.768 43.3176 130.513 43.4087 130.245 43.4087C130.066 43.4087 129.894 43.3596 129.722 43.2615C129.55 43.1634 129.426 43.0302 129.344 42.8479C129.261 42.6657 129.22 42.3923 129.22 42.0208V38.5372H128.374V38.3479C128.587 38.2638 128.807 38.1237 129.027 37.9274C129.247 37.7311 129.447 37.4928 129.626 37.2265C129.715 37.0863 129.839 36.8199 129.997 36.4414L130.183 36.4484Z" fill="#0A7CB7"/>
<path d="M133.626 37.9902V39.1608C134.073 38.3828 134.527 37.9972 135.002 37.9972C135.215 37.9972 135.394 38.0603 135.532 38.1865C135.669 38.3127 135.738 38.4599 135.738 38.6211C135.738 38.7683 135.69 38.8944 135.587 38.9926C135.483 39.0977 135.366 39.1468 135.229 39.1468C135.091 39.1468 134.94 39.0837 134.775 38.9505C134.603 38.8173 134.479 38.7543 134.396 38.7543C134.328 38.7543 134.252 38.7893 134.169 38.8664C133.997 39.0206 133.812 39.2729 133.626 39.6304V42.1117C133.626 42.3991 133.66 42.6164 133.736 42.7636C133.784 42.8687 133.873 42.9529 134.004 43.0159C134.135 43.079 134.314 43.1211 134.555 43.1211V43.3243H131.823V43.1211C132.091 43.1211 132.298 43.079 132.429 42.9949C132.525 42.9318 132.594 42.8407 132.635 42.7075C132.656 42.6444 132.663 42.4622 132.663 42.1608V40.1561C132.663 39.5533 132.649 39.1958 132.621 39.0767C132.594 38.9645 132.552 38.8804 132.484 38.8243C132.415 38.7683 132.332 38.7472 132.229 38.7472C132.112 38.7472 131.974 38.7753 131.823 38.8314L131.768 38.6281L133.378 37.9972L133.626 37.9902Z" fill="#0A7CB7"/>
<path d="M137.043 40.0942C137.036 40.8652 137.229 41.468 137.621 41.9026C138.006 42.3372 138.467 42.5615 138.99 42.5615C139.341 42.5615 139.644 42.4704 139.898 42.2811C140.153 42.0919 140.373 41.7764 140.545 41.3208L140.724 41.433C140.641 41.9517 140.407 42.4213 140.015 42.8419C139.623 43.2624 139.135 43.4797 138.543 43.4797C137.903 43.4797 137.353 43.2344 136.898 42.7507C136.444 42.2671 136.217 41.6152 136.217 40.7951C136.217 39.9119 136.451 39.218 136.919 38.7274C137.387 38.2297 137.972 37.9844 138.68 37.9844C139.279 37.9844 139.768 38.1736 140.153 38.5591C140.538 38.9447 140.731 39.4563 140.731 40.0942H137.043ZM137.043 39.7718H139.513C139.492 39.4423 139.451 39.204 139.389 39.0708C139.293 38.8605 139.148 38.6923 138.956 38.5732C138.763 38.454 138.563 38.3909 138.35 38.3909C138.027 38.3909 137.738 38.5101 137.483 38.7554C137.229 39.0007 137.091 39.3372 137.043 39.7718Z" fill="#0A7CB7"/>
<path d="M141.172 38.6639L142.809 38.0191H143.029V39.2317C143.304 38.7761 143.58 38.4537 143.862 38.2714C144.137 38.0892 144.433 37.998 144.736 37.998C145.272 37.998 145.719 38.2013 146.07 38.6079C146.511 39.1055 146.731 39.7504 146.731 40.5494C146.731 41.4396 146.469 42.1826 145.94 42.7644C145.506 43.241 144.956 43.4794 144.302 43.4794C144.013 43.4794 143.765 43.4373 143.559 43.3602C143.401 43.3041 143.229 43.192 143.036 43.0237V44.6008C143.036 44.9583 143.057 45.1826 143.105 45.2737C143.146 45.3719 143.229 45.449 143.339 45.5051C143.449 45.5611 143.648 45.5892 143.944 45.5892V45.7994H141.151V45.5892H141.295C141.509 45.5962 141.694 45.5541 141.839 45.47C141.915 45.428 141.97 45.3649 142.011 45.2667C142.052 45.1756 142.073 44.9373 142.073 44.5658V39.6733C142.073 39.3368 142.059 39.1266 142.025 39.0354C141.99 38.9443 141.942 38.8742 141.873 38.8322C141.805 38.7901 141.715 38.7621 141.598 38.7621C141.502 38.7621 141.385 38.7901 141.24 38.8392L141.172 38.6639ZM143.036 39.5611V41.4957C143.036 41.9163 143.057 42.1896 143.091 42.3228C143.146 42.5401 143.277 42.7364 143.49 42.8976C143.703 43.0658 143.965 43.1429 144.288 43.1429C144.674 43.1429 144.99 42.9957 145.231 42.7013C145.547 42.3158 145.706 41.7761 145.706 41.0822C145.706 40.2901 145.527 39.6803 145.169 39.2597C144.921 38.9653 144.625 38.8181 144.281 38.8181C144.096 38.8181 143.91 38.8602 143.731 38.9513C143.587 39.0144 143.359 39.2177 143.036 39.5611Z" fill="#0A7CB7"/>
<path d="M149.193 37.9902V39.1608C149.64 38.3828 150.094 37.9972 150.569 37.9972C150.782 37.9972 150.961 38.0603 151.099 38.1865C151.237 38.3127 151.305 38.4599 151.305 38.6211C151.305 38.7683 151.257 38.8944 151.154 38.9926C151.051 39.0977 150.934 39.1468 150.796 39.1468C150.659 39.1468 150.507 39.0837 150.342 38.9505C150.17 38.8173 150.046 38.7543 149.964 38.7543C149.895 38.7543 149.819 38.7893 149.737 38.8664C149.565 39.0206 149.379 39.2729 149.193 39.6304V42.1117C149.193 42.3991 149.227 42.6164 149.303 42.7636C149.351 42.8687 149.441 42.9529 149.572 43.0159C149.702 43.079 149.881 43.1211 150.122 43.1211V43.3243H147.397V43.1211C147.666 43.1211 147.872 43.079 148.003 42.9949C148.099 42.9318 148.168 42.8407 148.209 42.7075C148.23 42.6444 148.237 42.4622 148.237 42.1608V40.1561C148.237 39.5533 148.223 39.1958 148.195 39.0767C148.168 38.9645 148.127 38.8804 148.058 38.8243C147.989 38.7683 147.906 38.7472 147.803 38.7472C147.686 38.7472 147.549 38.7753 147.397 38.8314L147.342 38.6281L148.952 37.9972L149.193 37.9902Z" fill="#0A7CB7"/>
<path d="M152.621 40.0942C152.614 40.8652 152.807 41.468 153.199 41.9026C153.584 42.3372 154.045 42.5615 154.568 42.5615C154.919 42.5615 155.222 42.4704 155.476 42.2811C155.731 42.0919 155.951 41.7764 156.123 41.3208L156.302 41.433C156.219 41.9517 155.986 42.4213 155.593 42.8419C155.201 43.2624 154.713 43.4797 154.121 43.4797C153.481 43.4797 152.931 43.2344 152.477 42.7507C152.022 42.2671 151.795 41.6152 151.795 40.7951C151.795 39.9119 152.029 39.218 152.497 38.7274C152.965 38.2297 153.55 37.9844 154.259 37.9844C154.857 37.9844 155.346 38.1736 155.731 38.5591C156.116 38.9447 156.309 39.4563 156.309 40.0942H152.621ZM152.621 39.7718H155.091C155.07 39.4423 155.029 39.204 154.967 39.0708C154.871 38.8605 154.726 38.6923 154.534 38.5732C154.341 38.454 154.142 38.3909 153.928 38.3909C153.605 38.3909 153.316 38.5101 153.061 38.7554C152.807 39.0007 152.662 39.3372 152.621 39.7718Z" fill="#0A7CB7"/>
<path d="M158.683 39.0907C159.309 38.3617 159.901 37.9972 160.472 37.9972C160.761 37.9972 161.016 38.0673 161.222 38.2075C161.428 38.3477 161.6 38.579 161.724 38.9085C161.807 39.1328 161.855 39.4832 161.855 39.9458V42.1538C161.855 42.4832 161.883 42.7005 161.938 42.8197C161.979 42.9108 162.048 42.9879 162.144 43.037C162.24 43.093 162.412 43.1141 162.674 43.1141V43.3173H160.039V43.1141H160.149C160.396 43.1141 160.568 43.079 160.672 43.0019C160.775 42.9248 160.837 42.8197 160.878 42.6795C160.892 42.6234 160.899 42.4482 160.899 42.1468V40.03C160.899 39.5603 160.837 39.2169 160.713 39.0066C160.589 38.7963 160.376 38.6842 160.073 38.6842C159.612 38.6842 159.151 38.9295 158.697 39.4201V42.1468C158.697 42.4972 158.718 42.7145 158.759 42.7986C158.814 42.9108 158.89 42.9879 158.986 43.037C159.082 43.086 159.275 43.1141 159.564 43.1141V43.3173H156.929V43.1141H157.046C157.314 43.1141 157.5 43.044 157.596 42.9108C157.692 42.7776 157.741 42.5253 157.741 42.1468V40.2262C157.741 39.6024 157.727 39.2239 157.699 39.0907C157.672 38.9575 157.624 38.8594 157.569 38.8103C157.507 38.7613 157.431 38.7402 157.328 38.7402C157.218 38.7402 157.087 38.7683 156.936 38.8243L156.846 38.6211L158.449 37.9902H158.697L158.683 39.0907Z" fill="#0A7CB7"/>
<path d="M164.105 40.0942C164.099 40.8652 164.291 41.468 164.683 41.9026C165.069 42.3372 165.53 42.5615 166.053 42.5615C166.403 42.5615 166.706 42.4704 166.961 42.2811C167.215 42.0919 167.435 41.7764 167.608 41.3208L167.786 41.433C167.704 41.9517 167.47 42.4213 167.078 42.8419C166.686 43.2624 166.197 43.4797 165.605 43.4797C164.965 43.4797 164.415 43.2344 163.961 42.7507C163.507 42.2671 163.28 41.6152 163.28 40.7951C163.28 39.9119 163.514 39.218 163.982 38.7274C164.449 38.2297 165.034 37.9844 165.743 37.9844C166.342 37.9844 166.83 38.1736 167.215 38.5591C167.601 38.9447 167.793 39.4563 167.793 40.0942H164.105ZM164.105 39.7718H166.575C166.555 39.4423 166.514 39.204 166.452 39.0708C166.355 38.8605 166.211 38.6923 166.018 38.5732C165.826 38.454 165.626 38.3909 165.413 38.3909C165.089 38.3909 164.8 38.5101 164.546 38.7554C164.291 39.0007 164.147 39.3372 164.105 39.7718Z" fill="#0A7CB7"/>
<path d="M173.289 38.1457V41.2789C173.289 41.8747 173.303 42.2461 173.33 42.3793C173.358 42.5125 173.406 42.6036 173.468 42.6597C173.53 42.7158 173.605 42.7368 173.695 42.7368C173.812 42.7368 173.949 42.7018 174.101 42.6387L174.183 42.8349L172.587 43.4728H172.326V42.3863C171.865 42.87 171.521 43.1714 171.28 43.2975C171.039 43.4237 170.784 43.4868 170.516 43.4868C170.22 43.4868 169.959 43.4027 169.739 43.2345C169.518 43.0662 169.367 42.849 169.284 42.5896C169.202 42.3233 169.154 41.9518 169.154 41.4681V39.155C169.154 38.9097 169.126 38.7415 169.071 38.6433C169.016 38.5522 168.934 38.4751 168.83 38.4261C168.72 38.377 168.528 38.349 168.252 38.356V38.1457H170.117V41.6083C170.117 42.0919 170.206 42.4074 170.378 42.5546C170.55 42.7088 170.757 42.7789 171.005 42.7789C171.17 42.7789 171.362 42.7298 171.569 42.6247C171.782 42.5195 172.03 42.3303 172.326 42.0429V39.113C172.326 38.8186 172.271 38.6223 172.16 38.5172C172.05 38.412 171.823 38.356 171.472 38.349V38.1387L173.289 38.1457Z" fill="#0A7CB7"/>
<path d="M176.255 37.9902V39.1608C176.702 38.3828 177.156 37.9972 177.631 37.9972C177.844 37.9972 178.023 38.0603 178.161 38.1865C178.298 38.3127 178.367 38.4599 178.367 38.6211C178.367 38.7683 178.319 38.8944 178.216 38.9926C178.112 39.0977 177.995 39.1468 177.858 39.1468C177.72 39.1468 177.569 39.0837 177.404 38.9505C177.232 38.8173 177.108 38.7543 177.025 38.7543C176.956 38.7543 176.881 38.7893 176.798 38.8664C176.626 39.0206 176.44 39.2729 176.255 39.6304V42.1117C176.255 42.3991 176.289 42.6164 176.365 42.7636C176.413 42.8687 176.502 42.9529 176.633 43.0159C176.764 43.079 176.943 43.1211 177.184 43.1211V43.3243H174.452V43.1211C174.72 43.1211 174.927 43.079 175.057 42.9949C175.154 42.9318 175.223 42.8407 175.264 42.7075C175.285 42.6444 175.291 42.4622 175.291 42.1608V40.1561C175.291 39.5533 175.278 39.1958 175.25 39.0767C175.223 38.9645 175.181 38.8804 175.113 38.8243C175.044 38.7683 174.961 38.7472 174.858 38.7472C174.741 38.7472 174.603 38.7753 174.452 38.8314L174.397 38.6281L176.007 37.9972L176.255 37.9902Z" fill="#0A7CB7"/>
<path d="M182.228 37.9906V39.7569H182.036C181.891 39.2032 181.699 38.8247 181.472 38.6284C181.238 38.4322 180.949 38.327 180.591 38.327C180.323 38.327 180.102 38.3971 179.93 38.5373C179.765 38.6775 179.683 38.8317 179.683 38.9999C179.683 39.2102 179.745 39.3925 179.868 39.5396C179.985 39.6939 180.233 39.8551 180.605 40.0303L181.451 40.4298C182.235 40.8013 182.634 41.292 182.634 41.9018C182.634 42.3714 182.449 42.7499 182.084 43.0373C181.719 43.3247 181.306 43.4719 180.852 43.4719C180.529 43.4719 180.157 43.4158 179.738 43.3037C179.607 43.2686 179.504 43.2476 179.421 43.2476C179.332 43.2476 179.263 43.2967 179.215 43.3948H179.022V41.5443H179.215C179.325 42.07 179.531 42.4696 179.834 42.7359C180.144 43.0023 180.481 43.1354 180.866 43.1354C181.134 43.1354 181.355 43.0583 181.52 42.9041C181.692 42.7499 181.774 42.5677 181.774 42.3504C181.774 42.091 181.678 41.8738 181.492 41.6915C181.306 41.5093 180.928 41.292 180.364 41.0186C179.8 40.7453 179.435 40.4999 179.256 40.2826C179.084 40.0653 178.995 39.799 178.995 39.4696C178.995 39.042 179.146 38.6845 179.449 38.4041C179.751 38.1168 180.137 37.9766 180.618 37.9766C180.825 37.9766 181.079 38.0186 181.382 38.1097C181.582 38.1658 181.712 38.1939 181.781 38.1939C181.843 38.1939 181.891 38.1798 181.926 38.1518C181.96 38.1238 182.001 38.0677 182.05 37.9766L182.228 37.9906Z" fill="#0A7CB7"/>
<path d="M185.803 38.1457H187.95V38.356C187.75 38.37 187.627 38.405 187.565 38.4611C187.503 38.5172 187.475 38.6013 187.475 38.7064C187.475 38.8256 187.51 38.9658 187.571 39.127L188.665 42.106L189.766 39.6807L189.477 38.9167C189.388 38.6924 189.271 38.5312 189.126 38.4471C189.044 38.391 188.892 38.363 188.665 38.349V38.1387H191.101V38.349C190.833 38.363 190.64 38.412 190.53 38.4961C190.454 38.5592 190.42 38.6504 190.42 38.7835C190.42 38.8606 190.434 38.9377 190.461 39.0148L191.624 41.9868L192.704 39.12C192.78 38.9167 192.814 38.7555 192.814 38.6363C192.814 38.5662 192.78 38.5032 192.704 38.4471C192.629 38.391 192.491 38.356 192.278 38.349V38.1387H193.894V38.349C193.571 38.398 193.33 38.6223 193.179 39.0148L191.473 43.4728H191.246L189.966 40.1644L188.473 43.4728H188.266L186.622 39.12C186.512 38.8466 186.409 38.6574 186.305 38.5662C186.202 38.4681 186.037 38.398 185.817 38.349L185.803 38.1457Z" fill="#0A7CB7"/>
<path d="M195.321 40.0942C195.314 40.8652 195.5 41.468 195.871 41.9026C196.243 42.3372 196.683 42.5615 197.186 42.5615C197.523 42.5615 197.812 42.4704 198.059 42.2811C198.307 42.0919 198.513 41.7764 198.679 41.3208L198.851 41.433C198.775 41.9517 198.548 42.4213 198.169 42.8419C197.791 43.2624 197.323 43.4797 196.759 43.4797C196.147 43.4797 195.617 43.2344 195.183 42.7507C194.743 42.2671 194.53 41.6152 194.53 40.7951C194.53 39.9119 194.757 39.218 195.204 38.7274C195.651 38.2297 196.215 37.9844 196.89 37.9844C197.461 37.9844 197.936 38.1736 198.3 38.5591C198.672 38.9447 198.851 39.4563 198.851 40.0942H195.321ZM195.321 39.7718H197.688C197.667 39.4423 197.633 39.204 197.571 39.0708C197.475 38.8605 197.337 38.6923 197.158 38.5732C196.972 38.454 196.78 38.3909 196.58 38.3909C196.271 38.3909 195.995 38.5101 195.748 38.7554C195.507 39.0007 195.362 39.3372 195.321 39.7718Z" fill="#0A7CB7"/>
<path d="M201.574 34.6543V42.0632C201.574 42.4136 201.602 42.645 201.65 42.7571C201.698 42.8692 201.781 42.9604 201.884 43.0164C201.987 43.0725 202.18 43.1076 202.469 43.1076V43.3249H199.765V43.1076C200.019 43.1076 200.191 43.0795 200.281 43.0305C200.37 42.9744 200.446 42.8903 200.501 42.7711C200.556 42.652 200.577 42.4136 200.577 42.0702V36.9884C200.577 36.3576 200.563 35.9721 200.535 35.8249C200.508 35.6777 200.46 35.5795 200.398 35.5305C200.336 35.4744 200.253 35.4534 200.157 35.4534C200.054 35.4534 199.923 35.4884 199.758 35.5515L199.655 35.3412L201.299 34.6613L201.574 34.6543Z" fill="#0A7CB7"/>
<path d="M207.547 41.3555C207.409 42.0354 207.141 42.5611 206.735 42.9326C206.336 43.2971 205.889 43.4864 205.4 43.4864C204.822 43.4864 204.313 43.241 203.88 42.7434C203.446 42.2527 203.233 41.5798 203.233 40.7457C203.233 39.9326 203.474 39.2737 203.948 38.7621C204.423 38.2504 205.001 37.998 205.669 37.998C206.171 37.998 206.584 38.1312 206.907 38.4046C207.23 38.6709 207.396 38.9513 207.396 39.2457C207.396 39.3859 207.347 39.5051 207.258 39.5962C207.168 39.6873 207.038 39.7294 206.873 39.7294C206.652 39.7294 206.487 39.6593 206.377 39.5121C206.315 39.435 206.274 39.2808 206.253 39.0565C206.233 38.8322 206.157 38.6639 206.026 38.5448C205.896 38.4326 205.717 38.3765 205.483 38.3765C205.111 38.3765 204.809 38.5167 204.581 38.7971C204.279 39.1686 204.127 39.6523 204.127 40.2621C204.127 40.8789 204.279 41.4256 204.575 41.8952C204.877 42.3649 205.276 42.6032 205.786 42.6032C206.15 42.6032 206.48 42.477 206.769 42.2247C206.976 42.0494 207.175 41.734 207.368 41.2784L207.547 41.3555Z" fill="#0A7CB7"/>
<path d="M210.89 37.9902C211.667 37.9902 212.286 38.2846 212.754 38.8804C213.153 39.3921 213.353 39.9739 213.353 40.6328C213.353 41.0954 213.243 41.565 213.022 42.0416C212.802 42.5183 212.5 42.8758 212.114 43.1141C211.729 43.3524 211.302 43.4786 210.828 43.4786C210.057 43.4786 209.445 43.1701 208.991 42.5463C208.605 42.0206 208.413 41.4318 208.413 40.78C208.413 40.3033 208.53 39.8337 208.763 39.3641C208.997 38.8944 209.3 38.551 209.679 38.3267C210.064 38.1024 210.47 37.9902 210.89 37.9902ZM210.718 38.3617C210.518 38.3617 210.325 38.4178 210.126 38.537C209.926 38.6561 209.768 38.8664 209.644 39.1608C209.52 39.4552 209.458 39.8407 209.458 40.3103C209.458 41.0673 209.61 41.7122 209.906 42.2589C210.201 42.8057 210.594 43.079 211.075 43.079C211.433 43.079 211.736 42.9318 211.97 42.6304C212.204 42.329 212.321 41.8103 212.321 41.0743C212.321 40.1561 212.128 39.4342 211.736 38.9014C211.461 38.544 211.13 38.3617 210.718 38.3617Z" fill="#0A7CB7"/>
<path d="M215.742 39.0984C216.114 38.7199 216.334 38.5026 216.403 38.4465C216.568 38.3063 216.754 38.1942 216.946 38.1101C217.139 38.026 217.332 37.9909 217.524 37.9909C217.848 37.9909 218.123 38.082 218.35 38.2713C218.584 38.4606 218.735 38.7339 218.811 39.0914C219.196 38.6358 219.52 38.3414 219.781 38.2012C220.043 38.061 220.318 37.9909 220.593 37.9909C220.861 37.9909 221.109 38.061 221.315 38.2012C221.529 38.3414 221.694 38.5727 221.818 38.8951C221.9 39.1124 221.942 39.4559 221.942 39.9255V42.1545C221.942 42.4769 221.969 42.7012 222.017 42.8204C222.052 42.9045 222.12 42.9746 222.224 43.0306C222.327 43.0867 222.485 43.1148 222.712 43.1148V43.318H220.187V43.1148H220.29C220.51 43.1148 220.682 43.0727 220.806 42.9816C220.889 42.9185 220.951 42.8274 220.992 42.6942C221.006 42.6311 221.013 42.4489 221.013 42.1475V39.9185C221.013 39.4979 220.965 39.1965 220.861 39.0283C220.717 38.79 220.483 38.6638 220.166 38.6638C219.967 38.6638 219.774 38.7129 219.575 38.811C219.375 38.9092 219.134 39.0984 218.852 39.3648L218.839 39.4278L218.852 39.6732V42.1405C218.852 42.4979 218.873 42.7152 218.914 42.7993C218.956 42.8835 219.024 42.9606 219.134 43.0166C219.245 43.0727 219.423 43.1007 219.685 43.1007V43.304H217.098V43.1007C217.38 43.1007 217.573 43.0657 217.683 42.9956C217.793 42.9255 217.862 42.8274 217.903 42.6872C217.923 42.6241 217.93 42.4349 217.93 42.1264V39.8975C217.93 39.4769 217.868 39.1755 217.745 38.9863C217.579 38.7479 217.352 38.6218 217.057 38.6218C216.857 38.6218 216.657 38.6778 216.458 38.783C216.148 38.9512 215.908 39.1334 215.742 39.3437V42.1194C215.742 42.4559 215.763 42.6802 215.811 42.7783C215.859 42.8834 215.928 42.9535 216.018 43.0096C216.107 43.0587 216.293 43.0867 216.575 43.0867V43.29H214.043V43.0867C214.277 43.0867 214.442 43.0587 214.531 43.0096C214.628 42.9606 214.697 42.8764 214.745 42.7643C214.793 42.6521 214.82 42.4349 214.82 42.1194V40.1428C214.82 39.575 214.807 39.2035 214.772 39.0423C214.745 38.9162 214.703 38.832 214.648 38.783C214.593 38.7339 214.518 38.7129 214.421 38.7129C214.318 38.7129 214.194 38.7409 214.05 38.797L213.967 38.5937L215.508 37.9629H215.749L215.742 39.0984Z" fill="#0A7CB7"/>
<path d="M224.087 40.0942C224.08 40.8652 224.266 41.468 224.637 41.9026C225.009 42.3372 225.449 42.5615 225.951 42.5615C226.288 42.5615 226.577 42.4704 226.825 42.2811C227.073 42.0919 227.279 41.7764 227.444 41.3208L227.616 41.433C227.541 41.9517 227.314 42.4213 226.935 42.8419C226.557 43.2624 226.089 43.4797 225.525 43.4797C224.912 43.4797 224.383 43.2344 223.949 42.7507C223.509 42.2671 223.295 41.6152 223.295 40.7951C223.295 39.9119 223.522 39.218 223.97 38.7274C224.417 38.2297 224.981 37.9844 225.655 37.9844C226.226 37.9844 226.701 38.1736 227.066 38.5591C227.437 38.9447 227.616 39.4563 227.616 40.0942H224.087ZM224.087 39.7718H226.453C226.433 39.4423 226.398 39.204 226.337 39.0708C226.24 38.8605 226.103 38.6923 225.924 38.5732C225.738 38.454 225.545 38.3909 225.346 38.3909C225.036 38.3909 224.761 38.5101 224.513 38.7554C224.272 39.0007 224.128 39.3372 224.087 39.7718Z" fill="#0A7CB7"/>
<path d="M21.3656 0.792779L11.1392 11.2109L21.3656 21.6291L31.592 11.2109L21.3656 0.792779Z" fill="#0A7CB7"/>
<path d="M21.3656 22.9412L11.1392 33.3594L21.3656 43.7775L31.592 33.3594L21.3656 22.9412Z" fill="#0A7CB7"/>
<path d="M35.7445 11.867L25.5181 22.2852L35.7445 32.7033L45.9709 22.2852L35.7445 11.867Z" fill="#9FC9EB"/>
<path d="M10.4945 11.867L0.268066 22.2852L10.4945 32.7033L20.7209 22.2852L10.4945 11.867Z" fill="#0A7CB7"/>
<path d="M231.45 7.89258C231.87 7.89258 232.283 8.00473 232.682 8.22202C233.081 8.43931 233.397 8.75473 233.618 9.16828C233.845 9.57482 233.955 10.0024 233.955 10.451C233.955 10.8926 233.845 11.3131 233.625 11.7197C233.404 12.1262 233.095 12.4416 232.696 12.6659C232.297 12.8902 231.884 13.0024 231.443 13.0024C231.01 13.0024 230.59 12.8902 230.191 12.6659C229.792 12.4416 229.483 12.1262 229.262 11.7197C229.042 11.3131 228.932 10.8926 228.932 10.451C228.932 10.0094 229.042 9.58183 229.269 9.16828C229.496 8.76174 229.806 8.44632 230.212 8.22202C230.618 8.00473 231.031 7.89258 231.45 7.89258ZM231.45 8.32015C231.099 8.32015 230.755 8.41127 230.418 8.59351C230.081 8.77576 229.827 9.04211 229.634 9.38557C229.448 9.72903 229.352 10.0865 229.352 10.458C229.352 10.8295 229.441 11.18 229.627 11.5164C229.813 11.8529 230.074 12.1192 230.405 12.3085C230.735 12.4977 231.086 12.5888 231.443 12.5888C231.801 12.5888 232.152 12.4977 232.482 12.3085C232.813 12.1192 233.074 11.8599 233.26 11.5164C233.446 11.18 233.535 10.8225 233.535 10.458C233.535 10.0865 233.439 9.72903 233.253 9.38557C233.067 9.04211 232.806 8.78277 232.469 8.59351C232.145 8.41127 231.801 8.32015 231.45 8.32015ZM230.349 11.8669V9.1122H231.278C231.595 9.1122 231.822 9.14024 231.966 9.18931C232.111 9.23837 232.221 9.32949 232.303 9.45566C232.386 9.58183 232.427 9.71501 232.427 9.8622C232.427 10.0655 232.359 10.2407 232.214 10.3879C232.07 10.5351 231.884 10.6192 231.657 10.6402C231.753 10.6823 231.829 10.7314 231.884 10.7874C231.994 10.8926 232.125 11.0748 232.283 11.3342L232.613 11.8739H232.083L231.843 11.4393C231.657 11.0958 231.505 10.8856 231.388 10.8015C231.306 10.7384 231.189 10.7033 231.038 10.7033H230.783V11.8739H230.349V11.8669ZM230.79 10.3178H231.32C231.574 10.3178 231.746 10.2828 231.836 10.2057C231.925 10.1286 231.973 10.0304 231.973 9.89725C231.973 9.81314 231.953 9.74305 231.904 9.67996C231.863 9.61688 231.801 9.56781 231.719 9.53277C231.643 9.49772 231.492 9.4837 231.278 9.4837H230.783V10.3178H230.79Z" fill="#005C90"/>
</g>
<defs>
<clipPath id="clip0_501_221">
<rect width="234" height="45" fill="white" transform="translate(0.229004 0.75)"/>
</clipPath>
</defs>
</svg>
