<svg width="229" height="34" viewBox="0 0 229 34" fill="none" xmlns="http://www.w3.org/2000/svg">
<g clip-path="url(#clip0_670_119)">
<path d="M10.4882 18.2553L8.8978 27.6245H0.171875L4.78817 0.837063H17.3563C19.0048 0.813173 20.6524 0.928348 22.2822 1.18141C23.436 1.34893 24.554 1.71268 25.5897 2.2575C26.3585 2.66666 26.9941 3.29472 27.4193 4.06532C27.8298 4.86046 28.0333 5.74968 28.0104 6.64793C27.9983 7.26011 27.9323 7.86994 27.8134 8.47011C27.5609 9.96799 26.9467 11.3782 26.0259 12.5736C25.0669 13.802 23.7271 14.662 22.2259 15.0127C22.7467 15.2136 23.2393 15.4145 23.6615 15.6297C24.0805 15.8274 24.4618 16.0995 24.7874 16.4332C25.1003 16.7762 25.3399 17.1817 25.4911 17.624C25.6875 18.2053 25.7827 18.8171 25.7726 19.4318C25.7547 20.3375 25.6605 21.24 25.4911 22.1292L25.0689 24.4679C24.9843 24.9561 24.9372 25.4502 24.9282 25.9458C24.9282 26.5197 25.1674 26.8353 25.6319 26.8353L25.4911 27.6532H16.6667C16.6191 27.3689 16.6002 27.0804 16.6104 26.7923C16.6104 26.3618 16.6385 25.831 16.7089 25.171C16.7793 24.511 16.8497 23.7649 17.0185 22.9471C17.1411 22.251 17.2023 21.5451 17.2015 20.8379C17.2405 20.4546 17.1805 20.0676 17.0274 19.7152C16.8744 19.3628 16.6336 19.0574 16.3289 18.8292C15.3309 18.3584 14.2299 18.1606 13.1341 18.2553H10.4882ZM11.5156 12.4014H14.9497C16.0382 12.4479 17.1236 12.252 18.1304 11.8275C18.5018 11.6473 18.8221 11.3736 19.061 11.0321C19.2998 10.6907 19.4494 10.2929 19.4956 9.87619C19.5221 9.68616 19.5315 9.49406 19.5237 9.30228C19.5421 8.97121 19.4735 8.64114 19.325 8.34607C19.1766 8.051 18.9537 7.80161 18.6793 7.62358C18.0094 7.22651 17.2442 7.02776 16.4697 7.04967H12.3882L11.5156 12.4014ZM40.2267 8.12576H47.2637L46.743 11.1675C47.6809 10.094 48.7837 9.18303 50.0082 8.47011C51.2089 7.84348 52.5441 7.53276 53.8926 7.56619C55.6221 7.40887 57.3424 7.95563 58.6778 9.08706C59.2102 9.68597 59.6171 10.3893 59.8737 11.1541C60.1302 11.9189 60.2309 12.729 60.1697 13.5349C60.1684 14.3431 60.0978 15.1497 59.9585 15.9453L57.9459 27.6245H50.2756L52.063 17.3227C52.1346 16.8961 52.1722 16.4642 52.1756 16.0314C52.2012 15.4311 52.0385 14.838 51.7111 14.3384C51.5004 14.092 51.2338 13.9018 50.9346 13.7843C50.6354 13.6668 50.3125 13.6255 49.9941 13.664C49.5111 13.622 49.0251 13.6961 48.5753 13.8805C48.1255 14.0649 47.7244 14.3545 47.4045 14.7258C46.7897 15.5979 46.4023 16.6149 46.2785 17.6814L44.5897 27.6101H36.9052L40.2267 8.12576ZM67.3896 28.141V28.2271C67.3911 28.3673 67.4205 28.5058 67.4762 28.6341C67.5319 28.7623 67.6125 28.8777 67.7134 28.9732C67.9289 29.1609 68.1802 29.3012 68.4515 29.3851C68.7227 29.4691 69.0081 29.4949 69.2896 29.461C69.7423 29.4933 70.1968 29.4339 70.6268 29.2861C71.0568 29.1384 71.4538 28.9052 71.7948 28.6001C72.4805 27.7654 72.9067 26.7415 73.0193 25.6588L73.3008 24.0805C72.5896 24.6872 71.7924 25.1806 70.9363 25.544C69.8079 25.9946 68.6008 26.2046 67.3896 26.161C66.3445 26.1765 65.3066 25.9815 64.3356 25.5871C63.5119 25.2483 62.7682 24.7347 62.1541 24.0805C61.5573 23.4204 61.1062 22.6377 60.8311 21.7849C60.5378 20.8583 60.3952 19.8889 60.4089 18.9153C60.4045 18.5895 60.4186 18.2638 60.4511 17.9397L60.5919 16.9353C60.7944 15.7009 61.1442 14.4963 61.6334 13.3484C62.1264 12.1855 62.8119 11.1178 63.66 10.1918C64.5417 9.24278 65.5925 8.47344 66.7563 7.92489C68.0692 7.32344 69.4974 7.02929 70.9363 7.06402C72.0471 7.03691 73.1435 7.32502 74.103 7.89619C75.0092 8.44658 75.7645 9.22142 76.2985 10.1488L76.7208 7.60924H83.4763L80.76 23.3058C80.5329 24.6869 80.2227 26.0526 79.8311 27.3949C79.4589 28.6214 78.8244 29.7485 77.9734 30.6949C77.0249 31.7089 75.8452 32.4679 74.5393 32.9045C71.2824 33.8261 67.8572 33.9441 64.5467 33.2488C63.548 33.0204 62.5957 32.6175 61.7319 32.0579C61.0686 31.629 60.5217 31.0369 60.1415 30.3362C59.8222 29.717 59.6578 29.027 59.663 28.3275V28.0836H67.4037L67.3896 28.141ZM71.9497 12.5736C71.4415 12.5653 70.9391 12.6835 70.4859 12.9179C70.0673 13.1397 69.702 13.4533 69.4163 13.8362C69.0979 14.271 68.8508 14.7555 68.6845 15.271C68.4962 15.8317 68.3549 16.4077 68.2622 16.9927C68.2622 17.1792 68.22 17.3514 68.22 17.4949L68.1919 17.9253C68.171 18.6382 68.3677 19.34 68.7548 19.934C68.9749 20.2252 69.2624 20.4563 69.5915 20.6065C69.9206 20.7568 70.2811 20.8215 70.6408 20.7949H70.8237C71.3257 20.8031 71.8225 20.69 72.2734 20.4649C72.7047 20.2504 73.0879 19.9476 73.3993 19.5753C73.7099 19.1853 73.9613 18.7501 74.1452 18.284C74.3442 17.7984 74.4951 17.2937 74.5956 16.7775C74.6651 16.3653 74.6981 15.9475 74.6941 15.5292C74.7151 14.7809 74.5087 14.0442 74.103 13.4201C73.857 13.1108 73.5384 12.8698 73.1768 12.7193C72.8152 12.5688 72.4221 12.5138 72.0341 12.5592H71.9497V12.5736ZM26.9126 27.6101L31.2756 11.7988H36.8489L34.5971 27.6101H26.9126Z" fill="#0073AE"/>
<path d="M101.463 11.2947C101.466 11.208 101.475 11.1216 101.492 11.0365C101.499 10.9554 101.499 10.8737 101.492 10.7926C101.527 10.2928 101.458 9.79107 101.288 9.32091C101.118 8.85074 100.852 8.42304 100.506 8.06648C99.7212 7.39724 98.7127 7.06311 97.6916 7.13387C96.9693 7.13265 96.2563 7.30013 95.6073 7.62345C94.9584 7.94678 94.3907 8.41736 93.9479 8.99909C92.7708 10.618 92.0286 12.522 91.7945 14.523C91.696 14.9821 91.6256 15.4413 91.5834 15.8717C91.5357 16.286 91.5122 16.7028 91.5131 17.12C91.5023 17.6995 91.5638 18.278 91.696 18.8417C91.8213 19.3321 92.0521 19.7879 92.3716 20.176C92.7136 20.5833 93.1486 20.8987 93.6382 21.0943C94.2577 21.3349 94.918 21.4471 95.5805 21.4243C96.1673 21.4508 96.7533 21.3551 97.3026 21.1429C97.8519 20.9308 98.353 20.6067 98.7753 20.1904C99.5984 19.334 100.203 18.2845 100.535 17.1343H108.472C108.041 18.7089 107.361 20.2015 106.46 21.5534C105.616 22.8219 104.569 23.9373 103.363 24.8534C102.146 25.7571 100.791 26.4503 99.3523 26.9052C96.2472 27.8633 92.9348 27.8733 89.8242 26.9339C88.5149 26.5158 87.3065 25.8217 86.2775 24.8965C85.309 23.998 84.5575 22.8833 84.0819 21.6395C83.5602 20.2577 83.3022 18.787 83.3219 17.3065C83.3219 16.8473 83.3501 16.3595 83.3923 15.8717C83.4345 15.3839 83.5331 14.8386 83.6175 14.2934C83.9351 12.3505 84.5879 10.4803 85.5457 8.76952C86.4296 7.19566 87.5722 5.78825 88.9234 4.60865C90.227 3.43741 91.723 2.50972 93.3427 1.86822C94.9627 1.24734 96.6786 0.926644 98.4094 0.92126C102.069 0.92126 104.808 1.7343 106.629 3.36039C107.546 4.22758 108.264 5.29082 108.731 6.474C109.198 7.65717 109.403 8.93101 109.331 10.2043V10.7352C109.327 10.9128 109.313 11.0901 109.289 11.266H101.463V11.2947ZM117.339 19.0426L117.283 19.4156C117.275 19.5494 117.275 19.6836 117.283 19.8173C117.266 20.2359 117.339 20.6531 117.497 21.0398C117.655 21.4265 117.894 21.7732 118.198 22.0556C118.831 22.619 119.651 22.9164 120.492 22.8878C121.107 22.885 121.714 22.7377 122.265 22.4573C122.841 22.1661 123.328 21.7195 123.672 21.166H131.033C130.538 22.3191 129.82 23.3586 128.922 24.2221C128.055 25.036 127.073 25.7131 126.009 26.2308C124.943 26.7332 123.816 27.0901 122.659 27.2926C121.52 27.4898 120.366 27.5858 119.211 27.5795C117.926 27.5943 116.647 27.4204 115.411 27.063C114.319 26.7576 113.3 26.2305 112.413 25.5134C111.573 24.827 110.899 23.9532 110.443 22.9595C109.957 21.8703 109.716 20.6838 109.739 19.4873C109.745 19.1515 109.768 18.8162 109.809 18.483C109.809 18.1673 109.866 17.823 109.922 17.4787C110.174 15.9435 110.714 14.4723 111.512 13.1456C112.28 11.8751 113.267 10.757 114.426 9.84561C115.583 8.93126 116.882 8.21858 118.268 7.73648C119.699 7.23777 121.202 6.98563 122.715 6.99039C124.118 6.96693 125.514 7.1952 126.839 7.66474C127.954 8.06774 128.975 8.70294 129.837 9.52995C130.655 10.3418 131.28 11.333 131.666 12.4282C132.101 13.6217 132.32 14.8856 132.314 16.1587C132.297 17.1228 132.193 18.0833 132.004 19.0282H117.339V19.0426ZM124.981 15.1113C125.01 14.931 125.024 14.7487 125.023 14.566C125.032 14.1931 124.965 13.8224 124.827 13.4769C124.689 13.1314 124.483 12.8184 124.221 12.5573C123.955 12.2885 123.638 12.0774 123.29 11.9369C122.942 11.7963 122.569 11.7292 122.195 11.7395C121.18 11.6858 120.181 12.0068 119.38 12.6434C118.64 13.2651 118.141 14.1347 117.972 15.0969H124.967L124.981 15.1113ZM134.791 8.13822H141.828L141.293 11.18C142.24 10.1042 143.352 9.19312 144.586 8.48256C145.791 7.85302 147.132 7.5422 148.485 7.57865C150.205 7.42906 151.914 7.97536 153.242 9.09952C153.779 9.69608 154.191 10.3984 154.453 11.1633C154.714 11.9282 154.819 12.7395 154.762 13.5473C154.756 14.356 154.681 15.1625 154.537 15.9578L152.566 27.6369H144.854L146.613 17.3352C146.687 16.9088 146.724 16.4768 146.726 16.0439C146.751 15.4435 146.589 14.8505 146.261 14.3508C146.049 14.1071 145.782 13.9196 145.483 13.8046C145.184 13.6896 144.861 13.6506 144.544 13.6908C144.061 13.6488 143.575 13.7229 143.125 13.9073C142.676 14.0918 142.275 14.3813 141.955 14.7526C141.353 15.6293 140.976 16.6452 140.857 17.7082L139.168 27.6369H131.469L134.791 8.13822ZM166.739 27.4647C165.895 27.5365 165.092 27.5795 164.346 27.6082C163.6 27.6369 162.939 27.6369 162.334 27.6369C161.36 27.6456 160.387 27.5881 159.42 27.4647C158.761 27.4021 158.12 27.207 157.535 26.8908C157.094 26.6254 156.749 26.2231 156.549 25.743C156.339 25.1702 156.244 24.5605 156.268 23.9495C156.269 23.4462 156.298 22.9433 156.352 22.443C156.409 21.8691 156.493 21.2665 156.634 20.6065L158.041 12.4713H155.297L156.057 7.99474H158.9L159.969 1.93996H167.541L166.472 8.00909H170.173L169.427 12.4856H165.74L164.515 19.5734L164.403 20.1473C164.38 20.3233 164.371 20.5008 164.375 20.6782C164.355 20.8685 164.383 21.0607 164.457 21.2365C164.531 21.4123 164.648 21.5659 164.797 21.6826C165.325 21.9277 165.908 22.0267 166.486 21.9695H167.696L166.739 27.4647ZM171.721 8.15256H178.702L178.026 12.0839H178.111C178.677 10.7453 179.616 9.60584 180.812 8.80735C182.008 8.00886 183.408 7.58656 184.838 7.593C185.003 7.59112 185.167 7.60071 185.331 7.62169L185.823 7.70778L184.458 15.4556C184.219 15.3839 183.966 15.3408 183.712 15.3121C183.448 15.2607 183.179 15.2319 182.91 15.226C181.546 15.149 180.204 15.5999 179.152 16.4887C178.057 17.7097 177.38 19.2606 177.224 20.9078L176.098 27.6513H168.4L171.721 8.15256ZM196.112 27.6656L196.069 24.9969C194.982 25.9432 193.718 26.6557 192.354 27.0917C191.049 27.4656 189.698 27.6492 188.343 27.6369C187.565 27.6353 186.79 27.539 186.035 27.35C185.343 27.1932 184.688 26.9008 184.106 26.4891C183.565 26.1052 183.117 25.5996 182.798 25.0113C182.461 24.3624 182.296 23.6356 182.319 22.9021C182.322 22.5168 182.36 22.1326 182.432 21.7543C182.598 20.4603 183.165 19.2541 184.05 18.3108C184.872 17.4886 185.855 16.8529 186.935 16.4456C188.056 16.0116 189.223 15.7131 190.412 15.556L193.818 15.1256C194.71 15.0142 195.591 14.8222 196.449 14.5517C196.763 14.4911 197.052 14.3355 197.278 14.1051C197.504 13.8748 197.657 13.5804 197.716 13.2604C197.712 13.2223 197.712 13.1837 197.716 13.1456C197.724 13.0981 197.724 13.0496 197.716 13.0021C197.723 12.8769 197.705 12.7515 197.664 12.6333C197.623 12.5151 197.559 12.4064 197.477 12.3134C197.3 12.1407 197.089 12.0087 196.858 11.926C196.616 11.8374 196.366 11.7748 196.112 11.7395C195.893 11.7061 195.672 11.6869 195.45 11.6821C195.158 11.6836 194.867 11.7028 194.578 11.7395C194.274 11.7748 193.979 11.8621 193.705 11.9978C193.421 12.1426 193.164 12.3368 192.945 12.5717C192.696 12.8561 192.526 13.2027 192.452 13.576H185.063C185.211 12.585 185.561 11.6367 186.091 10.7926C186.656 9.93459 187.413 9.22631 188.3 8.72648C189.399 8.10958 190.587 7.67375 191.819 7.43517C193.442 7.11999 195.093 6.97575 196.745 7.00474C198.188 6.97464 199.631 7.08998 201.052 7.34909C201.991 7.51372 202.89 7.86469 203.698 8.38213C204.288 8.76028 204.753 9.30998 205.035 9.96039C205.294 10.6268 205.423 11.3384 205.415 12.0552C205.411 12.5351 205.378 13.0143 205.316 13.49C205.26 14.0065 205.175 14.523 205.077 15.0682L203.529 24.1791C203.464 24.5246 203.426 24.8749 203.416 25.2265C203.41 25.4733 203.458 25.7185 203.557 25.9439C203.705 26.2123 203.896 26.4545 204.12 26.6613L204.092 27.6656H196.14H196.112ZM192.565 23.2465C193.176 23.2591 193.782 23.1316 194.338 22.8734C194.828 22.6383 195.261 22.2953 195.605 21.8691C195.961 21.4053 196.232 20.8806 196.407 20.3195C196.614 19.7154 196.756 19.0899 196.829 18.4543C196.15 18.7448 195.442 18.9613 194.718 19.1L192.776 19.5304C192.224 19.6778 191.7 19.9205 191.228 20.2478C191.007 20.4042 190.822 20.6066 190.683 20.8415C190.545 21.0765 190.457 21.3387 190.426 21.6108V21.826C190.42 22.0306 190.467 22.2331 190.56 22.414C190.654 22.5949 190.792 22.7482 190.96 22.8591C191.45 23.1498 192.015 23.2801 192.579 23.2321L192.565 23.2465ZM205.4 27.6369L210.017 0.835173H217.701L213.085 27.6082H205.4V27.6369ZM39.6079 4.72343C39.5737 4.65919 39.5362 4.59692 39.4953 4.53691C39.3278 4.31737 39.1392 4.11549 38.9323 3.9343C38.1265 3.25128 37.1534 2.80487 36.1175 2.643C35.5139 2.53218 34.898 2.50803 34.2879 2.57126C33.4773 2.63635 32.6992 2.92391 32.036 3.40343C31.996 3.42852 31.9583 3.45734 31.9234 3.48952C31.7531 3.65613 31.5262 3.74916 31.2901 3.74916C31.054 3.74916 30.8271 3.65613 30.6568 3.48952C30.5725 3.40536 30.5056 3.3049 30.4599 3.19404C30.4142 3.08317 30.3906 2.96412 30.3906 2.84387C30.3906 2.72361 30.4142 2.60457 30.4599 2.4937C30.5056 2.38283 30.5725 2.28238 30.6568 2.19822C31.626 1.35632 32.8346 0.853443 34.1049 0.763434C34.8845 0.685545 35.6709 0.719352 36.4412 0.863869C37.412 0.976787 38.3457 1.30989 39.1737 1.83872C40.0018 2.36755 40.7032 3.07869 41.2264 3.91996C41.2801 4.02544 41.3129 4.1407 41.3229 4.25912C41.3328 4.37754 41.3198 4.4968 41.2845 4.61008C41.2492 4.72336 41.1923 4.82843 41.1172 4.91928C41.042 5.01013 40.95 5.08497 40.8464 5.13952C40.745 5.19178 40.6355 5.22576 40.5227 5.23996C40.3405 5.25771 40.1573 5.21934 39.9967 5.12982C39.8361 5.0403 39.7056 4.90374 39.6219 4.73778L39.6079 4.72343ZM37.356 6.81822C37.3394 6.79088 37.3253 6.76207 37.3138 6.73213C37.2179 6.61049 37.1094 6.49984 36.9901 6.40213C36.5392 6.02007 35.9938 5.77188 35.4138 5.68474C35.0797 5.62175 34.7385 5.60726 34.4005 5.64169C33.9532 5.68215 33.525 5.84581 33.1619 6.11517C33.1513 6.12333 33.1418 6.13299 33.1338 6.14387C32.9915 6.28756 32.7993 6.36817 32.599 6.36817C32.3987 6.36817 32.2065 6.28756 32.0642 6.14387C31.9948 6.07324 31.9398 5.98937 31.9022 5.89705C31.8647 5.80473 31.8454 5.70577 31.8454 5.60582C31.8454 5.50588 31.8647 5.40692 31.9022 5.3146C31.9398 5.22228 31.9948 5.13841 32.0642 5.06778C32.6746 4.52903 33.4402 4.2068 34.2456 4.14952C34.7245 4.10186 35.2075 4.12117 35.6812 4.20691C36.2958 4.27777 36.8868 4.48865 37.4106 4.82394C37.9344 5.15923 38.3775 5.61034 38.7071 6.14387C38.7894 6.32486 38.7987 6.53158 38.7329 6.71946C38.667 6.90734 38.5314 7.06132 38.3553 7.14822C38.2684 7.19679 38.1725 7.22612 38.0738 7.2343C37.9259 7.25127 37.7764 7.22361 37.6438 7.15475C37.5112 7.08588 37.4013 6.97884 37.3279 6.84691L37.356 6.81822ZM36.7227 8.68343C36.786 9.09504 36.724 9.51654 36.5451 9.89112C36.3661 10.2657 36.0788 10.5754 35.7219 10.7783C35.365 10.9813 34.9557 11.0679 34.549 11.0263C34.1424 10.9848 33.758 10.8171 33.4477 10.546C33.1374 10.2748 32.9161 9.91323 32.8136 9.5099C32.7111 9.10657 32.7324 8.68091 32.8746 8.2903C33.0168 7.89968 33.273 7.5629 33.6088 7.32533C33.9445 7.08777 34.3436 6.96086 34.7523 6.96169C34.9927 6.94211 35.2346 6.97118 35.4639 7.04723C35.6933 7.12327 35.9056 7.2448 36.0887 7.40481C36.2719 7.56482 36.4221 7.76016 36.5309 7.9796C36.6397 8.19903 36.7049 8.43823 36.7227 8.68343ZM219.869 3.80517C220.091 3.28737 220.412 2.81933 220.812 2.42778C221.43 1.83254 222.202 1.42985 223.038 1.26716C223.873 1.10447 224.736 1.18856 225.526 1.50952C226.04 1.72292 226.508 2.03463 226.906 2.42778C227.298 2.81733 227.613 3.28006 227.835 3.79082C228.072 4.33221 228.192 4.91952 228.186 5.51256C228.194 6.10432 228.079 6.69103 227.849 7.2343C227.626 7.74438 227.311 8.20688 226.92 8.59735C226.528 8.99122 226.064 9.30316 225.555 9.51561C225.018 9.73801 224.444 9.85016 223.866 9.84561C223.297 9.84988 222.734 9.74272 222.205 9.52995C221.164 9.10667 220.33 8.28163 219.883 7.2343C219.653 6.69077 219.538 6.10424 219.545 5.51256C219.539 4.93026 219.654 4.3533 219.883 3.81952L219.869 3.80517ZM220.572 6.96169C220.742 7.40038 220.996 7.80031 221.318 8.13822C221.638 8.47519 222.021 8.7435 222.444 8.92735C222.889 9.11978 223.368 9.21743 223.852 9.2143C224.554 9.22117 225.242 9.01099 225.825 8.61144C226.408 8.2119 226.858 7.64173 227.117 6.97604C227.306 6.50737 227.402 6.00499 227.398 5.49822C227.398 5.0057 227.303 4.51806 227.117 4.06343C226.945 3.63444 226.691 3.24435 226.371 2.91561C226.041 2.57237 225.647 2.30023 225.211 2.11538C224.776 1.93052 224.309 1.83671 223.838 1.83952C223.354 1.83639 222.875 1.93404 222.43 2.12648C222.01 2.30802 221.63 2.5727 221.311 2.90519C220.992 3.23767 220.741 3.63135 220.572 4.06343C220.387 4.51828 220.292 5.00578 220.291 5.49822C220.288 6.00492 220.384 6.50715 220.572 6.97604V6.96169ZM224.119 2.973C224.592 2.93389 225.063 3.06043 225.456 3.33169C225.604 3.46802 225.719 3.63736 225.792 3.82651C225.866 4.01566 225.895 4.2195 225.878 4.42213C225.893 4.60793 225.867 4.79482 225.801 4.96878C225.736 5.14273 225.632 5.29921 225.498 5.42648C225.228 5.64453 224.899 5.77452 224.555 5.79952L226.005 8.03778H225.16L223.781 5.85691H222.965V8.03778H222.177V2.973H224.147H224.119ZM223.781 5.22561H224.274C224.42 5.21257 224.563 5.17373 224.696 5.11082C224.814 5.05602 224.912 4.9659 224.978 4.85256C225.069 4.71736 225.118 4.5574 225.118 4.39343C225.121 4.2511 225.081 4.11125 225.006 3.99169C224.944 3.88877 224.857 3.80454 224.752 3.74778C224.642 3.69003 224.523 3.65125 224.4 3.633C224.261 3.61237 224.12 3.60278 223.978 3.6043H222.965V5.21126H223.781V5.22561Z" fill="#FF8800"/>
</g>
<defs>
<clipPath id="clip0_670_119">
<rect width="228" height="33" fill="white" transform="translate(0.171875 0.75)"/>
</clipPath>
</defs>
</svg>
