<svg width="46" height="46" viewBox="0 0 46 46" fill="none" xmlns="http://www.w3.org/2000/svg">
<g clip-path="url(#clip0_492_193)">
<path d="M18.2324 9.96919C18.9994 9.8477 19.5228 9.12736 19.4013 8.36027C19.2798 7.59318 18.5595 7.06983 17.7924 7.19132C13.1792 7.92198 9.56109 11.5401 8.83042 16.1533C8.70893 16.9204 9.23229 17.6407 9.99937 17.7622C10.7665 17.8837 11.4868 17.3603 11.6083 16.5932C12.1484 13.1835 14.8226 10.5092 18.2324 9.96919Z" fill="#0C51A2"/>
<path fill-rule="evenodd" clip-rule="evenodd" d="M21.354 1.43359C11.2575 1.43359 3.07275 9.61839 3.07275 19.7148C3.07275 29.8113 11.2575 37.9961 21.354 37.9961C31.4505 37.9961 39.6353 29.8113 39.6353 19.7148C39.6353 9.61839 31.4505 1.43359 21.354 1.43359ZM5.88525 19.7148C5.88525 11.1717 12.8109 4.24609 21.354 4.24609C29.8972 4.24609 36.8228 11.1717 36.8228 19.7148C36.8228 28.258 29.8972 35.1836 21.354 35.1836C12.8109 35.1836 5.88525 28.258 5.88525 19.7148Z" fill="#0C51A2"/>
<path d="M37.3485 33.7207C36.7993 33.1715 35.9089 33.1715 35.3598 33.7206C34.8106 34.2698 34.8106 35.1602 35.3598 35.7094L42.8596 43.2093C43.4087 43.7585 44.2991 43.7585 44.8483 43.2093C45.3975 42.6601 45.3975 41.7697 44.8483 41.2206L37.3485 33.7207Z" fill="#0C51A2"/>
</g>
<defs>
<clipPath id="clip0_492_193">
<rect width="45" height="45" fill="white" transform="translate(0.729004 0.964844)"/>
</clipPath>
</defs>
</svg>
