<svg width="229" height="34" viewBox="0 0 229 34" fill="none" xmlns="http://www.w3.org/2000/svg">
<g clip-path="url(#clip0_679_818)">
<path d="M9.10308 17.9733L21.9532 5.07121C22.8213 4.20329 23.9959 3.71608 25.2204 3.71608C26.4449 3.71608 27.6195 4.20329 28.4876 5.07121L29.4863 6.07496L31.4881 4.06288L30.4895 3.05454C29.0892 1.65009 27.1918 0.861328 25.2136 0.861328C23.2354 0.861328 21.3379 1.65009 19.9376 3.05454L7.09668 15.9612L9.10308 17.9733Z" fill="black"/>
<path d="M26.2576 9.32036L24.2557 7.30828L11.4011 20.2287C10.5328 21.1009 9.35528 21.5906 8.12769 21.5902C6.9001 21.5898 5.72296 21.0992 4.85522 20.2264C3.98749 19.3536 3.50024 18.1701 3.50067 16.9362C3.50109 15.7024 3.98916 14.5192 4.8575 13.647L15.9474 2.50036L13.9456 0.488281L2.85566 11.6349C2.14968 12.3281 1.58754 13.1551 1.20181 14.0682C0.816078 14.9813 0.614426 15.9622 0.608532 16.9541C0.602637 17.9461 0.792618 18.9293 1.16747 19.8469C1.54232 20.7646 2.09459 21.5983 2.79229 22.2999C3.48999 23.0014 4.31925 23.5569 5.23204 23.9341C6.14482 24.3112 7.123 24.5026 8.10989 24.4971C9.09678 24.4916 10.0728 24.2894 10.9814 23.902C11.8899 23.5147 12.713 22.9501 13.4029 22.2408L26.2576 9.32036ZM39.0529 11.6349C37.6521 10.2316 35.7549 9.44362 33.777 9.44362C31.7992 9.44362 29.902 10.2316 28.5011 11.6349L15.6465 24.5554L17.6483 26.5674L30.5029 13.647C31.1505 12.9975 31.975 12.5554 32.8724 12.3765C33.7698 12.1977 34.6998 12.2902 35.5449 12.6424C36.39 12.9945 37.1124 13.5905 37.6207 14.355C38.129 15.1195 38.4005 16.0183 38.4009 16.9379C38.4032 17.5504 38.2834 18.1573 38.0484 18.7225C37.8134 19.2877 37.4681 19.7999 37.0329 20.2287L25.9566 31.3754L27.963 33.3874L39.0529 22.2408C40.4502 20.8333 41.235 18.9262 41.235 16.9379C41.235 14.9495 40.4502 13.0424 39.0529 11.6349Z" fill="black"/>
<path d="M32.8066 15.9023L19.952 28.8182C19.0827 29.6892 17.9053 30.1783 16.6779 30.1783C15.4504 30.1783 14.2731 29.6892 13.4038 28.8182L12.4052 27.8098L10.4033 29.8219L11.402 30.8303C12.8028 32.2336 14.7 33.0216 16.6779 33.0216C18.6557 33.0216 20.5529 32.2336 21.9538 30.8303L34.8084 17.9053L32.8066 15.9023Z" fill="black"/>
<path d="M52.9753 20.4111C53.1068 21.1774 53.5223 21.8652 54.1381 22.3361C54.8445 22.8273 55.6924 23.0705 56.5503 23.0281C57.367 23.0805 58.1754 22.8383 58.8303 22.3452C59.0914 22.1269 59.2994 21.8516 59.4385 21.5403C59.5775 21.2289 59.644 20.8897 59.6329 20.5486C59.6421 20.2295 59.5682 19.9135 59.4186 19.6319C59.2687 19.3763 59.0628 19.1585 58.8166 18.9948C58.523 18.7989 58.2038 18.6446 57.8682 18.5365L56.6005 18.1515L55.3921 17.8215C54.7222 17.6431 54.0703 17.4022 53.445 17.1019C52.9081 16.8467 52.4118 16.5131 51.9721 16.1119C51.5799 15.7459 51.2691 15.3008 51.0601 14.8056C50.837 14.2609 50.7284 13.6758 50.7409 13.0869C50.7344 12.4344 50.8747 11.7889 51.1513 11.1986C51.4179 10.6241 51.8127 10.119 52.305 9.72273C52.8465 9.28709 53.4655 8.9589 54.129 8.75565C54.9043 8.50871 55.7143 8.38953 56.5275 8.40273C58.2026 8.40273 59.5295 8.79995 60.5084 9.5944C60.9936 9.98708 61.3959 10.4731 61.6919 11.024C61.9878 11.5749 62.1715 12.1796 62.2321 12.8027L59.4961 13.0273C59.3607 12.3963 59.0088 11.8333 58.502 11.4369C57.8876 11.0241 57.1558 10.8245 56.4181 10.8686C55.7219 10.8274 55.0333 11.0317 54.471 11.4461C54.2463 11.622 54.0658 11.8484 53.9439 12.1071C53.8219 12.3657 53.762 12.6495 53.7687 12.9356C53.7575 13.2407 53.8284 13.5431 53.9739 13.8111C54.1206 14.0584 54.3219 14.2685 54.5622 14.4252C54.8551 14.6167 55.1706 14.7707 55.5015 14.8836C55.8709 15.0211 56.2904 15.1677 56.7555 15.319L57.9138 15.6811C58.6342 15.9102 59.2863 16.1486 59.87 16.3961C60.4068 16.6255 60.9063 16.9345 61.352 17.3127C61.7537 17.6545 62.0746 18.082 62.2914 18.564C62.526 19.1328 62.6379 19.7452 62.6197 20.3606C62.6273 21.0801 62.4713 21.7918 62.1637 22.4415C61.8669 23.0655 61.4336 23.6139 60.896 24.0456C60.3183 24.5048 59.6613 24.8528 58.958 25.0723C58.1566 25.3228 57.3211 25.445 56.4819 25.4344C54.9979 25.49 53.5338 25.0764 52.2958 24.2519C51.7179 23.8315 51.234 23.2942 50.8751 22.6746C50.5162 22.0549 50.2903 21.3667 50.2119 20.654L52.9753 20.4111ZM74.1565 8.44857C75.3035 8.43365 76.4423 8.64544 77.5081 9.0719C78.4815 9.46376 79.36 10.0608 80.0845 10.8227C80.8114 11.5997 81.3745 12.5164 81.7398 13.5177C82.1408 14.6184 82.3401 15.7831 82.328 16.9552C82.3444 18.1489 82.1323 19.3346 81.7033 20.4477C81.3034 21.4595 80.6994 22.3771 79.9294 23.1427L82.1 25.6956V26.4886H79.364L77.8455 24.6231C77.2954 24.8877 76.7192 25.0936 76.1264 25.2373C75.4865 25.3748 74.8336 25.4424 74.1793 25.439C73.0191 25.446 71.8691 25.2217 70.7958 24.779C69.8279 24.3846 68.9555 23.786 68.2376 23.0236C67.5195 22.2502 66.9656 21.3379 66.6097 20.3423C66.2164 19.2525 66.0203 18.1007 66.0306 16.9415C66.0192 15.7747 66.2153 14.6152 66.6097 13.5177C66.9678 12.5188 67.5266 11.6045 68.2513 10.8319C68.9739 10.0698 69.8488 9.46995 70.8186 9.0719C71.8781 8.64038 73.0134 8.42836 74.1565 8.44857ZM74.1337 10.9052C73.3808 10.8936 72.6348 11.0501 71.9494 11.3636C71.3198 11.6559 70.7634 12.0867 70.3215 12.624C69.8619 13.1874 69.5151 13.8349 69.3001 14.5306C69.0622 15.3053 68.9453 16.1124 68.9535 16.9231C68.9455 17.7409 69.0671 18.5547 69.3138 19.334C69.5346 20.0361 69.8842 20.6905 70.3443 21.2636C70.7855 21.8074 71.3416 22.2458 71.9722 22.5469C72.6568 22.8626 73.4034 23.0192 74.1565 23.0052C74.9089 23.0126 75.654 22.8562 76.3407 22.5469C76.9691 22.2608 77.5255 21.8363 77.9686 21.3048C78.4342 20.7405 78.7844 20.0895 78.9992 19.389C79.2486 18.5913 79.3718 17.7592 79.364 16.9231C79.371 16.0991 79.2478 15.2792 78.9992 14.494C78.7812 13.7976 78.4313 13.1501 77.9686 12.5873C77.5208 12.0558 76.9619 11.6301 76.3316 11.3406C75.6394 11.036 74.8892 10.8874 74.1337 10.9052ZM93.0759 23.1198C93.5829 23.1512 94.0905 23.0706 94.5632 22.8837C95.0358 22.6969 95.4621 22.4082 95.8119 22.0381C96.4594 21.3201 96.7832 20.217 96.7832 18.729V8.76482H99.6241V18.8206C99.6465 19.8509 99.4923 20.8772 99.1681 21.8548C98.9061 22.6378 98.464 23.3476 97.8776 23.9265C97.2959 24.4801 96.5907 24.8855 95.821 25.109C94.0306 25.6067 92.1394 25.6067 90.349 25.109C89.5822 24.8854 88.88 24.4798 88.3016 23.9265C87.7167 23.3465 87.2748 22.637 87.0111 21.8548C86.6871 20.8772 86.5329 19.8508 86.5551 18.8206V8.76482H89.4051V18.729C89.4051 20.214 89.7304 21.317 90.381 22.0381C90.7259 22.4033 91.1453 22.689 91.6105 22.8757C92.0757 23.0624 92.5757 23.1457 93.0759 23.1198ZM102.47 24.3206L108.238 8.78315H112.515L118.22 24.3206V25.0998H115.415L113.783 20.434H106.747L105.096 25.0998H102.451L102.47 24.3206ZM107.604 17.9956H112.971L112.087 15.4015C111.74 14.3886 111.462 13.5681 111.248 12.9219C111.033 12.2756 110.851 11.7256 110.682 11.2398H109.984L109.711 12.0144C109.62 12.2711 109.519 12.5598 109.405 12.8761C109.291 13.1923 109.168 13.559 109.031 13.9715C108.895 14.384 108.73 14.8561 108.534 15.4015L107.604 17.9956ZM134.152 25.0998H131.416L126.46 18.6831H124.636V25.0998H121.827V8.76482H127.103C127.893 8.76342 128.683 8.8201 129.465 8.9344C130.192 9.04033 130.885 9.30981 131.494 9.72273C132.777 10.5722 133.418 11.8525 133.418 13.5636C133.431 14.2267 133.318 14.8862 133.085 15.5069C132.888 16.0295 132.593 16.5088 132.214 16.9186C131.854 17.3037 131.429 17.6231 130.96 17.8627C130.49 18.1043 129.993 18.2875 129.478 18.4081L134.152 24.3206V25.0998ZM124.627 16.2265H127.094C127.988 16.2743 128.878 16.0678 129.661 15.6306C129.976 15.4188 130.23 15.1261 130.395 14.7828C130.56 14.4396 130.631 14.0582 130.6 13.6781C130.637 13.3009 130.568 12.9208 130.399 12.5818C130.23 12.2428 129.97 11.9586 129.647 11.7623C128.856 11.3667 127.977 11.1806 127.094 11.2215H124.627V16.2265ZM137.773 8.76482H148.298V11.2673H140.546V15.5436H147.741V18.0002H140.559V22.5836H148.457V25.0998H137.773V8.76482ZM154.75 20.4111C154.881 21.1774 155.297 21.8652 155.913 22.3361C156.619 22.8266 157.467 23.0698 158.325 23.0281C159.142 23.0805 159.95 22.8383 160.605 22.3452C160.866 22.1269 161.074 21.8516 161.213 21.5403C161.352 21.2289 161.419 20.8897 161.408 20.5486C161.417 20.2295 161.343 19.9135 161.193 19.6319C161.043 19.3763 160.837 19.1585 160.591 18.9948C160.298 18.7989 159.978 18.6446 159.643 18.5365L158.375 18.1515L157.153 17.8123C156.483 17.6339 155.831 17.393 155.206 17.0927C154.669 16.8376 154.173 16.504 153.733 16.1027C153.341 15.7367 153.03 15.2916 152.821 14.7965C152.596 14.2196 152.488 13.6032 152.503 12.9837C152.519 12.3641 152.658 11.754 152.912 11.1894C153.18 10.6158 153.575 10.1111 154.066 9.71357C154.607 9.27792 155.226 8.94974 155.89 8.74648C156.665 8.49955 157.475 8.38037 158.288 8.39357C159.964 8.39357 161.292 8.79079 162.274 9.58523C162.758 9.97815 163.16 10.4643 163.455 11.0152C163.75 11.5661 163.933 12.1707 163.993 12.7936L161.257 13.0181C161.124 12.3885 160.775 11.8257 160.272 11.4277C159.658 11.0143 158.926 10.8147 158.188 10.8594C157.492 10.8183 156.803 11.0225 156.241 11.4369C156.017 11.6133 155.838 11.8399 155.716 12.0985C155.595 12.3572 155.536 12.6407 155.543 12.9265C155.531 13.2311 155.6 13.5335 155.744 13.8019C155.891 14.0492 156.092 14.2593 156.332 14.4161C156.625 14.6076 156.941 14.7615 157.272 14.8744C157.641 15.0119 158.06 15.1586 158.53 15.3098L159.684 15.6719C160.407 15.9011 161.059 16.1394 161.64 16.3869C162.177 16.6164 162.676 16.9254 163.122 17.3036C163.524 17.6453 163.845 18.0728 164.061 18.5548C164.296 19.1236 164.408 19.736 164.39 20.3515C164.397 21.0709 164.241 21.7826 163.934 22.4323C163.639 23.0573 163.205 23.606 162.666 24.0365C162.087 24.4919 161.431 24.8368 160.728 25.054C159.925 25.3044 159.088 25.4266 158.247 25.4161C156.763 25.471 155.3 25.0575 154.061 24.2336C153.487 23.8143 153.006 23.2796 152.649 22.6633C152.292 22.047 152.066 21.3627 151.987 20.654L154.75 20.4111ZM168.439 8.76482H174.367C175.306 8.74044 176.243 8.87207 177.14 9.1544C177.821 9.36546 178.445 9.73081 178.964 10.2223C179.419 10.6681 179.761 11.2186 179.958 11.8265C180.167 12.4684 180.27 13.1403 180.263 13.8156C180.282 14.5767 180.139 15.3329 179.844 16.034C179.577 16.647 179.162 17.1828 178.635 17.5923C178.059 18.0209 177.406 18.3323 176.711 18.509C175.875 18.7244 175.015 18.8277 174.153 18.8161H171.28V25.0998H168.448L168.439 8.76482ZM171.271 16.364H173.984C174.443 16.3674 174.901 16.326 175.352 16.2402C175.736 16.168 176.103 16.0267 176.437 15.8231C176.745 15.63 176.995 15.3578 177.162 15.0348C177.346 14.6556 177.435 14.2372 177.422 13.8156C177.436 13.3837 177.347 12.9548 177.162 12.5644C177 12.2372 176.752 11.9602 176.446 11.7623C176.118 11.5573 175.755 11.4158 175.375 11.3452C174.924 11.2588 174.466 11.2174 174.007 11.2215H171.248L171.271 16.364ZM181.047 24.3206L186.82 8.78315H191.098L196.798 24.3206V25.0998H194.016L192.388 20.434H185.325L183.697 25.0998H181.047V24.3206ZM186.187 17.9956H191.549L190.664 15.4015C190.318 14.3886 190.04 13.5681 189.83 12.9219L189.265 11.2398H188.544L188.27 12.0144C188.179 12.2711 188.079 12.5598 187.965 12.8761C187.851 13.1923 187.728 13.559 187.591 13.9715C187.454 14.384 187.29 14.8561 187.094 15.4015L186.187 17.9956ZM214.044 20.7777C213.786 21.4168 213.449 22.0205 213.04 22.5744C212.617 23.1422 212.107 23.6402 211.531 24.0502C210.906 24.4914 210.215 24.8287 209.484 25.0494C208.644 25.3022 207.77 25.4259 206.894 25.4161C205.761 25.4333 204.637 25.2165 203.592 24.779C202.635 24.3775 201.773 23.7778 201.061 23.019C200.347 22.2428 199.796 21.3291 199.442 20.3331C199.056 19.2498 198.863 18.1062 198.872 16.9552C198.862 15.8042 199.055 14.6605 199.442 13.5773C199.797 12.5769 200.351 11.6598 201.07 10.8823C201.786 10.1154 202.652 9.50663 203.615 9.09482C204.664 8.65155 205.792 8.43151 206.93 8.44857C208.512 8.39202 210.073 8.8291 211.399 9.69982C212.577 10.5065 213.469 11.6685 213.948 13.0181L211.07 13.5865C210.712 12.7926 210.145 12.1126 209.429 11.6202C208.673 11.128 207.785 10.8786 206.884 10.9052C206.146 10.889 205.414 11.0459 204.746 11.3636C204.131 11.6668 203.59 12.1036 203.163 12.6423C202.715 13.2162 202.381 13.8712 202.178 14.5719C201.946 15.3429 201.83 16.1449 201.836 16.9506C201.83 17.7616 201.948 18.5687 202.188 19.3431C202.402 20.0368 202.747 20.6826 203.204 21.2452C203.651 21.7736 204.206 22.1975 204.832 22.4873C205.514 22.8016 206.257 22.9583 207.008 22.9456C207.94 22.9833 208.858 22.7111 209.62 22.1711C210.292 21.6762 210.839 21.0293 211.216 20.2827L214.044 20.7777ZM217.869 8.76482H228.394V11.2673H220.642V15.5436H227.851V18.0002H220.656V22.5836H228.554V25.0998H217.869V8.76482Z" fill="black"/>
</g>
<defs>
<clipPath id="clip0_679_818">
<rect width="228" height="33" fill="white" transform="translate(0.671875 0.488281)"/>
</clipPath>
</defs>
</svg>
