<svg width="202" height="51" viewBox="0 0 202 51" fill="none" xmlns="http://www.w3.org/2000/svg">
<path d="M42.7553 0.669922H9.21781C4.56521 0.669922 0.798828 4.42647 0.798828 9.06692V42.5168C0.798828 47.1572 4.56521 50.9138 9.21781 50.9138H42.7553C47.4079 50.9138 51.1742 47.1572 51.1742 42.5168V9.06692C51.1742 4.42647 47.4079 0.669922 42.7553 0.669922ZM42.0075 39.147C42.0075 40.6109 40.8167 41.7986 39.3489 41.7986H12.6242C11.1564 41.7986 9.96555 40.6109 9.96555 39.147V12.4644C9.96555 11.0004 11.1564 9.81271 12.6242 9.81271H39.3766C40.8444 9.81271 42.0352 11.0004 42.0352 12.4644V39.147H42.0075Z" fill="#1A1A1A"/>
<path d="M20.6579 32.6005C19.7994 32.6005 19.1348 31.9099 19.1348 31.0813V20.4469C19.1348 19.5907 19.8271 18.9277 20.6579 18.9277H31.3478C32.1786 18.9277 32.871 19.6183 32.871 20.4469V31.0813C32.871 31.9376 32.1786 32.6005 31.3478 32.6005H20.6579Z" fill="#1A1A1A"/>
<path d="M64.5449 31.8831H70.0283C70.3053 35.0043 72.41 37.4074 76.6749 37.4074C80.469 37.4074 82.823 35.5291 82.823 32.7117C82.823 30.06 80.9952 28.8723 77.6996 28.0989L73.4347 27.1874C68.7821 26.1654 65.3204 23.2098 65.3204 18.3484C65.3204 12.9898 70.0837 9.34375 76.2872 9.34375C82.8507 9.34375 87.0602 12.7688 87.4202 17.8512H82.1029C81.466 15.4758 79.4997 14.0671 76.2872 14.0671C72.9085 14.0671 70.5545 15.8901 70.5545 18.2379C70.5545 20.5858 72.5762 21.9945 76.0656 22.7679L80.2751 23.6794C84.9 24.6738 88.0571 27.4636 88.0571 32.3526C88.0571 38.5675 83.3769 42.2688 76.6749 42.2688C69.1698 42.2688 64.988 38.2084 64.5449 31.8831Z" fill="#1A1A1A"/>
<path d="M107.719 50.915V41.7999L108.079 37.8224H107.719C106.473 40.695 103.814 42.2694 100.214 42.2694C94.4257 42.2694 90.1055 37.5738 90.1055 30.3369C90.1055 23.1276 94.4257 18.4043 100.214 18.4043C103.759 18.4043 106.279 20.0616 107.719 22.658H108.079V18.8739H112.842V50.9427H107.719V50.915ZM107.913 30.3369C107.913 25.724 105.088 23.0171 101.626 23.0171C98.1644 23.0171 95.3396 25.6964 95.3396 30.3369C95.3396 34.9497 98.1644 37.6566 101.626 37.6566C105.088 37.6566 107.913 34.9497 107.913 30.3369Z" fill="#1A1A1A"/>
<path d="M116.666 32.7115V18.873H121.789V32.2696C121.789 35.888 123.534 37.6558 126.47 37.6558C130.07 37.6558 132.396 35.087 132.396 31.1095V18.873H137.52V41.8267H132.756V37.0757H132.396C131.261 40.1141 128.796 42.2686 124.974 42.2686C119.491 42.2686 116.666 38.7607 116.666 32.7115Z" fill="#1A1A1A"/>
<path d="M140.646 35.419C140.646 31.11 143.665 28.5964 149.01 28.2926L155.352 27.8783V26.0829C155.352 23.9284 153.773 22.6301 151.004 22.6301C148.429 22.6301 146.905 23.9284 146.518 25.779H141.394C141.92 21.1109 145.798 18.4316 151.004 18.4316C156.903 18.4316 160.503 20.9452 160.503 25.779V41.8272H155.74V37.5735H155.38C154.3 40.3909 152.056 42.2692 147.736 42.2692C143.554 42.2692 140.646 39.4794 140.646 35.419ZM155.352 32.574V31.3586L150.173 31.7177C147.376 31.8834 146.13 32.933 146.13 35.0047C146.13 36.7448 147.57 38.0154 149.592 38.0154C153.22 38.0154 155.352 35.6676 155.352 32.574Z" fill="#1A1A1A"/>
<path d="M164.301 41.8267V18.873H169.064V23.2649H169.424C170.089 20.2541 172.387 18.873 175.821 18.873H178.148V23.4859H175.212C171.889 23.4859 169.424 25.6404 169.424 29.7284V41.8267H164.301Z" fill="#1A1A1A"/>
<path d="M201.606 31.276H184.131C184.408 35.5021 187.371 37.8776 190.639 37.8776C193.436 37.8776 195.181 36.7451 196.178 34.8668H201.246C199.861 39.5349 195.762 42.2694 190.584 42.2694C183.799 42.2694 179.035 37.2147 179.035 30.3369C179.035 23.4867 183.937 18.4043 190.639 18.4043C197.396 18.4043 201.8 23.0171 201.8 28.7624C201.772 29.8949 201.689 30.475 201.606 31.276ZM196.704 27.7404C196.538 24.5639 193.879 22.4094 190.639 22.4094C187.593 22.4094 185.017 24.343 184.38 27.7404H196.704Z" fill="#1A1A1A"/>
</svg>
