<svg width="127" height="97" viewBox="0 0 127 97" fill="none" xmlns="http://www.w3.org/2000/svg">
<path d="M102.22 39.7394C100.939 19.9034 87.1447 0.775391 61.8457 0.775391C38.7067 0.775391 20.8627 17.9744 19.9177 40.9274C7.2577 44.8664 0.345703 58.4144 0.345703 68.2754C0.345703 83.4584 12.9637 96.7754 27.3457 96.7754H46.8457C47.2435 96.7754 47.6251 96.6174 47.9064 96.3361C48.1877 96.0547 48.3457 95.6732 48.3457 95.2754C48.3457 94.8776 48.1877 94.496 47.9064 94.2147C47.6251 93.9334 47.2435 93.7754 46.8457 93.7754H27.3457C14.5597 93.7754 3.3457 81.8594 3.3457 68.2754C3.3457 59.1224 11.3677 42.7754 27.3457 42.7754H31.8457C32.2435 42.7754 32.6251 42.6174 32.9064 42.3361C33.1877 42.0547 33.3457 41.6732 33.3457 41.2754C33.3457 40.8776 33.1877 40.496 32.9064 40.2147C32.6251 39.9334 32.2435 39.7754 31.8457 39.7754H27.3457C25.8187 39.7754 24.3757 39.9464 22.9687 40.1924C24.1447 22.2224 37.8037 3.77539 61.8457 3.77539C87.6097 3.77539 99.3457 23.9924 99.3457 42.7754V47.2754C99.3457 47.6732 99.5037 48.0547 99.785 48.3361C100.066 48.6174 100.448 48.7754 100.846 48.7754C101.244 48.7754 101.625 48.6174 101.906 48.3361C102.188 48.0547 102.346 47.6732 102.346 47.2754V42.7484C111.403 43.7414 123.346 53.4614 123.346 68.2754C123.346 79.7534 112.273 93.7754 99.3457 93.7754H76.8457C67.1317 93.7754 63.3457 89.9894 63.3457 80.2754V39.1244L75.5797 51.3344C75.7179 51.4778 75.8832 51.5923 76.0661 51.6712C76.249 51.7501 76.4458 51.7917 76.6449 51.7937C76.8441 51.7957 77.0417 51.758 77.2261 51.6829C77.4105 51.6077 77.5782 51.4966 77.7192 51.3559C77.8602 51.2153 77.9718 51.048 78.0475 50.8638C78.1232 50.6795 78.1615 50.4821 78.16 50.2829C78.1586 50.0838 78.1175 49.8869 78.0391 49.7038C77.9608 49.5206 77.8468 49.355 77.7037 49.2164L64.3207 35.8604C62.5387 34.0844 61.1557 34.0844 59.3767 35.8604L45.9937 49.2164C45.7205 49.4993 45.5693 49.8782 45.5727 50.2715C45.5761 50.6648 45.7339 51.041 46.012 51.3191C46.2901 51.5972 46.6663 51.755 47.0596 51.7584C47.4529 51.7618 47.8318 51.6106 48.1147 51.3374L60.3457 39.1244V80.2754C60.3457 91.6874 65.4337 96.7754 76.8457 96.7754H99.3457C113.887 96.7754 126.346 81.1034 126.346 68.2754C126.346 52.7744 113.677 40.6514 102.22 39.7394Z" fill="#C0C0C0"/>
</svg>
