<svg width="231" height="53" viewBox="0 0 231 53" fill="none" xmlns="http://www.w3.org/2000/svg">
<g clip-path="url(#clip0_670_122)">
<path d="M11.5837 0.25H0.167969L16.4871 38.4202C16.6403 38.7363 17.0234 38.7363 17.1 38.4202L22.5397 25.3017L11.5837 0.25Z" fill="black"/>
<path d="M46.4443 0.25C46.4443 0.25 28.8993 41.6603 26.6008 45.4536C23.8427 49.8792 22.0805 51.6178 18.7094 52.0919C18.7094 52.0919 18.6328 52.0919 18.6328 52.171C18.6328 52.171 18.6328 52.25 18.7094 52.25H29.2058C33.7261 52.25 37.0206 48.3777 38.8593 44.9005C40.8513 40.9491 58.0132 0.25 58.0132 0.25H46.4443Z" fill="black"/>
<path d="M92.1829 33.4406C92.1829 33.5196 92.1063 33.5196 92.0297 33.4406L83.3721 13.8418H78.4688C78.4688 13.8418 87.4328 34.626 88.3522 36.2065C89.1949 37.7081 90.2676 38.9725 92.1063 38.9725C93.9451 38.9725 95.0177 37.7081 95.8605 36.2065C96.7799 34.626 105.744 13.8418 105.744 13.8418H100.84L92.1829 33.4406Z" fill="black"/>
<path d="M118.693 35.1796C113.942 35.1796 110.878 32.0185 110.878 26.2495C110.878 20.4806 113.942 17.3195 118.693 17.3195C123.366 17.3195 126.507 20.4806 126.507 26.2495C126.507 32.0185 123.366 35.1796 118.693 35.1796ZM118.693 13.2891C111.261 13.2891 106.511 18.2678 106.511 26.2495C106.511 34.3103 111.261 39.2891 118.693 39.2891C126.048 39.2891 130.875 34.3103 130.875 26.2495C130.798 18.1888 126.048 13.2891 118.693 13.2891Z" fill="black"/>
<path d="M155.851 13.8418V38.6564H150.794L139.149 20.4801V38.6564H134.858V13.8418H139.915L151.561 32.0971V13.8418H155.851Z" fill="black"/>
<path d="M167.267 28.4635L171.481 18.348C171.481 18.269 171.557 18.269 171.634 18.348L175.848 28.4635H167.267ZM171.557 13.5273C169.795 13.5273 168.723 14.8708 168.033 16.2933C167.344 17.7158 158.609 38.658 158.609 38.658H163.053L165.581 32.652H177.533L180.062 38.658H184.505C184.505 38.658 175.848 17.7158 175.082 16.2933C174.316 14.9498 173.243 13.5273 171.557 13.5273Z" fill="black"/>
<path d="M196.534 29.0945H204.195C204.195 32.9669 200.671 35.1796 196.994 35.1796C192.32 35.1796 189.332 32.0185 189.332 26.2495C189.332 20.0854 192.167 17.3195 197.3 17.3195C200.518 17.3195 203.199 18.6629 203.736 21.824H208.179C207.413 16.3711 202.51 13.2891 197.07 13.2891C189.792 13.2891 185.118 18.2678 185.118 26.2495C185.118 34.2313 189.792 39.131 197.07 39.131C200.135 39.131 203.199 37.4714 204.349 35.6538V38.6568H208.409V30.9912V25.3012H196.687V29.0945H196.534Z" fill="black"/>
<path d="M230.168 17.9512V13.8418H212.853V38.6564H230.168V34.547H217.143V27.9877H229.172V23.7992H217.143V17.9512H230.168Z" fill="black"/>
</g>
<defs>
<clipPath id="clip0_670_122">
<rect width="230" height="52" fill="white" transform="translate(0.167969 0.25)"/>
</clipPath>
</defs>
</svg>
