<svg width="46" height="47" viewBox="0 0 46 47" fill="none" xmlns="http://www.w3.org/2000/svg">
<path d="M24.4971 13.8659C24.4971 13.072 23.8675 12.4284 23.0908 12.4284C22.3142 12.4284 21.6846 13.072 21.6846 13.8659V33.0326C21.6846 33.8265 22.3142 34.4701 23.0908 34.4701C23.8675 34.4701 24.4971 33.8265 24.4971 33.0326V13.8659Z" fill="#1C5DA1"/>
<path d="M31.9971 21.5326C31.9971 20.7386 31.3675 20.0951 30.5908 20.0951C29.8142 20.0951 29.1846 20.7386 29.1846 21.5326V33.0326C29.1846 33.8265 29.8142 34.4701 30.5908 34.4701C31.3675 34.4701 31.9971 33.8265 31.9971 33.0326V21.5326Z" fill="#1C5DA1"/>
<path d="M16.9971 25.3659C16.9971 24.572 16.3675 23.9284 15.5908 23.9284C14.8142 23.9284 14.1846 24.572 14.1846 25.3659V33.0326C14.1846 33.8265 14.8142 34.4701 15.5908 34.4701C16.3675 34.4701 16.9971 33.8265 16.9971 33.0326V25.3659Z" fill="#1C5DA1"/>
<path fill-rule="evenodd" clip-rule="evenodd" d="M31.4599 4.99886C29.3184 4.76169 26.6192 4.7617 23.1757 4.76172H23.006C19.5625 4.7617 16.8632 4.76169 14.7217 4.99886C12.5363 5.2409 10.7656 5.74367 9.25376 6.86651C8.33849 7.54627 7.53359 8.36906 6.86861 9.30467C5.77018 10.8501 5.27833 12.6602 5.04156 14.8941C4.80954 17.0832 4.80956 19.8425 4.80957 23.3625V23.5359C4.80956 27.056 4.80954 29.8152 5.04156 32.0043C5.27833 34.2383 5.77018 36.0483 6.86861 37.5938C7.53359 38.5294 8.33849 39.3522 9.25376 40.0319C10.7656 41.1548 12.5363 41.6575 14.7217 41.8996C16.8632 42.1367 19.5624 42.1367 23.0058 42.1367H23.1757C26.6191 42.1367 29.3185 42.1367 31.4599 41.8996C33.6453 41.6575 35.416 41.1548 36.9279 40.0319C37.8431 39.3522 38.6481 38.5294 39.313 37.5938C40.4115 36.0483 40.9033 34.2383 41.1401 32.0043C41.3721 29.8153 41.3721 27.0561 41.3721 23.5361V23.3624C41.3721 19.8425 41.3721 17.0832 41.1401 14.8941C40.9033 12.6602 40.4115 10.8501 39.313 9.30467C38.6481 8.36906 37.8431 7.54627 36.9279 6.86651C35.416 5.74367 33.6453 5.2409 31.4599 4.99886ZM10.9069 9.19244C11.8594 8.48502 13.0786 8.07267 15.0247 7.85714C16.9971 7.63869 19.5441 7.63672 23.0908 7.63672C26.6375 7.63672 29.1846 7.63869 31.157 7.85714C33.1031 8.07267 34.3222 8.48502 35.2747 9.19244C35.9512 9.69487 36.5462 10.303 37.0377 10.9946C37.7297 11.9682 38.1331 13.2145 38.3439 15.2038C38.5576 17.22 38.5596 19.8237 38.5596 23.4492C38.5596 27.0747 38.5576 29.6784 38.3439 31.6946C38.1331 33.684 37.7297 34.9302 37.0377 35.9039C36.5462 36.5954 35.9512 37.2036 35.2747 37.706C34.3222 38.4134 33.1031 38.8258 31.157 39.0413C29.1846 39.2597 26.6375 39.2617 23.0908 39.2617C19.5441 39.2617 16.9971 39.2597 15.0247 39.0413C13.0786 38.8258 11.8594 38.4134 10.9069 37.706C10.2304 37.2036 9.63548 36.5954 9.14397 35.9039C8.45193 34.9302 8.04854 33.684 7.8377 31.6946C7.624 29.6784 7.62207 27.0747 7.62207 23.4492C7.62207 19.8237 7.624 17.22 7.8377 15.2038C8.04854 13.2145 8.45193 11.9682 9.14397 10.9946C9.63548 10.303 10.2304 9.69487 10.9069 9.19244Z" fill="#1C5DA1"/>
</svg>
