<svg width="22" height="23" viewBox="0 0 22 23" fill="none" xmlns="http://www.w3.org/2000/svg">
<path d="M12.0193 5.81955C12.0193 5.35805 11.6533 4.98394 11.2019 4.98394C10.7504 4.98394 10.3844 5.35805 10.3844 5.81955V16.961C10.3844 17.4225 10.7504 17.7966 11.2019 17.7966C11.6533 17.7966 12.0193 17.4225 12.0193 16.961V5.81955Z" fill="#1C5DA1"/>
<path d="M16.379 10.2761C16.379 9.81465 16.013 9.44053 15.5616 9.44053C15.1101 9.44053 14.7441 9.81465 14.7441 10.2761V16.961C14.7441 17.4225 15.1101 17.7966 15.5616 17.7966C16.013 17.7966 16.379 17.4225 16.379 16.961V10.2761Z" fill="#1C5DA1"/>
<path d="M7.65961 12.5044C7.65961 12.0429 7.29362 11.6688 6.84216 11.6688C6.3907 11.6688 6.02471 12.0429 6.02471 12.5044V16.961C6.02471 17.4225 6.3907 17.7966 6.84216 17.7966C7.29362 17.7966 7.65961 17.4225 7.65961 16.961V12.5044Z" fill="#1C5DA1"/>
<path fill-rule="evenodd" clip-rule="evenodd" d="M16.0668 0.665195C14.8219 0.527328 13.2529 0.527335 11.2512 0.527344H11.1526C9.15086 0.527335 7.5818 0.527328 6.33695 0.665195C5.0666 0.805888 4.03729 1.09815 3.15846 1.75085C2.62642 2.14599 2.15853 2.62427 1.77198 3.16814C1.13347 4.0665 0.847562 5.11868 0.709928 6.41726C0.575057 7.68977 0.575064 9.2937 0.575073 11.3399V11.4407C0.575064 13.4869 0.575057 15.0908 0.709928 16.3633C0.847562 17.6619 1.13347 18.7141 1.77198 19.6124C2.15853 20.1563 2.62642 20.6346 3.15846 21.0297C4.03729 21.6824 5.0666 21.9747 6.33695 22.1154C7.58178 22.2533 9.15081 22.2533 11.1524 22.2532H11.2512C13.2529 22.2533 14.822 22.2533 16.0668 22.1154C17.3371 21.9747 18.3664 21.6824 19.2453 21.0297C19.7773 20.6346 20.2452 20.1563 20.6318 19.6124C21.2703 18.7141 21.5562 17.6619 21.6938 16.3633C21.8287 15.0908 21.8287 13.4869 21.8287 11.4408V11.3399C21.8287 9.29373 21.8287 7.68975 21.6938 6.41726C21.5562 5.11868 21.2703 4.0665 20.6318 3.16814C20.2452 2.62427 19.7773 2.14599 19.2453 1.75085C18.3665 1.09815 17.3371 0.805888 16.0668 0.665195ZM4.11942 3.1029C4.67311 2.69168 5.3818 2.45198 6.51305 2.3267C7.6596 2.19971 9.14019 2.19857 11.2019 2.19857C13.2635 2.19857 14.7441 2.19971 15.8907 2.3267C17.0219 2.45198 17.7306 2.69168 18.2843 3.1029C18.6776 3.39496 19.0234 3.74847 19.3091 4.15046C19.7114 4.71645 19.9459 5.44089 20.0684 6.59728C20.1927 7.7693 20.1938 9.2828 20.1938 11.3903C20.1938 13.4978 20.1927 15.0113 20.0684 16.1833C19.9459 17.3397 19.7114 18.0641 19.3091 18.6301C19.0234 19.0321 18.6776 19.3856 18.2843 19.6777C17.7306 20.0889 17.0219 20.3286 15.8907 20.4539C14.7441 20.5809 13.2635 20.582 11.2019 20.582C9.14019 20.582 7.6596 20.5809 6.51305 20.4539C5.3818 20.3286 4.67311 20.0889 4.11942 19.6777C3.72618 19.3856 3.38035 19.0321 3.09464 18.6301C2.69236 18.0641 2.45787 17.3397 2.33531 16.1833C2.21109 15.0113 2.20997 13.4978 2.20997 11.3903C2.20997 9.2828 2.21109 7.7693 2.33531 6.59728C2.45787 5.44089 2.69236 4.71645 3.09464 4.15046C3.38035 3.74847 3.72618 3.39496 4.11942 3.1029Z" fill="#1C5DA1"/>
</svg>
