<svg width="235" height="47" viewBox="0 0 235 47" fill="none" xmlns="http://www.w3.org/2000/svg">
<g clip-path="url(#clip0_722_2383)">
<path fill-rule="evenodd" clip-rule="evenodd" d="M37.337 7.96808L38.8161 1.04688H8.11618L4.04715 20.0833L0.594727 35.4129H32.1584L33.761 28.1199H16.2542L17.8569 20.7013H32.6514L34.254 13.7789H19.4583L20.6915 7.96808H37.337Z" fill="#B32541" stroke="#B32541" stroke-width="0.6211" stroke-miterlimit="2.6131"/>
<path fill-rule="evenodd" clip-rule="evenodd" d="M63.1042 20.6995H73.831C74.2104 18.4649 74.9156 15.1312 75.0641 12.4167C75.2351 9.23957 73.9845 6.90058 71.2423 5.36986C67.313 3.18631 61.524 3.3032 57.1867 3.14528C51.2404 2.92891 44.1645 3.69738 40.4188 8.95481C38.4866 11.6668 37.3995 15.8686 36.9726 19.1538C36.4446 23.1628 34.4263 29.89 38.076 33.1827C40.7895 35.6361 46.8606 36.4519 50.3904 36.4034C53.9851 36.3524 57.475 36.1174 61.0085 35.4098L70.255 46.6571H84.68L63.1042 20.6995ZM61.5016 20.9469C60.3221 26.2765 58.7157 30.7605 52.501 30.712C46.2615 30.6659 48.3322 23.9785 48.9263 20.0827C49.7663 14.5467 51.9007 8.74093 58.2963 9.20351C64.7705 9.67354 62.4851 16.5152 61.5016 20.9469Z" fill="#B32541"/>
<path fill-rule="evenodd" clip-rule="evenodd" d="M120.682 4.87891L117.353 20.0842L114.024 35.4138H126.6L133.381 4.87891H120.682Z" fill="#B32541"/>
<path fill-rule="evenodd" clip-rule="evenodd" d="M164.205 10.9359L165.684 4.87891H138.189L131.531 35.4138H144.231L147.066 22.3087H159.519L160.012 20.0842L160.752 16.6223H148.423L149.656 10.9359H164.205Z" fill="#B32541"/>
<path fill-rule="evenodd" clip-rule="evenodd" d="M80.2413 4.87891H93.0637L88.2558 26.5129C87.6679 29.1578 90.1443 30.5368 92.2674 30.7196C94.9984 30.9571 97.4485 29.2474 98.1188 26.3898L103.174 4.88015H115.873L110.818 27.7502C108.653 33.7127 103.639 36.0542 98.1038 36.6386C94.6714 37.0029 91.038 36.6945 87.7615 36.1549L76.4194 22.5562L80.2413 4.87891Z" fill="#B32541"/>
<path fill-rule="evenodd" clip-rule="evenodd" d="M192.684 4.87891H208.835L213.767 12.7912L221.78 4.87891H234.109L217.959 19.0944L228.562 35.4138H212.781L207.602 26.1411L198.726 35.4138H179.863L179.123 28.7375H166.053L161.492 35.4138H152.615L174.067 4.87891H189.479L192.438 29.6017L202.67 20.2073L192.684 4.87891ZM170.246 22.1856L177.149 11.8014L178.382 22.1856H170.246Z" fill="#B32541"/>
</g>
<defs>
<clipPath id="clip0_722_2383">
<rect width="234" height="46" fill="white" transform="translate(0.110352 0.660156)"/>
</clipPath>
</defs>
</svg>
