<svg width="236" height="77" viewBox="0 0 236 77" fill="none" xmlns="http://www.w3.org/2000/svg">
<path d="M37.481 18.3075H28.9084C26.3291 18.3075 24.2808 16.2584 24.2808 13.6781V5.10214C24.2808 2.52177 26.3291 0.472656 28.9084 0.472656H37.481C40.0603 0.472656 42.1086 2.52177 42.1086 5.10214V13.6781C42.1086 16.2584 40.0603 18.3075 37.481 18.3075Z" fill="#426DA9"/>
<path d="M15.253 37.5843H5.61836C2.73555 37.5843 0.383789 35.2317 0.383789 32.4236V22.7093C0.383789 19.8253 2.73555 17.4727 5.61836 17.4727H15.253C18.1358 17.4727 20.4876 19.8253 20.4876 22.7093V32.4236C20.4876 35.3075 18.1358 37.5843 15.253 37.5843Z" fill="#6D2077"/>
<path d="M14.3438 57.697H8.42649C6.68164 57.697 5.24023 56.2551 5.24023 54.5095V48.5899C5.24023 46.8443 6.68164 45.4023 8.42649 45.4023H14.3438C16.0887 45.4023 17.5301 46.8443 17.5301 48.5899V54.5095C17.5301 56.2551 16.0887 57.697 14.3438 57.697Z" fill="#AF1685"/>
<path d="M30.1969 76.3646H23.2175C21.1692 76.3646 19.4243 74.695 19.4243 72.6459V65.6637C19.4243 63.6146 21.0933 61.8691 23.2175 61.8691H30.1969C32.2452 61.8691 33.9901 63.5387 33.9901 65.6637V72.57C33.9901 74.695 32.2452 76.3646 30.1969 76.3646ZM55.7628 21.8734H50.9076C49.4662 21.8734 48.3282 20.735 48.3282 19.293V14.4358C48.3282 12.9939 49.4662 11.8555 50.9076 11.8555H55.7628C57.2042 11.8555 58.3422 12.9939 58.3422 14.4358V19.293C58.4181 20.6591 57.2042 21.8734 55.7628 21.8734Z" fill="#E63888"/>
<path d="M161.67 25.0614C163.187 25.0614 164.477 23.8471 164.477 22.2534C164.477 20.7355 163.263 19.4453 161.67 19.4453C160.153 19.4453 158.863 20.6596 158.863 22.2534C158.863 23.8471 160.153 25.0614 161.67 25.0614Z" fill="#004691"/>
<path d="M59.9375 54.8126C59.4823 55.4956 58.7995 55.7992 58.0409 55.7992C57.5857 55.7992 57.1305 55.7233 56.7512 55.4956C56.1443 55.1162 55.6891 54.2814 55.6891 53.5224C55.6891 53.143 55.765 52.7635 55.9926 52.4599L62.5168 42.2143L56.0684 32.0447C55.8409 31.7411 55.765 31.2857 55.765 30.9063C55.765 30.1473 56.1443 29.3125 56.8271 28.933C57.2064 28.7054 57.5857 28.6295 58.0409 28.6295C58.7995 28.6295 59.5582 28.933 60.0133 29.6161L65.3238 37.9643L70.6342 29.6161C71.0894 28.933 71.848 28.6295 72.6067 28.6295C73.0618 28.6295 73.4412 28.7054 73.8205 28.933C74.5032 29.3125 74.8825 30.1473 74.8825 30.9063C74.8825 31.2857 74.8067 31.7411 74.5791 32.0447L67.9031 42.2143L74.3515 52.384C74.5791 52.6876 74.655 53.0671 74.655 53.4465C74.655 54.2814 74.1998 55.0403 73.5929 55.4197C73.2136 55.6474 72.7584 55.7233 72.3032 55.7233C71.5446 55.7233 70.8618 55.4197 70.4066 54.7367L65.0962 46.4644C65.1721 46.5402 59.9375 54.8126 59.9375 54.8126ZM82.9999 31.817C85.5034 29.5402 88.8414 28.25 92.2552 28.25C99.9174 28.25 106.214 34.3973 106.214 42.0626C106.214 42.1384 106.214 42.1384 106.214 42.2143C106.214 49.8795 99.9933 56.1028 92.2552 56.1028C88.6897 56.1028 85.4276 54.7367 82.9999 52.5358V64.451C82.9999 65.6653 81.9378 66.6519 80.6482 66.6519C79.5102 66.6519 78.3723 65.6653 78.3723 64.451V30.6786C78.3723 29.4643 79.5102 28.4777 80.6482 28.4777C81.862 28.4777 82.9999 29.5402 82.9999 30.6786V31.817ZM92.2552 32.8795C87.0965 32.8795 82.9999 36.9777 82.9999 42.2143C82.9999 47.3751 87.0965 51.4733 92.2552 51.4733C97.4898 51.4733 101.586 47.3751 101.586 42.2143C101.586 36.9777 97.4898 32.8795 92.2552 32.8795ZM145.663 39.7099V53.6742C145.663 54.8885 144.525 55.8751 143.387 55.8751C142.173 55.8751 141.035 54.8885 141.035 53.6742V30.6786C141.035 29.4643 142.097 28.4777 143.387 28.4777C144.449 28.4777 145.587 29.4643 145.663 30.6027C147.56 29.1607 149.987 28.3259 152.642 28.25C154.084 28.25 155.146 29.3884 155.146 30.5268C155.146 31.7411 154.008 32.8795 152.642 32.8795C149.001 33.0313 145.663 34.3215 145.663 39.7099ZM161.746 28.4777C160.532 28.4777 159.394 29.4643 159.394 30.6786V53.6742C159.394 54.8885 160.456 55.8751 161.746 55.8751C162.884 55.8751 164.022 54.8885 164.022 53.6742V30.6786C164.022 29.4643 162.884 28.4777 161.746 28.4777ZM191.029 30.6786C191.029 29.4643 192.091 28.4777 193.381 28.4777C194.519 28.4777 195.657 29.4643 195.657 30.6786V53.6742C195.657 54.8885 194.519 55.8751 193.381 55.8751C192.167 55.8751 191.029 54.8885 191.029 53.6742V52.5358C188.45 54.8126 185.188 56.1028 181.774 56.1028C174.112 56.1028 167.815 49.9554 167.815 42.2902C167.815 42.2143 167.815 42.2143 167.815 42.1384C167.815 34.4732 174.036 28.25 181.774 28.25C185.34 28.25 188.602 29.6161 191.029 31.817V30.6786ZM181.698 51.4733C186.857 51.4733 190.953 47.3751 190.953 42.1384C190.953 37.0536 186.933 32.8795 181.85 32.8795C181.774 32.8795 181.774 32.8795 181.698 32.8795C176.464 32.8795 172.367 36.9777 172.367 42.1384C172.443 47.3751 176.539 51.4733 181.698 51.4733ZM218.947 39.9375C218.947 36.1429 215.609 32.7277 211.74 32.7277C208.023 32.7277 204.533 34.2456 204.533 39.634V53.5983C204.533 54.8126 203.395 55.7992 202.257 55.7992C201.043 55.7992 199.905 54.8126 199.905 53.5983V30.6786C199.905 29.4643 200.967 28.4777 202.257 28.4777C203.319 28.4777 204.457 29.4643 204.533 30.6027C206.505 29.0848 208.933 28.25 211.664 28.25C217.885 28.25 223.499 33.1831 223.499 39.3304V53.6742C223.499 54.8885 222.361 55.8751 221.223 55.8751C220.009 55.8751 218.871 54.8885 218.871 53.6742L218.947 39.9375ZM54.3995 41.3795C54.3236 34.3215 47.9511 28.25 40.5165 28.25C32.7784 28.25 26.5576 34.4732 26.5576 42.1384C26.5576 49.8037 32.7025 56.1028 40.3647 56.1028C40.4406 56.1028 40.4406 56.1028 40.5165 56.1028C44.2338 56.1028 47.7235 54.6608 50.1511 52.1563C50.6063 51.701 50.9856 51.0938 50.9856 50.4108C50.9856 49.1965 49.9235 48.0581 48.6338 48.0581C47.9511 48.0581 47.2683 48.5135 46.8131 48.9688C45.22 50.6385 42.9441 51.3974 40.5165 51.3974C35.8888 51.3974 32.0956 48.2099 31.2611 43.8081H52.0477C52.0477 43.8081 52.0477 43.8081 52.1236 43.8081H52.1994C52.2753 43.8081 52.2753 43.8081 52.3511 43.8081C52.427 43.8081 52.5029 43.8081 52.5787 43.7322C53.7167 43.4286 54.3995 42.442 54.3995 41.3795ZM40.5923 32.8036C44.7648 32.8036 48.2545 35.4598 49.4683 39.2545H31.6405C32.8543 35.5357 36.344 32.8036 40.5923 32.8036ZM137.242 41.3795C137.166 34.3215 130.794 28.25 123.359 28.25C115.621 28.25 109.4 34.4732 109.4 42.1384C109.4 49.8037 115.545 56.1028 123.207 56.1028C123.283 56.1028 123.283 56.1028 123.359 56.1028C127.077 56.1028 130.566 54.6608 132.994 52.1563C133.449 51.701 133.828 51.0938 133.828 50.4108C133.828 49.1965 132.766 48.0581 131.477 48.0581C130.794 48.0581 130.111 48.5135 129.656 48.9688C128.063 50.6385 125.787 51.3974 123.359 51.3974C118.732 51.3974 114.938 48.2099 114.104 43.8081H134.89C134.89 43.8081 134.89 43.8081 134.966 43.8081H135.042C135.118 43.8081 135.194 43.8081 135.194 43.8081H135.27C136.408 43.5045 137.242 42.5179 137.242 41.3795ZM123.359 32.8036C127.532 32.8036 131.021 35.4598 132.235 39.2545H114.483C115.621 35.5357 119.111 32.8036 123.359 32.8036ZM228.354 55.8751C228.126 55.8751 227.975 55.7233 227.975 55.4956V51.6251H227.14C226.913 51.6251 226.761 51.4733 226.761 51.2456C226.761 51.0179 226.913 50.8662 227.14 50.8662H229.644C229.871 50.8662 230.023 51.0179 230.023 51.2456C230.023 51.4733 229.871 51.6251 229.644 51.6251H228.733V55.4956C228.733 55.7233 228.582 55.8751 228.354 55.8751ZM232.83 55.8751C232.602 55.8751 232.527 55.7233 232.451 55.5715L231.389 52.384V55.4956C231.389 55.7233 231.237 55.8751 231.009 55.8751C230.782 55.8751 230.63 55.7233 230.63 55.4956V51.3974C230.63 51.0938 230.933 50.7903 231.237 50.7903C231.464 50.7903 231.692 50.9421 231.768 51.2456L232.83 54.4331L233.892 51.2456C233.968 51.0179 234.196 50.8662 234.423 50.7903C234.727 50.7903 235.03 51.0938 235.03 51.3974V55.4956C235.03 55.7233 234.878 55.8751 234.651 55.8751C234.423 55.8751 234.271 55.7233 234.271 55.4956V52.384L233.664 54.2814L233.209 55.5715C233.133 55.7992 233.058 55.8751 232.83 55.8751Z" fill="#1D4F91"/>
</svg>
