<svg width="26" height="26" viewBox="0 0 26 26" fill="none" xmlns="http://www.w3.org/2000/svg">
<path d="M10.3139 4.98217C11.2376 4.77042 12.1802 4.66454 13.1227 4.66454C13.5522 4.66454 13.9004 4.32427 13.9004 3.90453C13.9004 3.4848 13.5522 3.14453 13.1227 3.14453C12.061 3.14453 10.9993 3.2638 9.9587 3.50233C6.95122 4.19176 4.60296 6.48665 3.8975 9.42578C3.40933 11.4596 3.40933 13.5762 3.8975 15.61C4.60296 18.5492 6.95122 20.8441 9.95871 21.5335C12.0398 22.0106 14.2057 22.0106 16.2868 21.5335C19.2943 20.8441 21.6425 18.5492 22.348 15.61C22.5921 14.5931 22.7141 13.5555 22.7141 12.5179C22.7141 12.0981 22.3659 11.7579 21.9364 11.7579C21.5069 11.7579 21.1587 12.0981 21.1587 12.5179C21.1588 13.439 21.0504 14.3602 20.8337 15.2629C20.2632 17.64 18.364 19.4961 15.9316 20.0537C14.0841 20.4772 12.1614 20.4772 10.3139 20.0537C7.88153 19.4961 5.98231 17.64 5.41175 15.2629C4.97839 13.4574 4.97839 11.5784 5.41175 9.77291C5.98231 7.39582 7.88153 5.53976 10.3139 4.98217Z" fill="#1C5DA1"/>
<path d="M17.7888 3.14453C17.3593 3.14453 17.0111 3.4848 17.0111 3.90453C17.0111 4.32427 17.3593 4.66454 17.7888 4.66454H20.0589L15.1651 9.44716C14.8614 9.74396 14.8614 10.2252 15.1651 10.522C15.4688 10.8188 15.9612 10.8188 16.2649 10.522L21.1587 5.73935V7.95789C21.1587 8.37763 21.5069 8.71789 21.9364 8.71789C22.3659 8.71789 22.7141 8.37763 22.7141 7.95789V3.90453C22.7141 3.4848 22.3659 3.14453 21.9364 3.14453H17.7888Z" fill="#1C5DA1"/>
</svg>
