<svg width="15" height="15" viewBox="0 0 15 15" fill="none" xmlns="http://www.w3.org/2000/svg">
<path d="M9.96482 6.04014C10.2056 6.04014 10.4008 5.84495 10.4008 5.60416C10.4008 5.36338 10.2056 5.16819 9.96482 5.16819L5.31446 5.16819C5.07368 5.16819 4.87849 5.36338 4.87849 5.60417C4.87849 5.84495 5.07368 6.04014 5.31446 6.04014L9.96482 6.04014Z" fill="#085ABB"/>
<path d="M8.22094 7.49337C7.98016 7.49337 7.78497 7.68856 7.78497 7.92934C7.78497 8.17012 7.98016 8.36532 8.22094 8.36532H9.96482C10.2056 8.36532 10.4008 8.17012 10.4008 7.92934C10.4008 7.68856 10.2056 7.49337 9.96482 7.49337H8.22094Z" fill="#085ABB"/>
<path fill-rule="evenodd" clip-rule="evenodd" d="M10.2343 2.33364C9.57035 2.26171 8.73351 2.26171 7.66594 2.26172H7.61334C6.54577 2.26171 5.70894 2.26171 5.04502 2.33364C4.3675 2.40705 3.81853 2.55953 3.34982 2.90007C3.06607 3.10623 2.81653 3.35577 2.61037 3.63952C2.26983 4.10824 2.11734 4.6572 2.04394 5.33472C1.97201 5.99864 1.97201 6.83547 1.97202 7.90304V7.93578C1.97202 8.61011 1.97202 9.18987 1.98909 9.68816C2.0264 10.7772 2.14425 11.5776 2.61037 12.2192C2.81653 12.5029 3.06606 12.7525 3.34982 12.9586C3.99137 13.4247 4.7918 13.5426 5.88083 13.5799C6.37912 13.597 6.95889 13.597 7.63324 13.597H7.66596C8.7335 13.597 9.57036 13.597 10.2343 13.525C10.9118 13.4516 11.4607 13.2992 11.9295 12.9586C12.2132 12.7525 12.4628 12.5029 12.6689 12.2192C13.0095 11.7505 13.1619 11.2015 13.2353 10.524C13.3073 9.86006 13.3073 9.02325 13.3073 7.9557V7.90303C13.3073 6.83549 13.3073 5.99863 13.2353 5.33472C13.1619 4.6572 13.0095 4.10824 12.6689 3.63952C12.4628 3.35577 12.2132 3.10623 11.9295 2.90007C11.4608 2.55953 10.9118 2.40705 10.2343 2.33364ZM3.86234 3.60549C4.15764 3.39094 4.5356 3.26588 5.13894 3.20051C5.75043 3.13426 6.54008 3.13366 7.63964 3.13366C8.7392 3.13366 9.52885 3.13426 10.1403 3.20051C10.7437 3.26588 11.1216 3.39094 11.4169 3.60549C11.6267 3.75787 11.8111 3.94231 11.9635 4.15204C12.178 4.44734 12.3031 4.82531 12.3685 5.42864C12.4347 6.04013 12.4353 6.82978 12.4353 7.92934C12.4353 9.02891 12.4347 9.81856 12.3685 10.43C12.3031 11.0334 12.178 11.4113 11.9635 11.7066C11.8111 11.9164 11.6267 12.1008 11.4169 12.2532C11.1216 12.4678 10.7437 12.5928 10.1403 12.6582C9.52885 12.7244 8.7392 12.725 7.63964 12.725C7.1465 12.725 6.71435 12.725 6.33067 12.7187C6.32813 12.4428 6.31954 12.2397 6.29058 12.0568C6.06405 10.6266 4.94236 9.50493 3.51216 9.27841C3.32928 9.24944 3.12616 9.24086 2.85025 9.23832C2.84399 8.85464 2.84396 8.42249 2.84396 7.92934C2.84396 6.82978 2.84456 6.04013 2.91081 5.42864C2.97617 4.82531 3.10123 4.44734 3.31578 4.15204C3.46816 3.94231 3.6526 3.75787 3.86234 3.60549ZM5.42937 12.1932C5.44825 12.3124 5.45545 12.4504 5.45817 12.6858C4.66741 12.6313 4.21079 12.5064 3.86234 12.2532C3.6526 12.1008 3.46816 11.9164 3.31578 11.7066C3.06261 11.3582 2.93767 10.9016 2.88316 10.1108C3.11855 10.1135 3.25657 10.1207 3.37575 10.1396C4.43286 10.307 5.26194 11.1361 5.42937 12.1932Z" fill="#085ABB"/>
</svg>
