<svg width="224" height="34" viewBox="0 0 224 34" fill="none" xmlns="http://www.w3.org/2000/svg">
<path d="M54.3842 5.69141L76.6666 28.8913L74.3276 31.1185L70.7575 27.4684L67.3105 30.8091C65.7101 32.4177 63.5557 33.2219 61.2782 33.1601C59.0623 33.1601 56.9079 32.2321 55.3075 30.5617C53.7071 28.9532 52.9069 26.7878 52.9685 24.4988C52.9685 22.2716 53.8918 20.1063 55.5537 18.4977L57.8928 16.2706L60.1087 18.6215L57.8312 20.8487C56.7848 21.7767 56.2308 23.0759 56.2308 24.4988C56.2308 25.9217 56.7233 27.2209 57.7081 28.2726C58.6314 29.3244 59.924 29.8811 61.3398 29.8811C62.7555 29.8811 64.0481 29.3862 65.0945 28.3964L68.5415 25.0556L54.3842 10.517V5.69141ZM13.3896 6.37194V28.4582H11.2352V26.1073C10.3119 27.7777 8.52683 28.7057 6.3109 28.7057C2.80235 28.7057 0.0939941 25.798 0.0939941 21.9623C0.0939941 18.1265 2.80235 15.2188 6.3109 15.2188C8.71149 15.2188 10.3119 16.4562 11.2352 18.1265V6.37194H13.3896ZM11.3583 21.9004C11.3583 19.1164 9.51169 17.1367 6.80333 17.1367C4.09497 17.1367 2.30992 19.1164 2.30992 21.9004C2.30992 24.6844 4.09497 26.7878 6.80333 26.7878C9.51169 26.7878 11.3583 24.6844 11.3583 21.9004ZM27.4853 22.6428C27.4853 25.1793 25.8849 26.7878 23.4843 26.7878C21.33 26.7878 20.3451 25.5505 20.3451 23.3233V15.59H18.1907V23.5708C18.1907 26.8497 20.1605 28.8294 23.0535 28.8294C25.0847 28.8294 26.8082 28.087 27.6084 26.4166V28.582H29.8244V15.59H27.67V22.7047H27.4853V22.6428ZM41.5195 15.2188C39.4883 15.2188 37.7648 15.9612 36.9646 17.7553V15.5282H34.8102V28.4582H36.9646V21.3436C36.9646 18.8071 38.565 17.1985 40.9656 17.1985C43.1199 17.1985 44.1048 18.4977 44.1048 20.7868V28.3964H46.2592V20.4775C46.3207 17.1985 44.351 15.2188 41.5195 15.2188Z" fill="#005172"/>
<path d="M74.8215 11.8774C76.4219 13.486 77.2221 15.6513 77.1605 17.9403C77.1605 20.1675 76.2372 22.3329 74.5753 23.9414L74.2675 24.2507L72.0516 21.8998L72.3594 21.5905C73.4058 20.6625 73.9597 19.3633 73.9597 17.9403C73.9597 16.5174 73.4673 15.2182 72.4825 14.1665C71.9285 13.6097 71.3745 13.1148 70.6359 12.8673V9.40279C72.1747 9.83585 73.7135 10.6401 74.8215 11.8774ZM56.5401 2.41189L54.9397 4.02041L57.1556 6.37134L58.756 4.88654C60.3564 3.40175 62.757 3.40175 64.2343 5.01028C65.7116 6.6188 65.7116 9.03159 64.1112 10.5164L62.5108 12.0012L64.7267 14.3521L66.3271 12.8673C69.2201 10.1452 69.2201 5.56707 66.5118 2.65935C63.9265 -0.186498 59.4331 -0.310231 56.5401 2.41189ZM145.054 25.7355C145.916 27.344 147.762 28.7051 150.532 28.7051C153.795 28.7051 155.21 27.0347 155.21 24.8694C155.21 22.3329 153.179 21.5286 150.902 20.9099C148.686 20.2294 147.824 19.8582 147.824 18.6827C147.824 17.631 148.686 17.0123 150.04 17.0123C151.271 17.0123 152.194 17.5691 152.81 18.4971L154.287 17.3835C153.364 16.0844 151.948 15.342 149.978 15.342C147.639 15.342 145.793 16.6411 145.793 18.9302C145.793 21.343 147.639 22.2091 149.732 22.7659C151.948 23.4464 153.056 23.6939 153.056 25.1168C153.056 26.3542 152.01 27.0966 150.348 27.0966C148.501 27.0966 147.393 26.1686 146.593 24.9312L145.054 25.7355ZM160.689 24.4982C160.689 27.5915 162.166 28.7051 164.136 28.7051C165.736 28.7051 166.721 28.0246 167.275 27.4059L166.044 25.983C165.675 26.3542 165.182 26.7254 164.259 26.7254C163.336 26.7254 162.782 26.1686 162.782 24.4982V17.3217H166.413V15.4657H162.782V6.37134H160.627V15.5276H158.657V17.3835H160.627L160.689 24.4982ZM171.768 28.4576H173.923V21.6523C173.923 18.6827 175.4 17.3217 177.247 17.3217C178.108 17.3217 178.662 17.5073 179.032 17.8166L179.893 15.9606C179.339 15.5894 178.601 15.2801 177.677 15.2801C176.2 15.2801 174.723 15.775 173.923 17.6929L174.046 15.4657H171.891V28.4576H171.768ZM192.635 21.0337C192.45 18.8065 191.035 17.0742 188.326 17.0742C185.926 17.0742 184.202 18.6827 183.833 21.0337H192.635ZM188.634 26.8491C190.604 26.8491 191.896 26.1067 192.758 25.1787L194.051 26.4779C192.82 27.7771 191.158 28.7051 188.634 28.7051C184.448 28.7051 181.617 25.7974 181.617 21.9617C181.617 18.1878 184.51 15.2182 188.203 15.2182C192.327 15.2182 194.789 18.3734 194.605 22.7041H183.587C184.141 25.1787 185.864 26.8491 188.634 26.8491ZM209.439 21.0337C209.254 18.8065 207.839 17.0742 205.13 17.0742C202.73 17.0742 201.006 18.6827 200.637 21.0337H209.439ZM205.5 26.8491C207.469 26.8491 208.762 26.1067 209.624 25.1787L210.916 26.4779C209.685 27.7771 208.023 28.7051 205.5 28.7051C201.314 28.7051 198.483 25.7974 198.483 21.9617C198.483 18.1878 201.376 15.2182 205.069 15.2182C209.193 15.2182 211.655 18.3734 211.47 22.7041H200.452C200.945 25.1787 202.607 26.8491 205.5 26.8491ZM217.072 24.4982C217.072 27.5915 218.549 28.7051 220.519 28.7051C222.119 28.7051 223.104 28.0246 223.658 27.4059L222.427 25.983C222.058 26.3542 221.565 26.7254 220.642 26.7254C219.719 26.7254 219.165 26.1686 219.165 24.4982V17.3217H222.796V15.4657H219.165V6.37134H217.01V15.5276H215.04V17.3835H217.01L217.072 24.4982ZM91.3794 15.2182C88.9788 15.2182 87.3784 16.1462 86.4551 17.8166V6.37134H84.3007V28.4576H86.4551V26.1067C87.3784 27.7771 89.1635 28.7051 91.3794 28.7051C94.9495 28.7051 97.5963 25.7974 97.5963 21.9617C97.5963 18.0641 94.9495 15.2182 91.3794 15.2182ZM90.9485 26.7254C88.2402 26.7254 86.3936 24.6838 86.3936 21.8379C86.3936 18.9921 88.2402 17.0742 90.9485 17.0742C93.6569 17.0742 95.4419 19.0539 95.4419 21.8379C95.4419 24.6219 93.5953 26.7254 90.9485 26.7254ZM104.306 17.5691V15.5276H102.09V28.4576H104.244V21.6523C104.244 18.6827 105.721 17.3217 107.568 17.3217C108.43 17.3217 108.984 17.5073 109.353 17.8166L110.215 15.9606C109.661 15.5894 108.922 15.2801 107.999 15.2801C106.583 15.2182 105.167 15.7132 104.306 17.5691ZM118.278 15.2182C115.878 15.2182 114.154 16.1462 113.046 17.7547L114.339 18.9921C115.201 17.8785 116.309 17.1361 118.094 17.1361C119.94 17.1361 121.048 18.0641 121.048 20.6006V20.8481H117.047C114.339 20.8481 112.185 22.0854 112.185 24.8075C112.185 27.5296 114.154 28.767 116.924 28.767C118.894 28.767 120.186 28.2102 121.11 26.9728V28.4576H123.141V20.4769C123.141 16.9505 121.171 15.2182 118.278 15.2182ZM121.171 24.127C121.171 25.7974 119.509 26.911 117.54 26.911C115.508 26.911 114.462 26.1686 114.462 24.6838C114.462 23.0752 115.755 22.5185 117.355 22.5185H121.171V24.127ZM138.714 6.37134V17.8785C137.791 16.2081 136.19 15.2801 133.79 15.2801C130.343 15.2801 127.573 18.1878 127.573 22.0235C127.573 25.8592 130.281 28.767 133.79 28.767C136.006 28.767 137.791 27.839 138.714 26.1686V28.5195H140.868V6.37134H138.714ZM134.159 26.7254C131.451 26.7254 129.666 24.6838 129.666 21.8379C129.666 18.9921 131.451 17.0742 134.159 17.0742C136.867 17.0742 138.714 19.0539 138.714 21.8379C138.776 24.6838 136.929 26.7254 134.159 26.7254ZM173.246 18.8683H173.984V15.4038H173.246V18.8683Z" fill="#3095B4"/>
</svg>
