<svg width="20" height="23" viewBox="0 0 20 23" fill="none" xmlns="http://www.w3.org/2000/svg">
<path d="M10.7153 0.351388L17.9951 2.79388C18.81 3.06598 19.361 3.81454 19.3654 4.65344L19.4118 11.9368C19.4261 14.1449 18.6212 16.2862 17.1471 17.964C16.4692 18.7341 15.6002 19.3955 14.4905 19.987L10.5773 22.0789C10.4547 22.1435 10.32 22.1768 10.1842 22.1779C10.0484 22.1789 9.91255 22.1467 9.79109 22.0832L5.84145 20.0397C4.71961 19.4579 3.84289 18.8061 3.1583 18.0468C1.65993 16.3862 0.827385 14.2546 0.81303 12.0433L0.766628 4.7653C0.762238 3.92532 1.30328 3.17139 2.11375 2.88853L9.36598 0.358917C9.79661 0.206194 10.2769 0.202967 10.7153 0.351388ZM14.1965 8.15951C13.8708 7.84654 13.3463 7.84869 13.025 8.16596L9.33043 11.8077L7.81771 10.3536C7.49197 10.0406 6.9686 10.0438 6.64618 10.3611C6.32486 10.6784 6.32817 11.1882 6.6539 11.5011L8.75515 13.5231C8.91857 13.6801 9.13057 13.7576 9.34258 13.7555C9.55458 13.7543 9.76547 13.6747 9.92668 13.5156L14.2032 9.29956C14.5245 8.98228 14.5212 8.47249 14.1965 8.15951Z" fill="#085ABB"/>
</svg>
