<svg width="37" height="37" viewBox="0 0 37 37" fill="none" xmlns="http://www.w3.org/2000/svg">
<g filter="url(#filter0_d_722_2927)">
<rect x="8.80566" y="5.71875" width="19.7308" height="20.2946" rx="9.86541" fill="#4CD60C"/>
</g>
<g clip-path="url(#clip0_722_2927)">
<path d="M19.0593 13.4503C19.0593 13.2501 18.8845 13.0879 18.669 13.0879C18.4534 13.0879 18.2787 13.2501 18.2787 13.4503V16.3495C18.2787 16.5497 18.4534 16.7119 18.669 16.7119C18.8845 16.7119 19.0593 16.5497 19.0593 16.3495V13.4503Z" fill="white"/>
<path fill-rule="evenodd" clip-rule="evenodd" d="M19.886 10.9121C19.1113 10.5918 18.2266 10.5918 17.452 10.9121C16.9676 11.1123 16.5764 11.4961 16.1725 12.027C15.7699 12.5562 15.3189 13.2814 14.7364 14.2184L14.7151 14.2526C14.1325 15.1896 13.6816 15.9148 13.3894 16.5032C13.0962 17.0935 12.9339 17.5999 12.9893 18.0896C13.0779 18.8727 13.5202 19.5841 14.2063 20.0469C14.6352 20.3363 15.1887 20.459 15.8858 20.5184C16.5807 20.5776 17.4826 20.5776 18.6477 20.5776H18.6903C19.8554 20.5776 20.7572 20.5776 21.4521 20.5184C22.1492 20.459 22.7027 20.3363 23.1317 20.0469C23.8177 19.5841 24.26 18.8727 24.3487 18.0896C24.4041 17.5999 24.2417 17.0935 23.9486 16.5032C23.6564 15.9148 23.2054 15.1895 22.6228 14.2526L22.6015 14.2183C22.019 13.2814 21.5681 12.5562 21.1654 12.027C20.7615 11.4961 20.3704 11.1123 19.886 10.9121ZM17.7694 11.5742C18.342 11.3375 18.9959 11.3375 19.5685 11.5742C19.8564 11.6933 20.1472 11.9449 20.5279 12.4452C20.9075 12.944 21.3408 13.6403 21.9362 14.5979C22.5316 15.5555 22.9643 16.2521 23.2398 16.8068C23.5161 17.3631 23.6053 17.7227 23.5724 18.0138C23.5069 18.5926 23.1799 19.1184 22.6729 19.4605C22.4179 19.6326 22.0378 19.7406 21.3808 19.7966C20.7258 19.8524 19.8598 19.8527 18.669 19.8527C17.4782 19.8527 16.6121 19.8524 15.9571 19.7966C15.3001 19.7406 14.9201 19.6326 14.6651 19.4605C14.158 19.1184 13.8311 18.5926 13.7656 18.0138C13.7326 17.7227 13.8219 17.3631 14.0982 16.8068C14.3736 16.2521 14.8063 15.5555 15.4017 14.5979C15.9971 13.6403 16.4305 12.944 16.81 12.4452C17.1907 11.9449 17.4815 11.6933 17.7694 11.5742Z" fill="white"/>
<path d="M19.1894 17.7991C19.1894 18.066 18.9564 18.2823 18.669 18.2823C18.3816 18.2823 18.1486 18.066 18.1486 17.7991C18.1486 17.5323 18.3816 17.3159 18.669 17.3159C18.9564 17.3159 19.1894 17.5323 19.1894 17.7991Z" fill="white"/>
<path d="M19.0593 13.4503C19.0593 13.2501 18.8845 13.0879 18.669 13.0879C18.4534 13.0879 18.2787 13.2501 18.2787 13.4503V16.3495C18.2787 16.5497 18.4534 16.7119 18.669 16.7119C18.8845 16.7119 19.0593 16.5497 19.0593 16.3495V13.4503Z" stroke="white" stroke-width="0.6"/>
<path fill-rule="evenodd" clip-rule="evenodd" d="M19.886 10.9121C19.1113 10.5918 18.2266 10.5918 17.452 10.9121C16.9676 11.1123 16.5764 11.4961 16.1725 12.027C15.7699 12.5562 15.3189 13.2814 14.7364 14.2184L14.7151 14.2526C14.1325 15.1896 13.6816 15.9148 13.3894 16.5032C13.0962 17.0935 12.9339 17.5999 12.9893 18.0896C13.0779 18.8727 13.5202 19.5841 14.2063 20.0469C14.6352 20.3363 15.1887 20.459 15.8858 20.5184C16.5807 20.5776 17.4826 20.5776 18.6477 20.5776H18.6903C19.8554 20.5776 20.7572 20.5776 21.4521 20.5184C22.1492 20.459 22.7027 20.3363 23.1317 20.0469C23.8177 19.5841 24.26 18.8727 24.3487 18.0896C24.4041 17.5999 24.2417 17.0935 23.9486 16.5032C23.6564 15.9148 23.2054 15.1895 22.6228 14.2526L22.6015 14.2183C22.019 13.2814 21.5681 12.5562 21.1654 12.027C20.7615 11.4961 20.3704 11.1123 19.886 10.9121ZM17.7694 11.5742C18.342 11.3375 18.9959 11.3375 19.5685 11.5742C19.8564 11.6933 20.1472 11.9449 20.5279 12.4452C20.9075 12.944 21.3408 13.6403 21.9362 14.5979C22.5316 15.5555 22.9643 16.2521 23.2398 16.8068C23.5161 17.3631 23.6053 17.7227 23.5724 18.0138C23.5069 18.5926 23.1799 19.1184 22.6729 19.4605C22.4179 19.6326 22.0378 19.7406 21.3808 19.7966C20.7258 19.8524 19.8598 19.8527 18.669 19.8527C17.4782 19.8527 16.6121 19.8524 15.9571 19.7966C15.3001 19.7406 14.9201 19.6326 14.6651 19.4605C14.158 19.1184 13.8311 18.5926 13.7656 18.0138C13.7326 17.7227 13.8219 17.3631 14.0982 16.8068C14.3736 16.2521 14.8063 15.5555 15.4017 14.5979C15.9971 13.6403 16.4305 12.944 16.81 12.4452C17.1907 11.9449 17.4815 11.6933 17.7694 11.5742Z" stroke="white" stroke-width="0.6"/>
<path d="M19.1894 17.7991C19.1894 18.066 18.9564 18.2823 18.669 18.2823C18.3816 18.2823 18.1486 18.066 18.1486 17.7991C18.1486 17.5323 18.3816 17.3159 18.669 17.3159C18.9564 17.3159 19.1894 17.5323 19.1894 17.7991Z" stroke="white" stroke-width="0.6"/>
</g>
<defs>
<filter id="filter0_d_722_2927" x="0.777049" y="0.36634" width="35.7877" height="36.3502" filterUnits="userSpaceOnUse" color-interpolation-filters="sRGB">
<feFlood flood-opacity="0" result="BackgroundImageFix"/>
<feColorMatrix in="SourceAlpha" type="matrix" values="0 0 0 0 0 0 0 0 0 0 0 0 0 0 0 0 0 0 127 0" result="hardAlpha"/>
<feMorphology radius="0.892068" operator="dilate" in="SourceAlpha" result="effect1_dropShadow_722_2927"/>
<feOffset dy="2.67621"/>
<feGaussianBlur stdDeviation="3.56827"/>
<feComposite in2="hardAlpha" operator="out"/>
<feColorMatrix type="matrix" values="0 0 0 0 0.408333 0 0 0 0 0.398125 0 0 0 0 0.398125 0 0 0 0.06 0"/>
<feBlend mode="normal" in2="BackgroundImageFix" result="effect1_dropShadow_722_2927"/>
<feBlend mode="normal" in="SourceGraphic" in2="effect1_dropShadow_722_2927" result="shape"/>
</filter>
<clipPath id="clip0_722_2927">
<rect width="12.489" height="11.5969" fill="white" transform="translate(12.4268 10.0664)"/>
</clipPath>
</defs>
</svg>
