<svg width="40" height="49" viewBox="0 0 40 49" fill="none" xmlns="http://www.w3.org/2000/svg">
<path fill-rule="evenodd" clip-rule="evenodd" d="M26.375 8.5C26.375 4.91015 23.4649 2 19.875 2C16.2851 2 13.375 4.91015 13.375 8.5H26.375Z" stroke="#1380FF" stroke-width="3" stroke-linecap="round" stroke-linejoin="round"/>
<path d="M11.1857 26.9393C10.5999 26.3536 9.65013 26.3536 9.06434 26.9393C8.47855 27.5251 8.47855 28.4749 9.06434 29.0607L11.1857 26.9393ZM16.625 34.5L15.5643 35.5607C16.1501 36.1464 17.0999 36.1464 17.6857 35.5607L16.625 34.5ZM30.6857 22.5607C31.2714 21.9749 31.2714 21.0251 30.6857 20.4393C30.0999 19.8536 29.1501 19.8536 28.5643 20.4393L30.6857 22.5607ZM26.375 6.99913C25.5466 6.99913 24.875 7.67071 24.875 8.49913C24.875 9.32756 25.5466 9.99913 26.375 9.99913V6.99913ZM31.7927 8.49913V9.99913C31.8088 9.99913 31.8249 9.99887 31.8409 9.99836L31.7927 8.49913ZM37.75 14.0696H39.25C39.25 14.0522 39.2497 14.0347 39.2491 14.0172L37.75 14.0696ZM37.75 41.9254L39.2491 41.9769C39.2497 41.9598 39.25 41.9426 39.25 41.9254H37.75ZM31.7927 47.4991L31.8409 45.9999C31.8249 45.9994 31.8088 45.9991 31.7927 45.9991V47.4991ZM7.95725 47.4991V45.9991C7.94118 45.9991 7.92512 45.9994 7.90906 45.9999L7.95725 47.4991ZM2 41.9286H0.5C0.5 41.9461 0.500305 41.9636 0.500916 41.981L2 41.9286ZM2 14.0696L0.500916 14.0172C0.500305 14.0347 0.5 14.0522 0.5 14.0696H2ZM7.95725 8.49913L7.90906 9.99836C7.92512 9.99887 7.94118 9.99913 7.95725 9.99913V8.49913ZM13.375 9.99913C14.2034 9.99913 14.875 9.32756 14.875 8.49913C14.875 7.67071 14.2034 6.99913 13.375 6.99913V9.99913ZM9.06434 29.0607L15.5643 35.5607L17.6857 33.4393L11.1857 26.9393L9.06434 29.0607ZM17.6857 35.5607L30.6857 22.5607L28.5643 20.4393L15.5643 33.4393L17.6857 35.5607ZM26.375 9.99913H31.7927V6.99913H26.375V9.99913ZM31.8409 9.99836C34.1962 9.92266 36.1686 11.767 36.2509 14.122L39.2491 14.0172C39.109 10.0097 35.7525 6.87109 31.7446 6.99991L31.8409 9.99836ZM36.25 14.0696V41.9254H39.25V14.0696H36.25ZM36.2509 41.8738C36.1699 44.2298 34.1971 46.0756 31.8409 45.9999L31.7446 48.9984C35.7541 49.1271 39.1112 45.9861 39.2491 41.9769L36.2509 41.8738ZM31.7927 45.9991H7.95725V48.9991H31.7927V45.9991ZM7.90906 45.9999C5.55382 46.0756 3.58141 44.2312 3.49908 41.8762L0.500916 41.981C0.641013 45.9886 3.99749 49.1272 8.00544 48.9984L7.90906 45.9999ZM3.5 41.9286V14.0696H0.5V41.9286H3.5ZM3.49908 14.122C3.58141 11.767 5.55382 9.92266 7.90906 9.99836L8.00544 6.99991C3.99749 6.87109 0.641013 10.0097 0.500916 14.0172L3.49908 14.122ZM7.95725 9.99913H13.375V6.99913H7.95725V9.99913Z" fill="#1380FF"/>
</svg>
